<svg version="1" xmlns="http://www.w3.org/2000/svg" width="1066.667" height="1066.667" viewBox="0 0 800.000000 800.000000"><path d="M398.6 61.7C396 66 393.1 70.6 392 72 389.5 75.3-.1 743.3.3 743.7c.2.1 88.2.4 195.7.5l195.4.3 21.3-36.5c11.7-20.1 21.3-36.8 21.3-37.3 0-.4-9.7-.7-21.5-.7H391v-56h76.5l21.7-37.3 21.7-37.2-59.4-.3-59.5-.2v-56.7l76.1.1 76.1.1 18.7-32c10.2-17.6 19.6-33.8 20.9-35.9 2.2-3.7 2.4-3.8 3.6-2 1.1 1.6 151.4 264 182.5 318.6l9.6 16.8h9.7c5.4 0 9.8-.2 9.8-.5 0-.2-21.1-37.4-46.8-82.7-25.8-45.3-68.6-120.6-95.2-167.3-26.6-46.8-56.1-98.6-65.6-115.3L574.2 352H620l1.7-2.7c1-1.5 10.9-18.3 22-37.3l20.2-34.5-10.7-.3c-5.9-.1-35.9-.6-66.6-1l-55.9-.7-15.6-27.5-15.7-27.5 99.1-.3 99-.2 21-36.1c11.6-19.8 21.1-36.6 21.3-37.4.3-1.3-13.1-1.5-103.5-1.6-57.1-.1-121.1-.5-142.3-.8l-38.4-.6-25.5-44.8c-14-24.6-25.8-44.7-26.2-44.7-.4 0-2.8 3.5-5.3 7.7zm16.5 45.4c10.9 19.4 19.9 35.6 19.9 36.1 0 .4-9.4.8-21 .8h-21v-35.8c0-32 .3-38.2 1.7-36.8.3.2 9.4 16.3 20.4 35.7zm79.1 140.3c8.7 15.3 15.8 28 15.8 28.2 0 .2-26.3.4-58.5.4H393v-57l42.7.2 42.8.3 15.7 27.9zm58.4 104.4c1.2.8 31.4 54.1 31.4 55.4 0 1-56.9 1-134.8.1l-57.2-.6V351h79.8c43.8 0 80.2.4 80.8.8z"/></svg>