<svg id="Layer_1" data-name="Layer 1" xmlns="http://www.w3.org/2000/svg" viewBox="0 0 360 180"><path d="M43.49,41.56a6.15,6.15,0,0,0-.11,1.15l0,1.25-.09.08h-.53L42.65,44a6.8,6.8,0,0,0-.1-1.13.59.59,0,0,0-.54-.35c-.12,0-.65,0-1.6,0H39.08c0,.17,0,.87,0,2.08v4.26a15.48,15.48,0,0,0,.11,2.33.36.36,0,0,0,.29.28c.09,0,.61,0,1.19.07l.08.08v.5l-.08.07c-.56,0-1.43,0-2.62,0s-2.08,0-2.61,0l-.08-.06v-.51l.09-.08c.57,0,1.19-.05,1.28-.07a.36.36,0,0,0,.29-.28,15.48,15.48,0,0,0,.11-2.33V44.55c0-1.23,0-1.93,0-2.08h-1.5a10.59,10.59,0,0,0-1.78.08.37.37,0,0,0-.18.11,1.29,1.29,0,0,0-.13.48c0,.27-.06.54-.08.82l-.08.08h-.54L32.7,44l0-1.28a7.39,7.39,0,0,0-.1-1.12l.08-.07c.33,0,1.55.07,3.65.07h3.44c1.94,0,3.15,0,3.65-.07Z"/><path d="M58.42,52.07l-.09.07c-.61,0-1,0-2.26,0s-1.69,0-2.27,0l-.09-.06v-.51l.1-.08c.62,0,1-.05,1.07-.07a.38.38,0,0,0,.32-.28,15.48,15.48,0,0,0,.11-2.33V47c-.31,0-1.86,0-3.52,0s-3.67,0-4.16,0v1.8a13.79,13.79,0,0,0,.12,2.33.36.36,0,0,0,.31.28c.09,0,.45,0,1.07.07l.09.08v.5l-.08.07c-.61,0-1,0-2.26,0s-1.7,0-2.27,0l-.09-.06v-.51l.09-.08c.63,0,1-.05,1.08-.07a.38.38,0,0,0,.31-.28,13.79,13.79,0,0,0,.12-2.33v-4A13.79,13.79,0,0,0,46,42.52a.38.38,0,0,0-.31-.28c-.1,0-.45,0-1.08-.07l-.09-.07v-.52l.09-.06c.59,0,1,0,2.27,0s1.7,0,2.26,0l.08.06v.52l-.09.07c-.62,0-1,0-1.07.07a.36.36,0,0,0-.31.28,13.79,13.79,0,0,0-.12,2.33v1.23c.65,0,2.66,0,3.79,0,1.78,0,3.45,0,3.89,0V44.85a15.48,15.48,0,0,0-.11-2.33.38.38,0,0,0-.32-.28c-.09,0-.45,0-1.07-.07l-.1-.07v-.52l.09-.06c.59,0,1,0,2.27,0s1.71,0,2.26,0l.09.06v.52l-.08.07c-.64,0-1,0-1.09.07a.38.38,0,0,0-.31.28,13.79,13.79,0,0,0-.12,2.33v4a13.79,13.79,0,0,0,.12,2.33.38.38,0,0,0,.31.28c.1,0,.45,0,1.08.07l.09.08Z"/><path d="M69.83,49.59a15.35,15.35,0,0,0-.19,2.48l-.08.07-7.22,0c-1.06,0-1.24,0-1.68,0l-.09-.07v-.21l0-.09a3,3,0,0,0,.69-.44,3.1,3.1,0,0,0,.1-1l0-1.68v-3.8a13.79,13.79,0,0,0-.12-2.33.35.35,0,0,0-.29-.28c-.09,0-.43,0-1-.07l-.09-.07v-.52l.09-.06c.58,0,.93,0,2.15,0s4.06,0,7.12,0l.09.06-.11.83c0,.27-.06.49-.08.67l-.06.7-.09.08h-.5l-.09-.07a2.5,2.5,0,0,0-.14-1.16,2.15,2.15,0,0,0-.93-.17c-.56,0-1.61-.06-2-.06s-1.58,0-2.1.05a20.6,20.6,0,0,0-.09,2.19V46.3c.46,0,.83,0,1.11,0H65.4a9.19,9.19,0,0,0,1.7-.11,2,2,0,0,0,.19-1l.08-.08h.54l.09.08c0,.56,0,1.07,0,1.54s0,1,0,1.65l-.09.07h-.58l-.09-.07a2,2,0,0,0-.14-1,7.55,7.55,0,0,0-1.64-.21c-.35,0-.73,0-1.13,0s-.81,0-1.18,0v2.17c0,.66,0,1.29,0,1.91h1.75a22.77,22.77,0,0,0,3.67-.18.27.27,0,0,0,.14-.08,1.15,1.15,0,0,0,.16-.45l.21-.93.09-.08h.53Z"/><path d="M87,50.78l-.42.76a10,10,0,0,1-4.24.87c-3.13,0-5.28-.94-6.43-2.82a5.34,5.34,0,0,1-.8-2.83,4.65,4.65,0,0,1,2-3.92,8.93,8.93,0,0,1,5.47-1.51,14.32,14.32,0,0,1,4.31.67l.12.11a10.33,10.33,0,0,0-.38,2.43l-.08.07H86l-.09-.08a8.59,8.59,0,0,0-.1-1.26A6.16,6.16,0,0,0,82,42.21a4.82,4.82,0,0,0-3.42,1.16,4.06,4.06,0,0,0-1.25,3.13,4.59,4.59,0,0,0,2.22,4.11,5.71,5.71,0,0,0,3.15.77,11.12,11.12,0,0,0,4.08-.78Z"/><path d="M93.85,52.07l-.08.07c-.58,0-1.48,0-2.69,0s-2.1,0-2.68,0l-.08-.07v-.5l.09-.08c.59,0,1.11-.05,1.2-.07a.34.34,0,0,0,.29-.28A13.79,13.79,0,0,0,90,48.81v-4a13.79,13.79,0,0,0-.12-2.33.34.34,0,0,0-.29-.28c-.09,0-.61,0-1.2-.07l-.09-.07v-.52l.09-.06c.56,0,1.45,0,2.68,0s2.11,0,2.67,0l.09.06v.52l-.09.07c-.59,0-1.11,0-1.2.07a.36.36,0,0,0-.3.28,15.48,15.48,0,0,0-.11,2.33v4a15.48,15.48,0,0,0,.11,2.33.36.36,0,0,0,.3.28c.09,0,.61,0,1.2.07l.09.08Z"/><path d="M105,41.56a7.11,7.11,0,0,0-.12,1.15V44l-.09.08h-.55L104.1,44a6.8,6.8,0,0,0-.1-1.13c-.07-.2-.25-.31-.56-.35a9.34,9.34,0,0,0-1.07,0h-1.32c0,.17,0,.87,0,2.08v4.26a15.48,15.48,0,0,0,.11,2.33.36.36,0,0,0,.3.28c.09,0,.58,0,1.17.07l.09.08v.5l-.09.07c-.57,0-1.47,0-2.68,0s-2.13,0-2.68,0l-.08-.06v-.51l.09-.08c.59,0,1.09-.05,1.18-.07a.36.36,0,0,0,.3-.28,15.48,15.48,0,0,0,.11-2.33V44.55c0-1.23,0-1.93,0-2.08h-1.4a11,11,0,0,0-1.82.08.41.41,0,0,0-.19.11,1.29,1.29,0,0,0-.13.48,7.34,7.34,0,0,0-.08.82l-.09.08h-.54l-.1-.08,0-1.28a7.39,7.39,0,0,0-.1-1.12l.08-.07c.34,0,1.59.07,3.74.07h3.52c2,0,2.67,0,3.18-.07Z"/><path d="M117.16,41.86c-.91,1.07-1.92,2.39-3,4a7.86,7.86,0,0,0-1,1.69,2,2,0,0,0-.06.56v.74a9.24,9.24,0,0,0,.16,2.45.31.31,0,0,0,.2.13,7.2,7.2,0,0,0,1.07.1l.09.08v.5l-.09.07c-.57,0-1.47,0-2.68,0s-2.13,0-2.68,0l-.07-.06v-.51l.08-.08a7,7,0,0,0,1.07-.1.29.29,0,0,0,.2-.13,8.78,8.78,0,0,0,.16-2.45v-.88a10.25,10.25,0,0,0-1.37-2.28A15.86,15.86,0,0,0,107,42.88a2.24,2.24,0,0,0-.54-.4,2.77,2.77,0,0,0-.66,0l-.09-.08v-.42l.09-.09a15.14,15.14,0,0,0,2.16-.51,3.3,3.3,0,0,1,.81.49,11.77,11.77,0,0,1,2,2.78L112.12,47c.35-.47,1.33-1.91,2.3-3.34l1-1.49.43-.69h1.27l.08.08Z"/><path d="M136.23,46.55a5.36,5.36,0,0,1-1.87,4.34,7.48,7.48,0,0,1-5,1.53A6.94,6.94,0,0,1,124.72,51,5,5,0,0,1,123,47a5,5,0,0,1,3.19-5,9,9,0,0,1,3.57-.63,7.28,7.28,0,0,1,4.73,1.38,4.69,4.69,0,0,1,1.71,3.84m-1.74.39a4.71,4.71,0,0,0-1.25-3.46,5,5,0,0,0-3.69-1.27c-2.13,0-3.55.66-4.25,2a4.85,4.85,0,0,0-.54,2.3A5.23,5.23,0,0,0,126,50.17a4.94,4.94,0,0,0,3.81,1.39c2,0,3.43-.71,4.13-2.11a5.45,5.45,0,0,0,.56-2.51"/><path d="M146.32,41.58l-.11.85c0,.19-.05.44-.08.75l0,.6-.09.08h-.51l-.08-.07a2.87,2.87,0,0,0-.14-1.16,10.53,10.53,0,0,0-3-.23c-.23,0-.61,0-1.12.05-.06.51-.09,1.42-.09,2.74v1.29l1,0,2.2,0a.39.39,0,0,0,.31-.12,2.27,2.27,0,0,0,.16-1l.09-.07h.54l.09.07c0,.56,0,1.08,0,1.54s0,1.06,0,1.66l-.09.07h-.58l-.09-.08a2.9,2.9,0,0,0-.08-.92c-.1-.18-.4-.28-.9-.32-.34,0-1.23,0-1.57,0s-.75,0-1.06,0v1.5a14.27,14.27,0,0,0,.11,2.33.36.36,0,0,0,.29.28l1.25.07.08.08v.5l-.09.07-2.94,0c-.5,0-1.19,0-2.07,0l-.09-.06v-.51l.09-.08c.59,0,.93-.05,1-.07a.36.36,0,0,0,.3-.28,15.58,15.58,0,0,0,.11-2.33v-4a15.58,15.58,0,0,0-.11-2.33.36.36,0,0,0-.3-.28c-.09,0-.43,0-1-.07l-.09-.07v-.52l.09-.06c.56,0,1.45,0,2.68,0l5.86,0Z"/><path d="M89.19,83.39a22.54,22.54,0,0,1-8,17.72,27.69,27.69,0,0,1-9.52,5.33,41,41,0,0,1-14,1.92l-12.83-.18c-3.49-.05-6.38,0-8.66.18l-.36-.31v-.88l.18-.38a12.53,12.53,0,0,0,2.91-1.86,14.35,14.35,0,0,0,.4-4.2l.11-7.06v-16a81.24,81.24,0,0,0-.47-10.89,1.47,1.47,0,0,0-1.24-1.17c-.36-.09-1.78-.19-4.25-.32L33.07,65V64l.36-.28c2.57.12,5,.19,7.34.19q8.48,0,15.27-.19c2.25-.07,4.52-.1,6.79-.1a38.35,38.35,0,0,1,14,2.42,18.08,18.08,0,0,1,8.65,6.44,17.9,17.9,0,0,1,3.76,11m-8.65,1.2q0-9-5.26-13.83a15.46,15.46,0,0,0-6.87-3.57,47.88,47.88,0,0,0-11-1c-2.43,0-7.94.14-10.16.42q-.39,3.65-.39,17.6L47,98.42a46.55,46.55,0,0,0,.32,6.3c2.3.3,7.83.46,10.24.46q7.83,0,12.34-1.89a16,16,0,0,0,7.74-7,23,23,0,0,0,2.94-11.75"/><path d="M164.19,98.51q0,5.74-6.14,8.9a17,17,0,0,1-7.81,1.56c-1,0-1.84,0-2.5,0l-6-.11c-2.16,0-3.83,0-5,.14l-.25-.23v-.64l.13-.28a8.17,8.17,0,0,0,2-1.35,11,11,0,0,0,.28-3l.07-5.12V86.71a48.24,48.24,0,0,0-.32-7.09,1.08,1.08,0,0,0-.86-.85c-.26-.06-1.24-.13-3-.22l-.25-.23V76.76l.25-.2q2.25.14,7.73.13c2.33,0,4.42,0,6.29-.11,1.49-.06,2.74-.09,3.77-.09q7,0,9.25,2.9A5.7,5.7,0,0,1,163,82.91a6.62,6.62,0,0,1-2.8,5.43,10.32,10.32,0,0,1-2.78,1.53,30.44,30.44,0,0,1-3.64,1q10.41.42,10.41,7.66m-6.58-15c0-3.37-4.18-4.5-8.05-4.5-1.28,0-4.05.06-4.94.18-.07,1.61-.1,3.08-.1,4.44v6.31c.39,0,2.84,0,4,0,4.47,0,7.29-1.44,8.25-3.21a6.72,6.72,0,0,0,.84-3.27m1.64,15.18c0-4.57-5.45-6.3-10.75-6.3-.68,0-3.12,0-4,.07V103c0,1.14,0,2.26.1,3.36.69.11,3.34.15,4.58.16,3.58,0,7-1.23,8.26-2.57a7.45,7.45,0,0,0,1.79-5.31"/><path d="M251.45,91.93A17.74,17.74,0,0,1,249,101.3a16,16,0,0,1-7.25,6.35c-3.15,1.46-4.69,2.19-9.07,2.19-.55,0-1.12,0-1.69,0a67.33,67.33,0,0,1,8.24,2.13l4.17,1.26a16.59,16.59,0,0,0,4.79,1,11.27,11.27,0,0,0,3.62-1.05l.26.2v1.24l-.21.32c-3.26,1.68-4.09,2-4.84,2.12-1.65.36-3.88-.66-9-2s-7.26-2.23-8.74-2.23c-.86,0-2.21.63-4.71,2l-.4-.12-.43-1,.11-.34a22.47,22.47,0,0,1,2.57-1.63,16.84,16.84,0,0,1,3.67-1.9c-5.15-.3-10.62-1.29-14.51-4.71-3.26-2.87-4.77-6.9-4.77-11.83q0-8,5.49-12.56T231.65,76q12,0,17.18,7a14.72,14.72,0,0,1,2.62,9M246,93.12a16.59,16.59,0,0,0-3.67-10.54C240.25,80,235,78.12,231,78.12c-5.3,0-11.05,2.6-12.78,6.67a17.75,17.75,0,0,0-1.34,7A18.41,18.41,0,0,0,220.45,103c2.11,2.82,6.93,4.79,11.12,4.79,5.09,0,11.3-2.7,13-7A20.07,20.07,0,0,0,246,93.12"/><path d="M294.73,78.32l-.27.23c-2.1,0-3.85.48-4.11,1.44a20.42,20.42,0,0,0-.32,3.47C290,84.79,290,86.7,290,89.2v7q0,6.8-3.13,9.7-4.15,3.84-11.83,3.84-7,0-10.93-2a8.2,8.2,0,0,1-4.34-4.8q-.64-2-.64-10.39v-5.9a44.12,44.12,0,0,0-.35-7.09,1.09,1.09,0,0,0-.91-.85c-.27-.06-1.87-.13-3.69-.22l-.26-.23V76.79l.26-.23c1.72.09,2.78.13,6.56.13s7.15,0,8.78-.13l.26.23v1.53l-.26.23c-1.82.09-3.43.16-3.69.22a1.09,1.09,0,0,0-.91.85,44.12,44.12,0,0,0-.35,7.09v4.71c0,5.77-.17,9.26.35,10.59,1.54,3.95,5.88,5,10.64,5,3.12,0,6.56-.52,8.79-2.5a9.78,9.78,0,0,0,1.9-2.48,10,10,0,0,0,.75-3,29.94,29.94,0,0,0,.24-3.8V90.46q0-6-.05-8.19a9.28,9.28,0,0,0-.32-2.67,1.53,1.53,0,0,0-.94-.71,27.23,27.23,0,0,0-3.85-.34l-.27-.23V76.79l.27-.23c1.55.09,3.15.13,4.79.13,1.23,0,4.15,0,7.64-.13l.27.23Z"/><path d="M208.6,78.32l-.27.23c-2.11,0-3.85.48-4.12,1.44a20.42,20.42,0,0,0-.32,3.47c0,1.33-.08,3.24-.08,5.74v7q0,6.8-3.13,9.7-4.14,3.84-11.82,3.84-7,0-10.94-2a8.18,8.18,0,0,1-4.33-4.8q-.65-2-.64-10.39v-5.9a44.12,44.12,0,0,0-.35-7.09,1.1,1.1,0,0,0-.91-.85c-.27-.06-1.87-.13-3.69-.22l-.27-.23V76.79l.27-.23c1.71.09,2.78.13,6.56.13s7.15,0,8.77-.13l.27.23v1.53l-.27.23c-1.82.09-3.42.16-3.69.22a1.09,1.09,0,0,0-.91.85,44.12,44.12,0,0,0-.35,7.09v4.71c0,5.77-.17,9.26.35,10.59,1.54,3.95,5.88,5,10.64,5,3.12,0,6.57-.52,8.8-2.5a9.72,9.72,0,0,0,1.89-2.48,10,10,0,0,0,.75-3,29.94,29.94,0,0,0,.24-3.8V90.46c0-4,0-6.72-.05-8.19a8.92,8.92,0,0,0-.32-2.67,1.5,1.5,0,0,0-.94-.71,27,27,0,0,0-3.84-.34l-.27-.23V76.79l.27-.23c1.54.09,3.14.13,4.78.13,1.23,0,4.15,0,7.65-.13l.27.23Z"/><path d="M131.41,78.32l-.27.23c-2.1,0-3.85.48-4.11,1.44a19.38,19.38,0,0,0-.32,3.47c-.06,1.33-.09,3.24-.09,5.74v7q0,6.8-3.12,9.7-4.16,3.84-11.83,3.84-7,0-10.94-2A8.21,8.21,0,0,1,96.4,103q-.65-2-.64-10.39v-5.9a44.12,44.12,0,0,0-.35-7.09,1.09,1.09,0,0,0-.91-.85c-.27-.06-1.87-.13-3.69-.22l-.27-.23V76.79l.27-.23c1.71.09,2.78.13,6.56.13s7.15,0,8.77-.13l.27.23v1.53l-.27.23c-1.82.09-3.42.16-3.68.22a1.08,1.08,0,0,0-.91.85,42.91,42.91,0,0,0-.35,7.09v4.71c0,5.77-.17,9.26.35,10.59,1.54,3.95,5.88,5,10.64,5,3.12,0,6.56-.52,8.79-2.5a9.78,9.78,0,0,0,1.9-2.48,10,10,0,0,0,.75-3,29.94,29.94,0,0,0,.24-3.8V90.46q0-6-.06-8.19a8.59,8.59,0,0,0-.32-2.67,1.48,1.48,0,0,0-.93-.71,27.23,27.23,0,0,0-3.85-.34l-.27-.23V76.79l.27-.23c1.55.09,3.14.13,4.79.13,1.22,0,4.15,0,7.64-.13l.27.23Z"/><path d="M327.27,101.6a39.16,39.16,0,0,0-.59,7.14l-.26.23-18.89-.14c-3.25,0-7.9,0-9.24.14l-.27-.23v-.64l.13-.28c1.32-.71,3.14.12,4.26-1.35a8.7,8.7,0,0,0,.3-3l.08-5.12V86.71a44.12,44.12,0,0,0-.35-7.09,1.09,1.09,0,0,0-.91-.85c-.27-.06-2-.13-3.87-.22l-.27-.23V76.76l.27-.2c1.8.09,5.57.13,9.34.13q5,0,19.12-.13l.29.18-.34,2.54c-.11.81-.19,1.49-.24,2.06l-.19,2.12-.27.25h-1l-.27-.22c0-2.08-.16-3.26-.43-3.55a11.64,11.64,0,0,0-3.43-.5q-2.58-.18-4.53-.18c-1.56,0-6,0-7.54.16a56.83,56.83,0,0,0-.3,6.65v5.3c1.41.07,4.82.11,5.7.11l3.5,0c1.64,0,2.57-.13,2.78-.35s.48-1.3.57-3.08l.26-.23h1.66l.27.23c-.07,1.7-.11,3.27-.11,4.69s0,3.22.11,5l-.27.2h-1.79l-.27-.22c0-1.76-.14-2.8-.43-3.13s-1.15-.54-2.59-.65c-1.09-.07-2.25-.11-3.48-.11s-4.78,0-5.91.11v6.42c0,2,.05,4.52.14,6.39h6.46q7.81,0,9.58-.52a.85.85,0,0,0,.43-.26,3.59,3.59,0,0,0,.51-1.37l.64-3,.27-.25H327Z"/><rect x="33.22" y="118.99" width="294.2" height="5.22"/><path d="M90.64,63.06h68.05s17.63,9.93,48.1,1.77c47-12.59,65.07-.28,65.07-.28H327v2.24H258.81S243.43,57,206,67.06c-35.42,9.52-59.75-1-59.75-1H90.64Z"/><path d="M174.35,58.67c18,4.83,57.41-8.3,58.73-8.85,2.24-.93,2.93.2.93.93C201.9,62.59,177.42,62,172.67,61.19c-18.66-3.29-16.19-20.5-2.24-28,26.15-14,61.39-6.57,73.41.29,25,14.21,20.56,35.93,8,45.72-19.93,15.5-46.71,15.8-64-.42-8.66-8.11-6.85-28.39,19.72-36.36,5.18-1.55,5.59,2.24,1.82,2.66-3.11.35-7,.61-8.39,1.26C177.42,57.56,186.2,74.8,189.17,78c12.31,13.15,42.93,15.1,60.27.84,19.27-15.85,7-34-8.39-41.67-6.43-3.22-43.07-16.78-69.22-3.22-8.94,4.65-12.58,20.7,2.52,24.75"/><path d="M33.28,148.18v-.73a3.63,3.63,0,0,0,1.2-.12,1.13,1.13,0,0,0,.45-.4,14.12,14.12,0,0,0,.74-2.13L37.09,140l1.46-5.19a5.64,5.64,0,0,0,.23-1.21.86.86,0,0,0-.4-.79,4.31,4.31,0,0,0-1.79-.27v-.73c.72.06,1.42.09,2.08.09a17.74,17.74,0,0,0,1.82-.09l3.78,13.69Q45.74,143,50,135.69l2.26-3.92c.82.06,1.43.09,1.85.09s1.14,0,2-.09v.73a4.43,4.43,0,0,0-1.59.17.73.73,0,0,0-.32.37,4,4,0,0,0-.2,1c-.13,1.22-.31,3.35-.55,6.37s-.36,5-.36,5.85c0,.48.09.78.28.91a4.85,4.85,0,0,0,1.78.24v.73q-1.89-.09-3.21-.09t-3,.09v-.73a7.33,7.33,0,0,0,1.7-.14.84.84,0,0,0,.37-.28,2.14,2.14,0,0,0,.19-.79q.09-.81.46-5.77l.4-5.95q-1.05,1.53-2.77,4.4l-4.44,7.51c-.4.7-.77,1.41-1.11,2.14h-.53l-3.74-13.44-2.42,8.78a14.9,14.9,0,0,0-.6,2.78.62.62,0,0,0,.35.64,8.37,8.37,0,0,0,1.68.12v.73q-1.8-.09-2.7-.09c-.65,0-1.5,0-2.54.09"/><path d="M65.35,136.92l.27.18q-1.14,3.93-1.75,7a14.36,14.36,0,0,0-.35,2.3.54.54,0,0,0,.09.33.29.29,0,0,0,.25.12,4.55,4.55,0,0,0,1.72-1.11l.13.52A14.72,14.72,0,0,1,63.32,148a2.2,2.2,0,0,1-1,.31.57.57,0,0,1-.46-.18.93.93,0,0,1-.15-.59,20.29,20.29,0,0,1,.78-3.93l-.09,0a17.55,17.55,0,0,1-3.48,3.85,3.74,3.74,0,0,1-1.82,1,.59.59,0,0,1-.54-.35,3.15,3.15,0,0,1-.29-1.53,15.16,15.16,0,0,1,.68-4.07,11.76,11.76,0,0,1,1.41-3.37,6.23,6.23,0,0,1,2.11-1.62,4.06,4.06,0,0,1,2-.55,5.93,5.93,0,0,1,1,.1,7.81,7.81,0,0,1,1.11.31Zm-1.77,1.52a6.76,6.76,0,0,0-.95-.29,4.32,4.32,0,0,0-.85-.09,4.26,4.26,0,0,0-1.63.31,1.91,1.91,0,0,0-.52.77,17.14,17.14,0,0,0-1.15,3.34,14.85,14.85,0,0,0-.51,3.57,1.06,1.06,0,0,0,.12.59.35.35,0,0,0,.29.18c.32,0,.89-.41,1.74-1.21a10.9,10.9,0,0,0,2-2.51,14.86,14.86,0,0,0,1.48-4.66"/><path d="M67.34,144.7h.6v1.94a3.94,3.94,0,0,0,1.19.67,3.84,3.84,0,0,0,1.31.23,2.51,2.51,0,0,0,1.83-.72A2.4,2.4,0,0,0,73,145a1.56,1.56,0,0,0-.36-1.14,3.09,3.09,0,0,0-1.51-.54,6.75,6.75,0,0,1-2.65-.77,2.17,2.17,0,0,1-.79-1.81,2.86,2.86,0,0,1,.54-1.69,6,6,0,0,1,2-1.59,4.18,4.18,0,0,1,2.12-.58,4.5,4.5,0,0,1,1.13.15,5.44,5.44,0,0,1,1.17.44,18.42,18.42,0,0,0-.42,2.66h-.53c0-.35,0-.63,0-.86a1,1,0,0,0-.24-.77,2.87,2.87,0,0,0-1.91-.62,2.57,2.57,0,0,0-1.81.58,2,2,0,0,0-.64,1.55,1.29,1.29,0,0,0,.52,1.15,6.64,6.64,0,0,0,1.89.56,6.19,6.19,0,0,1,2.21.68,1.91,1.91,0,0,1,.7,1.64A4,4,0,0,1,72.83,147a5.14,5.14,0,0,1-3.52,1.41,4.82,4.82,0,0,1-1.25-.16,6.52,6.52,0,0,1-1.22-.47,22.54,22.54,0,0,0,.5-3.08"/><path d="M82,145.41l.28.44q-3.06,2.57-4.11,2.56a.74.74,0,0,1-.58-.27,1.13,1.13,0,0,1-.23-.74,19.89,19.89,0,0,1,.51-2.92q.7-3.18,1.12-5.45H77l.06-.38a13.58,13.58,0,0,0,2.09-.83c.18-.9.39-2.26.63-4.06a10.57,10.57,0,0,0,1.84-.8l.27.21c-.2.77-.56,2.37-1.11,4.82L82,138a5,5,0,0,0,1.29-.14l.11.11a10.52,10.52,0,0,0-.27,1.14c-.76-.06-1.61-.09-2.54-.1a64.59,64.59,0,0,0-1.32,7.19.72.72,0,0,0,.12.46.37.37,0,0,0,.3.15A6.53,6.53,0,0,0,82,145.41"/><path d="M91.23,145.53l.16.49a13.43,13.43,0,0,1-2.73,1.89,4.84,4.84,0,0,1-2,.5,2.68,2.68,0,0,1-2.08-.79,3.24,3.24,0,0,1-.73-2.28,11.59,11.59,0,0,1,.62-3.48,7.3,7.3,0,0,1,1.43-2.76,9.17,9.17,0,0,1,2.56-1.69,4,4,0,0,1,1.76-.49,2.06,2.06,0,0,1,1.5.52,1.69,1.69,0,0,1,.55,1.31q0,3.12-6.45,4.41a14.24,14.24,0,0,0-.23,2.05,2.09,2.09,0,0,0,.53,1.49,1.75,1.75,0,0,0,1.34.57,3.89,3.89,0,0,0,1.44-.34,13.69,13.69,0,0,0,2.36-1.4m-5.34-2.93a7.33,7.33,0,0,0,3.46-1.38,2.75,2.75,0,0,0,1.09-2.08,1.3,1.3,0,0,0-.28-.92,1.06,1.06,0,0,0-.8-.3,2.66,2.66,0,0,0-1.42.42,3.1,3.1,0,0,0-1.1,1.28,12.31,12.31,0,0,0-1,3"/><path d="M93.66,139.66l-.27-.41a27.08,27.08,0,0,1,3-2,2.24,2.24,0,0,1,1-.3.41.41,0,0,1,.32.13.62.62,0,0,1,.12.42,5.61,5.61,0,0,1-.12,1L96.92,142a22.16,22.16,0,0,1,3.09-4.34,2,2,0,0,1,1.31-.71,1.91,1.91,0,0,1,.63.13,19,19,0,0,0-.4,2.5l-.35.08a.89.89,0,0,0-.74-.44,1.72,1.72,0,0,0-1,.37,6.21,6.21,0,0,0-1.69,2,11.86,11.86,0,0,0-1.2,3q-.1.38-.75,3.51a16.05,16.05,0,0,0-1.62.41l-.19-.17a56.59,56.59,0,0,0,1.38-5.77,29.21,29.21,0,0,0,.53-3.5c0-.31-.1-.47-.3-.47a6.3,6.3,0,0,0-2,1.16"/><path d="M102,139.52l-.28-.46a29.57,29.57,0,0,1,3-1.85,2.48,2.48,0,0,1,1-.29.5.5,0,0,1,.4.18.67.67,0,0,1,.16.49,37.15,37.15,0,0,1-.69,3.67,12,12,0,0,1,1.9-2.43,7.64,7.64,0,0,1,2.11-1.39,4.85,4.85,0,0,1,1.84-.52.92.92,0,0,1,.84.49,3.68,3.68,0,0,1,.49,2,10.33,10.33,0,0,1-.79,3.86,7.86,7.86,0,0,1-1.67,2.8,13.16,13.16,0,0,1-2.16,1.59,4.63,4.63,0,0,1-2.27.77,5,5,0,0,1-1.48-.29q-.78,3.76-1.08,6.25a9.93,9.93,0,0,0-1.72.33l-.16-.13c.78-3.27,1.59-7.36,2.46-12.26a28.88,28.88,0,0,0,.48-3.43.58.58,0,0,0-.11-.37.36.36,0,0,0-.28-.12,6.13,6.13,0,0,0-2,1.13m2.57,7.25a4,4,0,0,0,2.11.65,2.67,2.67,0,0,0,1.81-.71,7.83,7.83,0,0,0,1.64-3,12.19,12.19,0,0,0,.83-4.17,1.79,1.79,0,0,0-.21-1,.72.72,0,0,0-.64-.28,3.8,3.8,0,0,0-2.32,1.07,7.79,7.79,0,0,0-2.11,3,19.39,19.39,0,0,0-1,3.61Z"/><path d="M114.45,139.52l-.23-.46c1.9-1.43,3.15-2.14,3.74-2.14a.54.54,0,0,1,.43.16.61.61,0,0,1,.15.45,13.1,13.1,0,0,1-.53,2.72,38.64,38.64,0,0,0-1.35,6.17c0,.27.11.4.35.4a5,5,0,0,0,1.86-1l.23.46a22,22,0,0,1-2.72,1.93,1.64,1.64,0,0,1-.82.25.66.66,0,0,1-.54-.28,1.22,1.22,0,0,1-.22-.79,14.65,14.65,0,0,1,.61-3,34.26,34.26,0,0,0,1.21-5.37c0-.29-.12-.43-.34-.43a5.42,5.42,0,0,0-1.83,1m2.87-6.63a1.46,1.46,0,0,1,.42-1,1.23,1.23,0,0,1,.92-.45.83.83,0,0,1,.64.25,1.05,1.05,0,0,1,.23.72,1.57,1.57,0,0,1-.39,1.09,1.16,1.16,0,0,1-.88.44.89.89,0,0,1-.67-.27,1,1,0,0,1-.27-.75"/><path d="M128,145.53l.17.49a13.43,13.43,0,0,1-2.73,1.89,4.91,4.91,0,0,1-2,.5,2.67,2.67,0,0,1-2.08-.79,3.24,3.24,0,0,1-.74-2.28,11.32,11.32,0,0,1,.63-3.48,7.16,7.16,0,0,1,1.43-2.76,9.09,9.09,0,0,1,2.55-1.69,4,4,0,0,1,1.77-.49,2.07,2.07,0,0,1,1.5.52,1.69,1.69,0,0,1,.55,1.31q0,3.12-6.45,4.41a12.91,12.91,0,0,0-.23,2.05,2,2,0,0,0,.53,1.49,1.72,1.72,0,0,0,1.33.57,3.9,3.9,0,0,0,1.45-.34,13.7,13.7,0,0,0,2.35-1.4m-5.33-2.93a7.33,7.33,0,0,0,3.45-1.38,2.73,2.73,0,0,0,1.1-2.08,1.3,1.3,0,0,0-.29-.92,1,1,0,0,0-.8-.3,2.63,2.63,0,0,0-1.41.42,3.19,3.19,0,0,0-1.11,1.28,12.35,12.35,0,0,0-.94,3"/><path d="M138.21,140.45h-.56c0-.6,0-1,0-1.32a.78.78,0,0,0-.4-.69,3.51,3.51,0,0,0-3.46.16,5.12,5.12,0,0,0-1.31,2.33,11.43,11.43,0,0,0-.61,3.75,2.73,2.73,0,0,0,.56,1.84,1.83,1.83,0,0,0,1.45.64,4.53,4.53,0,0,0,1.64-.35,11.55,11.55,0,0,0,2.25-1.38l.18.49a13.35,13.35,0,0,1-2.83,2,5,5,0,0,1-2.07.51,2.64,2.64,0,0,1-2.13-.89,3.93,3.93,0,0,1-.74-2.55,11,11,0,0,1,.56-3.39,6.26,6.26,0,0,1,1.5-2.6,9.25,9.25,0,0,1,2.77-1.69,4.45,4.45,0,0,1,1.73-.37,3.4,3.4,0,0,1,1,.12,4.46,4.46,0,0,1,1,.49,16.87,16.87,0,0,0-.52,2.92"/><path d="M146.75,145.53l.16.49a13.7,13.7,0,0,1-2.72,1.89,4.92,4.92,0,0,1-2,.5,2.68,2.68,0,0,1-2.08-.79,3.24,3.24,0,0,1-.73-2.28,11.59,11.59,0,0,1,.62-3.48,7.3,7.3,0,0,1,1.43-2.76,9.17,9.17,0,0,1,2.56-1.69,4,4,0,0,1,1.76-.49,2.1,2.1,0,0,1,1.51.52,1.71,1.71,0,0,1,.54,1.31q0,3.12-6.45,4.41a14.24,14.24,0,0,0-.23,2.05,2.09,2.09,0,0,0,.53,1.49,1.75,1.75,0,0,0,1.34.57,3.85,3.85,0,0,0,1.44-.34,13.69,13.69,0,0,0,2.36-1.4m-5.34-2.93a7.33,7.33,0,0,0,3.46-1.38,2.72,2.72,0,0,0,1.09-2.08,1.3,1.3,0,0,0-.28-.92,1.06,1.06,0,0,0-.8-.3,2.69,2.69,0,0,0-1.42.42,3.1,3.1,0,0,0-1.1,1.28,12.31,12.31,0,0,0-1,3"/><path d="M154.52,144.7a8.15,8.15,0,0,1,1.9-5.74,5.64,5.64,0,0,1,4.17-2,3,3,0,0,1,2.35.91,3.68,3.68,0,0,1,.84,2.6,9.37,9.37,0,0,1-.93,4.08,7.1,7.1,0,0,1-2.35,2.93,5.15,5.15,0,0,1-2.87,1,2.92,2.92,0,0,1-2.29-.91,4.12,4.12,0,0,1-.82-2.8m1.8-.17a3.67,3.67,0,0,0,.58,2.31,1.93,1.93,0,0,0,1.6.7,2.62,2.62,0,0,0,2.39-1.72,11.07,11.07,0,0,0,1.09-5,3.69,3.69,0,0,0-.59-2.36,2,2,0,0,0-1.67-.71,2.28,2.28,0,0,0-1.57.6,5.51,5.51,0,0,0-1.25,2.36,12.37,12.37,0,0,0-.58,3.84"/><path d="M165.2,139.56l-.18-.48a26.36,26.36,0,0,1,2.92-1.9,1.9,1.9,0,0,1,.86-.26.53.53,0,0,1,.41.16.7.7,0,0,1,.15.49,4.44,4.44,0,0,1-.08.68l-.9,4a14.89,14.89,0,0,1,2.34-2.88,10.3,10.3,0,0,1,2.57-1.86,5,5,0,0,1,1.91-.58.65.65,0,0,1,.5.2.78.78,0,0,1,.18.55,3.09,3.09,0,0,1-.08.71c-.07.41-.44,2-1.09,4.69a27.62,27.62,0,0,0-.72,3.52.32.32,0,0,0,.36.35,3.16,3.16,0,0,0,1.32-.7l.72-.49.21.47c-1.89,1.46-3.15,2.19-3.77,2.19a.62.62,0,0,1-.52-.23.93.93,0,0,1-.2-.63,22.62,22.62,0,0,1,.76-3.6,29.49,29.49,0,0,0,1.07-5,.53.53,0,0,0-.12-.37.42.42,0,0,0-.32-.14,3.52,3.52,0,0,0-1.89,1,9.94,9.94,0,0,0-2.71,3.29,18.94,18.94,0,0,0-1.51,5.42,13.76,13.76,0,0,0-1.64.35l-.19-.2a60.36,60.36,0,0,0,1.46-6.05,24.29,24.29,0,0,0,.47-3.17.53.53,0,0,0-.1-.36.3.3,0,0,0-.27-.13,5.29,5.29,0,0,0-1.92,1.06"/><path d="M190,145.41l.28.44q-3.08,2.57-4.12,2.56a.71.71,0,0,1-.57-.27,1.08,1.08,0,0,1-.23-.74,20.78,20.78,0,0,1,.5-2.92c.47-2.12.85-3.94,1.12-5.45h-2l.06-.38a13.19,13.19,0,0,0,2.09-.83c.19-.9.4-2.26.64-4.06a10.91,10.91,0,0,0,1.84-.8l.26.21c-.19.77-.56,2.37-1.1,4.82l1.22,0a5.1,5.1,0,0,0,1.29-.14l.1.11c-.1.37-.19.75-.26,1.14-.76-.06-1.61-.09-2.55-.1a66,66,0,0,0-1.31,7.19.72.72,0,0,0,.12.46.34.34,0,0,0,.29.15,6.53,6.53,0,0,0,2.33-1.42"/><path d="M191.61,148.41l-.19-.2q.9-3.12,2.36-10.73.78-4,.78-4.47c0-.32-.11-.51-.33-.58a10.66,10.66,0,0,0-1.64-.06l.06-.49a17.84,17.84,0,0,0,3.87-.92l.24.26q-1.9,8.49-2.26,10.68a18.28,18.28,0,0,1,4-3.89,5.72,5.72,0,0,1,2.75-1.09.69.69,0,0,1,.53.21.85.85,0,0,1,.2.6,4.2,4.2,0,0,1-.1.9q-.21,1.14-1.05,4.47a24.11,24.11,0,0,0-.71,3.43c0,.27.12.41.36.41a.93.93,0,0,0,.39-.1,8.38,8.38,0,0,0,.93-.6l.71-.45.2.43a31,31,0,0,1-2.85,1.94,2,2,0,0,1-.88.25.66.66,0,0,1-.53-.25,1,1,0,0,1-.21-.66,16.35,16.35,0,0,1,.53-2.59,44.83,44.83,0,0,0,1.27-5.86.74.74,0,0,0-.13-.49.47.47,0,0,0-.38-.17,4.24,4.24,0,0,0-2.07,1.07,9.23,9.23,0,0,0-2.74,3.21,18.16,18.16,0,0,0-1.45,5.36,7.14,7.14,0,0,0-1.62.38"/><path d="M211,145.53l.16.49a13.15,13.15,0,0,1-2.72,1.89,4.91,4.91,0,0,1-2,.5,2.67,2.67,0,0,1-2.08-.79,3.24,3.24,0,0,1-.74-2.28,11.32,11.32,0,0,1,.63-3.48,7.16,7.16,0,0,1,1.43-2.76,9.09,9.09,0,0,1,2.55-1.69,4,4,0,0,1,1.77-.49,2.09,2.09,0,0,1,1.5.52,1.72,1.72,0,0,1,.55,1.31q0,3.12-6.45,4.41a12.91,12.91,0,0,0-.23,2.05,2.08,2.08,0,0,0,.52,1.49,1.76,1.76,0,0,0,1.34.57,3.9,3.9,0,0,0,1.45-.34,13.7,13.7,0,0,0,2.35-1.4m-5.33-2.93a7.33,7.33,0,0,0,3.45-1.38,2.72,2.72,0,0,0,1.09-2.08,1.3,1.3,0,0,0-.28-.92,1,1,0,0,0-.8-.3,2.63,2.63,0,0,0-1.41.42,3.19,3.19,0,0,0-1.11,1.28,12.35,12.35,0,0,0-.94,3"/><path d="M217.93,148.18v-.73a3.56,3.56,0,0,0,1.19-.12,1.13,1.13,0,0,0,.45-.4,12.54,12.54,0,0,0,.75-2.13l1.41-4.84,1.47-5.19a5.64,5.64,0,0,0,.23-1.21.88.88,0,0,0-.4-.79,4.35,4.35,0,0,0-1.79-.27v-.73q1.08.09,2.07.09a18.09,18.09,0,0,0,1.83-.09l3.77,13.69q1.49-2.46,5.77-9.77l2.26-3.92c.81.06,1.43.09,1.84.09s1.14,0,2-.09v.73a4.46,4.46,0,0,0-1.6.17.84.84,0,0,0-.32.37,3.73,3.73,0,0,0-.19,1c-.13,1.22-.32,3.35-.56,6.37s-.35,5-.35,5.85c0,.48.09.78.27.91a4.93,4.93,0,0,0,1.79.24v.73q-1.91-.09-3.21-.09c-.89,0-1.88,0-3,.09v-.73a7.37,7.37,0,0,0,1.71-.14.87.87,0,0,0,.36-.28,2,2,0,0,0,.19-.79c.06-.54.22-2.46.46-5.77l.4-5.95q-1.05,1.53-2.76,4.4l-4.45,7.51c-.4.7-.76,1.41-1.1,2.14h-.53l-3.75-13.44-2.41,8.78a14.9,14.9,0,0,0-.6,2.78.62.62,0,0,0,.34.64,8.61,8.61,0,0,0,1.69.12v.73q-1.8-.09-2.7-.09c-.65,0-1.5,0-2.54.09"/><path d="M241.41,139.52l-.23-.46c1.89-1.43,3.14-2.14,3.74-2.14a.54.54,0,0,1,.42.16.61.61,0,0,1,.15.45,12.44,12.44,0,0,1-.53,2.72,38.64,38.64,0,0,0-1.35,6.17c0,.27.12.4.36.4a5,5,0,0,0,1.86-1l.23.46a22,22,0,0,1-2.72,1.93,1.67,1.67,0,0,1-.82.25.66.66,0,0,1-.54-.28,1.22,1.22,0,0,1-.22-.79,14.65,14.65,0,0,1,.61-3,33.67,33.67,0,0,0,1.2-5.37c0-.29-.11-.43-.33-.43a5.33,5.33,0,0,0-1.83,1m2.87-6.63a1.46,1.46,0,0,1,.42-1,1.22,1.22,0,0,1,.92-.45.79.79,0,0,1,.63.25,1,1,0,0,1,.24.72,1.57,1.57,0,0,1-.39,1.09,1.17,1.17,0,0,1-.89.44.88.88,0,0,1-.66-.27,1,1,0,0,1-.27-.75"/><path d="M248.07,144.7h.6l0,1.09,0,.85a4,4,0,0,0,2.49.9,2.48,2.48,0,0,0,1.83-.72,2.37,2.37,0,0,0,.73-1.78,1.56,1.56,0,0,0-.36-1.14,3.09,3.09,0,0,0-1.51-.54,6.75,6.75,0,0,1-2.65-.77,2.14,2.14,0,0,1-.79-1.81,2.86,2.86,0,0,1,.54-1.69,6,6,0,0,1,2-1.59,4.15,4.15,0,0,1,2.12-.58,4.43,4.43,0,0,1,1.12.15,5.32,5.32,0,0,1,1.18.44,17.13,17.13,0,0,0-.42,2.66h-.54c0-.35,0-.63,0-.86a1,1,0,0,0-.24-.77,2.85,2.85,0,0,0-1.91-.62,2.59,2.59,0,0,0-1.81.58,2,2,0,0,0-.63,1.55,1.31,1.31,0,0,0,.51,1.15,6.75,6.75,0,0,0,1.9.56,6.26,6.26,0,0,1,2.21.68,1.94,1.94,0,0,1,.7,1.64,4,4,0,0,1-1.57,2.92,5.14,5.14,0,0,1-3.52,1.41,4.82,4.82,0,0,1-1.25-.16,6.89,6.89,0,0,1-1.23-.47,22.44,22.44,0,0,0,.51-3.08"/><path d="M257.25,144.7h.6v1.94a3.94,3.94,0,0,0,1.19.67,3.84,3.84,0,0,0,1.31.23,2.51,2.51,0,0,0,1.83-.72,2.4,2.4,0,0,0,.72-1.78,1.6,1.6,0,0,0-.35-1.14,3.19,3.19,0,0,0-1.52-.54,6.63,6.63,0,0,1-2.64-.77,2.15,2.15,0,0,1-.8-1.81,2.86,2.86,0,0,1,.54-1.69,6,6,0,0,1,2-1.59,4.18,4.18,0,0,1,2.12-.58,4.5,4.5,0,0,1,1.13.15,5.44,5.44,0,0,1,1.17.44,18.42,18.42,0,0,0-.42,2.66h-.53c0-.35,0-.63,0-.86a1,1,0,0,0-.24-.77,2.87,2.87,0,0,0-1.91-.62,2.57,2.57,0,0,0-1.81.58,2,2,0,0,0-.64,1.55,1.29,1.29,0,0,0,.52,1.15,6.64,6.64,0,0,0,1.89.56,6.19,6.19,0,0,1,2.21.68,1.91,1.91,0,0,1,.7,1.64,4,4,0,0,1-1.57,2.92,5.14,5.14,0,0,1-3.52,1.41,4.82,4.82,0,0,1-1.25-.16,6.52,6.52,0,0,1-1.22-.47,21.1,21.1,0,0,0,.5-3.08"/><path d="M266.33,139.52l-.23-.46c1.9-1.43,3.15-2.14,3.75-2.14a.54.54,0,0,1,.42.16.61.61,0,0,1,.15.45,13.1,13.1,0,0,1-.53,2.72,38.64,38.64,0,0,0-1.35,6.17c0,.27.12.4.36.4a5.06,5.06,0,0,0,1.85-1l.23.46a21.27,21.27,0,0,1-2.72,1.93,1.61,1.61,0,0,1-.82.25.65.65,0,0,1-.53-.28,1.22,1.22,0,0,1-.23-.79,15.4,15.4,0,0,1,.61-3A33,33,0,0,0,268.5,139c0-.29-.11-.43-.34-.43a5.52,5.52,0,0,0-1.83,1m2.88-6.63a1.45,1.45,0,0,1,.41-1,1.25,1.25,0,0,1,.92-.45.8.8,0,0,1,.64.25,1,1,0,0,1,.23.72,1.57,1.57,0,0,1-.39,1.09,1.15,1.15,0,0,1-.88.44.9.9,0,0,1-.67-.27,1,1,0,0,1-.26-.75"/><path d="M273,144.7h.6v1.94a4.06,4.06,0,0,0,1.19.67,3.88,3.88,0,0,0,1.31.23,2.5,2.5,0,0,0,1.83-.72,2.4,2.4,0,0,0,.72-1.78,1.56,1.56,0,0,0-.35-1.14,3.14,3.14,0,0,0-1.52-.54,6.75,6.75,0,0,1-2.64-.77,2.15,2.15,0,0,1-.8-1.81,2.93,2.93,0,0,1,.54-1.69,6.27,6.27,0,0,1,2-1.59,4.21,4.21,0,0,1,2.12-.58,4.45,4.45,0,0,1,1.13.15,5.25,5.25,0,0,1,1.17.44,18.6,18.6,0,0,0-.41,2.66h-.54c0-.35,0-.63,0-.86a1,1,0,0,0-.24-.77,2.87,2.87,0,0,0-1.91-.62,2.59,2.59,0,0,0-1.81.58,2,2,0,0,0-.64,1.55,1.29,1.29,0,0,0,.52,1.15,6.63,6.63,0,0,0,1.9.56,6.11,6.11,0,0,1,2.2.68,1.91,1.91,0,0,1,.7,1.64,4,4,0,0,1-1.57,2.92,5.14,5.14,0,0,1-3.52,1.41,4.82,4.82,0,0,1-1.25-.16,6.52,6.52,0,0,1-1.22-.47,21.1,21.1,0,0,0,.5-3.08"/><path d="M282.18,144.7h.6v1.94a4,4,0,0,0,2.49.9,2.48,2.48,0,0,0,1.83-.72,2.41,2.41,0,0,0,.73-1.78,1.56,1.56,0,0,0-.36-1.14,3.1,3.1,0,0,0-1.52-.54,6.75,6.75,0,0,1-2.64-.77,2.14,2.14,0,0,1-.79-1.81,2.86,2.86,0,0,1,.54-1.69,6,6,0,0,1,2-1.59,4.15,4.15,0,0,1,2.12-.58,4.37,4.37,0,0,1,1.12.15,5.32,5.32,0,0,1,1.18.44,17.13,17.13,0,0,0-.42,2.66h-.54c0-.35,0-.63,0-.86a1,1,0,0,0-.24-.77,2.85,2.85,0,0,0-1.91-.62,2.59,2.59,0,0,0-1.81.58,2,2,0,0,0-.63,1.55,1.31,1.31,0,0,0,.51,1.15,6.87,6.87,0,0,0,1.9.56,6.26,6.26,0,0,1,2.21.68,1.94,1.94,0,0,1,.7,1.64,4,4,0,0,1-1.57,2.92,5.14,5.14,0,0,1-3.52,1.41,4.82,4.82,0,0,1-1.25-.16,6.89,6.89,0,0,1-1.23-.47,22.44,22.44,0,0,0,.51-3.08"/><path d="M291.26,139.52l-.23-.46c1.9-1.43,3.14-2.14,3.74-2.14a.57.57,0,0,1,.43.16.65.65,0,0,1,.14.45,12.44,12.44,0,0,1-.53,2.72,38.64,38.64,0,0,0-1.35,6.17c0,.27.12.4.36.4a5,5,0,0,0,1.86-1l.23.46a22,22,0,0,1-2.72,1.93,1.64,1.64,0,0,1-.82.25.66.66,0,0,1-.54-.28,1.22,1.22,0,0,1-.22-.79,14.65,14.65,0,0,1,.61-3,33.67,33.67,0,0,0,1.2-5.37c0-.29-.11-.43-.33-.43a5.42,5.42,0,0,0-1.83,1m2.87-6.63a1.46,1.46,0,0,1,.42-1,1.22,1.22,0,0,1,.92-.45.83.83,0,0,1,.64.25,1.05,1.05,0,0,1,.23.72,1.57,1.57,0,0,1-.39,1.09,1.16,1.16,0,0,1-.88.44.89.89,0,0,1-.67-.27,1,1,0,0,1-.27-.75"/><path d="M297.15,139.52l-.28-.46a31,31,0,0,1,3-1.85,2.52,2.52,0,0,1,1-.29.51.51,0,0,1,.41.18.72.72,0,0,1,.15.49,37.15,37.15,0,0,1-.69,3.67,12,12,0,0,1,1.91-2.43,7.5,7.5,0,0,1,2.11-1.39,4.76,4.76,0,0,1,1.84-.52.93.93,0,0,1,.84.49,3.77,3.77,0,0,1,.48,2,10.33,10.33,0,0,1-.79,3.86,7.87,7.87,0,0,1-1.66,2.8,13.72,13.72,0,0,1-2.17,1.59,4.6,4.6,0,0,1-2.27.77,5,5,0,0,1-1.47-.29q-.79,3.76-1.09,6.25a10,10,0,0,0-1.71.33l-.16-.13q1.15-4.9,2.45-12.26a29.86,29.86,0,0,0,.49-3.43.58.58,0,0,0-.11-.37.38.38,0,0,0-.29-.12,6.25,6.25,0,0,0-2,1.13m2.56,7.25a4,4,0,0,0,2.11.65,2.69,2.69,0,0,0,1.82-.71,7.85,7.85,0,0,0,1.63-3,12,12,0,0,0,.84-4.17,1.79,1.79,0,0,0-.21-1,.74.74,0,0,0-.65-.28,3.78,3.78,0,0,0-2.31,1.07,7.79,7.79,0,0,0-2.11,3,17.9,17.9,0,0,0-.95,3.61Z"/><path d="M309,139.52l-.28-.46a31,31,0,0,1,3-1.85,2.52,2.52,0,0,1,1-.29.51.51,0,0,1,.41.18.72.72,0,0,1,.16.49c0,.29-.24,1.51-.7,3.67a12,12,0,0,1,1.91-2.43,7.5,7.5,0,0,1,2.11-1.39,4.76,4.76,0,0,1,1.84-.52.93.93,0,0,1,.84.49,3.77,3.77,0,0,1,.49,2,10.35,10.35,0,0,1-.8,3.86,7.87,7.87,0,0,1-1.66,2.8,13.27,13.27,0,0,1-2.17,1.59,4.6,4.6,0,0,1-2.27.77,5,5,0,0,1-1.47-.29c-.53,2.51-.88,4.59-1.09,6.25a10,10,0,0,0-1.71.33l-.16-.13q1.15-4.9,2.45-12.26a29.86,29.86,0,0,0,.49-3.43.58.58,0,0,0-.11-.37.38.38,0,0,0-.29-.12,6.25,6.25,0,0,0-1.95,1.13m2.56,7.25a4,4,0,0,0,2.11.65,2.69,2.69,0,0,0,1.82-.71,7.85,7.85,0,0,0,1.63-3,12,12,0,0,0,.84-4.17,1.79,1.79,0,0,0-.21-1,.74.74,0,0,0-.65-.28,3.78,3.78,0,0,0-2.31,1.07,7.79,7.79,0,0,0-2.11,3,18.45,18.45,0,0,0-1,3.61Z"/><path d="M321.42,139.52l-.24-.46c1.9-1.43,3.15-2.14,3.75-2.14a.54.54,0,0,1,.42.16.61.61,0,0,1,.15.45,13.1,13.1,0,0,1-.53,2.72,38.64,38.64,0,0,0-1.35,6.17c0,.27.12.4.36.4a4.91,4.91,0,0,0,1.85-1l.24.46a21.25,21.25,0,0,1-2.73,1.93,1.61,1.61,0,0,1-.81.25.66.66,0,0,1-.54-.28,1.22,1.22,0,0,1-.23-.79,14.92,14.92,0,0,1,.62-3,33.67,33.67,0,0,0,1.2-5.37c0-.29-.11-.43-.33-.43a5.33,5.33,0,0,0-1.83,1m2.87-6.63a1.49,1.49,0,0,1,.41-1,1.25,1.25,0,0,1,.93-.45.79.79,0,0,1,.63.25,1,1,0,0,1,.24.72,1.61,1.61,0,0,1-.39,1.09,1.18,1.18,0,0,1-.89.44.87.87,0,0,1-.66-.27,1,1,0,0,1-.27-.75"/></svg>