<svg id="Layer_1" data-name="Layer 1" xmlns="http://www.w3.org/2000/svg" viewBox="0 0 360 180"><defs><style>.cls-1{stroke:#231f20;stroke-miterlimit:10;stroke-width:0.25px;}</style></defs><path d="M209.3,117.46v-10c0-.82-.17-1.17-.68-1.5h4.74a6.78,6.78,0,0,1,3.66.82,6.31,6.31,0,0,1,3.09,5.67,7,7,0,0,1-1.24,4,5.87,5.87,0,0,1-1.85,1.62,6.69,6.69,0,0,1-3.66.81h-4.74C209.13,118.62,209.3,118.25,209.3,117.46Zm4.45.41c3,0,4.71-2,4.71-5.41s-1.75-5.42-4.71-5.42h-3v10.83Z"/><path d="M222.29,117.46v-10a1.48,1.48,0,0,0-.68-1.5h2.84c-.51.33-.68.68-.68,1.5v10c0,.79.17,1.16.68,1.47h-2.84A1.45,1.45,0,0,0,222.29,117.46Z"/><path d="M225.65,118,230,107.49a2.59,2.59,0,0,0,.25-.92.84.84,0,0,0-.31-.6h1.94l4.73,11.45a4.16,4.16,0,0,0,.36.76,3,3,0,0,0,.74.75h-2.85a.86.86,0,0,0,.35-.68,2.3,2.3,0,0,0-.2-.75l-1.48-3.68h-4.89l-1.56,3.87a1.68,1.68,0,0,0-.14.62.74.74,0,0,0,.35.62h-2.43A1.89,1.89,0,0,0,225.65,118Zm7.43-5.23-2-5-2,5Z"/><path d="M238.86,117.44l1.11-9.66A5.45,5.45,0,0,0,240,107a1.18,1.18,0,0,0-.54-1h2.26l4.12,9.82,4-9.82h2.23a1.19,1.19,0,0,0-.54,1.13,3.8,3.8,0,0,0,0,.56l1.2,9.6a2.11,2.11,0,0,0,.76,1.67h-2.68a1.21,1.21,0,0,0,.49-1.12,4.87,4.87,0,0,0,0-.6l-1.11-9.12-4.59,11.08L241,108.09l-1.11,9.47a2.17,2.17,0,0,0,0,.36,1.17,1.17,0,0,0,.48,1h-2.31C238.59,118.62,238.76,118.25,238.86,117.44Z"/><path d="M254.44,112.56a6.7,6.7,0,1,1,13.39-.14,6.62,6.62,0,0,1-6.73,6.75,6.44,6.44,0,0,1-6.66-6.28Zm6.7,5.58c3,0,5.08-2.35,5.08-5.74s-2.14-5.57-5.19-5.57-5,2.27-5,5.75C256,115.84,258.13,118.14,261.14,118.14Z"/><path d="M270,117.46v-9.9a1.68,1.68,0,0,0-.68-1.59h2l7.64,9.54v-8c0-.82-.17-1.17-.68-1.5h2.45c-.51.33-.68.68-.68,1.5v11.7L271.1,108v9.47c0,.79.17,1.16.68,1.47h-2.45A1.45,1.45,0,0,0,270,117.46Z"/><path d="M282.84,117.46v-10a1.48,1.48,0,0,0-.68-1.5h4.74a6.83,6.83,0,0,1,3.66.82,6.31,6.31,0,0,1,3.09,5.67,6.92,6.92,0,0,1-1.25,4,5.84,5.84,0,0,1-1.84,1.62,6.74,6.74,0,0,1-3.66.81h-4.74A1.45,1.45,0,0,0,282.84,117.46Zm4.45.41c2.95,0,4.7-2,4.7-5.41s-1.75-5.42-4.7-5.42h-3v10.83Z"/><path d="M297.67,122.14c1.85-.54,2.45-1.3,2.45-3.18V107.47a1.48,1.48,0,0,0-.68-1.5h2.84c-.51.33-.68.68-.68,1.5v11.06c0,2.35-.72,3.42-3.06,4.56Z"/><path d="M303.77,112.56a6.7,6.7,0,1,1,13.4-.14,6.62,6.62,0,0,1-6.73,6.75,6.45,6.45,0,0,1-6.67-6.28Zm6.71,5.58c3,0,5.07-2.35,5.07-5.74s-2.13-5.57-5.19-5.57-5,2.27-5,5.75C305.37,115.84,307.47,118.14,310.48,118.14Z"/><path d="M220.12,126.28a2.1,2.1,0,0,0-1.05-.26,1.83,1.83,0,0,0-1.9,2,1.91,1.91,0,0,0,2.06,2,2.19,2.19,0,0,0,1.12-.27l-.14.57a5.41,5.41,0,0,1-1,.09,2.38,2.38,0,1,1,0-4.72,4.38,4.38,0,0,1,.82.08Z"/><path d="M234.17,129.93l1.52-3.69a.87.87,0,0,0,.09-.32.29.29,0,0,0-.11-.21h.68l1.66,4a1.36,1.36,0,0,0,.13.27,1.25,1.25,0,0,0,.26.27h-1c.09-.1.12-.15.12-.24a.81.81,0,0,0-.07-.27l-.52-1.29h-1.72l-.54,1.36a.52.52,0,0,0,0,.22c0,.08,0,.13.12.22h-.85A.69.69,0,0,0,234.17,129.93Zm2.61-1.84-.71-1.77-.71,1.77Z"/><path d="M252.27,129.46a1.76,1.76,0,0,0,1.36.51c.72,0,1.2-.37,1.2-.95a.69.69,0,0,0-.25-.55,2.57,2.57,0,0,0-.9-.42,4.26,4.26,0,0,1-.83-.37.93.93,0,0,1-.47-.81c0-.78.6-1.24,1.65-1.24a5.07,5.07,0,0,1,.9.09l.07.61a2,2,0,0,0-1.08-.33c-.6,0-1,.29-1,.73a.57.57,0,0,0,.17.42,2.17,2.17,0,0,0,.91.47,2.8,2.8,0,0,1,1,.47,1.07,1.07,0,0,1,.37.85c0,.88-.7,1.41-1.87,1.41a4.31,4.31,0,0,1-1.07-.14l-.07,0Z"/><path d="M271.24,129.75v-3.51a.52.52,0,0,0-.24-.53h1a.52.52,0,0,0-.24.53v3.51c0,.28.06.41.24.52h-1C271.18,130.16,271.24,130,271.24,129.75Z"/><path d="M287.41,129.75v-3.48a.59.59,0,0,0-.24-.56h.7l2.68,3.35v-2.82a.52.52,0,0,0-.24-.53h.86a.53.53,0,0,0-.23.53v4.11l-3.15-3.93v3.33c0,.28.06.41.24.52h-.86C287.35,130.16,287.41,130,287.41,129.75Z"/><path d="M304.5,128a2.28,2.28,0,0,1,2.32-2.4,2.36,2.36,0,1,1,0,4.72,2.25,2.25,0,0,1-2.34-2.21Zm2.35,2a2,2,0,0,0,0-4,2,2,0,0,0,0,4Z"/><path d="M335,124.6v6.64l6.39-6.4v-6.62Z"/><path d="M341.88,117.67H355l-6.56-6.55Z"/><path d="M341.65,118v6.52l6.52-6.52Z"/><path d="M321.82,111.36l6.07,6.08v-6.08Z"/><polygon points="338.14 107.61 341.34 110.81 341.34 98.14 328.44 111.04 334.71 111.04 338.14 107.61"/><polygon points="335.16 111.04 341.12 111.04 338.14 108.06 335.16 111.04"/><polygon points="334.69 117.99 328.47 117.99 334.79 124.31 337.9 121.2 334.69 117.99"/><polygon points="335.16 118 338.14 120.98 341.12 118 335.16 118"/><polygon points="344.82 114.29 348.21 110.89 341.66 104.33 341.66 111.13 344.82 114.29"/><polygon points="341.63 111.55 341.63 117.51 344.61 114.53 341.63 111.55"/><polygon points="331.24 114.52 334.4 111.36 328.2 111.36 328.2 117.67 334.4 117.67 331.24 114.52"/><polygon points="331.69 114.52 334.63 117.45 334.63 111.59 331.69 114.52"/><rect x="224.83" y="99.03" width="90.59" height="0.64"/><path d="M26.1,104.66a28.73,28.73,0,0,1,15.48,4.43c13.49-1,24.82-7.09,30.53-16.77l-3.25,16.91H79.71A33.44,33.44,0,0,1,92.8,105l2.49-13h.43l5.21,12.74a28.62,28.62,0,0,1,13.88,4.47H145l3.17-6.79H166l.28,2.35c1-.08,2-.13,3.06-.13a35.06,35.06,0,0,1,18.13,4.57h3.86L178.57,55.67H152.78l-27.65,45.66L123.68,99l-4.46-7.19a11.59,11.59,0,0,0-3.35-3.2l.08-.43c9.26-2.42,13.71-5.83,15.27-13.94,2.6-13.51-8.84-18.63-23.51-18.63H79.16L75.75,73.35C73.4,60.83,60,55.61,42.28,55.61H18.21L8,108.58C11.46,106.76,17.31,104.66,26.1,104.66Zm132.79-24,3.23-7.4h.79c0,.69.21,4.14.21,4.14s.39,5.35.39,5.4l.71,6.86h-9.45ZM99.47,70.26h1.81c4,0,7.49.5,6.7,4.62s-4.74,4.48-8.63,4.48H97.72ZM38.63,72.39h1.46c8.63,0,13.28,3.2,11.83,10.74-1.35,7-8,10-15.81,10H34.64Z"/><path class="cls-1" d="M24.77,118.74c7,0,11.6,2.91,16.46,6,5.15,3.28,10.48,6.67,19.26,6.67,11.48,0,16.23-3.42,20.83-6.73,4.24-3.06,8.25-5.94,17-5.94,6.81,0,11.12,2.87,15.69,5.91,5,3.32,10.16,6.76,19.2,6.76,9.67,0,14.83-3.42,19.82-6.73,4.6-3.06,8.95-5.94,16.34-5.94,9.46,0,18.8,6.44,22,8.88V114.74s-6.92-7.81-22-7.81c-18.08,0-20.91,12.41-36.16,12.41s-16.31-12.41-34.89-12.41c-21.13,0-20.6,12.41-37.79,12.41-14.11,0-18.08-12.41-34.39-12.41-14.89,0-21.1,6.21-21.1,6.21v13.27C7.89,124.17,15.8,118.74,24.77,118.74Z"/><path class="cls-1" d="M169.33,119.8c-7.07,0-11.29,2.8-15.76,5.76-5.12,3.4-10.41,6.91-20.4,6.91-9.36,0-14.66-3.52-19.79-6.94-4.43-2.94-8.61-5.73-15.1-5.73-8.37,0-12.24,2.79-16.34,5.74-4.73,3.41-9.63,6.93-21.45,6.93-9.09,0-14.55-3.47-19.83-6.83-4.72-3-9.18-5.84-15.89-5.84-9.35,0-17.78,6.36-19.77,8v3.95s8.77-8.49,19.77-8.49c14.09,0,17.64,12.68,35.72,12.68,22.78,0,21.09-12.68,37.79-12.68,13.35,0,15.92,12.68,35.42,12.68,19.86,0,21.65-12.68,36.43-12.68,11.44,0,21.19,9.93,21.19,9.93V129C189.11,127.23,179.11,119.8,169.33,119.8Z"/><path d="M21,51.06V44.18h2.32a4.87,4.87,0,0,1,2.22.42,3.19,3.19,0,0,1,1.31,1.24,3.48,3.48,0,0,1,.48,1.79A3.32,3.32,0,0,1,27.08,49a3.24,3.24,0,0,1-.76,1.11,3.31,3.31,0,0,1-1.16.75,4,4,0,0,1-.72.2,10.63,10.63,0,0,1-1.24.05Zm2.22-6H22v5.12h1.27a5,5,0,0,0,1.15-.1,3,3,0,0,0,.68-.25,2.69,2.69,0,0,0,.5-.39,2.52,2.52,0,0,0,.73-1.87,2.37,2.37,0,0,0-.75-1.81,2.51,2.51,0,0,0-.63-.43,3,3,0,0,0-.68-.22A6.6,6.6,0,0,0,23.24,45.06Z"/><path d="M33.42,44.18h1v3.91a5.07,5.07,0,0,1-.11,1.2A2.8,2.8,0,0,1,34,50a2.14,2.14,0,0,1-.42.49,3.15,3.15,0,0,1-2.14.7,3.17,3.17,0,0,1-2.16-.7,2.79,2.79,0,0,1-.42-.49,2.73,2.73,0,0,1-.28-.66,5,5,0,0,1-.11-1.22v-3.9h1v3.91a2.83,2.83,0,0,0,.23,1.35,1.48,1.48,0,0,0,.67.61,2.25,2.25,0,0,0,1.07.23,2.14,2.14,0,0,0,1.43-.46,1.32,1.32,0,0,0,.42-.58,3.44,3.44,0,0,0,.13-1.15Z"/><path d="M38.26,51.07H35.93V44.18h1.8a3.23,3.23,0,0,1,1.34.23,1.73,1.73,0,0,1,.73.63,1.8,1.8,0,0,1,.25.93,1.51,1.51,0,0,1-1,1.46,2.11,2.11,0,0,1,1.2.62,1.6,1.6,0,0,1,.44,1.14,1.73,1.73,0,0,1-.27,1,2,2,0,0,1-.79.67A3,3,0,0,1,38.26,51.07Zm-.5-6h-.85v2.07h.66a1.65,1.65,0,0,0,1.12-.3,1,1,0,0,0,.34-.78C39,45.39,38.6,45.06,37.76,45.06ZM37.84,48h-.93v2.18h1A3.24,3.24,0,0,0,39,50.07a1.12,1.12,0,0,0,.47-.39,1.09,1.09,0,0,0,.17-.58,1,1,0,0,0-.18-.57,1.06,1.06,0,0,0-.53-.39A3.1,3.1,0,0,0,37.84,48Z"/><path d="M46.53,44.18h1v3.91a5.07,5.07,0,0,1-.11,1.2,2.8,2.8,0,0,1-.29.67,2.14,2.14,0,0,1-.42.49,3.65,3.65,0,0,1-4.3,0A2.79,2.79,0,0,1,42,50a2.73,2.73,0,0,1-.28-.66,5,5,0,0,1-.11-1.22v-3.9h1v3.91a2.83,2.83,0,0,0,.23,1.35,1.48,1.48,0,0,0,.67.61,2.25,2.25,0,0,0,1.07.23A2.14,2.14,0,0,0,46,49.82a1.32,1.32,0,0,0,.42-.58,3.44,3.44,0,0,0,.13-1.15Z"/><path d="M55.9,51.51l-1,1a4.3,4.3,0,0,1-1-.17,5.68,5.68,0,0,1-1-.39,10,10,0,0,1-1.39-.84,3.44,3.44,0,0,1-2.07-1.19,3.55,3.55,0,0,1,.23-4.79,4,4,0,0,1,5.32,0,3.31,3.31,0,0,1,1,2.52,3.41,3.41,0,0,1-.79,2.24,3.51,3.51,0,0,1-2.07,1.22l.26.1a5.8,5.8,0,0,0,1.76.47A2.56,2.56,0,0,0,55.9,51.51ZM52.34,45a2.63,2.63,0,0,0-1.92.75,2.53,2.53,0,0,0-.76,1.89,2.44,2.44,0,0,0,.76,1.84,2.62,2.62,0,0,0,1.92.74,2.66,2.66,0,0,0,1.92-.75A2.51,2.51,0,0,0,55,47.63a2.48,2.48,0,0,0-.77-1.87A2.63,2.63,0,0,0,52.34,45Z"/><path d="M62.11,44.18h1v3.91a4.51,4.51,0,0,1-.12,1.2,2.45,2.45,0,0,1-.29.67,2.37,2.37,0,0,1-.41.49,3.17,3.17,0,0,1-2.14.7,3.22,3.22,0,0,1-2.17-.7,2.37,2.37,0,0,1-.41-.49,2.12,2.12,0,0,1-.28-.66,4.52,4.52,0,0,1-.11-1.22v-3.9h1v3.91a2.86,2.86,0,0,0,.22,1.35,1.51,1.51,0,0,0,.68.61,2.23,2.23,0,0,0,1.07.23,2.15,2.15,0,0,0,1.43-.46,1.49,1.49,0,0,0,.42-.58,3.81,3.81,0,0,0,.12-1.15Z"/><path d="M64.62,44.18h3.91v.88H65.61v2.1h2.82V48H65.61v2.14h3v.88h-4Z"/><path d="M72.51,51.07V44.18h1.73a2.48,2.48,0,0,1,1.66.52,1.72,1.72,0,0,1,.61,1.4,1.79,1.79,0,0,1-.3,1,1.86,1.86,0,0,1-.86.66,2.89,2.89,0,0,1,.64.59,11,11,0,0,1,.89,1.31c.24.39.43.68.58.88l.36.49H76.65l-.3-.45-.06-.09-.19-.27-.31-.5-.33-.54a5.5,5.5,0,0,0-.56-.68,2.54,2.54,0,0,0-.46-.36,1.57,1.57,0,0,0-.69-.11H73.5v3Zm1.28-6H73.5v2.17h.37a3,3,0,0,0,1-.12,1,1,0,0,0,.44-.39,1.18,1.18,0,0,0,.15-.59,1.1,1.1,0,0,0-.17-.59.91.91,0,0,0-.49-.37A3.24,3.24,0,0,0,73.79,45Z"/><path d="M81.22,44.14h.69L85,51.07H84l-.92-2H80.13l-.86,2h-1Zm1.45,4-1.11-2.5-1,2.5Z"/><path d="M91.33,49.47v1.09a5.23,5.23,0,0,1-2.51.59,3.87,3.87,0,0,1-2-.46,3.52,3.52,0,0,1-1.74-3,3.36,3.36,0,0,1,1.07-2.53,3.68,3.68,0,0,1,2.65-1,6.17,6.17,0,0,1,2.41.57v1.06A4.72,4.72,0,0,0,88.89,45a2.75,2.75,0,0,0-2,.75,2.63,2.63,0,0,0,0,3.73,2.74,2.74,0,0,0,2,.73A4.42,4.42,0,0,0,91.33,49.47Z"/><path d="M92.64,44.18h1v6.89h-1Z"/><path d="M100.71,44.18h.93v6.89h-.85l-4.6-5.31v5.31h-.93V44.18h.8l4.65,5.35Z"/><path d="M106.88,47.68h2.31V50.6a6.27,6.27,0,0,1-2.52.55,3.73,3.73,0,0,1-2.74-1,3.32,3.32,0,0,1-1-2.46A3.41,3.41,0,0,1,104,45.12a3.65,3.65,0,0,1,2.66-1,4.36,4.36,0,0,1,1.1.13,7.81,7.81,0,0,1,1.32.46v1a4.88,4.88,0,0,0-2.44-.71,2.69,2.69,0,0,0-1.91,4.58,2.79,2.79,0,0,0,2,.74,4.66,4.66,0,0,0,1.41-.27l.1,0V48.55h-1.33Z"/><path d="M115.64,44.14h.69l3.1,6.93h-1l-.92-2h-2.94l-.86,2h-1Zm1.45,4L116,45.65l-1,2.5Z"/><path d="M122,48.18l-.75-.45a3.48,3.48,0,0,1-1-.85,1.67,1.67,0,0,1-.29-1,1.71,1.71,0,0,1,.56-1.32,2.12,2.12,0,0,1,1.47-.51,2.8,2.8,0,0,1,1.58.48V45.7A2.26,2.26,0,0,0,122,45a1.3,1.3,0,0,0-.79.22.68.68,0,0,0-.32.57.89.89,0,0,0,.23.58,3.06,3.06,0,0,0,.74.57l.75.45a2.2,2.2,0,0,1,1.26,1.92,1.74,1.74,0,0,1-.55,1.34,2,2,0,0,1-1.44.52,3,3,0,0,1-1.86-.63V49.27a2.33,2.33,0,0,0,1.85,1,1.12,1.12,0,0,0,.77-.26.81.81,0,0,0,.31-.64C122.92,49,122.61,48.56,122,48.18Z"/><path d="M126.8,48.18l-.75-.45a3.41,3.41,0,0,1-1-.85,1.61,1.61,0,0,1-.3-1,1.71,1.71,0,0,1,.56-1.32,2.12,2.12,0,0,1,1.47-.51,2.81,2.81,0,0,1,1.59.48V45.7a2.3,2.3,0,0,0-1.61-.72,1.32,1.32,0,0,0-.79.22.67.67,0,0,0-.31.57.84.84,0,0,0,.23.58,2.8,2.8,0,0,0,.73.57l.76.45a2.2,2.2,0,0,1,1.26,1.92,1.74,1.74,0,0,1-.56,1.34,2,2,0,0,1-1.44.52,3,3,0,0,1-1.86-.63V49.27a2.33,2.33,0,0,0,1.85,1,1.11,1.11,0,0,0,.77-.26.78.78,0,0,0,.31-.64C127.71,49,127.41,48.56,126.8,48.18Z"/><path d="M133.08,44.08a3.72,3.72,0,0,1,2.66,1,3.36,3.36,0,0,1,1.06,2.54,3.29,3.29,0,0,1-1.07,2.52,3.77,3.77,0,0,1-2.7,1,3.58,3.58,0,0,1-2.6-1,3.34,3.34,0,0,1-1-2.5,3.42,3.42,0,0,1,1.05-2.56A3.67,3.67,0,0,1,133.08,44.08Zm0,.94a2.62,2.62,0,0,0-1.94.74,2.5,2.5,0,0,0-.76,1.89,2.46,2.46,0,0,0,.76,1.85,2.62,2.62,0,0,0,1.91.74,2.67,2.67,0,0,0,1.93-.75,2.55,2.55,0,0,0,.77-1.88,2.46,2.46,0,0,0-.77-1.84A2.63,2.63,0,0,0,133.12,45Z"/><path d="M143.92,49.47v1.09a5.23,5.23,0,0,1-2.51.59,3.87,3.87,0,0,1-2-.46,3.39,3.39,0,0,1-1.27-1.28,3.49,3.49,0,0,1-.47-1.76,3.36,3.36,0,0,1,1.07-2.53,3.68,3.68,0,0,1,2.65-1,6.17,6.17,0,0,1,2.41.57v1.06a4.72,4.72,0,0,0-2.36-.69,2.73,2.73,0,0,0-2,.75,2.63,2.63,0,0,0,0,3.73,2.73,2.73,0,0,0,2,.73A4.42,4.42,0,0,0,143.92,49.47Z"/><path d="M145.23,44.18h1v6.89h-1Z"/><path d="M150,44.14h.69l3.09,6.93h-1l-.92-2H148.9l-.86,2h-1Zm1.45,4-1.12-2.5-1,2.5Z"/><path d="M153.09,44.17h5.76v.88h-2.4v6h-1v-6h-2.37Z"/><path d="M159.75,44.18h1v6.89h-1Z"/><path d="M165.68,44.08a3.73,3.73,0,0,1,2.66,1,3.36,3.36,0,0,1,1.06,2.54,3.29,3.29,0,0,1-1.07,2.52,3.79,3.79,0,0,1-2.7,1,3.58,3.58,0,0,1-2.6-1,3.34,3.34,0,0,1-1-2.5,3.42,3.42,0,0,1,1-2.56A3.64,3.64,0,0,1,165.68,44.08Zm0,.94a2.62,2.62,0,0,0-1.94.74,2.51,2.51,0,0,0-.77,1.89,2.47,2.47,0,0,0,.77,1.85,2.6,2.6,0,0,0,1.91.74,2.67,2.67,0,0,0,1.93-.75,2.55,2.55,0,0,0,.77-1.88,2.46,2.46,0,0,0-.77-1.84A2.63,2.63,0,0,0,165.72,45Z"/><path d="M176.12,44.18h.94v6.89h-.85l-4.61-5.31v5.31h-.93V44.18h.8l4.65,5.35Z"/><path d="M263,71.39v1.25a5.84,5.84,0,0,1-2.88.68,4.38,4.38,0,0,1-2.25-.53,4,4,0,0,1-2-3.49,3.9,3.9,0,0,1,1.24-2.92,4.26,4.26,0,0,1,3-1.18,7.08,7.08,0,0,1,2.78.66v1.22a5.47,5.47,0,0,0-2.72-.8,3.15,3.15,0,0,0-2.26.86,3,3,0,0,0,0,4.3,3.17,3.17,0,0,0,2.27.84A5.12,5.12,0,0,0,263,71.39Z"/><path d="M273.73,65.26h.8l3.55,8h-1.16l-1.05-2.35h-3.39l-1,2.35h-1.16Zm1.67,4.61L274.12,67l-1.19,2.87Z"/><path d="M287.75,69.91l-.87-.52a3.91,3.91,0,0,1-1.15-1,1.84,1.84,0,0,1-.34-1.1,1.92,1.92,0,0,1,.65-1.52,2.41,2.41,0,0,1,1.68-.59,3.24,3.24,0,0,1,1.83.56v1.29a2.64,2.64,0,0,0-1.85-.82,1.53,1.53,0,0,0-.91.25.78.78,0,0,0-.36.66,1,1,0,0,0,.26.67,3.39,3.39,0,0,0,.85.65l.87.51a2.56,2.56,0,0,1,1.45,2.21,2,2,0,0,1-.64,1.55,2.33,2.33,0,0,1-1.66.59,3.5,3.5,0,0,1-2.14-.72V71.16a2.66,2.66,0,0,0,2.13,1.17,1.3,1.3,0,0,0,.88-.3.93.93,0,0,0,.36-.74C288.79,70.8,288.44,70.34,287.75,69.91Z"/><path d="M298,65.31h1.13v7.92H298Z"/><path d="M314,65.31h1.08v7.92h-1l-5.3-6.1v6.1h-1.06V65.31h.92L314,71.46Z"/><path d="M327.47,65.19a4.27,4.27,0,0,1,3.06,1.17,3.85,3.85,0,0,1,1.22,2.91,3.79,3.79,0,0,1-1.23,2.9,4.38,4.38,0,0,1-3.11,1.15,4.13,4.13,0,0,1-3-1.15,3.79,3.79,0,0,1-1.19-2.87,3.9,3.9,0,0,1,1.2-2.94A4.17,4.17,0,0,1,327.47,65.19Zm0,1.08a3.05,3.05,0,0,0-2.23.85,2.89,2.89,0,0,0-.88,2.18,2.84,2.84,0,0,0,.88,2.13,3.26,3.26,0,0,0,4.41,0,2.87,2.87,0,0,0,.89-2.16,2.8,2.8,0,0,0-.89-2.12A3,3,0,0,0,327.51,66.27Z"/><path d="M226.5,86.66a21.49,21.49,0,0,1-8.63-17.59c0-13.32,9-18.82,9-18.82h1.91s-9.05,5.5-9.05,18.82a21.49,21.49,0,0,0,8.63,17.59Z"/><path d="M233.89,77.13s2.63,4.45,2.5,9c-.1,3.45-3.28,7.74-3.28,7.74l17.27-13.53s-5.48,2.23-9.49,1.1C237.45,80.42,233.89,77.13,233.89,77.13Z"/><path d="M252.24,86.56c-2.91,0-4.22,1.78-7,1.78a10.24,10.24,0,0,1-3.13-.63L240,89.41a12.17,12.17,0,0,0,5.3,1.21A11.93,11.93,0,0,0,251,89a36.81,36.81,0,0,0,3.68-2.28A21.57,21.57,0,0,0,252.24,86.56Z"/><path d="M242,54.18a21.44,21.44,0,0,0-14.92-5.36q-9.35,0-15.25,5.62A18.68,18.68,0,0,0,206,68.61,18,18,0,0,0,211.57,82,19.78,19.78,0,0,0,218,86.17a8.85,8.85,0,0,1,2.43-.35c3.78,0,4.76,1.72,8.2,1.78,2.95-.06,4.09-1.33,6.74-1.69v0a14.81,14.81,0,0,0-.72-4.74,9.64,9.64,0,0,1-7.7,3.21q-7.16,0-9.78-6.69a26.12,26.12,0,0,1-1.42-9.45,26.32,26.32,0,0,1,1.39-9.36q2.66-6.78,9.81-6.79a9.61,9.61,0,0,1,8.16,4.07q3,4.07,3,12.08a26.23,26.23,0,0,1-1.42,9.45c-.09.22-.18.44-.27.64a15.77,15.77,0,0,0,4.39,2.22,9.7,9.7,0,0,0,2.81.31,18.19,18.19,0,0,0,4.5-12.5A18.12,18.12,0,0,0,242,54.18Z"/><path d="M234.63,89.08a10.79,10.79,0,0,0,.69-2.43c-2.62.37-3.76,1.63-6.7,1.68-3.44-.06-4.42-1.78-8.2-1.78-3.15,0-5.1,1.79-8.24,1.79-2.76,0-3.73-1.78-7-1.78s-4,.52-4,.52,2.31.65,4.26,1.45,4.17,2.09,6.75,2.09c4.56,0,5.24-1.83,8.38-1.83a7.72,7.72,0,0,1,2.68.49,16.32,16.32,0,0,0,1.92.73,9.35,9.35,0,0,0,3.37.61h.18a9.68,9.68,0,0,0,3.38-.61,19.58,19.58,0,0,0,1.89-.72C234.19,89.21,234.41,89.14,234.63,89.08Z"/></svg>