<svg id="Layer_1" data-name="Layer 1" xmlns="http://www.w3.org/2000/svg" viewBox="0 0 360 180"><polygon points="291.58 135.68 291.58 136.46 292.9 136.46 292.9 140.1 293.83 140.1 293.83 136.46 295.15 136.46 295.15 135.68 291.58 135.68 291.58 135.68"/><path d="M298.63,135.68H300v4.42h-.86v-3c0-.09,0-.2,0-.36v-.35l-.84,3.7h-.91l-.83-3.7v.35c0,.16,0,.27,0,.36v3h-.86v-4.42H297l.81,3.48.8-3.48Z"/><path d="M179.93,135.32h-1.14l-.7,4.37a1.66,1.66,0,0,1-.89,1.24,4.41,4.41,0,0,1-2.11.42,3.71,3.71,0,0,1-2-.42,1.18,1.18,0,0,1-.51-1.24l.7-4.37h-1.14l-.74,4.65a1.68,1.68,0,0,0,.77,1.73,4.68,4.68,0,0,0,2.74.69,5.75,5.75,0,0,0,3-.69,2.47,2.47,0,0,0,1.32-1.73l.74-4.65Z"/><polygon points="189.41 135.32 188.27 135.32 187.37 140.95 183.02 135.32 181.61 135.32 180.51 142.19 181.65 142.19 182.55 136.56 186.89 142.19 188.31 142.19 189.41 135.32 189.41 135.32"/><polygon points="192.27 135.32 191.13 135.32 190.03 142.19 191.17 142.19 192.27 135.32 192.27 135.32"/><polygon points="201.11 135.32 194.18 135.32 193.09 142.19 194.22 142.19 194.71 139.13 198.74 139.13 198.9 138.11 194.88 138.11 195.16 136.34 200.94 136.34 201.11 135.32 201.11 135.32"/><path d="M208.83,136a4.22,4.22,0,0,0-2.86-.93,5.55,5.55,0,0,0-3.17.93,4,4,0,0,0-1.83,2.71,2.8,2.8,0,0,0,.95,2.73,4.27,4.27,0,0,0,2.88.91,5.54,5.54,0,0,0,3.17-.91,4,4,0,0,0,1.82-2.73,2.81,2.81,0,0,0-1-2.71m-1.41,4.59a4.06,4.06,0,0,1-2.45.72,3.22,3.22,0,0,1-2.24-.71,2,2,0,0,1-.58-1.89,2.78,2.78,0,0,1,1.2-1.86,4.09,4.09,0,0,1,2.45-.74,3.19,3.19,0,0,1,2.09.65,2,2,0,0,1,.71,2,2.74,2.74,0,0,1-1.18,1.88"/><path d="M216.79,139.51a2.66,2.66,0,0,0,1.38-.62,2.41,2.41,0,0,0,.73-1.41,1.84,1.84,0,0,0-.37-1.58,2,2,0,0,0-1.6-.58h-5.42l-1.09,6.87h1.13l.42-2.62h3.47l1.44,2.62h1.32l-1.41-2.68Zm-4.66-1,.35-2.2h4c.94,0,1.36.38,1.24,1.14s-.61,1.06-1.49,1.06Z"/><polygon points="230.13 135.32 228.71 135.32 224.75 139.47 222.12 135.32 220.69 135.32 219.6 142.19 220.73 142.19 221.63 136.57 221.66 136.57 224.48 141.05 228.76 136.57 228.79 136.57 227.9 142.19 229.03 142.19 230.13 135.32 230.13 135.32"/><path d="M238.43,136.16a5.75,5.75,0,0,0-3.55-1,5.46,5.46,0,0,0-2.65.56,2.09,2.09,0,0,0-1.15,1.53,1.16,1.16,0,0,0,.58,1.33A6.29,6.29,0,0,0,234,139a16,16,0,0,1,2.32.24c.53.14.76.43.7.87a1.26,1.26,0,0,1-.78.88,4.67,4.67,0,0,1-1.92.33,5.77,5.77,0,0,1-3.32-1l-.75.83a5.63,5.63,0,0,0,3.9,1.16,5.83,5.83,0,0,0,2.87-.6,2.31,2.31,0,0,0,1.24-1.69,1.35,1.35,0,0,0-.41-1.32,3.48,3.48,0,0,0-1.8-.63c-.3,0-.92-.09-1.85-.15a5.19,5.19,0,0,1-1.36-.21c-.38-.14-.55-.36-.5-.67a.94.94,0,0,1,.67-.68,4.54,4.54,0,0,1,1.65-.25,6.17,6.17,0,0,1,3,.78l.81-.77Z"/><path d="M240.72,141.15h-1.47l-.17,1h.78l-.05.35c0,.26-.3.39-.78.4l-.09.56h.22a1.19,1.19,0,0,0,1.35-1l.21-1.3Z"/><polygon points="246.97 135.32 245.83 135.32 244.74 142.19 245.87 142.19 246.97 135.32 246.97 135.32"/><polygon points="256.31 135.32 255.17 135.32 254.27 140.95 249.92 135.32 248.51 135.32 247.41 142.19 248.55 142.19 249.45 136.56 253.79 142.19 255.21 142.19 256.31 135.32 256.31 135.32"/><path d="M262.12,135.1A5.53,5.53,0,0,0,259,136a4,4,0,0,0-1.83,2.71,2.8,2.8,0,0,0,.94,2.74,4.32,4.32,0,0,0,2.88.91,6.26,6.26,0,0,0,2.3-.39,5.43,5.43,0,0,0,1.87-1.25l-.89-.54a4.29,4.29,0,0,1-3,1.13,3.31,3.31,0,0,1-2.29-.71,2,2,0,0,1-.58-1.89,2.73,2.73,0,0,1,1.19-1.85,4.06,4.06,0,0,1,2.44-.74,3.24,3.24,0,0,1,2.74,1.12l1.09-.38a4,4,0,0,0-3.67-1.78"/><polygon points="267.91 141.15 266.44 141.15 266.27 142.19 267.75 142.19 267.91 141.15 267.91 141.15"/><path d="M155.07,25H81L75.51,57.52a15,15,0,0,0-2.72-4.81A15.68,15.68,0,0,0,60.54,47.3c-10.15,0-19.79,8.25-21.5,18.39A16.12,16.12,0,0,0,42.4,79a15.69,15.69,0,0,0,12.25,5.42,1,1,0,0,0,0-2.06A13.68,13.68,0,0,1,44,77.68,14.09,14.09,0,0,1,41.07,66c1.55-9.2,10.28-16.68,19.47-16.68A13.67,13.67,0,0,1,71.22,54a14.06,14.06,0,0,1,2.9,11.65v0L59.77,150.82a1,1,0,0,0,.84,1.19h.17a1,1,0,0,0,1-.86L82.73,27.05h72.34a1,1,0,1,0,0-2.05"/><path d="M256.71,123.42l-3.07,2-1.34.86a10.09,10.09,0,0,1-4.66,1.43h-8a2,2,0,0,1-2-2.45l8.32-50.31a3,3,0,0,1,2.84-2.45l8,0a2,2,0,0,1,2.05,2.43l-6.47,39.75a9.14,9.14,0,0,0-.23,2.45h5.76c.4,0,.92-1.11,1.14-2.45l6.56-39.68a3,3,0,0,1,2.84-2.46l7.78,0a2,2,0,0,1,2.05,2.42L270,125.22a2.94,2.94,0,0,1-2.83,2.42l-8-.07a2,2,0,0,1-2-2.36c.22-1.29,0-2.09-.45-1.79"/><path d="M184.76,79.63a2,2,0,0,1,2,2.44l-7.17,43.34a2,2,0,0,0,2,2.45l8.08,0a3,3,0,0,0,2.83-2.44L200.79,75a2,2,0,0,0-2-2.44H184.27a2,2,0,0,1-2-2.45L185,54a3,3,0,0,1,2.86-2.45h1.58A10,10,0,0,0,194,50.14l10.17-6.76c1.2-.81,1.1-1.46-.25-1.46H189.41a9.11,9.11,0,0,0-4.58,1.56l-10.47,7.68a7.25,7.25,0,0,0-2.54,4l-11.61,70.24a2,2,0,0,0,2,2.45l8.06,0a3,3,0,0,0,2.84-2.44l7.11-43.37a3,3,0,0,1,2.84-2.45Z"/><path d="M159.55,72.43l-7.72,0A3,3,0,0,0,149,74.92l-6.56,39.68c-.22,1.34-.73,2.44-1.14,2.45h-5.76a9.42,9.42,0,0,1,.24-2.45l6.54-39.75a2,2,0,0,0-2.05-2.44H114.53A8.73,8.73,0,0,0,110,74l-7.46,5.83A7.6,7.6,0,0,0,100.05,84l-6.86,41.27a2,2,0,0,0,2,2.44h8.07a3,3,0,0,0,2.85-2.44L113,83.84a3,3,0,0,1,2.85-2.45h4.72A8.11,8.11,0,0,0,125,79.64l4.1-3.56L121,125.22a2,2,0,0,0,2,2.44h8a10.15,10.15,0,0,0,4.66-1.42l1.35-.86,3.07-2c.47-.31.66.5.42,1.79a2,2,0,0,0,2,2.36l8,.07a3,3,0,0,0,2.84-2.42l8.13-50.37a2,2,0,0,0-2.06-2.42"/><path d="M219.82,114.6c-.22,1.34-.73,2.44-1.14,2.45h-5.76a8.5,8.5,0,0,1,.22-2.33s0-.08,0-.12l2.77-16.19a6.84,6.84,0,0,1,1.5-2.81,6,6,0,0,1,1-.92l3.15-1.93c1-.64,1.91-.14,1.68,1.24l-3.42,20.61ZM237,72.43l-18.82,0a8.43,8.43,0,0,0-4.51,1.66l-7,5.59c-.51.41-.76.78-.76,1.07,0,0-.21,1.16-.21,1.26a2,2,0,0,0,2.07,2.11l5.63,0a7,7,0,0,0,2-.36,7.07,7.07,0,0,0,1.68-1l1.1-.86.12-.09a2.11,2.11,0,0,1,.64-.32,4.61,4.61,0,0,1,1-.11h2.87a2,2,0,0,1,2,2.44l-.24,1.47a2,2,0,0,1-2.17,1.53h-3c-.9,0-3.6,1.85-4,2.13l-10.21,7a6,6,0,0,0-1,1,6.75,6.75,0,0,0-1.55,3l-4.26,25.54a2.19,2.19,0,0,0,0,.36,2,2,0,0,0,2.06,1.9h8a10.29,10.29,0,0,0,4.66-1.43l1.33-.86,3.08-2c.47-.29.67.51.45,1.8a2,2,0,0,0,2,2.36l8,.07a3,3,0,0,0,2.84-2.42l8.16-50.36A2,2,0,0,0,237,72.43"/><path d="M155.23,30.76l-82.15,0-4.07,0c-14.19,0-26.18,12.82-26.18,26.29A23.16,23.16,0,0,0,50,73.48a2,2,0,0,0,1.58.61,2.77,2.77,0,0,0,1.39-.45l4.22-3.39a4.06,4.06,0,0,0,.76-1.77c0-.73-.51-1.37-1.2-2.3a15.24,15.24,0,0,1-3-9.06c0-8.44,6.44-15.14,15.5-15.14l2.92,0,9.61,0a2,2,0,0,1,2,2.45L79.55,70A8.57,8.57,0,0,1,79,72.46H69.32a8.43,8.43,0,0,0-4.51,1.66l-7,5.59c-1.14.91-1,1.66.37,1.66H75.29a2,2,0,0,1,2,2.44s-2.56,15.26-4.46,26.85l-7.44,41.5a2,2,0,0,0,2,2.44s12.82-10.56,13-11.9l6.88-41.38h0c1.64-9.79,2.95-17.51,2.95-17.51.22-1.34.86-2.31,1.42-2.44a10.07,10.07,0,0,0,3.11-1.61L102.31,74c1.16-.88,1-1.61-.34-1.61H94.51a2,2,0,0,1-2-2.44l4.22-25.53A3,3,0,0,1,99.53,42h38.94a9.81,9.81,0,0,0,4.63-1.47l12.38-8.32c1.2-.81,1.09-1.47-.25-1.47"/><path d="M320.14,41.92H305.58A9,9,0,0,0,301,43.49l-10.45,7.67a7.25,7.25,0,0,0-2.54,4l-9.09,55.89-7.44,41.5a2,2,0,0,0,2,2.44s12.81-10.56,13-11.9l4.32-26h0l2.44-15.29,2.74-17.12a7.5,7.5,0,0,1,2.5-4.05L308.71,74c1.15-.88,1-1.56-.35-1.55h-7.84a2,2,0,0,1-2-2.38L301.13,54A3,3,0,0,1,304,51.59h1.58a9.93,9.93,0,0,0,4.64-1.45l10.18-6.76c1.21-.8,1.1-1.46-.24-1.46"/></svg>