<svg id="Layer_1" data-name="Layer 1" xmlns="http://www.w3.org/2000/svg" viewBox="0 0 360 180"><path d="M181,26,79.87,55.65v70L180.28,154l99.85-28.9V55.28Zm94,94.78-94.59,27.78-95.34-27V59.6l95.53-27.78,94.4,27.78Z"/><path d="M152.77,77.14a3.75,3.75,0,0,0-3,.83c-1.35,1-3.06,4.06-4.12,7s-1.53,6.32-.7,6.62,2.53-.6,3.94-2.15,2.65-4.47,3.59-7.15S153.13,77.32,152.77,77.14Z"/><path d="M226.53,79.82a22.64,22.64,0,0,0-2.41,5.37c-.76,2.8-1.06,7.45.35,8.11s2.95-1.25,4-3.34a25.29,25.29,0,0,0,1.7-5.37C226.77,82.45,226.53,79.82,226.53,79.82Z"/><path d="M200.87,77.32c-1.15-.48-3.53,2.56-5.3,7.09s-2,8.06-.94,8.35,3.83-2.62,5.53-6.8S201.59,77.61,200.87,77.32Z"/><path d="M230.6,76.36a2.27,2.27,0,0,0-2.24.78s-.35,1,.41,3.1,2.12,2.33,2.12,2.33C231.48,80.78,231.83,76.78,230.6,76.36Z"/><polygon points="272.12 130.25 272.12 130.95 273.37 130.95 273.37 134.22 274.25 134.22 274.25 130.95 275.5 130.95 275.5 130.25 272.12 130.25 272.12 130.25"/><path d="M278.78,130.25H280v4h-.81v-2.68c0-.07,0-.18,0-.32v-.32l-.79,3.32h-.86l-.79-3.32c0,.07,0,.18,0,.32v3H276v-4h1.26l.76,3.12.76-3.12Z"/><path d="M180.84,33.51,87,61.1v59.12l93.28,26.65L273,119.47V60.72Zm-42.6,49.06c-.24,0-1.18.11-1.18.11-.59.84-3.12,8.29-4.42,13.48a18.15,18.15,0,0,0,.59,10c-9.77-4.89-2.12-23.49-2.12-23.49h-8.06s-1.12,3.28-3.24,8.46a35.13,35.13,0,0,1-8.71,12.47c-4.18,3.64-12.66,3.76-16.19-2.21a23.16,23.16,0,0,1-2.83-17.77c1-4.06,2.48-5.43,4.65-6s2.3,1.38,1,2.81c-3.32,3.5-3.6,5.9-3.65,12.23s4.12,10.79,8.77,11.33,7.77-3.88,10.36-9.07a64.08,64.08,0,0,0,4.18-12.4l-3.89-.06-.06-2.09H118c3.54-9.72,7.6-13.66,7.6-13.66-3.47-.12-9.79,3.24-11.2,4.25s-3,2.27-3.77,1.85.12-3.28,2.18-4.23A54.44,54.44,0,0,1,121.52,66c1.35-.24,9.89-2.38,9.89-2.38a67.82,67.82,0,0,0-4.12,7.21,54,54,0,0,0-3.48,9.61l7.89.12s4.42-12.41,8.77-15.75,6.65-2.44,6.65-2.44a26.58,26.58,0,0,0-6.3,9.12,77.88,77.88,0,0,0-3.12,9.07l2.06.18a4.09,4.09,0,0,1-.23,1.67C139.23,82.92,138.47,82.57,138.24,82.57Zm8.43,37a3.24,3.24,0,0,1-2.36-.79v.64h-1.05v-8.22h1.05v3.2a3.47,3.47,0,0,1,2.34-.83,3,3,0,0,1,3.29,3A3,3,0,0,1,146.67,119.54Zm8.11.39a2,2,0,0,1-2,1.43,8.08,8.08,0,0,1-1.28-.14v-1a5.73,5.73,0,0,0,1.1.17c.77,0,1-.45,1.3-1l-2.73-5.72h1.19l2.1,4.58,2.19-4.58h1.17Zm18.65-.54h-2v-3.52h-4.71v3.52h-2v-8.21h2v3.16h4.71v-3.16h2Zm4.69,0h-2v-8.21h2Zm9,0h-6.28v-8.21h2v6.7h4.32Zm7.85-6.71h-2.89v6.71h-2v-6.71h-2.89v-1.5h7.73Zm6.23,7c-3.15,0-4.81-1.8-4.81-4.35,0-2.83,1.92-4.26,4.48-4.37a5.07,5.07,0,0,1,4.24,1.59,4.35,4.35,0,0,1,.84,2.68C205.92,117.82,204.31,119.65,201.17,119.65Zm3.47-32.13c-1.83,4.35-5.95,8.11-8.54,7.93s-2.65-.54-3.35-1.19L189.86,103l-5-.12,3.53-11.51s-4.18,4.3-6.95,4.24a3.35,3.35,0,0,1-3.12-4.24c.36-1.55,3.71-10.5,4.06-11.81s.77-2.74-.88-1.55-3.47,4.06-4.77,7.16S173,95,173,95l-4.53-.06s4.42-14.07,4.71-15.09-.23-2-1.53-1.55S169,80.66,167.84,83a94.16,94.16,0,0,0-4.41,11.75h-5.12l1.12-3.22s-3.59,3.76-6.24,3.82-3.42-1.55-3.42-4.53c0,0-3.53,4.29-6.77,4.29s-3.71-2.15-3.35-5.55,1.65-8.64,5.24-12.46,8.41-3.52,9.24-1.37l.65-1.38h5s-3.41,10.92-4.12,13.07-1.35,4.29.12,4.53,4.75-4.24,5.12-4.95c.59-1.13,4-12.59,4-12.59h4.36a19.26,19.26,0,0,1-.3,3.7s3.24-3,5.07-3.52,4.35-.06,3.76,5.13c0,0,3.59-4.59,6.24-5.31s4.59.6,3.83,3.76-2.83,7.87-3.65,10.14-1.18,5,.71,4a13.21,13.21,0,0,0,5.29-5.73L194,74.81H198l.24,1.79a5.94,5.94,0,0,1,5.3-2.21C207.1,75,206.46,83.16,204.64,87.52Zm12.2,31.87h-1.93L211,114.76c-.4-.5-.57-.71-1-1.29a13.13,13.13,0,0,1,.07,1.4v4.52h-1.86v-8.21h1.95l3.81,4.57c.47.57.55.68,1,1.32a16.71,16.71,0,0,1-.08-1.69v-4.2h1.87Zm51.67-37.3A18.76,18.76,0,0,1,265,93.3c-3.47,5.31-9.18,8.35-13.48,8.11s-6.47-1.85-7.18-5.9.59-7.94,2-11.57,2.3-5.49,1.83-6-1.83.18-3.12,2a49.88,49.88,0,0,0-6.65,15.27H233.6L238,81.91s-2.82,2.56-4.41,2.5c0,0-1.41,7.76-5.65,10s-9.07,1-9.6-4a28.2,28.2,0,0,1-4.65,4.23c-1.82,1.08-5.87,2.74-6.36-1.73-.41-3.75,2.24-9.84,2.42-10.67s1.82-5.85,1.82-5.85h-3.29V74.93l3.7-.06,2.3-7,5.06-.71L217,74.93l4.12.06-.3,1.49H216.7a102,102,0,0,0-4.12,12.71c-.94,4.65,0,4,1.24,3.28a16.26,16.26,0,0,0,4.3-4.42,22.79,22.79,0,0,1,3.65-9.3c2.94-4,6.59-4.42,8.41-4.18a4.85,4.85,0,0,1,3.95,4.65c-.12,2.39-.12,3.11-.12,3.11a6.25,6.25,0,0,0,3-1.85,14.84,14.84,0,0,0,3.18-5.25l4.18.12-.23,3a29.76,29.76,0,0,1,4.53-3.4c1.29-.54,4.24-.6,4.53,1.25s0,3.46-1.88,8.47-4.24,11.28-1.71,13.66,6.42.84,9.18-1.37,7.24-8.53,7.13-12.88-.48-5,.7-5.25S268.62,79.58,268.51,82.09Z"/><path d="M201.06,112.4a2.75,2.75,0,0,0-2.69,2.94,2.81,2.81,0,0,0,.49,1.72,2.49,2.49,0,0,0,2.27,1.13,2.69,2.69,0,0,0,2.8-2.88A2.74,2.74,0,0,0,201.06,112.4Z"/><path d="M146.42,114.44a2.12,2.12,0,0,0-2.19,2.16,2.09,2.09,0,0,0,2.36,2,2,2,0,0,0,2.26-2.06A2.16,2.16,0,0,0,146.42,114.44Z"/></svg>