<svg id="Layer_1" data-name="Layer 1" xmlns="http://www.w3.org/2000/svg" viewBox="0 0 360 180"><defs><style>.cls-1{fill-rule:evenodd;}</style></defs><path d="M33.91,65.89v2.35h.14c1.64-1.89,5.69-2.67,9.94-2.67,3.29,0,7,.45,9.11,1.73s2.19,3.26,2.19,5V82.57H41.72V72.45c0-1,0-2.41-2.94-2.41-3.77,0-4.11,1.53-4.11,2.9v9.63H21.1V65.89Z"/><path d="M69.88,65.89v2.35H70c1.64-1.89,5.69-2.67,9.94-2.67,3.28,0,7.05.45,9.11,1.73s2.19,3.26,2.19,5V82.57H77.69V72.45c0-1,0-2.41-2.94-2.41-3.77,0-4.11,1.53-4.11,2.9v9.63H57.07V65.89Z"/><path d="M130.11,74.38c0,5.06-8.57,8.52-19.26,8.52S91.6,79.44,91.6,74.38c0-5.35,8.29-8.81,19.25-8.81s19.26,3.46,19.26,8.81Zm-24-.23c0,4.47,2.27,4.8,4.73,4.8s4.73-.33,4.73-4.8c0-1.6-.07-4.5-4.73-4.5s-4.73,2.9-4.73,4.5Z"/><polygon points="151.62 82.57 141.34 82.57 128.25 65.89 142.44 65.89 148.47 74.7 149.7 72.94 154.64 65.89 164.44 65.89 151.62 82.57 151.62 82.57"/><path d="M186.29,82.57a5.4,5.4,0,0,1-.48-2.32c-2.75,1.93-6.65,2.65-11.45,2.65-6.51,0-12.2-1.7-12.2-5,0-2.64,4.32-4.4,9.19-5.12a118,118,0,0,1,13.77-1v-.13c0-1.5-.82-2.09-4.11-2.09-2.67,0-4.94.46-5.35,1.86l-12.47-.55c2.06-4.15,10.35-5.22,18.23-5.22,4.11,0,9.39.26,12.81,1.43,4.6,1.54,4.05,3.69,4.05,6.07v5.85a5,5,0,0,0,1.09,3.65Zm-1.17-7.8c-3.29.16-8.77.65-8.77,2.68,0,1.07,1.44,1.53,3.56,1.53,5.14,0,5.21-2.06,5.21-3.88v-.33Z"/><path d="M198.54,70.14V65.89h5.69l1-5.32,11.79-.19v5.51h7v4.25h-6.86v5.74c0,1.21-.27,2.15,2.95,2.15a32.29,32.29,0,0,0,3.91-.29v4.67l-8,.49a19.23,19.23,0,0,1-9.8-1.7c-2.67-1.37-2.61-3-2.61-4.76v-6.3Z"/><path d="M238.9,82.57H225.33V65.89H238.9V82.57Zm0-18.28H225.33V59.86H238.9v4.43Z"/><polygon points="262.94 82.57 252.66 82.57 239.57 65.89 253.76 65.89 259.79 74.7 261.03 72.94 265.96 65.89 275.76 65.89 262.94 82.57 262.94 82.57"/><path d="M311.59,77c-2.13,4.05-9.66,5.91-18,5.91-5.14,0-10.14-.53-14.11-2.19-3.77-1.6-5.76-3.88-5.76-6.27s1.85-4.7,5.14-6.29c3.56-1.77,8.91-2.58,13.91-2.58,11.65,0,18.78,3.59,18.78,9.07v.88H288.15c-.2,1.8,1.17,3.1,5.28,3.1,3.08,0,4.8-.59,5.34-2l12.82.39Zm-13.71-4.73c0-1.63-1.09-2.87-4.93-2.87-3.56,0-5,1.33-4.87,2.87Z"/><path d="M27,111.13H12.4V88.74H31.59c4.59,0,9.73.06,13.78,1.17,4.38,1.24,7,3.46,7,5.88,0,2.12-1.72,4.14-5.21,5.48S38.86,103,34.33,103H27v8.13ZM30.77,98.2C34.06,98.2,38,98.1,38,96s-3.56-2.15-6.85-2.15H27V98.2Z"/><path d="M88.4,105.54c-2.12,4-9.66,5.91-18,5.91-5.13,0-10.14-.52-14.11-2.19-3.77-1.59-5.76-3.88-5.76-6.26s1.85-4.7,5.14-6.3c3.56-1.76,8.91-2.58,13.91-2.58,11.65,0,18.78,3.59,18.78,9.07v.89H65c-.2,1.79,1.17,3.1,5.28,3.1,3.08,0,4.8-.59,5.34-2l12.82.39Zm-13.71-4.73c0-1.63-1.09-2.87-4.93-2.87-3.56,0-5,1.34-4.87,2.87Z"/><path d="M100.73,97.88c1.16-2.32,3.7-3.95,9.11-3.76l1.85.07V100a21.74,21.74,0,0,0-2.6-.16c-2.19,0-4.46.19-5.55,1.14a3.34,3.34,0,0,0-1,2.87v7.25H89V94.45h11.58v3.43Z"/><path d="M146.56,104.86c-1.24,4.31-7.68,6.59-16.59,6.59-5.07,0-9.18-.55-12.88-2.28s-5.21-4-5.21-6.33c0-5,7.26-8.72,18-8.72,8.64,0,15.49,2.42,16.52,6.59l-12,.49-.07-.16c-.48-1.14-1-2.45-4.05-2.45-4.31,0-4.31,2.71-4.31,4.18s.07,4.11,4.52,4.11c2.95,0,4-1.27,4.39-2.48l11.65.46Z"/><path d="M167.79,111.13v-2.75h-.14c-1.44,2.16-6.1,3.07-10.62,3.07a19.83,19.83,0,0,1-7.81-1.27c-2.47-1.18-2.74-2.65-2.74-4.21V94.45h13.57v10.08c0,1.08-.07,2.22,3,2.22a5.18,5.18,0,0,0,3.29-.94A2.11,2.11,0,0,0,167,104V94.45H180.6v16.68Z"/><path d="M192.86,105.71c.76,1.6,4.53,1.79,7.47,1.79,1.37,0,5.21-.06,5.21-1s-4.66-1-5.89-1.08c-7.33-.49-16-1.17-16-5.61,0-1.89,2.13-3.4,5.42-4.38a40.43,40.43,0,0,1,11.23-1.27c6.58,0,13.5,1.21,15.84,4.34l-10.35,1c-1-1.14-3.7-1.47-6.1-1.47-1.1,0-4.39.16-4.39.88,0,.52,1.17.75,2.06.85,1.51.2,4.25.29,5.89.39a47.56,47.56,0,0,1,9.53,1.24c3.22,1,4.93,2.45,4.93,4.24,0,4.61-10.21,5.91-18.09,5.91s-15-1.21-17.61-5.06l10.89-.68Z"/><path d="M228.18,105.71c.75,1.6,4.52,1.79,7.47,1.79,1.37,0,5.21-.06,5.21-1s-4.66-1-5.9-1.08c-7.33-.49-16-1.17-16-5.61,0-1.89,2.12-3.4,5.41-4.38a40.51,40.51,0,0,1,11.24-1.27c6.58,0,13.5,1.21,15.83,4.34l-10.35,1c-1-1.14-3.7-1.47-6.1-1.47-1.1,0-4.38.16-4.38.88,0,.52,1.16.75,2,.85,1.51.2,4.25.29,5.9.39a47.46,47.46,0,0,1,9.52,1.24c3.22,1,4.93,2.45,4.93,4.24,0,4.61-10.21,5.91-18.09,5.91s-15-1.21-17.61-5.06l10.9-.68Z"/><path d="M268.05,111.13H254.48V94.45h13.57v16.68Zm0-18.28H254.48V88.41h13.57v4.44Z"/><path d="M307.92,102.93c0,5.06-8.56,8.52-19.25,8.52s-19.26-3.46-19.26-8.52c0-5.35,8.29-8.81,19.26-8.81s19.25,3.46,19.25,8.81Zm-24-.22c0,4.47,2.26,4.79,4.73,4.79s4.72-.32,4.72-4.79c0-1.6-.06-4.51-4.72-4.51s-4.73,2.91-4.73,4.51Z"/><path d="M321,94.45V96.8h.14c1.65-1.9,5.69-2.68,9.94-2.68,3.29,0,7.06.46,9.11,1.73s2.2,3.26,2.2,5v10.29H328.82V101c0-1,0-2.42-2.95-2.42-3.77,0-4.11,1.54-4.11,2.91v9.63H308.19V94.45Z"/><polygon points="288.92 131.18 278.33 131.18 278.33 114.86 288.92 114.86 288.92 131.18 288.92 131.18"/><path d="M300.1,119v1.71h.1c1.2-1.38,4.15-1.95,7.25-1.95,2.4,0,5.14.33,6.64,1.26s1.6,2.38,1.6,3.64v7.49H305.8v-7.37c0-.74,0-1.76-2.15-1.76-2.75,0-3,1.12-3,2.12v7h-9.89V119Z"/><path d="M342.51,126.62c-.9,3.14-5.59,4.8-12.09,4.8a21.61,21.61,0,0,1-9.39-1.66c-2.6-1.24-3.8-2.88-3.8-4.62,0-3.66,5.3-6.35,13.14-6.35,6.3,0,11.29,1.76,12,4.8l-8.74.36-.05-.12c-.35-.83-.75-1.78-2.95-1.78-3.15,0-3.15,2-3.15,3s.05,3,3.3,3c2.15,0,2.95-.93,3.2-1.81l8.49.34Z"/><polygon points="355.96 131.18 346.41 131.18 346.41 126.83 355.96 126.83 355.96 131.18 355.96 131.18"/><polygon points="18.57 82.57 4.04 82.57 4.04 60.18 18.57 48.58 18.57 82.57 18.57 82.57"/><path class="cls-1" d="M348,94.39a3.81,3.81,0,0,1,3.9,3.8,3.69,3.69,0,0,1-1.12,2.68,3.79,3.79,0,0,1-6.47-2.68,3.69,3.69,0,0,1,.58-2,3.63,3.63,0,0,1,1.47-1.35,3.87,3.87,0,0,1,1.64-.42Zm.19.74a3,3,0,0,0-2.26.92,3,3,0,0,0-.87,2.14,3.05,3.05,0,0,0,6.1,0,3,3,0,0,0-.45-1.6,3.1,3.1,0,0,0-2.52-1.46Zm-1.76,5.08v-4h1.91a1.38,1.38,0,0,1,1,.33,1.11,1.11,0,0,1,.32.8,1,1,0,0,1-.27.75,1.4,1.4,0,0,1-.81.38,1.11,1.11,0,0,1,.39.26,5.21,5.21,0,0,1,.46.69l.47.81h-1l-.34-.65a2.91,2.91,0,0,0-.53-.78.81.81,0,0,0-.6-.22h-.21v1.65Zm.82-2.29H348a1.39,1.39,0,0,0,.71-.13.46.46,0,0,0,.21-.43.45.45,0,0,0-.21-.4,1.18,1.18,0,0,0-.63-.13h-.74v1.09Z"/></svg>