<svg id="Layer_1" data-name="Layer 1" xmlns="http://www.w3.org/2000/svg" viewBox="0 0 360 180"><path d="M13.09,52.06V90.13H9V52.06Z"/><path d="M28.49,90.66c-6.44,0-10.76-5.38-10.76-19.56s4.32-19.57,10.76-19.57S39.24,56.91,39.24,71.1,34.92,90.66,28.49,90.66Zm0-35.65c-3.7,0-6.65,3.17-6.65,16.09s2.95,16.08,6.65,16.08S35.13,84,35.13,71.1,32.18,55,28.49,55Z"/><path d="M44.2,52.06,48.74,81.8h.1l5.69-29.74h3.38L63.82,81.8h.1l4.22-29.74h3.8L65.82,90.13H62.34l-6-29.9h-.11l-6,29.9H46.73L40.4,52.06Z"/><path d="M85.38,52.06l8.39,38.07H89.65L87.39,78.85H77.68L75.42,90.13H71.3l8.39-38.07ZM78.26,75.37h8.55L82.59,54.91h-.11Z"/><path d="M108.29,90.13H102l7-38.07h8.12l7,38.07h-6.33l-1.16-8.43h-7.17ZM110.4,76h5.27l-2.58-16.35H113Z"/><path d="M133.91,90.13h-6.53V52.06h9.17c7.33,0,11.07,3.11,11.07,11.23,0,6.12-2.37,8.6-4.58,9.6l5.54,17.24h-6.65l-4.64-15.76a33.16,33.16,0,0,1-3.38.15Zm0-21h2.33c3.53,0,4.85-1.32,4.85-5.86s-1.32-5.85-4.85-5.85h-2.33Z"/><path d="M156,57.75h-6.33V52.06h19.19v5.69H162.5V90.13H156Z"/><path d="M183,61.45c-.27-3.27-2-4.22-3.48-4.22-2.11,0-3.27,1.37-3.27,3.74,0,6.49,13.29,9.6,13.29,19.93,0,6.28-4.22,9.76-10.34,9.76s-9.55-4.85-9.81-10.55l6.23-.89c.26,3.85,1.79,5.74,3.9,5.74s3.79-1.21,3.79-3.48C183.32,73.94,170,71.94,170,61c0-6.06,3.7-9.49,10.13-9.49,5.33,0,8.49,3.85,9.07,9.23Z"/><path d="M216,63.56c-.52-6-2.42-8.55-5.64-8.55-4.8,0-6.91,4.22-6.91,16.09s2.11,16.08,6.91,16.08c3.85,0,6.06-2.63,6.17-9.7h4.11c-.1,8.43-3.79,13.18-10.28,13.18-6.8,0-11-5.17-11-19.56s4.22-19.57,11-19.57c5.64,0,9.12,3.9,9.76,12Z"/><path d="M234.37,90.66c-6.43,0-10.75-5.38-10.75-19.56s4.32-19.57,10.75-19.57,10.76,5.38,10.76,19.57S240.81,90.66,234.37,90.66Zm0-35.65c-3.69,0-6.64,3.17-6.64,16.09s3,16.08,6.64,16.08S241,84,241,71.1,238.06,55,234.37,55Z"/><path d="M254.09,52.06V80c0,3.85,1.11,7.17,5.59,7.17s5.59-3.32,5.59-7.17V52.06h4.12V80.11c0,6.12-2.85,10.55-9.71,10.55S250,86.23,250,80.11v-28Z"/><path d="M281.2,52.06,291,80.11h.1v-28h4.11V90.13H290.8L279,57h-.1V90.13h-4.12V52.06Z"/><path d="M316.21,63.56c-.53-6-2.42-8.55-5.64-8.55-4.8,0-6.91,4.22-6.91,16.09s2.11,16.08,6.91,16.08c3.85,0,6.06-2.63,6.17-9.7h4.11c-.1,8.43-3.79,13.18-10.28,13.18-6.8,0-11-5.17-11-19.56s4.22-19.57,11-19.57c5.64,0,9.12,3.9,9.75,12Z"/><path d="M330.34,52.06V90.13h-4.11V52.06Z"/><path d="M339.62,52.06V86.65H352v3.48H335.51V52.06Z"/><path d="M10,110.16v18.06H8V110.16Z"/><path d="M16.75,128.47c-3.05,0-5.1-2.55-5.1-9.28s2-9.28,5.1-9.28,5.11,2.55,5.11,9.28S19.81,128.47,16.75,128.47Zm0-16.91c-1.75,0-3.15,1.5-3.15,7.63s1.4,7.63,3.15,7.63,3.16-1.5,3.16-7.63S18.5,111.56,16.75,111.56Z"/><path d="M24.21,110.16l2.15,14.1h.05l2.7-14.1h1.6l2.8,14.1h.05l2-14.1h1.8l-2.9,18.06H32.81L30,114h-.05l-2.85,14.19H25.41l-3-18.06Z"/><path d="M43.24,110.16l4,18.06H45.27l-1.08-5.36h-4.6l-1.08,5.36H36.56l4-18.06Zm-3.38,11h4.06l-2-9.7h0Z"/><path d="M54.14,110.16H57.5c3.8,0,6.1,2.1,6.1,9s-2.3,9-6.1,9H54.14Zm2,16.41h1c2.85,0,4.5-1.21,4.5-7.38s-1.65-7.38-4.5-7.38h-1Z"/><path d="M73.65,110.16v1.65h-6.3V118H72v1.65H67.35v7H74v1.65H65.4V110.16Z"/><path d="M76,110.16h4.26a5,5,0,0,1,0,9.9H78v8.16H76Zm2,8.25H80c1.95,0,3.1-1,3.1-3.3s-1.15-3.3-3.1-3.3H78Z"/><path d="M90.91,110.16l4,18.06h-2l-1.08-5.36h-4.6l-1.08,5.36h-2l4-18.06Zm-3.38,11h4.06l-2-9.7h0Z"/><path d="M96.51,110.16h4.36c2.9,0,4.95,1.7,4.95,4.68a4.34,4.34,0,0,1-2.9,4.42l3,9h-2l-2.9-8.56-2.56.1v8.46H96.51Zm1.95,7.9h1.7c2.81,0,3.71-1.1,3.71-3.13s-.9-3.12-3.71-3.12h-1.7Z"/><path d="M116.7,110.16v1.65H113v16.41h-2V111.81h-3.7v-1.65Z"/><path d="M121.65,110.16l3.15,13.65h0l3.08-13.65H131v18.06h-1.8V111.66h0l-3.75,16.56h-1.28l-3.75-16.56h-.05v16.56h-1.8V110.16Z"/><path d="M141.58,110.16v1.65h-6.3V118h4.65v1.65h-4.65v7h6.6v1.65h-8.55V110.16Z"/><path d="M147,110.16l4.66,13.3h.05v-13.3h1.95v18.06h-2.1l-5.61-15.71h-.05v15.71h-1.95V110.16Z"/><path d="M164.82,110.16v1.65h-3.7v16.41h-2V111.81h-3.71v-1.65Z"/><path d="M175.16,128.45c-3,0-5.1-2.54-5.1-9.26s2.05-9.27,5.1-9.27,5.09,2.55,5.09,9.27S178.21,128.45,175.16,128.45Zm0-16.88c-1.75,0-3.15,1.5-3.15,7.62s1.4,7.62,3.15,7.62,3.14-1.5,3.14-7.62S176.91,111.57,175.16,111.57Z"/><path d="M182.05,110.17h7.74v1.65H184V118h4.34v1.64H184v8.59h-1.95Z"/><path d="M202.18,116.19v-1.4c0-1.53-.7-2.18-1.5-2.18-1.25,0-1.65.65-1.65,2v9.15c0,1.35.4,2,1.65,2s1.5-.65,1.5-1.82v-2.18h3.1v2.08a4.3,4.3,0,0,1-4.6,4.63c-3.25,0-4.75-2.08-4.75-4.63v-9.31c0-2.55,1.5-4.62,4.75-4.62,3.1,0,4.6,2.25,4.6,5v1.33Z"/><path d="M207.44,110.16h3.1v13.63c0,1.32.52,2,1.65,2s1.65-.65,1.65-2V110.16h3.1v13.5c0,3.11-1.8,4.81-4.75,4.81s-4.75-1.7-4.75-4.81Z"/><path d="M219.29,128.22V110.16h3.1v15.36h4.88v2.7Z"/><path d="M229.52,112.86h-3v-2.7h9.1v2.7h-3v15.36h-3.1Z"/><path d="M237.45,110.16h3.1v13.63c0,1.32.53,2,1.65,2s1.65-.65,1.65-2V110.16H247v13.5c0,3.11-1.8,4.81-4.75,4.81s-4.75-1.7-4.75-4.81Z"/><path d="M252.06,128.22H249V110.16h4.36c3.47,0,5.25,1.47,5.25,5.33,0,2.9-1.13,4.07-2.18,4.55l2.63,8.18h-3.15l-2.2-7.48a15.07,15.07,0,0,1-1.6.07Zm0-10h1.1c1.67,0,2.3-.62,2.3-2.77s-.63-2.78-2.3-2.78h-1.1Z"/><path d="M263.26,128.22h-3l3.33-18.06h3.85l3.32,18.06h-3l-.55-4h-3.4Zm1-6.71h2.5l-1.22-7.75h-.05Z"/><path d="M272.42,128.22V110.16h3.1v15.36h4.87v2.7Z"/><path d="M288.6,128.22h-3l3.32-18.06h3.85l3.33,18.06h-3l-.55-4h-3.4Zm1-6.71h2.5l-1.23-7.75h-.05Z"/><path d="M297.9,128.22V110.16h8.65v2.7H301v4.65h4.15v2.7H301v8Z"/><path d="M308,128.22V110.16h8.66v2.7h-5.55v4.65h4.15v2.7h-4.15v8Z"/><path d="M319,128.22h-3l3.33-18.06h3.85l3.33,18.06h-3l-.55-4h-3.41Zm1-6.71h2.5l-1.23-7.75h-.05Z"/><path d="M328.21,128.22V110.16h3.1v18.06Z"/><path d="M336.84,128.22h-3.1V110.16h4.35c3.48,0,5.25,1.47,5.25,5.33,0,2.9-1.12,4.07-2.17,4.55l2.63,8.18h-3.16l-2.2-7.48a15.07,15.07,0,0,1-1.6.07Zm0-10h1.1c1.68,0,2.3-.62,2.3-2.77s-.62-2.78-2.3-2.78h-1.1Z"/><path d="M350.9,114.61c-.13-1.55-.95-2-1.65-2-1,0-1.55.65-1.55,1.77,0,3.08,6.3,4.56,6.3,9.46,0,3-2,4.63-4.9,4.63s-4.53-2.3-4.65-5l2.95-.42c.12,1.82.85,2.72,1.85,2.72a1.59,1.59,0,0,0,1.8-1.65c0-3.57-6.3-4.52-6.3-9.7,0-2.88,1.75-4.5,4.8-4.5,2.52,0,4,1.82,4.3,4.37Z"/><rect x="8.13" y="99.12" width="345.6" height="0.98"/></svg>