<svg id="Layer_1" data-name="Layer 1" xmlns="http://www.w3.org/2000/svg" viewBox="0 0 360 180"><path d="M81.54,108.17c-4.72,10.34-10,10.65-22.45,10.65-6.87,0-8.37-.08-8.37-3.23V78.27c0-6.23,2.07-6.78,7.71-7.1v-1.5H35.07v1.5c5.22.39,7.2.87,7.2,7.1v35c0,6.07-1.9,6.79-7.2,7.1v1.5H79.64l4-13.73Z"/><path d="M113.74,113.7V88.92h10.11V86.4H113.66V78a100.49,100.49,0,0,1,8.45-5.56,21.06,21.06,0,0,0,2.23,2.88,71.27,71.27,0,0,0-9.2,6.87,60.87,60.87,0,0,1,9.36-6.73,2.89,2.89,0,0,0,1.92.73A3.33,3.33,0,0,0,130,72.83a2.71,2.71,0,0,0,0-.41c13.31-6.73,30-11.33,43.28-11.33,19,0,23.89,9.43,10.84,21h9.84c15.67-14,10.73-25.26-11-25.26-16.12,0-36.94,6.22-53,15.11a4.7,4.7,0,0,0-2.33-2.6C146.45,59.46,170.76,52.6,190,52.6c26.72,0,33.52,13.22,15.2,29.54H219c22-19.58,15.06-35.45-15.48-35.45C180.19,46.69,149.8,56,127,69.1A12,12,0,0,0,122.49,68c25.82-14.73,60.93-25.18,88.32-25.18,35.54,0,44.59,17.58,20.23,39.28h18.38c29.24-26,20-47.14-20.59-47.14-32.94,0-76.39,13.88-107.23,33-8.6,0-12.21,4.73-13.72,9.53-1.92,1.51-3.76,3-5.49,4.59,1.7-1.52,3.53-3,5.46-4.49a29.71,29.71,0,0,0-1.07,8.75H100v2.52h6.79V113.7c0,5.45-1.13,6.58-5.32,6.92-4.55-.45-4.9-2-4.9-6.77v-28l-.33-.24c-4.31,1.5-8.54,3-12.84,4.34v1.18a22,22,0,0,1,3.31-.32c1.33,0,2.9.09,2.9,4.74v18.3c0,6.16-1.41,6.63-6.54,6.87v1.18h38.39v-1.18C113.82,120.56,113.74,118.51,113.74,113.7Zm4.36-43.45c-1.26.82-2.5,1.66-3.72,2.5A4.12,4.12,0,0,1,118.1,70.25Zm-4.44,7a12,12,0,0,1,.57-4.13c1.47-1,3-1.93,4.54-2.88a4.18,4.18,0,0,1,3.15,1.92c-2.92,1.85-5.69,3.76-8.26,5.73Z"/><path d="M92.34,76.06a4.07,4.07,0,0,0,4.3-4,4.23,4.23,0,0,0-8.45,0A4.06,4.06,0,0,0,92.34,76.06Z"/><path d="M173.53,72A4.23,4.23,0,0,0,182,72a4.23,4.23,0,0,0-8.45,0Z"/><path d="M153.13,109c-1.9,2.92-5.46,8.29-12.84,8.29-5.46,0-12.17-3.24-13.17-17.2h25.77c-.92-10.34-6.8-14.44-14.59-14.44-6.62,0-16.9,4.81-16.9,19.41,0,11.2,6.3,17.67,15.5,17.67,11.93,0,16.73-10.73,17.56-13.18ZM136.48,88.45c6.55,0,7.38,5.28,8,9.07H127.37C128.7,90.58,131.93,88.45,136.48,88.45Z"/><path d="M243,117.25c-5.46,0-12.17-3.24-13.17-17.2h25.77c-.92-10.34-6.8-14.44-14.59-14.44-6.62,0-16.9,4.81-16.9,19.41,0,11.2,6.3,17.67,15.5,17.67,11.92,0,16.73-10.73,17.56-13.18l-1.33-.55C253.91,111.88,250.34,117.25,243,117.25Zm-3.81-28.8c6.55,0,7.37,5.28,8,9.07H230.05C231.37,90.58,234.61,88.45,239.16,88.45Z"/><path d="M220.38,115.51V97.44c0-9.7-5.88-11.83-9.69-11.83-4.89,0-8,2.76-12.09,6.39V85.77l-.58-.16c-3.81,1.34-7.71,2.52-11.43,3.55V90.5a6.89,6.89,0,0,1,2.4-.32c1.32,0,2.9.08,2.9,5V114.8c0,4.41-1.12,5.56-4.54,5.87-5.07-.39-5.45-1.83-5.45-6.82v-28l-.33-.24c-4.31,1.5-8.53,3-12.84,4.34v1.18a22.11,22.11,0,0,1,3.31-.32c1.33,0,2.9.09,2.9,4.74v18.3c0,5.57-1.15,6.49-5.18,6.79-3.8-.31-5-1.22-5-5.37V68.17l-.33-.15c-4.39,1.33-8.79,2.44-13.18,3.47v1.26c1-.08,1.74-.16,2.82-.16,3.23,0,3.73,1.26,3.73,4.81V115c0,4.33-1.49,5.36-6.38,5.68v1.18h52.85v-1.18c-4.3-.24-5.46-1.5-5.46-4.11V94.45c3.14-2.93,5.71-4.5,8.2-4.5,4.88,0,6.38,2.84,6.38,7.65v16.49c0,6-2.16,6.39-5.22,6.63v1.18h17.23v-1.18C221.38,120.4,220.38,119.22,220.38,115.51Z"/><path d="M99.38,127.27h4.45l5.2,13.87h-4.12l-.92-2.79H98.72l-.89,2.79H94.18Zm3.78,8.53-1.7-5.82h-.06l-1.82,5.82Z"/><path d="M113.38,131.49v5.63c0,.54,0,1.89,1.37,1.89s1.45-1.39,1.45-1.92v-5.6h3.43v8c0,.82,0,.92.05,1.67h-3.37l-.08-1.5a3,3,0,0,1-2.88,1.67c-3.18,0-3.38-2.53-3.38-4.38v-5.44Z"/><path d="M131.85,127.27v11.47c0,.8,0,1.59.09,2.4h-3.25l-.07-1.42a3.32,3.32,0,0,1-3.11,1.65c-3.15,0-4.05-2.69-4.05-5.05a5.1,5.1,0,0,1,1.15-3.73,3.83,3.83,0,0,1,3-1.31,3.34,3.34,0,0,1,2.8,1.35v-5.36Zm-3.4,9c0-1.62-.49-2.88-1.69-2.88-1.54,0-1.74,2-1.74,2.94s.18,2.9,1.7,2.9C128,139.24,128.45,137.93,128.45,136.28Z"/><path d="M134.09,127.31h3.5v2.57h-3.5Zm0,4.18h3.43v9.65h-3.43Z"/><path d="M144.74,131.17c3,0,5.3,1.57,5.3,5A5.51,5.51,0,0,1,148.7,140a5,5,0,0,1-3.78,1.38,5.61,5.61,0,0,1-4.23-1.42,5.07,5.07,0,0,1-1.31-3.67C139.38,133.32,141.11,131.17,144.74,131.17Zm-1.37,7.41a1.4,1.4,0,0,0,1.34.77c1.49,0,1.79-1.71,1.79-3,0-1.67-.39-3.08-1.76-3.08s-1.81,1.64-1.81,3.08A5.08,5.08,0,0,0,143.37,138.58Z"/><path d="M155.55,127.27h4l3,10,3.16-10h3.63l-4.8,13.87H160.2Z"/><path d="M170.68,127.31h3.5v2.57h-3.5Zm0,4.18h3.43v9.65h-3.43Z"/><path d="M186.38,127.27v11.47c0,.8,0,1.59.09,2.4h-3.25l-.08-1.42a3.29,3.29,0,0,1-3.1,1.65c-3.16,0-4-2.69-4-5.05a5.1,5.1,0,0,1,1.15-3.73,3.83,3.83,0,0,1,3-1.31,3.3,3.3,0,0,1,2.79,1.35v-5.36Zm-3.4,9c0-1.62-.49-2.88-1.7-2.88-1.53,0-1.73,2-1.73,2.94s.18,2.9,1.7,2.9C182.49,139.24,183,137.93,183,136.28Z"/><path d="M191.31,137.05c0,.52,0,2.34,1.75,2.34a1.43,1.43,0,0,0,1.57-1.4h3.2c-.26,2.42-2.41,3.36-4.78,3.36-3.2,0-4.91-1.69-4.91-4.88s1.49-5.32,4.87-5.32c2.56,0,3.74,1.09,4.36,2.46a7.58,7.58,0,0,1,.51,3.44Zm3.34-2c0-.56-.14-2-1.64-2s-1.62,1.56-1.66,2Z"/><path d="M204.58,131.17c3,0,5.29,1.57,5.29,5a5.5,5.5,0,0,1-1.33,3.83,5,5,0,0,1-3.78,1.38,5.6,5.6,0,0,1-4.23-1.42,5.08,5.08,0,0,1-1.32-3.67C199.21,133.32,201,131.17,204.58,131.17Zm-1.37,7.41a1.4,1.4,0,0,0,1.33.77c1.5,0,1.79-1.71,1.79-3,0-1.67-.38-3.08-1.75-3.08-1.52,0-1.81,1.64-1.81,3.08A4.94,4.94,0,0,0,203.21,138.58Z"/><path d="M219,141.14V128.9H214.6v-1.63h10.64v1.63h-4.42v12.24Z"/><path d="M226.29,136.64c0,2,.75,3.48,2.62,3.48a2,2,0,0,0,2.16-2h1.71a3.32,3.32,0,0,1-.78,2,3.87,3.87,0,0,1-3.16,1.29c-2.88,0-4.25-1.89-4.25-4.94,0-1.9.36-3.48,1.81-4.53a4.19,4.19,0,0,1,2.5-.72c4.1,0,4,3.83,4,5.4Zm4.83-1.26c0-.93-.14-2.85-2.26-2.85-1.11,0-2.46.71-2.5,2.85Z"/><path d="M240.58,134.59c0-.44-.17-2-1.83-2-2.37,0-2.37,2.9-2.37,3.63,0,2,.46,3.82,2.28,3.82a2,2,0,0,0,2-2.09h1.74a3.55,3.55,0,0,1-3.71,3.46,4,4,0,0,1-3-1.25,5.38,5.38,0,0,1-1.1-3.69c0-4,2.34-5.21,4.16-5.21a3.63,3.63,0,0,1,2.82,1.2,3.41,3.41,0,0,1,.76,2.15Z"/><path d="M244.42,127.29h1.73v5.63a3.32,3.32,0,0,1,3-1.6,3.1,3.1,0,0,1,2.88,1.54,4.74,4.74,0,0,1,.31,2.25v6h-1.75v-5.71c0-.86,0-2.73-2-2.73a2.34,2.34,0,0,0-2.15,1.29,4.7,4.7,0,0,0-.3,2v5.11h-1.73Z"/><path d="M255.19,132.61l0-1.12h1.72l0,1.56a3,3,0,0,1,2.93-1.75,3.12,3.12,0,0,1,3.33,3.29v6.55h-1.76V135a2.25,2.25,0,0,0-.49-1.65,2.3,2.3,0,0,0-1.62-.66c-1.24,0-2.39,1-2.39,2.89v5.55h-1.72Z"/><path d="M270,131.24c3.67,0,4.5,3,4.5,5.06,0,2.82-1.52,5.17-4.64,5.17s-4.51-2.21-4.51-5C265.37,134.05,266.43,131.24,270,131.24Zm-.1,8.88c1.29,0,2.77-1,2.77-3.88,0-2.4-1.06-3.67-2.67-3.67-1.09,0-2.86.73-2.86,3.75C267.16,138.3,268,140.12,269.92,140.12Z"/><path d="M276.93,127.29h1.72v13.85h-1.72Z"/><path d="M285.64,131.24c3.66,0,4.49,3,4.49,5.06,0,2.82-1.52,5.17-4.64,5.17s-4.51-2.21-4.51-5C281,134.05,282,131.24,285.64,131.24Zm-.11,8.88c1.29,0,2.77-1,2.77-3.88,0-2.4-1.06-3.67-2.66-3.67-1.1,0-2.87.73-2.87,3.75C282.77,138.3,283.57,140.12,285.53,140.12Z"/><path d="M294.24,141.89c.08,1.07.51,1.88,2.14,1.88,2.39,0,2.43-1.82,2.43-4.44a3.13,3.13,0,0,1-3,1.64,3.44,3.44,0,0,1-2.81-1.2,5.61,5.61,0,0,1-1-3.55c0-3.27,1.83-4.86,4.07-4.86a3.17,3.17,0,0,1,2.89,1.46v-1.33h1.67l0,1.75,0,6c0,2.33-.07,3.27-.44,4-.76,1.54-2.55,1.73-3.81,1.73-3.67,0-3.78-1.81-3.85-3.11Zm4-3.23c.36-.5.62-1,.62-2.77a3.33,3.33,0,0,0-.71-2.4,2.64,2.64,0,0,0-2-.84c-2.18,0-2.47,2.3-2.47,3.53,0,1.48.42,3.44,2.52,3.44A2.26,2.26,0,0,0,298.24,138.66Z"/><path d="M303.21,127.31h2.07v2h-2.07Zm.19,4.18h1.71v9.65H303.4Z"/><path d="M309.16,136.64c0,2,.75,3.48,2.63,3.48a2,2,0,0,0,2.15-2h1.72a3.41,3.41,0,0,1-.79,2,3.86,3.86,0,0,1-3.15,1.29c-2.89,0-4.26-1.89-4.26-4.94,0-1.9.37-3.48,1.81-4.53a4.21,4.21,0,0,1,2.5-.72c4.11,0,4,3.83,4,5.4Zm4.84-1.26c0-.93-.15-2.85-2.27-2.85-1.11,0-2.46.71-2.5,2.85Z"/><path d="M319.2,138.28c0,.73.35,1.74,2,1.74a1.84,1.84,0,0,0,1.61-.61,1.58,1.58,0,0,0,.29-.9c0-.94-.64-1.12-2-1.44-1.92-.47-3.52-.87-3.52-2.89,0-1.76,1.46-2.92,3.58-2.92,1.15,0,2.75.35,3.3,1.5a3.19,3.19,0,0,1,.24,1.41h-1.76c.06-1.47-1.15-1.58-1.77-1.58-.25,0-1.86,0-1.86,1.38,0,.89.82,1.1,1.3,1.23,2.53.64,3.08.79,3.63,1.33a2.45,2.45,0,0,1,.69,1.78,2.94,2.94,0,0,1-1.24,2.44,4.93,4.93,0,0,1-2.72.66c-1.86,0-3.59-.81-3.57-3.13Z"/></svg>