<svg id="Layer_1" data-name="Layer 1" xmlns="http://www.w3.org/2000/svg" viewBox="0 0 360 180"><defs><style>.cls-1{fill:none;stroke:#ec297b;stroke-miterlimit:10;stroke-width:0.25px;}.cls-2{fill:#231f20;}</style></defs><circle class="cls-1" cx="47.56" cy="104.44" r="0.01"/><path class="cls-2" d="M49,78.16v-10a14.8,14.8,0,0,0-3-29.28V68.52c-13.38.83-24,12.32-24,26.37s10.61,25.53,24,26.36v8.87a5.79,5.79,0,0,0-2.9-.77,5.9,5.9,0,1,0,5.87,5.9v-14h0c11.7-.7,20.95-10.08,20.95-21.54S60.66,78.86,49,78.16ZM31.79,104.57c0-9.11,6.85-16.49,15.3-16.49a14.94,14.94,0,0,1,12.24,6.6A17,17,0,0,0,47.57,90c-.53,0-1.06,0-1.58.08V121C38.06,120.4,31.79,113.27,31.79,104.57Z"/><path class="cls-2" d="M281.12,80.62V76l-2,4h-.68l-2-4v4.64h-1V74.4h1.24l2,4.14,2-4.14h1.23v6.22Z"/><path class="cls-2" d="M286.64,79.22l-.6,1.4H285l2.74-6.22h1.07l2.71,6.22h-1.11l-.6-1.4Zm1.56-3.7L287,78.29h2.33Z"/><path class="cls-2" d="M297.14,78.74h-1.76v1.87h-1V74.4h2.51c1.59,0,2.5.78,2.5,2.13a2,2,0,0,1-1.28,2l1.39,2.08h-1.19Zm-.29-.93c1,0,1.51-.41,1.51-1.26s-.55-1.2-1.51-1.2h-1.47v2.46Z"/><path class="cls-2" d="M307.88,75.34l-.61.76a2.41,2.41,0,0,0-1.73-.79,2.19,2.19,0,1,0,0,4.38,2.54,2.54,0,0,0,1.73-.74l.62.7a3.52,3.52,0,0,1-2.4,1,3.15,3.15,0,1,1,0-6.29A3.39,3.39,0,0,1,307.88,75.34Z"/><path class="cls-2" d="M315.33,80.62V78.05H312v2.57H311V74.4H312v2.71h3.29V74.4h1v6.22Z"/><path class="cls-2" d="M320,80.62V74.4h1v6.22Z"/><path class="cls-2" d="M329.1,80.62l-3.3-4.46v4.46h-1.05V74.4h1l3.32,4.47V74.4h1v6.22Z"/><path class="cls-2" d="M339,77.57v2.29a4.15,4.15,0,0,1-2.41.81,3.15,3.15,0,1,1,.07-6.29,3.68,3.68,0,0,1,2.38.87l-.59.77a2.73,2.73,0,0,0-1.79-.71,2.21,2.21,0,1,0,0,4.42,2.82,2.82,0,0,0,1.42-.43V77.57Z"/><path class="cls-2" d="M279.73,87.41l-.43.92a3.69,3.69,0,0,0-1.82-.58c-.61,0-1,.23-1,.65,0,1.36,3.35.63,3.34,2.87,0,1.11-1,1.8-2.34,1.8a3.8,3.8,0,0,1-2.53-1l.45-.91a3.27,3.27,0,0,0,2.1.91c.73,0,1.16-.27,1.16-.75,0-1.39-3.35-.62-3.35-2.83,0-1.07.92-1.73,2.26-1.73A3.94,3.94,0,0,1,279.73,87.41Z"/><path class="cls-2" d="M287.41,93V90.45h-3.29V93h-1.05V86.81h1.05v2.7h3.29v-2.7h1V93Z"/><path class="cls-2" d="M298.18,89.92a3.29,3.29,0,1,1-3.29-3.13A3.18,3.18,0,0,1,298.18,89.92Zm-5.51,0a2.22,2.22,0,0,0,2.23,2.21,2.2,2.2,0,1,0-2.23-2.21Z"/><path class="cls-2" d="M306.55,93l-1.47-4.85L303.59,93h-1.08l-2.05-6.22h1.12l1.51,5.06,1.5-5.05h1l1.51,5.06,1.5-5.06h1.08L307.63,93Z"/><path class="cls-2" d="M280.63,100.15l-.61.77a2.41,2.41,0,0,0-1.73-.79,2.19,2.19,0,1,0,0,4.38,2.58,2.58,0,0,0,1.73-.74l.62.69a3.54,3.54,0,0,1-2.4,1,3.15,3.15,0,1,1,0-6.29A3.44,3.44,0,0,1,280.63,100.15Z"/><path class="cls-2" d="M289.67,102.33a3.29,3.29,0,1,1-3.29-3.14A3.18,3.18,0,0,1,289.67,102.33Zm-5.51,0a2.22,2.22,0,0,0,4.43,0,2.22,2.22,0,0,0-4.43,0Z"/><path class="cls-2" d="M297.17,105.44l-3.3-4.46v4.46h-1.05V99.22h1l3.32,4.47V99.22h1v6.22Z"/><path class="cls-2" d="M307,100.15l-.61.77a2.41,2.41,0,0,0-1.73-.79,2.19,2.19,0,1,0,0,4.38,2.58,2.58,0,0,0,1.73-.74l.62.69a3.54,3.54,0,0,1-2.4,1,3.15,3.15,0,1,1,0-6.29A3.44,3.44,0,0,1,307,100.15Z"/><path class="cls-2" d="M311.13,100.16v1.68h3v.94h-3v1.72h3.5v.94h-4.54V99.22h4.43v.94Z"/><path class="cls-2" d="M320.41,99.22c1.56,0,2.46.77,2.46,2.12s-.9,2.22-2.46,2.22H319v1.88h-1.05V99.22Zm-1.42,3.4h1.38c.95,0,1.49-.41,1.49-1.25s-.54-1.21-1.49-1.21H319Z"/><path class="cls-2" d="M328.21,100.16v5.28h-1v-5.28h-2v-.94h5v.94Z"/><path class="cls-2" d="M337.32,99.81l-.44.93a3.66,3.66,0,0,0-1.81-.58c-.61,0-1,.23-1,.65,0,1.36,3.35.63,3.34,2.87,0,1.11-1,1.8-2.34,1.8a3.8,3.8,0,0,1-2.54-1l.46-.91a3.23,3.23,0,0,0,2.1.91c.72,0,1.16-.28,1.16-.76,0-1.38-3.35-.61-3.35-2.82,0-1.07.91-1.73,2.26-1.73A4.07,4.07,0,0,1,337.32,99.81Z"/><path class="cls-2" d="M220.78,76.83h37.88V65.71H156.56a13.76,13.76,0,0,0-13.73,13.78v2.29a13.75,13.75,0,0,0,13.73,13.77h29.86a2.89,2.89,0,0,1,2.89,2.9v1.83a2.89,2.89,0,0,1-2.89,2.89H138V65.71H126.33L106.66,94,87,65.71H75.28v48.57H86.36v-30l20.29,29.23h0l20.25-29.16v30h60a13.76,13.76,0,0,0,13.74-13.78V98.22a13.76,13.76,0,0,0-13.74-13.78H157a2.88,2.88,0,0,1-2.88-2.89V79.72A2.88,2.88,0,0,1,157,76.83h49a14.88,14.88,0,0,0-.48,3.75V99.42a14.84,14.84,0,0,0,14.82,14.86h38.34V103.17H220.78a4.21,4.21,0,0,1-4.2-4.22V81A4.2,4.2,0,0,1,220.78,76.83Z"/><rect class="cls-2" x="268.14" y="65.71" width="1.67" height="48.57"/></svg>