<svg id="Layer_1" data-name="Layer 1" xmlns="http://www.w3.org/2000/svg" viewBox="0 0 360 180"><path d="M207.57,89.55H212a1.23,1.23,0,0,0,.82-.24,1.18,1.18,0,0,0,.33-.94,1.16,1.16,0,0,0-.33-.94,1.25,1.25,0,0,0-.82-.23h-4.38v2.35Zm-3-4.9H212a5.73,5.73,0,0,1,3.2.6c.65.49,1,1.53,1,3.12s-.32,2.63-1,3.12a5.76,5.76,0,0,1-3.21.61h-4.38v2.41h-3V84.65Z"/><polygon points="217.52 94.51 217.52 84.65 228.13 84.65 228.13 87.04 220.56 87.04 220.56 88.4 227.79 88.4 227.79 90.77 220.56 90.77 220.56 92.12 228.13 92.12 228.13 94.51 217.52 94.51 217.52 94.51"/><path d="M233.05,87.2v2h4.86a1,1,0,0,0,.72-.22,1.08,1.08,0,0,0,.21-.77,1.05,1.05,0,0,0-.22-.78,1,1,0,0,0-.71-.23Zm-3-2.55h8.82a3.47,3.47,0,0,1,2.3.6,2.92,2.92,0,0,1,.73,2.27,4.45,4.45,0,0,1-.3,1.87,1.94,1.94,0,0,1-1.06.92,2.66,2.66,0,0,1,1.1.73,2.3,2.3,0,0,1,.26,1.26v2.21h-3V92.74a1,1,0,0,0-.22-.66.93.93,0,0,0-.77-.33h-4.8v2.76h-3V84.65Z"/><path d="M249.79,84.52c2.81,0,4.55.23,5.2.7s.85,1.48.85,3.23h-3c0-.57-.15-.94-.46-1.09a6.68,6.68,0,0,0-2.55-.29,5.38,5.38,0,0,0-2.6.34c-.26.23-.39,1-.39,2.18s.13,1.93.39,2.16a5.33,5.33,0,0,0,2.6.35,7.77,7.77,0,0,0,2.53-.25c.33-.16.49-.53.49-1.13h3c0,1.75-.27,2.83-.82,3.22s-2.4.71-5.23.71-4.53-.26-5.12-.78-.9-1.94-.9-4.29.29-3.77.86-4.26,2.34-.8,5.16-.8Z"/><path d="M269.9,84.67v6c0,1.79-.39,2.91-1.17,3.37s-2.41.63-5.1.63-4.38-.21-5.09-.63-1.17-1.59-1.17-3.37v-6h3v6c0,.6.17,1,.5,1.15a7.58,7.58,0,0,0,2.73.3,7.49,7.49,0,0,0,2.67-.29,1.15,1.15,0,0,0,.57-1.16v-6Z"/><path d="M277.26,92.29a25,25,0,0,0,2.53-.07c.23,0,.35-.23.35-.54a.67.67,0,0,0-.49-.72,12.35,12.35,0,0,0-2.39-.13c-2.53,0-4.12-.19-4.79-.55s-1-1.28-1-2.73.43-2.2,1.3-2.58a14.13,14.13,0,0,1,4.41-.42,26.72,26.72,0,0,1,3.86.16C282.32,85,283,86.05,283,88h-3c0-.52-.11-.83-.34-.92a12.27,12.27,0,0,0-2.39-.12,19.28,19.28,0,0,0-2.37.07c-.21.05-.32.24-.32.56a.64.64,0,0,0,.54.66,10.15,10.15,0,0,0,2.21.15c2.5,0,4.11.2,4.83.59s1.08,1.31,1.08,2.73-.41,2.16-1.22,2.52a14.13,14.13,0,0,1-4.71.47,33.67,33.67,0,0,1-3.66-.12,2.4,2.4,0,0,1-1.76-.91,4.58,4.58,0,0,1-.48-2.45h3c0,.55.11.87.35,1a12,12,0,0,0,2.53.14Z"/><path d="M290.8,92.29a25.32,25.32,0,0,0,2.54-.07c.23,0,.34-.23.34-.54a.68.68,0,0,0-.48-.72,12.41,12.41,0,0,0-2.4-.13c-2.53,0-4.12-.19-4.78-.55s-1-1.28-1-2.73.43-2.2,1.29-2.58a14.13,14.13,0,0,1,4.41-.42,26.62,26.62,0,0,1,3.86.16c1.28.26,1.92,1.34,1.92,3.25h-3c0-.52-.11-.83-.34-.92a12.14,12.14,0,0,0-2.38-.12,19.28,19.28,0,0,0-2.37.07c-.22.05-.32.24-.32.56a.64.64,0,0,0,.54.66,10,10,0,0,0,2.2.15c2.5,0,4.11.2,4.84.59s1.07,1.31,1.07,2.73-.4,2.16-1.21,2.52a14.21,14.21,0,0,1-4.71.47,33.77,33.77,0,0,1-3.67-.12,2.4,2.4,0,0,1-1.76-.91,4.7,4.7,0,0,1-.47-2.45h3q0,.82.36,1a11.91,11.91,0,0,0,2.52.14Z"/><polygon points="298.19 94.52 298.19 84.68 301.22 84.68 301.22 94.52 298.19 94.52 298.19 94.52"/><path d="M305.72,89.59c0,1.26.15,2,.44,2.19a14.65,14.65,0,0,0,6.09,0c.29-.2.43-.93.43-2.19s-.14-2-.43-2.22a15.6,15.6,0,0,0-6.09,0c-.29.21-.44.95-.44,2.22Zm10,0c0,2.4-.29,3.83-.87,4.3s-2.5.76-5.64.76a26,26,0,0,1-4.53-.25A2.15,2.15,0,0,1,303,93a12.91,12.91,0,0,1-.28-3.43c0-2.4.29-3.83.86-4.3s2.5-.77,5.65-.77,5,.25,5.63.76.88,1.91.88,4.31Z"/><path d="M331,94.52h-5l-5.19-7.29c-.06-.11-.11-.23-.17-.36s-.13-.17-.19-.17a2.44,2.44,0,0,0,0,.27c.16.5.24.75.24.76v6.79h-3V84.68h5L327.83,92a3,3,0,0,0,.18.36c.05.12.11.18.17.18a2.72,2.72,0,0,1,0-.28c-.07-.25-.14-.5-.22-.76V84.68h3v9.84Z"/><path d="M268.24,161.79v-5a66.91,66.91,0,0,0,0-133.82c-34.48,0-60.59,23.62-68.16,61.64a69.09,69.09,0,0,1-11.51,29,63.16,63.16,0,0,1-22.34,20c-11.16,6-24.62,9-40,9H19.87l1.7-5H126.24c26.33,0,45.92-9,58.23-26.87A64.47,64.47,0,0,0,195.13,84v-.12l0-.11c3.8-19.2,12.24-35.44,24.4-47A67,67,0,0,1,241.14,23a73.26,73.26,0,0,1,27.1-5,71.91,71.91,0,0,1,28,138.13,71.42,71.42,0,0,1-28,5.66Z"/><path d="M119.4,120.33a32.82,32.82,0,0,0,6.08-.35,2.1,2.1,0,0,0,1.65-1.54c.26-1,.13-1.55-.41-1.7a41.07,41.07,0,0,0-6.33-.23,34.77,34.77,0,0,0-6.63.35c-.67.25-1.2,1.07-1.58,2.48l-7.63,0q1.78-6.6,4.38-7.87,2.34-1.15,13.13-1.18,9.74,0,11.91,1.22t.84,6q-1.55,5.7-5.32,7.31-2.91,1.26-11.7,1.27a26.58,26.58,0,0,0-6.46.51,2.34,2.34,0,0,0-1.59,1.71l21.8,0-1.67,6.2-29.79.06,2-7.37a7.76,7.76,0,0,1,5.21-5.33q4.16-1.56,12.12-1.57Z"/><path d="M32.18,122.64Q31,127.23,31.91,128t7.79.75c4.6,0,7.35-.27,8.27-.78s1.73-2.27,2.56-5.33.94-4.88.33-5.39-3.23-.73-7.83-.72-7.35.26-8.23.75-1.78,2.31-2.62,5.4Zm26.34-.06q-2.35,8.74-5.11,10.46-3,1.85-15.38,1.87-9.09,0-11.76-.58c-2.24-.51-3.43-1.62-3.6-3.33q-.2-2,1.52-8.34,2.36-8.75,5.07-10.46,3-1.87,15.4-1.91T59,112.11q1.86,1.74-.5,10.47Z"/><path d="M94.47,134.55l-13.08,0-8.92-17.69c-.07-.26-.13-.55-.2-.86s-.22-.44-.39-.43c-.06.22-.1.44-.14.66.08,1.21.12,1.82.11,1.84L67.4,134.61l-8,0,6.45-23.91,13.08,0,8.89,17.65c.07.29.15.58.24.88s.19.43.35.43c0-.23.09-.45.15-.67,0-.61-.06-1.22-.08-1.84l4.44-16.48h8l-6.45,23.9Z"/><path d="M265.18,158.72a.39.39,0,0,0,0-.15.28.28,0,0,0-.08-.12.35.35,0,0,0-.15-.07.78.78,0,0,0-.24,0h-.32v.77h.31a.55.55,0,0,0,.39-.11.38.38,0,0,0,.11-.29Zm.85,1.9a.11.11,0,0,1,0,0l0,0-.12,0h-.39a.35.35,0,0,1-.12,0,.09.09,0,0,1-.06,0,.19.19,0,0,1,0-.09l-.15-.47a.75.75,0,0,0-.19-.35.49.49,0,0,0-.34-.1h-.19v1c0,.06,0,.09-.05.11a.75.75,0,0,1-.27,0,.89.89,0,0,1-.29,0,.11.11,0,0,1-.06-.11v-2.45a.36.36,0,0,1,.07-.24.29.29,0,0,1,.23-.09h.79a2.28,2.28,0,0,1,.48.05.86.86,0,0,1,.35.15.71.71,0,0,1,.23.26.82.82,0,0,1,.07.37.69.69,0,0,1-.18.51.92.92,0,0,1-.47.25.89.89,0,0,1,.3.19,1,1,0,0,1,.25.39l.16.44a.6.6,0,0,1,0,.2Zm.81-1.26a2.46,2.46,0,0,0-.15-.88,2.13,2.13,0,0,0-.43-.68,1.83,1.83,0,0,0-.65-.44,2.21,2.21,0,0,0-.82-.15,2.11,2.11,0,0,0-.85.17,2,2,0,0,0-.65.45,1.88,1.88,0,0,0-.43.67,2.38,2.38,0,0,0-.14.81,2.41,2.41,0,0,0,.15.87,2,2,0,0,0,.43.69,1.8,1.8,0,0,0,.65.43,2,2,0,0,0,.81.16,2.13,2.13,0,0,0,.86-.17,1.93,1.93,0,0,0,.66-.45,1.84,1.84,0,0,0,.41-.67,2.16,2.16,0,0,0,.15-.81Zm.62,0a2.59,2.59,0,0,1-.21,1.05,2.65,2.65,0,0,1-.57.85,2.81,2.81,0,0,1-.86.57,2.67,2.67,0,0,1-1.06.21,2.91,2.91,0,0,1-1.07-.2,2.69,2.69,0,0,1-.84-.56,2.32,2.32,0,0,1-.55-.84,2.83,2.83,0,0,1-.2-1.07,2.58,2.58,0,0,1,.21-1,2.65,2.65,0,0,1,.57-.85,2.57,2.57,0,0,1,.85-.56,2.67,2.67,0,0,1,1.06-.21,2.83,2.83,0,0,1,1.07.2,2.45,2.45,0,0,1,.85.55,2.66,2.66,0,0,1,.55.84,2.82,2.82,0,0,1,.2,1.06Z"/></svg>