<svg id="Layer_1" data-name="Layer 1" xmlns="http://www.w3.org/2000/svg" viewBox="0 0 360 180"><defs><style>.cls-1{fill-rule:evenodd;}</style></defs><rect x="123.15" y="150.27" width="44.08" height="1.51"/><rect x="231.81" y="150.27" width="7.97" height="1.51"/><path d="M122,26.51V27H238a5.14,5.14,0,0,1,5.13,5.12v86.1a5.16,5.16,0,0,1-5.13,5.13H122a5.16,5.16,0,0,1-5.13-5.13V32.14A5.14,5.14,0,0,1,122,27V26a6.15,6.15,0,0,0-6.14,6.14h0v86.1h0a6.15,6.15,0,0,0,6.14,6.14H238a6.15,6.15,0,0,0,6.14-6.14V32.14A6.15,6.15,0,0,0,238,26H122v.51Z"/><path class="cls-1" d="M144.74,113.61V55l3.13-3.12h44.52L195.51,55V86l-3.12,3.13H157.24v21.39l-3.11,3.12ZM183,79.85V61.09H157.24V79.85Z"/><path class="cls-1" d="M199.21,44.85V35.59H211c0,4.09,0,5.17,0,9.26ZM202,88.36l-2.77-3.14V51.1H211V88.36Z"/><path d="M144.74,113.61V55l3.13-3.12h44.52L195.51,55V86l-3.12,3.13H157.24v21.39l-3.11,3.12ZM183,79.85V61.09H157.24V79.85Z"/><path d="M199.21,44.85V35.59H211c0,4.09,0,5.17,0,9.26ZM202,88.36l-2.77-3.14V51.1H211V88.36Z"/><polyline points="239.42 151.65 231.96 151.65 232.22 150.4 239.68 150.4 239.42 151.65"/><path class="cls-1" d="M231.27,131.9H233l4.47,9.26,4.35-9.26h1.77l-7.73,16.49h-1.78l2.54-5.4-5.35-11.09Zm-6.59,0h1.71v1.77a5.74,5.74,0,0,1,1.61-1.56,3.51,3.51,0,0,1,1.77-.51,3.29,3.29,0,0,1,1.48.41l-.87,1.31a2.45,2.45,0,0,0-.88-.21,2.55,2.55,0,0,0-1.62.63,4.05,4.05,0,0,0-1.18,2,17.42,17.42,0,0,0-.31,4.17V144h-1.71V131.9Zm-6.19-4.5h1.66v4.5h2.63v1.34h-2.63V144h-1.66V133.24h-2.27V131.9h2.27v-4.5Zm-16.33,4.5h1.66v2.17a6.69,6.69,0,0,1,2.22-1.85,5.85,5.85,0,0,1,2.66-.62,4.83,4.83,0,0,1,2.58.69,4.17,4.17,0,0,1,1.67,1.86,9.06,9.06,0,0,1,.54,3.62V144h-1.66v-5.76a13.44,13.44,0,0,0-.19-2.78,3.16,3.16,0,0,0-1.13-1.8,3.56,3.56,0,0,0-2.15-.6,4.52,4.52,0,0,0-4.3,3.24,14.77,14.77,0,0,0-.24,3.28V144h-1.66V131.9Zm-10.44,1.21a5.37,5.37,0,0,0-2.57.63,4.87,4.87,0,0,0-1.87,1.79,4.6,4.6,0,0,0,0,4.86,5,5,0,0,0,1.88,1.81,5.24,5.24,0,0,0,2.54.64,5.49,5.49,0,0,0,2.59-.64,4.58,4.58,0,0,0,2.54-4.2,4.61,4.61,0,0,0-1.48-3.49,5.07,5.07,0,0,0-3.64-1.4Zm6.68-1.21V144h-1.66V141.9a7,7,0,0,1-2.35,1.79,6.89,6.89,0,0,1-2.85.59,6.55,6.55,0,0,1-4.69-1.86,6,6,0,0,1-1.95-4.51,5.92,5.92,0,0,1,2-4.46,6.63,6.63,0,0,1,4.72-1.85,6.19,6.19,0,0,1,5.15,2.52V131.9Zm-17.81,4.82a5,5,0,0,0-1-2,4.58,4.58,0,0,0-1.7-1.2,5.42,5.42,0,0,0-2.22-.46,5,5,0,0,0-3.3,1.14,5.18,5.18,0,0,0-1.52,2.5Zm0,3.26,1.41.69a7.27,7.27,0,0,1-1.6,2,6.43,6.43,0,0,1-2,1.17,7.61,7.61,0,0,1-2.57.41,6.43,6.43,0,0,1-5-1.94A6.24,6.24,0,0,1,169,138a6.11,6.11,0,0,1,1.53-4.08,6.4,6.4,0,0,1,5.15-2.29,6.63,6.63,0,0,1,5.31,2.34,6.26,6.26,0,0,1,1.44,4.13H170.7a4.74,4.74,0,0,0,1.45,3.43,4.8,4.8,0,0,0,3.46,1.34,6.06,6.06,0,0,0,1.94-.31,5.39,5.39,0,0,0,1.6-.85,7.29,7.29,0,0,0,1.42-1.7Zm-21.09-6.87a5.64,5.64,0,0,0-2.63.63,4.84,4.84,0,0,0-1.9,1.77,4.56,4.56,0,0,0-.69,2.43,4.26,4.26,0,0,0,1.42,3.29,5.34,5.34,0,0,0,3.71,1.3,5.22,5.22,0,0,0,3.69-1.29,4.4,4.4,0,0,0,1.4-3.39,4.48,4.48,0,0,0-2.46-4.12,5.3,5.3,0,0,0-2.54-.62Zm4.93-1.21h1.66v9.62a10.51,10.51,0,0,1-.48,3.71,4.89,4.89,0,0,1-2.27,2.56,7.9,7.9,0,0,1-3.89.9,9.54,9.54,0,0,1-3-.44,6,6,0,0,1-2.16-1.19,7,7,0,0,1-1.54-2.17h1.81a4.62,4.62,0,0,0,1.91,1.79,6.52,6.52,0,0,0,2.89.58,6.4,6.4,0,0,0,2.88-.59,3.75,3.75,0,0,0,1.68-1.48,6.21,6.21,0,0,0,.5-2.88v-.63a6.39,6.39,0,0,1-2.3,1.71,7.25,7.25,0,0,1-2.89.59,7.14,7.14,0,0,1-3.36-.83,6.09,6.09,0,0,1-2.43-2.22,5.88,5.88,0,0,1,0-6.19,6.28,6.28,0,0,1,2.47-2.29,6.87,6.87,0,0,1,3.33-.85,6.61,6.61,0,0,1,2.71.56,7.31,7.31,0,0,1,2.43,1.84v-2.1Zm-21.65,1.21a5.33,5.33,0,0,0-2.56.63,4.73,4.73,0,0,0-1.87,1.79,4.54,4.54,0,0,0-.7,2.43,4.61,4.61,0,0,0,.7,2.43,5,5,0,0,0,1.88,1.81,5.24,5.24,0,0,0,2.54.64,5.46,5.46,0,0,0,2.59-.64,4.79,4.79,0,0,0,1.06-7.69,5.06,5.06,0,0,0-3.64-1.4Zm6.68-1.21V144h-1.66V141.9a7,7,0,0,1-2.35,1.79,6.84,6.84,0,0,1-2.84.59,6.55,6.55,0,0,1-4.7-1.86,6,6,0,0,1-1.94-4.51,5.91,5.91,0,0,1,2-4.46,6.65,6.65,0,0,1,4.72-1.85,6.49,6.49,0,0,1,2.89.63,6.41,6.41,0,0,1,2.26,1.89V131.9Zm-22.85,1.21a5.06,5.06,0,0,0-3.64,1.4,4.61,4.61,0,0,0-1.48,3.49,4.56,4.56,0,0,0,2.55,4.2,5.49,5.49,0,0,0,2.59.64,5.2,5.2,0,0,0,2.53-.64,5,5,0,0,0,1.88-1.81,4.61,4.61,0,0,0,.7-2.43,4.54,4.54,0,0,0-.7-2.43,4.73,4.73,0,0,0-1.87-1.79,5.33,5.33,0,0,0-2.56-.63Zm-6.68-1.21h1.66v2.22a6.53,6.53,0,0,1,2.27-1.89,6.43,6.43,0,0,1,2.87-.63,6.66,6.66,0,0,1,4.73,1.85,5.91,5.91,0,0,1,2,4.46,6,6,0,0,1-1.94,4.51,6.57,6.57,0,0,1-4.7,1.86,6.74,6.74,0,0,1-2.85-.6,7.18,7.18,0,0,1-2.34-1.79v6.5h-1.66V131.9Z"/><path class="cls-1" d="M230.7,148.49a1.77,1.77,0,0,0-.52-1,1.39,1.39,0,0,0-1-.35,1.68,1.68,0,0,0-1.14.44,1.65,1.65,0,0,0-.55,1.11,1.8,1.8,0,0,0,.19,1,3.89,3.89,0,0,0,.7.84,3,3,0,0,1,.68.88,1.46,1.46,0,0,1,.11.74,1.27,1.27,0,0,1-.44.87,1.21,1.21,0,0,1-.86.36,1,1,0,0,1-.71-.29,1.47,1.47,0,0,1-.38-.87l-.63.2a2,2,0,0,0,.55,1.17,1.45,1.45,0,0,0,1.05.4,2.08,2.08,0,0,0,1-.25,2.19,2.19,0,0,0,.78-.7,1.85,1.85,0,0,0,.22-1.84,3.29,3.29,0,0,0-.73-1,3.8,3.8,0,0,1-.65-.78,1.36,1.36,0,0,1-.17-.76,1,1,0,0,1,.3-.66.87.87,0,0,1,1.21,0,1.17,1.17,0,0,1,.34.65l.64-.15Zm-5.14-1.22h.65l-1.59,6.57h-.14l-3.16-5.08-1.23,5.08h-.65l1.58-6.57h.15l3.17,5.09,1.22-5.09Zm-9.37.45a3.67,3.67,0,0,0-1.72.41,3.61,3.61,0,0,0-1.29,1.17,3.48,3.48,0,0,0-.6,1.61,2.43,2.43,0,0,0,.17,1.3,1.82,1.82,0,0,0,.77.87,2.4,2.4,0,0,0,1.26.31,3.51,3.51,0,0,0,1.69-.43,3.59,3.59,0,0,0,1.3-1.18,3.46,3.46,0,0,0,.61-1.64,2.09,2.09,0,0,0-.62-1.85,2.23,2.23,0,0,0-1.57-.57Zm.08-.61a2.7,2.7,0,0,1,2.11.87,2.66,2.66,0,0,1,.65,2.2,4.11,4.11,0,0,1-1.4,2.72,4.25,4.25,0,0,1-2.91,1.1,2.77,2.77,0,0,1-2.18-.85,2.73,2.73,0,0,1-.62-2.21,4.2,4.2,0,0,1,.72-1.94,4.27,4.27,0,0,1,1.56-1.39,4.46,4.46,0,0,1,2.07-.5Zm-5.29.16-1.58,6.57h.66l1.58-6.57Zm-4.63,0h3.92l-.16.63h-1.64L207,153.84h-.67l1.43-5.94h-1.6l.15-.63Zm-3.63,1.38.55,2.42h-2.21l1.66-2.42Zm.35-1.38h-.15l-4.48,6.57h.73l1.47-2.15h2.77l.49,2.15h.68l-1.51-6.57Zm-9.67,0h.66l1.07,5.2,3.6-5.2h.72l-4.54,6.57h-.15l-1.36-6.57Zm-4.29.45a3.67,3.67,0,0,0-1.72.41,3.61,3.61,0,0,0-1.29,1.17,3.48,3.48,0,0,0-.6,1.61,2.53,2.53,0,0,0,.17,1.3,1.82,1.82,0,0,0,.77.87,2.4,2.4,0,0,0,1.26.31,3.51,3.51,0,0,0,1.69-.43,3.59,3.59,0,0,0,1.3-1.18,3.46,3.46,0,0,0,.61-1.64,2.09,2.09,0,0,0-.62-1.85,2.23,2.23,0,0,0-1.57-.57Zm.08-.61a2.7,2.7,0,0,1,2.11.87,2.66,2.66,0,0,1,.65,2.2,4.11,4.11,0,0,1-1.4,2.72,4.25,4.25,0,0,1-2.91,1.1,2.77,2.77,0,0,1-2.18-.85,2.73,2.73,0,0,1-.62-2.21,4.2,4.2,0,0,1,.72-1.94,4.27,4.27,0,0,1,1.56-1.39,4.46,4.46,0,0,1,2.07-.5Zm-5.41.16h.64l-1.58,6.57h-.14l-3.17-5.08-1.22,5.08h-.65l1.58-6.57h.14l3.17,5.09,1.23-5.09Zm-6.76,0-1.23,5.09-3.17-5.09h-.14l-1.58,6.57h.65l1.22-5.08,3.17,5.08h.14l1.58-6.57Zm-6.64,0H171l-1.58,6.57h-.66l1.58-6.57Z"/></svg>