<svg id="Layer_1" data-name="Layer 1" xmlns="http://www.w3.org/2000/svg" viewBox="0 0 360 180"><path d="M314.78,67.48,308.05,64l-.58-.3-.06.15a42.31,42.31,0,0,1-78.36-22.15c0-.26,0-.51,0-.77s.14-.57.2-.85l-.18,0-6.3-.8-1.68-.22-.15,0c0,.24,0,.48,0,.72a42.31,42.31,0,0,1-81.69,0c0-.27,0-.53,0-.8L139,39l-3,.38-5,.63-.2,0c.08.31.15.62.23.92s0,.51,0,.76A42.31,42.31,0,0,1,52.76,63.92l-.14-.38-.08,0v0l-6.44,3.29-.87.44L73.52,141h214l27.25-73.42Zm-33,65.35H79.12L60.18,83.32a50.16,50.16,0,0,0,28.6,8.91,50.58,50.58,0,0,0,48.56-36.64,50.46,50.46,0,0,0,85.47,0,50.45,50.45,0,0,0,77.45,27.52Z"/><path d="M279.46,98.61a3.44,3.44,0,1,1-3.44,3.45A3.45,3.45,0,0,1,279.46,98.61Zm0,6.27a2.83,2.83,0,1,0-2.82-2.82A2.82,2.82,0,0,0,279.46,104.88Zm-.67-1H278v-3.69h1.71c.22,0,1.4,0,1.4,1.1a1,1,0,0,1-.68,1l.68,1.6h-.83l-.6-1.47h-.9Zm0-2.09h.82c.26,0,.7-.06.7-.51,0-.22-.15-.49-.64-.49h-.88Z"/><path d="M267.83,98H239a5,5,0,0,0-5,5v19.39a5,5,0,0,0,5,5h28.84a5,5,0,0,0,5-5V103A5,5,0,0,0,267.83,98Zm-2.62,21a1.4,1.4,0,0,1-1.39,1.4h-21a1.4,1.4,0,0,1-1.39-1.4V106.28a1.39,1.39,0,0,1,1.39-1.39h21a1.39,1.39,0,0,1,1.39,1.39Z"/><path d="M126.91,111.74v-9.32A4.42,4.42,0,0,0,122.49,98H88.17v29.43h8.17v-7.64h20.39a1.75,1.75,0,0,1,1.71,1.78v5.86h8.47V120.5a4.42,4.42,0,0,0-3.87-4.38A4.42,4.42,0,0,0,126.91,111.74Zm-30.57-6.48h21.29a1.36,1.36,0,0,1,1.33,1.4v4.7a1.36,1.36,0,0,1-1.33,1.39H96.34Z"/><polygon points="167.24 115.48 167.24 109.8 143.86 109.8 143.86 104.51 167.84 104.51 167.84 98 135.31 98 135.31 127.43 167.84 127.43 167.84 120.77 143.86 120.77 143.86 115.48 167.24 115.48"/><polygon points="210 98 200.98 118.05 191.97 98 176.69 98 176.69 127.43 185.09 127.43 185.09 105.34 186.75 105.34 197.43 127.43 204.67 127.43 215.35 105.34 217.02 105.34 217.02 127.43 225.34 127.43 225.34 98 210 98"/></svg>