<svg id="Layer_1" data-name="Layer 1" xmlns="http://www.w3.org/2000/svg" viewBox="0 0 360 180"><path d="M341,83.25a44.26,44.26,0,0,1-42.15,44.2c.7,0,1.4,0,2.1,0a44.25,44.25,0,0,0,0-88.5c-.7,0-1.4,0-2.1,0A44.26,44.26,0,0,1,341,83.25"/><path d="M331.88,83.38a34.29,34.29,0,0,1-32.2,34.23c.7,0,1.4.07,2.1.07a34.31,34.31,0,1,0,0-68.61c-.7,0-1.4,0-2.1.07a34.3,34.3,0,0,1,32.2,34.24"/><path d="M323.5,83.25a26.53,26.53,0,0,1-24.36,26.44c.72,0,1.44.08,2.17.08a26.52,26.52,0,0,0,0-53c-.73,0-1.45,0-2.17.08A26.53,26.53,0,0,1,323.5,83.25"/><path d="M297.92,65.16a18.17,18.17,0,0,1-.64,36.33h-.16a18.14,18.14,0,0,0,3.06.26,18.37,18.37,0,0,0,0-36.73,18.65,18.65,0,0,0-2.26.15"/><path d="M76.73,83.8a3.11,3.11,0,0,0-1.06-2.2c-1.37-1.13-3.46-1.7-6.19-1.7a29.58,29.58,0,0,0-3.34.22l-.17,0c-1.82.2-38.09,7.74-38.42,7.81l-.17,0a1.73,1.73,0,0,1,.27-.42C29.09,86.44,62.91,60,66.47,54.65c.17-.28.35-.89-.13-1.2a.79.79,0,0,0-.45-.12,1.58,1.58,0,0,0-.66.17l-.13.06A153.84,153.84,0,0,0,24.39,81.82c-2.84,2.74-5.71,6.81-3.25,10.62l.1.16a6.18,6.18,0,0,0,4.47,2,5.86,5.86,0,0,0,1-.09c1.17-.2,6.3-1.24,12.79-2.56C50.71,89.67,66,86.55,67.1,86.55s1.15.19,1.17.23,0,0-.07.21c-.77,1.08-33.35,37.23-51.47,51.65-.91.69-2,1.61-1.92,2.05a.31.31,0,0,0,.21.25,1,1,0,0,0,.37.06,6.46,6.46,0,0,0,2.85-.95C49.09,119.8,75.14,87.78,75.4,87.46a5,5,0,0,0,1.33-3.66"/><path d="M191,62.35a1,1,0,0,0-.91-.45,1.73,1.73,0,0,0-.57.1s-2.31,1.47-3.32,2a9.22,9.22,0,0,0-1.9,1.37L183,66.61l1.09-.62c-.19.38-.58,1.08-1.39,2.38-2.44,3.92-6.31,14.61-7.21,17.89s-5.09,15.14-5.26,15.58c-.06.15-.24.66,0,.94a.37.37,0,0,0,.32.17c.16,0,.44-.07,1-.66.91-.92,3.16-4.07,4.8-6.38l1.37-1.9c1.6-2.19,12.54-25.16,13-26.13,1.66-3.48.71-4.89.28-5.53"/><path d="M113.48,96.82a23.4,23.4,0,0,0-3.84-.67c1.51-14,3.81-23.49,4.5-25.72,1.45-4.66,2.8-11.32,2.39-12.92-.24-.94-.78-1.13-1.19-1.13a1.84,1.84,0,0,0-.73.17,4.1,4.1,0,0,1-1.14,0,2.53,2.53,0,0,0-1.44.12H112c-.36,0-1,.69-1.38,1.09-2.16,2.41-24.93,32.1-31.86,41.14h0c-1.76.17-4.68.65-5.3,2.1a2,2,0,0,0,.95,2.72l-2.56,2.65a31.19,31.19,0,0,0-3,4.42c-.26.74-.51,1.64-.16,2.14.23.33.67.42,1.31.26,1.29-.33,3.72-1.32,5.17-1.9l.9-.36a13.26,13.26,0,0,0,4.11-3.44l.21-.25c.29-.37.89-1.1,1.71-2.12,3.55-.5,12.14-1.82,17.29-3.47,1.32-.43,2.66-.82,4-1.17a99,99,0,0,0,3.47,29.29l0,.08c.73,2.53,1,2.75,1.3,2.75a.3.3,0,0,0,.23-.11c.32-.33.27-1.86.24-2.5a219.22,219.22,0,0,1,.78-30.8c.62-.1,1-.14,1-.14l3.23-.71c.21-.06.89-.29.89-.72s-.51-.61-1-.75m-5-30.93,0,.14c-.23.5-.36.81-.37.84a149.94,149.94,0,0,0-4.61,29.22A94.73,94.73,0,0,0,87.54,98c6.49-8.55,15.23-20.87,20.92-32.09"/><path d="M235,87.42a31.59,31.59,0,0,0-7.93-1.12h-.73A97.33,97.33,0,0,1,228,66.17c2.11-10.24,1.17-12.59.47-13.52s-1.84.74-2.27,1.09a15.45,15.45,0,0,0-2.43,3c0-.35-.22-1.06-.84-.86-.81.25-5.11,5.84-5.11,5.84S203.66,79.47,195.46,89c-1.62.07-5.55.4-7.32,1.76-2.25,1.75.31,2.91.31,2.91s.84.36,2,.72c-2.87,2.85-9.78,10-9.39,12.51.19,1.16,4.64-.1,4.64-.1a9.28,9.28,0,0,0,4.52-2.38c1-1,2.71-2.38,8.26-9C202,95,211.35,94,214.28,93c1.29-.43,3.82-1,6.59-1.64a137.33,137.33,0,0,0,6.91,25.56s.77,2.18,1.33,2.13.08-2.44.08-2.44a202.92,202.92,0,0,1-2.74-26.44c3.09-.63,5.59-1.1,5.93-1.15.79-.13,2-.29,2.91-.41.71-.09.68-.81-.25-1.16m-30.63.7a214.11,214.11,0,0,0,16.75-24.61c-1.16,4.71-2.15,12.27-1,22.93a147,147,0,0,0-15.79,1.68"/><path d="M289.6,51.78c-.82-.15-1.62,1.44-1.62,1.44a134.87,134.87,0,0,0-10.3,25c-3.12,10.78-3.38,12.6-5.47,20.7l-.1.31s-.25.73-.54,1.78c-.66-1.86-1.38-3.81-1.74-4.89-.62-1.87-5.39-14.51-8.87-26.36a46.14,46.14,0,0,0-3-7.85,3.32,3.32,0,0,0-1.71-1.64,1.77,1.77,0,0,0-1.77.15,16.47,16.47,0,0,0-1.43,1.39l-.74.78c-.25.24-.33.35-.33.44a4.7,4.7,0,0,0-1.23.6A6,6,0,0,0,249.51,65a135.64,135.64,0,0,0-8.46,21.77c-2.19,8.47-5.39,17.09-5.39,17.09s-.28.64.16.61a1.11,1.11,0,0,0,.71-.31,50.38,50.38,0,0,0,9-13.09c2.58-5.74,6.39-14.87,8.41-21,1.14,3.39,5.63,16.61,9.69,25,3.84,8,6.7,12.21,7.53,12.86.42.53,1.54.33,3.84-.89a8.1,8.1,0,0,0,2.35-2.12,20.72,20.72,0,0,0,2.7-7.47s2.63-13.64,3.63-18.95,5.34-23,6-25.57c0,0,.31-1.08-.08-1.16"/><path d="M147.19,107.84c6.66-2.24,11.34-6.85,11.79-12.5.53-6.73-5.11-13-13.48-15.82a34.38,34.38,0,0,0-6.76-1.7l0,0c-1.82,5-10.24,21.3-11.6,22.44-.71.6-1,.8-1.27.8a.34.34,0,0,1-.29-.15c-.14-.21-.12-.58.4-2,.79-2.1,2.93-10.36,3.27-11.79.1-.43.58-2.18,1.14-4.2.67-2.42,1.43-5.15,1.75-6.43-1.94-.41-3.24-.72-3.87-.93-.21-.07-.84-.29-.84-.76,0-.7,1.56-1.26,2-1.41,0,0,2-.63,4-1.29,1.13-3,2.58-6.56,2.89-7.18a3.21,3.21,0,0,1,1.37-1.3,23.4,23.4,0,0,1,4-1.43c.86,0,1.19.27,1.55,1.93.2.88-.27,2.31-1.23,4.6L145,67.59c2.77-1.13,5.63-2.31,5.81-2.4a.78.78,0,0,0,.35-.55A.78.78,0,0,0,151,64c-.44-.54-2.36-1.17-4.06-1.55-.83-.19-5.61-1.1-9.83-1.9-3.7-.71-7.2-1.38-7.61-1.47a11.29,11.29,0,0,1-3-1.15,34.71,34.71,0,0,1-4.21-3.82,1.11,1.11,0,0,1-.51-.66.75.75,0,0,1,.18-.63,3.69,3.69,0,0,1,2.78-.86c1.21,0,18.08,3,22.87,4.3,4.53,1.18,10.29,3.19,11.6,4.94a3.78,3.78,0,0,1-.34,5.22c-1.35,1.06-9.69,4.56-15.16,5.88l-.18.06c13.82,2.77,23.77,12.09,23,22.32-.77,9.78-11.14,17.21-24.38,18.33l-.15,0c-1.49.11-3,.17-4.56.17h0a62.68,62.68,0,0,1-18.23-2.72l0,0c-.27-.17-.57-.43-.5-.7s.49-.28.64-.28a2.43,2.43,0,0,1,.36,0c3.78.35,7.38.53,10.7.53a59,59,0,0,0,16.66-2.07Z"/><polygon points="287.83 102.4 287.83 102.7 286.98 102.7 286.98 104.94 286.63 104.94 286.63 102.7 285.77 102.7 285.77 102.4 287.83 102.4"/><path d="M288.14,102.4h.49l.73,2.14.73-2.14h.49v2.54h-.33v-2.15l-.72,2.15h-.34l-.74-2.15v.08c0,.06,0,.16,0,.29s0,.22,0,.28v1.5h-.33Z"/></svg>