<svg id="Layer_1" data-name="Layer 1" xmlns="http://www.w3.org/2000/svg" viewBox="0 0 360 180"><path d="M334.45,67.15A4.88,4.88,0,1,1,339.34,72,4.82,4.82,0,0,1,334.45,67.15Zm4.89,4.07a4.05,4.05,0,1,0-3.92-4.07A3.91,3.91,0,0,0,339.34,71.22Zm-1-1.25h-.84V64.36h2.11c1.31,0,2,.49,2,1.6a1.45,1.45,0,0,1-1.44,1.54L341.69,70h-.94l-1.46-2.43h-1Zm1-3.15c.71,0,1.34,0,1.34-.91,0-.7-.62-.83-1.2-.83h-1.15v1.74Z"/><path d="M100.26,94.41q0,1.2,1,1.2v1.2H94v-1.2a.76.76,0,0,0,.59-.3,1.31,1.31,0,0,0,.27-.9V67.18H86.94a1.32,1.32,0,0,0-.84.33,1.61,1.61,0,0,0-.4,1.27h-.86V60.19h.86a1.59,1.59,0,0,0,.4,1.27,1.32,1.32,0,0,0,.84.33h21.2a1.31,1.31,0,0,0,.83-.33,1.59,1.59,0,0,0,.41-1.27h.86v8.59h-.86a1.61,1.61,0,0,0-.41-1.27,1.31,1.31,0,0,0-.83-.33h-7.88Z"/><path d="M123.9,67.77a11.87,11.87,0,0,1,3.44.47,6.39,6.39,0,0,1,4.36,4.14,11.89,11.89,0,0,1,.59,4A8.77,8.77,0,0,1,130.75,82a7.5,7.5,0,0,1-4.16,2.59L131.86,95a1.13,1.13,0,0,0,.65.66,2.28,2.28,0,0,0,.69.12v1h-7.4v-1a1.09,1.09,0,0,0,.61-.17.51.51,0,0,0,.26-.44,1.54,1.54,0,0,0-.16-.64c-.11-.24-.26-.56-.47-1L121.68,85H116v9.83a1,1,0,0,0,.26.75,1.36,1.36,0,0,0,.93.25v1h-6.85v-1c.76,0,1.15-.34,1.15-1V69.76c0-.67-.39-1-1.15-1v-1Zm-1,12.92a7.61,7.61,0,0,0,2.37-.31,3.6,3.6,0,0,0,1.51-.85,3.17,3.17,0,0,0,.79-1.3,5.66,5.66,0,0,0,0-3.26,3.13,3.13,0,0,0-.79-1.29,3.62,3.62,0,0,0-1.51-.86,8,8,0,0,0-2.37-.3H116v8.17Z"/><path d="M157.74,73.73a1.13,1.13,0,0,0-.36-.91,2.06,2.06,0,0,0-1.27-.3H142.23v6.84h8.4a2.5,2.5,0,0,0,1.33-.3c.31-.2.47-.73.47-1.57h.77V86.1h-.77c0-.85-.16-1.39-.47-1.63a2.17,2.17,0,0,0-1.33-.36h-8.4v7.62h14.31a1.45,1.45,0,0,0,1.05-.39,1.38,1.38,0,0,0,.41-1h.77v7.57H158c0-.55-.14-.87-.41-.94a4.27,4.27,0,0,0-1.05-.11h-20v-1a.76.76,0,0,0,.54-.25,1.1,1.1,0,0,0,.23-.75V69.76a1.1,1.1,0,0,0-.23-.75.72.72,0,0,0-.54-.25v-1h19.53a1.8,1.8,0,0,0,1.27-.36,1.31,1.31,0,0,0,.36-1h.77v7.29Z"/><path d="M184.1,73.73a1.13,1.13,0,0,0-.36-.91,1.89,1.89,0,0,0-1.22-.3H169.05v6.84h8.15a2.31,2.31,0,0,0,1.28-.3c.31-.2.46-.73.46-1.57h.75V86.1h-.75c0-.85-.15-1.39-.46-1.63a2,2,0,0,0-1.28-.36h-8.15v7.62h13.88a1.36,1.36,0,0,0,1.42-1.44h.75v7.57h-.75c0-.55-.13-.87-.4-.94a4,4,0,0,0-1-.11H163.56v-1a.72.72,0,0,0,.52-.25,1.1,1.1,0,0,0,.23-.75V69.76a1.1,1.1,0,0,0-.23-.75.68.68,0,0,0-.52-.25v-1h19a1.66,1.66,0,0,0,1.22-.36,1.31,1.31,0,0,0,.36-1h.75v7.29Z"/><path d="M196.07,63c-.47,0-.71.42-.71,1.26a5,5,0,0,0,.07.8q.07.47.36,1.53l5.11,18.51H201l5.06-18.77c.16-.58.26-1,.31-1.3a4.48,4.48,0,0,0,.07-.77c0-.84-.2-1.26-.62-1.26v-1.2H214V63a.49.49,0,0,0-.48.33,1.94,1.94,0,0,0-.14.73,9.63,9.63,0,0,0,.47,2.27l5.11,18.77h.1l5.15-19.17a5.6,5.6,0,0,0,.34-1.8,1.4,1.4,0,0,0-.24-.77.68.68,0,0,0-.57-.36v-1.2h7.06V63c-.35,0-.61.26-.78.8s-.38,1.2-.6,2l-6.88,25.44c-.19.71-.35,1.33-.5,1.86a5.44,5.44,0,0,0-.21,1.33,1.47,1.47,0,0,0,.24.83.74.74,0,0,0,.66.37v1.2h-7.54v-1.2a2.72,2.72,0,0,0,.6-.4.94.94,0,0,0,.31-.73,5,5,0,0,0-.17-1.2c-.11-.44-.29-1.07-.55-1.86l-5.49-19.64h-.09L204.57,91a17.33,17.33,0,0,0-.71,3.26c0,.71.2,1.15.62,1.33v1.2h-7.4v-1.2a1,1,0,0,0,.57-.2.75.75,0,0,0,.29-.67,4.31,4.31,0,0,0-.17-1.13q-.17-.6-.36-1.26l-7.64-27.5a9.39,9.39,0,0,0-.4-1.23,1.07,1.07,0,0,0-.7-.63v-1.2h7.4Z"/><path d="M243.57,67.44a12.25,12.25,0,0,1,4.54.91,13.07,13.07,0,0,1,4.22,2.73,14,14,0,0,1,3.12,4.61,18.46,18.46,0,0,1,0,13.2,14.19,14.19,0,0,1-3.12,4.61,12.05,12.05,0,0,1-4.22,2.65,12.83,12.83,0,0,1-9.08,0,12.05,12.05,0,0,1-4.22-2.65,14.19,14.19,0,0,1-3.12-4.61,18.46,18.46,0,0,1,0-13.2,14,14,0,0,1,3.12-4.61A13.07,13.07,0,0,1,239,68.35,12.25,12.25,0,0,1,243.57,67.44Zm0,5.08a7.73,7.73,0,0,0-3.08.66,8.82,8.82,0,0,0-2.78,1.9,9.41,9.41,0,0,0-2,3.07,11.51,11.51,0,0,0,0,8.28,9.47,9.47,0,0,0,2,3.06,8.69,8.69,0,0,0,2.78,1.91,7.52,7.52,0,0,0,6.16,0,8.8,8.8,0,0,0,2.78-1.91,9.8,9.8,0,0,0,2-3.06,11.66,11.66,0,0,0,0-8.28,9.74,9.74,0,0,0-2-3.07,8.94,8.94,0,0,0-2.78-1.9A7.76,7.76,0,0,0,243.57,72.52Z"/><path d="M274,67.69a12,12,0,0,1,3.45.46,6.86,6.86,0,0,1,2.65,1.5,6.49,6.49,0,0,1,1.7,2.65,11.62,11.62,0,0,1,.6,4,8.72,8.72,0,0,1-1.55,5.57,7.49,7.49,0,0,1-4.15,2.6L282,95a1.16,1.16,0,0,0,.65.66,2.31,2.31,0,0,0,.7.11v1h-7.41v-1a1.15,1.15,0,0,0,.62-.16.51.51,0,0,0,.26-.44,1.71,1.71,0,0,0-.16-.64c-.11-.24-.27-.56-.48-1l-4.35-8.61h-5.67v9.83a1,1,0,0,0,.26.74,1.31,1.31,0,0,0,.93.25v1H260.5v-1c.77,0,1.15-.33,1.15-1V69.67c0-.66-.38-1-1.15-1v-1ZM273,80.6a8,8,0,0,0,2.38-.3,3.74,3.74,0,0,0,1.5-.85,3.19,3.19,0,0,0,.8-1.3,5.89,5.89,0,0,0,0-3.26,3.19,3.19,0,0,0-.8-1.3,3.74,3.74,0,0,0-1.5-.85,8,8,0,0,0-2.38-.31h-6.85V80.6Z"/><path d="M292.73,94.74a1,1,0,0,0,.24.74.71.71,0,0,0,.55.25v1h-6.18v-1c.58,0,.88-.33.88-1V69.67c0-.66-.3-1-.88-1v-1h6.18v1a.71.71,0,0,0-.55.25,1,1,0,0,0-.24.74V80.16l8.19-9,.88-1.07a1.26,1.26,0,0,0,.31-.69.71.71,0,0,0-.18-.55.54.54,0,0,0-.41-.17v-1h8.31v1a2,2,0,0,0-1.42.83l-9.11,10.1L307.62,93a13.33,13.33,0,0,0,1.2,1.63,3.83,3.83,0,0,0,1.37,1.07v1h-7.33v-1c.35,0,.52-.13.52-.39a3.66,3.66,0,0,0-.56-1.21l-6.77-10.88-3.32,3.59Z"/><path d="M313.93,87.7l.4.28a2.23,2.23,0,0,0,.16.88,3.33,3.33,0,0,0,1.09,1.3,9.89,9.89,0,0,0,1.86,1.13,12.73,12.73,0,0,0,2.19.8,8.32,8.32,0,0,0,2.06.3,13,13,0,0,0,1.75-.14,7.83,7.83,0,0,0,2.09-.57,5.58,5.58,0,0,0,1.79-1.22,2.8,2.8,0,0,0,.75-2,2.35,2.35,0,0,0-.7-1.88,4.2,4.2,0,0,0-1.81-.88A13.6,13.6,0,0,0,323,85.3c-1-.06-2-.14-3-.25a20.73,20.73,0,0,1-2.95-.55,6.87,6.87,0,0,1-2.57-1.3,6.54,6.54,0,0,1-1.82-2.48,10.21,10.21,0,0,1-.7-4.12,10.34,10.34,0,0,1,.58-3.37,8.16,8.16,0,0,1,1.76-2.92,8.85,8.85,0,0,1,3-2.07,10.43,10.43,0,0,1,4.27-.8,13.56,13.56,0,0,1,3.65.44,20.37,20.37,0,0,1,2.67.94,19.84,19.84,0,0,1,1.9.94,2.77,2.77,0,0,0,1.29.44.91.91,0,0,0,.79-.33l.47.44-2.73,6.9-.4-.22a3.75,3.75,0,0,0-.31-1.27,4.06,4.06,0,0,0-1.05-1.3,8.4,8.4,0,0,0-1.72-1.13,11.12,11.12,0,0,0-2.14-.8,9.08,9.08,0,0,0-2.3-.3,8.75,8.75,0,0,0-1.8.19,6.52,6.52,0,0,0-1.68.58A3.79,3.79,0,0,0,317,74a2.47,2.47,0,0,0-.49,1.57,2.63,2.63,0,0,0,.69,2,4.36,4.36,0,0,0,1.82,1,13,13,0,0,0,2.57.45c1,.07,2,.16,3,.27a18.2,18.2,0,0,1,2.94.58,7.28,7.28,0,0,1,2.58,1.33,6.43,6.43,0,0,1,1.82,2.45,10,10,0,0,1,.69,4,9,9,0,0,1-1.09,4.7,8.6,8.6,0,0,1-2.71,2.87,9.58,9.58,0,0,1-3.5,1.4,18.9,18.9,0,0,1-3.51.37,16.75,16.75,0,0,1-3.78-.37,10.6,10.6,0,0,1-2.53-.88,13.93,13.93,0,0,1-1.6-.94,2,2,0,0,0-1-.41c-.19,0-.36.15-.52.44l-.55-.44Z"/><path d="M110.52,106.66c0-.35-.15-.52-.47-.52v-.52h3.29v.52a.35.35,0,0,0-.27.13.59.59,0,0,0-.11.39v13.08a.57.57,0,0,0,.11.38.35.35,0,0,0,.27.13v.52h-3.29v-.52c.32,0,.47-.17.47-.51v-5.42h-6.87v5.42a.52.52,0,0,0,.12.38.35.35,0,0,0,.26.13v.52h-3.22v-.52c.27,0,.41-.17.41-.51V106.66c0-.35-.14-.52-.41-.52v-.52H104v.52a.35.35,0,0,0-.26.13.54.54,0,0,0-.12.39v4.89h6.87Z"/><path d="M115.21,120.32a.53.53,0,0,0,.37-.32,4.81,4.81,0,0,0,.26-.63l3.37-9.71c.09-.21.16-.41.23-.6a1.32,1.32,0,0,0,.1-.47.41.41,0,0,0-.13-.35.72.72,0,0,0-.27-.15v-.45h3.07v.45a1,1,0,0,0-.25.14c-.09,0-.13.18-.13.36a1.12,1.12,0,0,0,.07.4,5.16,5.16,0,0,0,.19.52l3.78,10.16a.75.75,0,0,0,.25.4,2.41,2.41,0,0,0,.35.25v.45h-3.2v-.45a.32.32,0,0,0,.18-.07.27.27,0,0,0,.11-.23,2.24,2.24,0,0,0-.14-.65l-.7-1.84h-4.44l-.65,1.77a2.71,2.71,0,0,0-.18.75c0,.18.11.27.34.27v.45h-2.58Zm6.86-4.64L120.54,111l-1.71,4.65Z"/><path d="M127.53,120.32c.23,0,.35-.15.35-.45V108.54c0-.3-.12-.45-.35-.45v-.45h3.12v.45c-.1,0-.15.08-.15.25a1.59,1.59,0,0,0,.36.7l5.23,7.44v-7.94q0-.45-.48-.45v-.45h2.75v.45c-.23,0-.34.15-.34.45v11.33c0,.3.11.45.34.45v.45h-3v-.45c.16,0,.24-.07.24-.22a1.3,1.3,0,0,0-.29-.58l-5.55-7.93v8.28q0,.45.42.45v.45h-2.7Z"/><path d="M146.65,107.64a4.36,4.36,0,0,1,1.87.4,4,4,0,0,1,1.5,1.21,6,6,0,0,1,1,2,11.59,11.59,0,0,1,0,5.81,6,6,0,0,1-1,2,4,4,0,0,1-1.5,1.21,4.36,4.36,0,0,1-1.87.4h-6v-.45q.42,0,.42-.45V108.54q0-.45-.42-.45v-.45Zm-.72,11a5.12,5.12,0,0,0,1.49-.2,2.19,2.19,0,0,0,1.05-.72,3.37,3.37,0,0,0,.63-1.36,9.08,9.08,0,0,0,.21-2.14,9.17,9.17,0,0,0-.21-2.15,3.37,3.37,0,0,0-.63-1.36,2.17,2.17,0,0,0-1.05-.71,4.8,4.8,0,0,0-1.49-.2h-2.82v8.84Z"/><path d="M171.49,118.7l-.11,0h-.11a1.49,1.49,0,0,0-.58.35,13.7,13.7,0,0,1-1.16.77,7.81,7.81,0,0,1-1.59.75,5.55,5.55,0,0,1-1.86.32,6.63,6.63,0,0,1-2.46-.46,5.71,5.71,0,0,1-2.08-1.43,6.93,6.93,0,0,1-1.43-2.4,11.15,11.15,0,0,1,0-6.73,7.07,7.07,0,0,1,1.43-2.43,5.82,5.82,0,0,1,2.08-1.47,6.28,6.28,0,0,1,2.46-.49,6.79,6.79,0,0,1,1.87.23,11,11,0,0,1,1.47.49,5.68,5.68,0,0,1,1,.49,1.74,1.74,0,0,0,.45.23c.07,0,.13,0,.17-.15a1.52,1.52,0,0,0,.11-.23l.31.35-1.58,3.48-.21-.2a1,1,0,0,0,0-.17.75.75,0,0,0,0-.2,1.09,1.09,0,0,0-.4-.65,4,4,0,0,0-.9-.59,7.06,7.06,0,0,0-1.14-.43,3.87,3.87,0,0,0-1.1-.18,4,4,0,0,0-1.64.35,3.93,3.93,0,0,0-1.36,1,5,5,0,0,0-.92,1.63,7.29,7.29,0,0,0,0,4.4,5,5,0,0,0,.92,1.63,3.93,3.93,0,0,0,1.36,1,4,4,0,0,0,1.64.35,4.75,4.75,0,0,0,1.35-.22,6.69,6.69,0,0,0,1.3-.55,4.29,4.29,0,0,0,1-.75,1.2,1.2,0,0,0,.39-.79.78.78,0,0,0-.08-.35l.28-.23,1.34,3.06Z"/><path d="M179.85,107.64a5.54,5.54,0,0,1,1.58.21,3,3,0,0,1,1.22.68,2.85,2.85,0,0,1,.78,1.2,5.23,5.23,0,0,1,.28,1.8,4,4,0,0,1-.71,2.53,3.49,3.49,0,0,1-1.91,1.17l2.42,4.74a.49.49,0,0,0,.3.3.91.91,0,0,0,.31,0v.45h-3.4v-.45a.51.51,0,0,0,.28-.07.23.23,0,0,0,.12-.2.71.71,0,0,0-.07-.29l-.22-.44-2-3.89h-2.6v4.44a.44.44,0,0,0,.12.34.57.57,0,0,0,.42.11v.45h-3.14v-.45c.35,0,.52-.15.52-.45V108.54c0-.3-.17-.45-.52-.45v-.45Zm-.47,5.84a3.78,3.78,0,0,0,1.09-.13,1.89,1.89,0,0,0,.69-.39,1.39,1.39,0,0,0,.36-.59,2.51,2.51,0,0,0,0-1.47,1.39,1.39,0,0,0-.36-.59,1.76,1.76,0,0,0-.69-.39,3.78,3.78,0,0,0-1.09-.13h-3.15v3.69Z"/><path d="M184.84,120.32a.54.54,0,0,0,.38-.32,4.81,4.81,0,0,0,.26-.63l3.37-9.71c.08-.21.16-.41.22-.6a1.37,1.37,0,0,0,.11-.47.44.44,0,0,0-.13-.35.85.85,0,0,0-.28-.15v-.45h3.08v.45a1,1,0,0,0-.25.14c-.09,0-.13.18-.13.36a1.39,1.39,0,0,0,.06.4c0,.13.11.31.19.52l3.79,10.16a.8.8,0,0,0,.24.4,2.53,2.53,0,0,0,.36.25v.45h-3.2v-.45a.38.38,0,0,0,.18-.07.27.27,0,0,0,.11-.23,2,2,0,0,0-.15-.65l-.69-1.84h-4.44l-.66,1.77a2.71,2.71,0,0,0-.18.75c0,.18.12.27.35.27v.45h-2.59Zm6.86-4.64L190.18,111l-1.71,4.65Z"/><path d="M206.42,110.44a.53.53,0,0,0-.15-.41.83.83,0,0,0-.54-.14h-5.9V113h3.57a1.22,1.22,0,0,0,.56-.1c.14-.07.2-.21.2-.44h.33V116h-.33c0-.38-.06-.63-.2-.73a.85.85,0,0,0-.56-.16h-3.57v4.79a.41.41,0,0,0,.16.34.67.67,0,0,0,.39.11v.44h-3.09v-.44c.31,0,.47-.15.47-.45V108.66c0-.3-.16-.45-.47-.45v-.44h8.44a.77.77,0,0,0,.54-.16.62.62,0,0,0,.15-.44h.33v3.27Z"/><path d="M213.1,119.88c0,.3.14.45.4.45v.44h-2.8v-.44a.31.31,0,0,0,.23-.11.49.49,0,0,0,.1-.34V110h-3a.47.47,0,0,0-.32.13.54.54,0,0,0-.16.47h-.32v-3.47h.32a.55.55,0,0,0,.16.47.47.47,0,0,0,.32.13h8.08a.47.47,0,0,0,.31-.13.55.55,0,0,0,.16-.47h.33v3.47h-.33a.54.54,0,0,0-.16-.47.47.47,0,0,0-.31-.13h-3Z"/><path d="M227.7,110.44a.53.53,0,0,0-.15-.41.82.82,0,0,0-.54-.13h-5.89V113h3.56a1,1,0,0,0,.57-.14c.13-.09.2-.32.2-.7h.33V116h-.33a1,1,0,0,0-.2-.73.88.88,0,0,0-.57-.16h-3.56v3.42h6.08a.57.57,0,0,0,.44-.18.61.61,0,0,0,.17-.47h.33v3.39h-.33c0-.24-.05-.38-.17-.42a1.72,1.72,0,0,0-.44,0h-8.48v-.44a.29.29,0,0,0,.22-.11.49.49,0,0,0,.1-.34V108.66a.45.45,0,0,0-.1-.33.28.28,0,0,0-.22-.12v-.44H227a.76.76,0,0,0,.54-.16.62.62,0,0,0,.15-.44H228v3.27Z"/><path d="M236.22,107.64a4.29,4.29,0,0,1,1.86.4,4.15,4.15,0,0,1,1.51,1.21,6.22,6.22,0,0,1,1,2,11.94,11.94,0,0,1,0,5.82,6.27,6.27,0,0,1-1,2,4.05,4.05,0,0,1-1.51,1.21,4.29,4.29,0,0,1-1.86.4h-6v-.45q.42,0,.42-.45V108.54q0-.45-.42-.45v-.45Zm-.73,11a5.07,5.07,0,0,0,1.49-.2,2.17,2.17,0,0,0,1.06-.72,3.37,3.37,0,0,0,.63-1.36,9.65,9.65,0,0,0,.21-2.14,9.74,9.74,0,0,0-.21-2.15,3.37,3.37,0,0,0-.63-1.36A2.15,2.15,0,0,0,237,110a4.76,4.76,0,0,0-1.49-.2h-2.82v8.84Z"/><path d="M261.34,118.7l-.11,0h-.11a1.56,1.56,0,0,0-.58.35,13.36,13.36,0,0,1-1.15.77,8.35,8.35,0,0,1-1.59.75,5.61,5.61,0,0,1-1.87.32,6.58,6.58,0,0,1-2.45-.46A5.55,5.55,0,0,1,251.4,119a6.78,6.78,0,0,1-1.43-2.4,10.95,10.95,0,0,1,0-6.73,6.92,6.92,0,0,1,1.43-2.43,5.65,5.65,0,0,1,2.08-1.47,6.23,6.23,0,0,1,2.45-.49,6.92,6.92,0,0,1,1.88.23,10.35,10.35,0,0,1,1.46.49,5.83,5.83,0,0,1,1,.49,1.6,1.6,0,0,0,.44.23q.1,0,.18-.15l.11-.23.3.35-1.58,3.48-.2-.2a1,1,0,0,0,0-.17l0-.2a1.11,1.11,0,0,0-.41-.65,3.6,3.6,0,0,0-.9-.59,7.06,7.06,0,0,0-1.14-.43,3.82,3.82,0,0,0-1.1-.18,4,4,0,0,0-1.63.35,3.84,3.84,0,0,0-1.36,1,4.85,4.85,0,0,0-.92,1.63,7.09,7.09,0,0,0,0,4.4,4.85,4.85,0,0,0,.92,1.63,3.84,3.84,0,0,0,1.36,1,4,4,0,0,0,1.63.35,4.82,4.82,0,0,0,1.36-.22,7.25,7.25,0,0,0,1.3-.55,4,4,0,0,0,1-.75A1.2,1.2,0,0,0,260,116a.67.67,0,0,0-.08-.35l.29-.23,1.34,3.06Z"/><path d="M271.61,108.54c0-.3-.13-.45-.38-.45v-.45h2.64v.45a.31.31,0,0,0-.22.11.55.55,0,0,0-.09.34v11.33a.53.53,0,0,0,.09.34.28.28,0,0,0,.22.11v.45h-2.64v-.45c.25,0,.38-.15.38-.45v-4.69h-5.52v4.69a.53.53,0,0,0,.09.34.25.25,0,0,0,.21.11v.45h-2.58v-.45c.21,0,.32-.15.32-.45V108.54c0-.3-.11-.45-.32-.45v-.45h2.58v.45a.28.28,0,0,0-.21.11.55.55,0,0,0-.09.34v4.24h5.52Z"/><path d="M276.76,120.34q.48,0,.48-.45V108.52q0-.45-.48-.45v-.45h3v.45q-.48,0-.48.45v11.37q0,.45.48.45v.45h-3Z"/><path d="M282.44,120.34a.34.34,0,0,0,.25-.11.45.45,0,0,0,.11-.34V108.47a.36.36,0,0,0-.11-.31.37.37,0,0,0-.25-.09v-.45h3.4v.45a.32.32,0,0,0-.19.07.26.26,0,0,0-.1.23,1.4,1.4,0,0,0,.07.33l.17.42,2.6,6.51L291,109.2c.09-.22.15-.39.19-.52a1.05,1.05,0,0,0,.06-.33c0-.19-.07-.28-.23-.28v-.45h3.37v.45a.39.39,0,0,0-.26.09.39.39,0,0,0-.11.31v11.42a.5.5,0,0,0,.11.34.36.36,0,0,0,.26.11v.45h-2.86v-.45c.33,0,.49-.15.49-.45v-8.31h0l-3.65,9.21h-.06l-3.58-9.24h0v8.34q0,.45.51.45v.45h-2.73Z"/><path d="M305.59,110.37a.53.53,0,0,0-.15-.41.81.81,0,0,0-.54-.14H299v3.1h3.56a1,1,0,0,0,.57-.13c.13-.1.2-.33.2-.72h.32V116h-.32a1,1,0,0,0-.2-.74.88.88,0,0,0-.57-.16H299v3.45h6.07a.63.63,0,0,0,.45-.17.69.69,0,0,0,.17-.48H306v3.43h-.33c0-.25-.06-.39-.17-.42a1.43,1.43,0,0,0-.45,0H296.6v-.45a.29.29,0,0,0,.23-.12.45.45,0,0,0,.1-.33V108.57a.49.49,0,0,0-.1-.34.31.31,0,0,0-.23-.11v-.45h8.3a.71.71,0,0,0,.54-.17.59.59,0,0,0,.15-.43h.33v3.3Z"/><path d="M309.24,116.66l.18.12a1,1,0,0,0,.07.4,1.66,1.66,0,0,0,.5.59,4.76,4.76,0,0,0,.86.51,5.8,5.8,0,0,0,1,.37,3.9,3.9,0,0,0,.95.14,7.43,7.43,0,0,0,.8-.07,3.7,3.7,0,0,0,1-.26,2.46,2.46,0,0,0,.82-.55,1.26,1.26,0,0,0,.35-.93,1.09,1.09,0,0,0-.32-.85,2,2,0,0,0-.84-.4,6.6,6.6,0,0,0-1.18-.16c-.45,0-.9-.06-1.36-.11a10,10,0,0,1-1.35-.25,3.32,3.32,0,0,1-1.19-.59,3.1,3.1,0,0,1-.84-1.13,5.18,5.18,0,0,1-.05-3.39,3.87,3.87,0,0,1,.81-1.33,4.21,4.21,0,0,1,1.38-.94,5,5,0,0,1,2-.36,6.31,6.31,0,0,1,1.67.2,8.74,8.74,0,0,1,1.23.42c.35.16.64.3.87.43a1.35,1.35,0,0,0,.6.2.41.41,0,0,0,.36-.15l.22.2-1.26,3.13-.18-.1a1.76,1.76,0,0,0-.14-.58,1.83,1.83,0,0,0-.49-.58,3.49,3.49,0,0,0-.79-.52,5,5,0,0,0-1-.36,4.23,4.23,0,0,0-1.06-.14,4.12,4.12,0,0,0-.83.09,3.48,3.48,0,0,0-.77.26,1.64,1.64,0,0,0-.57.47,1.12,1.12,0,0,0-.23.71,1.19,1.19,0,0,0,.32.9,2,2,0,0,0,.84.45,5.57,5.57,0,0,0,1.18.2c.44,0,.89.08,1.35.13a7.6,7.6,0,0,1,1.36.26,3.43,3.43,0,0,1,1.19.6,3.06,3.06,0,0,1,.83,1.11,4.52,4.52,0,0,1,.32,1.83,4.09,4.09,0,0,1-.5,2.13,3.81,3.81,0,0,1-1.25,1.3,4.42,4.42,0,0,1-1.61.64,8.52,8.52,0,0,1-1.61.16,7.81,7.81,0,0,1-1.74-.16,5.21,5.21,0,0,1-1.16-.4,6.13,6.13,0,0,1-.74-.43.9.9,0,0,0-.47-.18c-.09,0-.16.06-.24.2l-.25-.2Z"/><rect x="23.29" y="52.99" width="3.75" height="72.1"/><rect x="30.08" y="52.99" width="3.75" height="62.96"/><rect x="36.87" y="52.99" width="3.75" height="57.2"/><rect x="43.65" y="52.99" width="3.75" height="52.87"/><rect x="50.44" y="52.99" width="3.75" height="49.83"/><rect x="57.23" y="52.99" width="3.75" height="47.9"/><rect x="64.02" y="52.99" width="3.75" height="47.1"/><path d="M74.79,133.74h-59V46.26h59Zm-55.24-3.85h51.5V50.11H19.55Z"/></svg>