<svg id="Layer_1" data-name="Layer 1" xmlns="http://www.w3.org/2000/svg" viewBox="0 0 360 180"><path d="M43.1,51.89A38.11,38.11,0,1,0,81.21,90,38.11,38.11,0,0,0,43.1,51.89Zm0,71.91A33.81,33.81,0,1,1,76.91,90,33.82,33.82,0,0,1,43.1,123.8Z"/><polygon points="296.79 82.25 284.08 82.25 284.08 56.83 272.46 56.83 272.46 123.16 284.08 123.16 284.08 94.04 296.79 94.04 296.79 123.16 308.67 123.16 308.67 56.83 296.79 56.83 296.79 82.25"/><polygon points="117.99 56.83 109.22 82.68 101.28 56.83 89.69 56.83 102.59 97.49 102.59 123.16 115.49 123.16 115.49 96.18 128.84 56.83 117.99 56.83"/><polygon points="196.16 88.38 189.7 56.83 171.58 56.83 171.58 123.16 181.97 123.16 181.97 73.16 190.84 116.63 200.56 116.63 208.43 72.45 208.43 123.16 220.62 123.16 220.62 56.83 201.73 56.83 196.16 88.38"/><path d="M344.06,56.83h-18L314,123.16h10.74l2.56-15.43h13.38l2.49,15.43H355ZM329.14,96.66,334.09,67l4.79,29.66Z"/><path d="M256,56.83h-18l-12.12,66.33h10.75l2.56-15.43h13.39l2.48,15.43H267ZM241.09,96.66,246,67l4.79,29.66Z"/><path d="M155.13,56.83h-18L125,123.16h10.76l2.56-15.43h13.38l2.5,15.43h11.84ZM140.21,96.66,145.15,67,150,96.66Z"/><path d="M70.8,105.34l-5.53-6.45a1.21,1.21,0,0,0-.25-.21,1,1,0,0,0-.89,0A2.94,2.94,0,0,1,60,96.52a7.33,7.33,0,0,0-3.6-5.09L53.89,90,68,81.86l-1.74-3L50.4,88l-1.9-1.11v-2.2l15.82-9.12-1.74-3L48.5,80.65V77.8a7.45,7.45,0,0,0-2.62-5.68,2.95,2.95,0,0,1,.24-4.66,1,1,0,0,0,.41-.79.81.81,0,0,0-.05-.31l-2.81-8a.6.6,0,0,0-.57-.4.58.58,0,0,0-.56.4l-2.82,8a1.06,1.06,0,0,0,0,.31.94.94,0,0,0,.4.79h0a3,3,0,0,1,.24,4.66,7.44,7.44,0,0,0-2.61,5.68v2.85L23.63,72.53l-1.75,3,15.84,9.12v2.21L35.82,88,20,78.85l-1.74,3L32.33,90l-2.47,1.43a7.32,7.32,0,0,0-3.61,5.09,2.94,2.94,0,0,1-4.17,2.12,1,1,0,0,0-.9,0,1.12,1.12,0,0,0-.23.21l-5.54,6.44a.6.6,0,0,0-.06.7.57.57,0,0,0,.62.27l8.36-1.55a1.25,1.25,0,0,0,.29-.11,1,1,0,0,0,.48-.76A2.93,2.93,0,0,1,29,101.34a7.42,7.42,0,0,0,6.23-.59l2.48-1.42v16.26H41.2V97.31l1.9-1.1L45,97.31v18.28H48.5V99.33L51,100.75a7.42,7.42,0,0,0,6.23.59,2.93,2.93,0,0,1,3.91,2.54,1,1,0,0,0,.48.76,1.45,1.45,0,0,0,.29.11l8.37,1.55a.56.56,0,0,0,.61-.27A.58.58,0,0,0,70.8,105.34Zm-33.08-10L33.07,98a1.9,1.9,0,0,1-2.6-.69,1.92,1.92,0,0,1,.69-2.6L35.82,92l1.9,1.11Zm3.48-18a1.91,1.91,0,0,1,3.81,0v5.37l-1.91,1.1-1.9-1.1Zm4.09,14L43.1,92.52l-2.18-1.26V88.74l2.18-1.27,2.19,1.27Zm10.45,6a1.9,1.9,0,0,1-2.6.69L48.5,95.3V93.11L50.4,92,55,94.69A1.89,1.89,0,0,1,55.74,97.29Z"/></svg>