<?xml version="1.0" encoding="utf-8"?>
<!-- Generator: Adobe Illustrator 15.1.0, SVG Export Plug-In . SVG Version: 6.00 Build 0)  -->
<!DOCTYPE svg PUBLIC "-//W3C//DTD SVG 1.1//EN" "http://www.w3.org/Graphics/SVG/1.1/DTD/svg11.dtd">
<svg version="1.1" xmlns="http://www.w3.org/2000/svg" xmlns:xlink="http://www.w3.org/1999/xlink" x="0px" y="0px"
	 width="685.333px" height="210.667px" viewBox="0 0 685.333 210.667" enable-background="new 0 0 685.333 210.667"
	 xml:space="preserve">
<g id="Layer_4">
</g>
<g id="Layer_2">
</g>
<g id="Layer_3">
	<polygon fill="#B2B2B2" stroke="#000000" points="415.334,17.667 415.334,2.167 268.667,2.167 268.667,17.667 2,17.667 2,163.001 
		327.334,163.001 358.667,163.001 684.001,163.001 684.001,17.667 	"/>
	<g>
		<path d="M313.356,11.148h3.486c0.6,0,1.375,0.024,1.823,0.664c0.2,0.288,0.312,0.68,0.312,1.111c0,0.544-0.176,0.912-0.384,1.159
			c-0.464,0.56-1.143,0.592-1.871,0.592h-1.975v2.127h-1.391V11.148z M314.748,13.683h1.743c0.456,0,1.08-0.008,1.08-0.76
			c0-0.304-0.104-0.496-0.24-0.624c-0.192-0.168-0.4-0.168-0.992-0.168h-1.591V13.683z"/>
		<path d="M319.865,11.156h3.886c0.64,0,1.223,0.056,1.695,0.6c0.288,0.336,0.368,0.76,0.368,1.087c0,0.432-0.144,0.944-0.543,1.248
			c-0.304,0.232-0.696,0.312-0.919,0.352l1.711,2.359h-1.663l-1.511-2.271h-1.607v2.271h-1.416V11.156z M321.28,13.531h2.254
			c0.304,0,0.848-0.04,0.848-0.672c0-0.112-0.016-0.304-0.112-0.44c-0.104-0.136-0.24-0.271-0.8-0.271h-2.19V13.531z"/>
		<path d="M326.918,11.156h5.261v1.016h-3.846v1.271h3.718v1h-3.718v1.352h4.006v1.007h-5.421V11.156z"/>
		<path d="M334.27,15.05c0.32,0.68,1.127,0.888,1.895,0.888c0.344,0,1.423-0.056,1.423-0.744c0-0.408-0.392-0.504-0.696-0.56
			c-0.232-0.048-1.391-0.224-1.655-0.271c-0.52-0.096-1.831-0.344-1.831-1.623c0-0.28,0.08-0.568,0.224-0.8
			c0.472-0.76,1.511-0.959,2.407-0.959c0.824,0,1.455,0.12,2.039,0.44c0.576,0.312,0.823,0.728,0.936,0.911l-1.343,0.336
			c-0.048-0.088-0.16-0.296-0.496-0.464c-0.375-0.184-0.863-0.216-1.135-0.216c-0.624,0-1.263,0.12-1.263,0.656
			c0,0.368,0.328,0.464,0.751,0.56c0.232,0.048,1.383,0.24,1.647,0.296c0.656,0.12,1.767,0.36,1.767,1.599
			c0,1.815-2.159,1.879-2.87,1.879c-0.928,0-2.359-0.16-3.086-1.591L334.27,15.05z"/>
		<path d="M340.988,15.05c0.32,0.68,1.127,0.888,1.895,0.888c0.344,0,1.423-0.056,1.423-0.744c0-0.408-0.392-0.504-0.695-0.56
			c-0.232-0.048-1.391-0.224-1.655-0.271c-0.52-0.096-1.831-0.344-1.831-1.623c0-0.28,0.08-0.568,0.224-0.8
			c0.472-0.76,1.511-0.959,2.407-0.959c0.824,0,1.455,0.12,2.039,0.44c0.575,0.312,0.823,0.728,0.936,0.911l-1.344,0.336
			c-0.048-0.088-0.159-0.296-0.496-0.464c-0.375-0.184-0.863-0.216-1.135-0.216c-0.624,0-1.263,0.12-1.263,0.656
			c0,0.368,0.328,0.464,0.751,0.56c0.232,0.048,1.383,0.24,1.646,0.296c0.656,0.12,1.768,0.36,1.768,1.599
			c0,1.815-2.159,1.879-2.87,1.879c-0.928,0-2.359-0.16-3.086-1.591L340.988,15.05z"/>
		<path d="M349.644,11.156h3.662c0.584,0.016,1.296,0.032,1.68,0.584c0.199,0.288,0.224,0.6,0.224,0.799
			c0,0.152-0.016,0.472-0.224,0.751c-0.232,0.304-0.536,0.4-0.712,0.448c0.352,0.096,1.224,0.312,1.224,1.439
			c0,0.328-0.072,0.671-0.256,0.951c-0.44,0.664-1.168,0.664-1.72,0.672h-3.878V11.156z M351.043,13.379h2.023
			c0.168,0,0.327-0.008,0.455-0.056c0.336-0.136,0.336-0.512,0.336-0.576c0-0.6-0.455-0.608-0.68-0.608h-2.135V13.379z
			 M351.043,15.81h2.119c0.319,0,0.919,0.008,0.919-0.768c0-0.68-0.535-0.68-0.743-0.68h-2.295V15.81z"/>
		<path d="M362.659,12.075c0.231,0.28,0.607,0.904,0.607,1.847c0,1.799-1.168,3.062-3.446,3.062s-3.486-1.24-3.486-2.999
			c0-1.943,1.392-2.926,3.246-3.006C360.691,10.932,361.955,11.22,362.659,12.075z M357.789,14.019c0,0.688,0.256,1.047,0.36,1.183
			c0.136,0.192,0.552,0.775,1.646,0.775c1.319,0,2.023-0.896,2.023-1.983c0-1.263-0.951-2.039-2.079-1.999
			C358.797,12.027,357.789,12.651,357.789,14.019z"/>
		<path d="M363.747,11.156h1.767l1.239,1.655c0.088,0.096,0.104,0.12,0.16,0.24c0.04-0.128,0.056-0.144,0.136-0.248l1.287-1.647
			h1.735l-2.247,2.687l2.575,2.958h-1.791l-1.567-1.943c-0.072-0.104-0.088-0.128-0.128-0.232c-0.056,0.128-0.064,0.144-0.144,0.256
			l-1.552,1.919h-1.799l2.583-2.958L363.747,11.156z"/>
	</g>
	<g>
		<path d="M337.212,172.95h4.222l-0.04,0.679h-3.582l-0.096,1.472c0.224-0.176,0.735-0.576,1.719-0.576
			c1.303,0,2.263,0.76,2.263,1.928c0,1.255-1.079,2.11-2.471,2.11c-0.551,0-1.111-0.128-1.575-0.424
			c-0.56-0.368-0.728-0.823-0.832-1.111l0.751-0.16c0.064,0.144,0.168,0.368,0.36,0.56c0.216,0.217,0.664,0.504,1.351,0.504
			c1.144,0,1.615-0.752,1.615-1.415c0-1.04-0.919-1.352-1.559-1.352c-0.536,0-1.312,0.216-1.671,0.911l-0.616-0.119L337.212,172.95z
			"/>
		<path d="M347.632,175.74c0,1.727-0.992,2.847-2.511,2.847c-1.655,0-2.487-1.328-2.487-2.911c0-1.383,0.776-2.814,2.479-2.83
			C346.76,172.829,347.632,174.125,347.632,175.74z M343.993,174.021c-0.471,0.52-0.551,1.232-0.551,1.752
			c0,1.335,0.719,2.166,1.695,2.166c0.4,0,0.784-0.151,1.08-0.424c0.472-0.455,0.615-1.127,0.615-1.783
			c0-0.583-0.128-1.104-0.352-1.471c-0.192-0.32-0.64-0.791-1.367-0.768C344.722,173.501,344.306,173.669,343.993,174.021z"/>
	</g>
	<g>
		<path d="M265.621,172.95h0.624v3.549h0.943v0.633h-0.943v1.326h-0.744v-1.326h-3.198v-0.641L265.621,172.95z M265.501,174.669
			c0-0.12,0-0.24,0.008-0.368c0-0.12,0.008-0.239,0.016-0.368c0,0.017-0.375,0.448-0.416,0.488l-1.943,2.078h2.334V174.669z"/>
		<path d="M273.117,175.74c0,1.727-0.991,2.847-2.511,2.847c-1.655,0-2.487-1.328-2.487-2.911c0-1.383,0.776-2.814,2.479-2.83
			C272.245,172.829,273.117,174.125,273.117,175.74z M269.479,174.021c-0.472,0.52-0.552,1.232-0.552,1.752
			c0,1.335,0.719,2.166,1.695,2.166c0.4,0,0.784-0.151,1.08-0.424c0.472-0.455,0.615-1.127,0.615-1.783
			c0-0.583-0.128-1.104-0.352-1.471c-0.192-0.32-0.64-0.791-1.367-0.768C270.206,173.501,269.791,173.669,269.479,174.021z"/>
	</g>
	<g>
		<path d="M415.62,172.95h0.624v3.549h0.943v0.633h-0.943v1.326h-0.743v-1.326h-3.199v-0.641L415.62,172.95z M415.501,174.669
			c0-0.12,0-0.24,0.008-0.368c0-0.12,0.008-0.239,0.016-0.368c0,0.017-0.375,0.448-0.416,0.488l-1.942,2.078h2.335V174.669z"/>
		<path d="M423.116,175.74c0,1.727-0.99,2.847-2.51,2.847c-1.656,0-2.487-1.328-2.487-2.911c0-1.383,0.776-2.814,2.479-2.83
			C422.245,172.829,423.116,174.125,423.116,175.74z M419.479,174.021c-0.472,0.52-0.552,1.232-0.552,1.752
			c0,1.335,0.719,2.166,1.695,2.166c0.4,0,0.783-0.151,1.08-0.424c0.471-0.455,0.615-1.127,0.615-1.783
			c0-0.583-0.129-1.104-0.352-1.471c-0.193-0.32-0.641-0.791-1.367-0.768C420.206,173.501,419.79,173.669,419.479,174.021z"/>
	</g>
	<g>
		<path d="M185.203,174.413c0.08-0.312,0.184-0.775,0.68-1.144c0.423-0.312,0.991-0.416,1.511-0.416c1.423,0,2.183,0.68,2.183,1.552
			c0,0.223-0.064,0.455-0.184,0.639c-0.192,0.297-0.456,0.393-0.656,0.465c0.168,0.063,0.44,0.151,0.696,0.432
			c0.336,0.359,0.36,0.768,0.36,0.959c0,0.991-0.855,1.671-2.319,1.671c-0.288,0-0.919-0.04-1.343-0.208
			c-0.855-0.336-1.031-1.008-1.135-1.391l0.751-0.176c0.072,0.359,0.232,1.127,1.735,1.127c0.815,0,1.487-0.296,1.487-1.063
			c0-0.327-0.136-0.552-0.256-0.672c-0.264-0.256-0.719-0.304-1.383-0.304c-0.176,0-0.352,0-0.536,0.008v-0.6
			c0.384,0.008,0.832,0.008,1.175-0.048c0.56-0.096,0.784-0.415,0.784-0.775c0-0.296-0.152-0.56-0.36-0.72
			c-0.216-0.168-0.543-0.271-0.975-0.271c-0.368,0-0.8,0.088-1.12,0.359c-0.296,0.248-0.328,0.527-0.352,0.712L185.203,174.413z"/>
		<path d="M195.798,175.74c0,1.727-0.992,2.847-2.511,2.847c-1.655,0-2.487-1.328-2.487-2.911c0-1.383,0.776-2.814,2.479-2.83
			C194.926,172.829,195.798,174.125,195.798,175.74z M192.16,174.021c-0.472,0.52-0.552,1.232-0.552,1.752
			c0,1.335,0.719,2.166,1.695,2.166c0.4,0,0.784-0.151,1.08-0.424c0.472-0.455,0.615-1.127,0.615-1.783
			c0-0.583-0.128-1.104-0.352-1.471c-0.192-0.32-0.64-0.791-1.367-0.768C192.888,173.501,192.472,173.669,192.16,174.021z"/>
	</g>
	<g>
		<path d="M487.036,174.413c0.08-0.312,0.184-0.775,0.68-1.144c0.424-0.312,0.992-0.416,1.512-0.416c1.423,0,2.183,0.68,2.183,1.552
			c0,0.223-0.063,0.455-0.185,0.639c-0.191,0.297-0.455,0.393-0.655,0.465c0.168,0.063,0.44,0.151,0.696,0.432
			c0.336,0.359,0.359,0.768,0.359,0.959c0,0.991-0.855,1.671-2.318,1.671c-0.288,0-0.92-0.04-1.344-0.208
			c-0.855-0.336-1.031-1.008-1.135-1.391l0.751-0.176c0.072,0.359,0.231,1.127,1.735,1.127c0.815,0,1.486-0.296,1.486-1.063
			c0-0.327-0.135-0.552-0.256-0.672c-0.264-0.256-0.719-0.304-1.383-0.304c-0.176,0-0.352,0-0.535,0.008v-0.6
			c0.383,0.008,0.831,0.008,1.175-0.048c0.56-0.096,0.784-0.415,0.784-0.775c0-0.296-0.152-0.56-0.36-0.72
			c-0.216-0.168-0.544-0.271-0.976-0.271c-0.367,0-0.799,0.088-1.119,0.359c-0.296,0.248-0.328,0.527-0.352,0.712L487.036,174.413z"
			/>
		<path d="M497.632,175.74c0,1.727-0.992,2.847-2.511,2.847c-1.655,0-2.487-1.328-2.487-2.911c0-1.383,0.776-2.814,2.479-2.83
			C496.76,172.829,497.632,174.125,497.632,175.74z M493.993,174.021c-0.471,0.52-0.551,1.232-0.551,1.752
			c0,1.335,0.719,2.166,1.694,2.166c0.4,0,0.784-0.151,1.08-0.424c0.472-0.455,0.615-1.127,0.615-1.783
			c0-0.583-0.128-1.104-0.352-1.471c-0.192-0.32-0.64-0.791-1.367-0.768C494.722,173.501,494.306,173.669,493.993,174.021z"/>
	</g>
	<g>
		<path d="M111.522,177.803h2.774v0.655h-4.518v-0.751c0.704-0.336,1.855-0.896,2.734-1.552c0.408-0.295,0.848-0.68,0.848-1.318
			c0-0.809-0.631-1.296-1.439-1.296c-0.448,0-0.816,0.152-1.048,0.376c-0.368,0.359-0.384,0.815-0.399,1.199l-0.776-0.111
			c0.016-0.32,0.04-0.721,0.312-1.145c0.328-0.52,1-0.982,1.943-0.982c1.479,0,2.207,1.031,2.207,1.935
			c0,0.544-0.24,1.048-0.624,1.431c-0.768,0.768-2.814,1.647-2.814,1.623C111.09,177.819,111.178,177.812,111.522,177.803z"/>
		<path d="M120.229,175.74c0,1.727-0.992,2.847-2.511,2.847c-1.655,0-2.487-1.328-2.487-2.911c0-1.383,0.776-2.814,2.479-2.83
			C119.357,172.829,120.229,174.125,120.229,175.74z M116.591,174.021c-0.472,0.52-0.552,1.232-0.552,1.752
			c0,1.335,0.719,2.166,1.695,2.166c0.4,0,0.784-0.151,1.08-0.424c0.472-0.455,0.615-1.127,0.615-1.783
			c0-0.583-0.128-1.104-0.352-1.471c-0.192-0.32-0.64-0.791-1.367-0.768C117.319,173.501,116.903,173.669,116.591,174.021z"/>
	</g>
	<g>
		<path d="M562.855,177.803h2.774v0.655h-4.518v-0.751c0.703-0.336,1.855-0.896,2.734-1.552c0.408-0.295,0.848-0.68,0.848-1.318
			c0-0.809-0.631-1.296-1.439-1.296c-0.447,0-0.815,0.152-1.047,0.376c-0.368,0.359-0.385,0.815-0.4,1.199l-0.775-0.111
			c0.016-0.32,0.04-0.721,0.312-1.145c0.327-0.52,0.999-0.982,1.942-0.982c1.479,0,2.207,1.031,2.207,1.935
			c0,0.544-0.24,1.048-0.624,1.431c-0.768,0.768-2.814,1.647-2.814,1.623C562.424,177.819,562.512,177.812,562.855,177.803z"/>
		<path d="M571.563,175.74c0,1.727-0.992,2.847-2.512,2.847c-1.654,0-2.486-1.328-2.486-2.911c0-1.383,0.775-2.814,2.479-2.83
			C570.69,172.829,571.563,174.125,571.563,175.74z M567.925,174.021c-0.472,0.52-0.552,1.232-0.552,1.752
			c0,1.335,0.72,2.166,1.694,2.166c0.4,0,0.785-0.151,1.08-0.424c0.473-0.455,0.615-1.127,0.615-1.783
			c0-0.583-0.127-1.104-0.352-1.471c-0.191-0.32-0.639-0.791-1.367-0.768C568.653,173.501,568.237,173.669,567.925,174.021z"/>
	</g>
	<g>
		<path d="M37.547,173.885c0.312-0.008,0.647-0.016,1.056-0.231c0.408-0.208,0.543-0.472,0.664-0.688h0.6v5.492h-0.792v-4.285
			c-0.472,0.208-0.768,0.232-1.527,0.256V173.885z"/>
		<path d="M46.973,175.74c0,1.727-0.991,2.847-2.511,2.847c-1.655,0-2.487-1.328-2.487-2.911c0-1.383,0.776-2.814,2.479-2.83
			C46.101,172.829,46.973,174.125,46.973,175.74z M43.334,174.021c-0.472,0.52-0.552,1.232-0.552,1.752
			c0,1.335,0.72,2.166,1.695,2.166c0.4,0,0.784-0.151,1.08-0.424c0.472-0.455,0.615-1.127,0.615-1.783
			c0-0.583-0.128-1.104-0.352-1.471c-0.192-0.32-0.64-0.791-1.367-0.768C44.062,173.501,43.646,173.669,43.334,174.021z"/>
	</g>
	<g>
		<path d="M639.881,173.885c0.312-0.008,0.647-0.016,1.056-0.231c0.408-0.208,0.543-0.472,0.664-0.688h0.6v5.492h-0.792v-4.285
			c-0.472,0.208-0.768,0.232-1.527,0.256V173.885z"/>
		<path d="M649.307,175.74c0,1.727-0.991,2.847-2.511,2.847c-1.655,0-2.486-1.328-2.486-2.911c0-1.383,0.775-2.814,2.479-2.83
			C648.435,172.829,649.307,174.125,649.307,175.74z M645.669,174.021c-0.473,0.52-0.553,1.232-0.553,1.752
			c0,1.335,0.721,2.166,1.695,2.166c0.4,0,0.784-0.151,1.08-0.424c0.472-0.455,0.615-1.127,0.615-1.783
			c0-0.583-0.128-1.104-0.352-1.471c-0.192-0.32-0.64-0.791-1.367-0.768C646.396,173.501,645.98,173.669,645.669,174.021z"/>
	</g>
	<rect x="158.085" y="103.233" fill="#00B8E8" stroke="#000000" width="111.082" height="43.184"/>
	<rect x="158.085" y="146.483" fill="#D424ED" stroke="#000000" width="111.082" height="10.184"/>
	<rect x="278.085" y="25.233" fill="#FF9E00" stroke="#000000" width="128.332" height="69.434"/>
	<rect x="278.085" y="103.233" fill="#30D469" stroke="#000000" width="128.332" height="43.184"/>
	<rect x="278.085" y="146.483" fill="#D424ED" stroke="#000000" width="128.332" height="10.184"/>
	<rect x="50.835" y="25.233" fill="#00B8E8" stroke="#000000" width="98.332" height="69.434"/>
	<rect x="8.085" y="25.233" fill="#FFFF00" stroke="#000000" width="34.082" height="69.434"/>
	<rect x="8.085" y="103.233" fill="#FFFF00" stroke="#000000" width="34.082" height="43.184"/>
	<rect x="8.085" y="146.483" fill="#D424ED" stroke="#000000" width="34.082" height="10.184"/>
	<rect x="278.085" y="73.483" fill="#30D469" stroke="#000000" width="128.332" height="21.184"/>
	<rect x="50.835" y="103.233" fill="#FFFF00" stroke="#000000" width="41.832" height="43.184"/>
	<rect x="334.001" y="192.233" fill="#FF9E00" stroke="#000000" width="17.832" height="17.434"/>
	<rect x="102.167" y="103.233" fill="#FFFF00" stroke="#000000" width="47" height="43.184"/>
	<rect x="50.835" y="146.483" fill="#D424ED" stroke="#000000" width="41.832" height="10.184"/>
	<rect x="102.167" y="146.483" fill="#D424ED" stroke="#000000" width="47" height="10.184"/>
	<polygon fill="#30D469" stroke="#000000" points="158.085,25.233 158.085,94.667 218.042,94.667 218.042,94.667 235.042,94.667 
		235.042,94.667 269.167,94.667 269.167,25.233 	"/>
	<rect x="416.085" y="103.233" fill="#00B8E8" stroke="#000000" width="111.082" height="43.184"/>
	<rect x="416.085" y="146.483" fill="#D424ED" stroke="#000000" width="111.082" height="10.184"/>
	<rect x="536.085" y="25.233" fill="#00B8E8" stroke="#000000" width="98.332" height="69.434"/>
	<rect x="643.085" y="25.233" fill="#FFFF00" stroke="#000000" width="34.082" height="69.434"/>
	<rect x="643.085" y="103.233" fill="#FFFF00" stroke="#000000" width="34.082" height="43.184"/>
	<rect x="643.085" y="146.483" fill="#D424ED" stroke="#000000" width="34.082" height="10.184"/>
	<rect x="593.042" y="103.233" fill="#FFFF00" stroke="#000000" width="41.375" height="43.184"/>
	<rect x="536.085" y="103.233" fill="#FFFF00" stroke="#000000" width="47" height="43.184"/>
	<rect x="593.042" y="146.483" fill="#D424ED" stroke="#000000" width="41.375" height="10.184"/>
	<rect x="536.085" y="146.483" fill="#D424ED" stroke="#000000" width="47" height="10.184"/>
	<polygon fill="#30D469" stroke="#000000" points="527.167,25.233 527.167,94.667 467.21,94.667 467.21,94.667 450.21,94.667 
		450.21,94.667 416.085,94.667 416.085,25.233 	"/>
	<g>
		<rect x="207.75" y="83.301" width="12" height="11"/>
		<g>
			<path fill="#FFFFFF" d="M217.198,89.596c-0.104,0.352-0.232,0.76-0.736,1.223c-0.456,0.416-1.207,0.888-2.646,0.888
				c-2.007,0-3.398-1.047-3.398-3.022c0-2.127,1.695-2.99,3.478-2.99c0.647,0,2.502,0.144,3.238,1.759l-1.551,0.192
				c-0.152-0.24-0.592-0.912-1.687-0.912c-1.279,0-2.007,0.887-2.007,1.967c0,1.231,0.967,1.967,2.039,1.967
				c1.224,0,1.599-0.719,1.783-1.063L217.198,89.596z"/>
		</g>
	</g>
	<g>
		<rect x="92.25" y="83.301" width="12" height="11"/>
		<g>
			<path fill="#FFFFFF" d="M95.367,85.868h3.662c0.583,0.016,1.295,0.032,1.679,0.584c0.2,0.288,0.224,0.6,0.224,0.799
				c0,0.152-0.016,0.472-0.224,0.751c-0.231,0.304-0.536,0.4-0.711,0.448c0.352,0.096,1.223,0.312,1.223,1.439
				c0,0.328-0.072,0.671-0.256,0.951c-0.439,0.664-1.167,0.664-1.719,0.672h-3.878V85.868z M96.767,88.091h2.022
				c0.168,0,0.328-0.008,0.456-0.056c0.336-0.136,0.336-0.512,0.336-0.576c0-0.6-0.456-0.608-0.68-0.608h-2.135V88.091z
				 M96.767,90.521h2.119c0.32,0,0.919,0.008,0.919-0.768c0-0.68-0.536-0.68-0.744-0.68h-2.294V90.521z"/>
		</g>
	</g>
	<g>
		<rect x="581.25" y="83.301" width="12" height="11"/>
		<g>
			<path fill="#FFFFFF" d="M584.875,85.868h5.222v1.016h-3.814v1.447h3.59v1h-3.59v2.183h-1.407V85.868z"/>
		</g>
	</g>
	<g>
		<rect x="18.749" y="83.301" width="12" height="11"/>
		<g>
			<path fill="#FFFFFF" d="M23.9,85.868h1.527l2.727,5.645h-1.583l-0.48-1.063h-2.895l-0.479,1.063h-1.543L23.9,85.868z
				 M24.796,87.603c-0.04-0.072-0.072-0.152-0.096-0.224c-0.024-0.072-0.04-0.144-0.048-0.224c-0.024,0.072-0.04,0.136-0.056,0.2
				c-0.032,0.072-0.056,0.144-0.088,0.216l-0.855,1.879h1.983L24.796,87.603z"/>
		</g>
	</g>
	<g>
		<rect x="654.25" y="83.301" width="12" height="11"/>
		<g>
			<path fill="#FFFFFF" d="M662.42,90.865c-0.607,0.591-1.479,0.815-2.335,0.815c-2.67,0-3.406-1.663-3.406-3.015
				c0-0.735,0.265-1.447,0.768-1.991c0.936-1,2.399-1,2.839-1c0.552,0,1.439,0.064,2.215,0.536c0.616,0.384,0.855,0.816,0.999,1.072
				l-1.559,0.216c-0.232-0.28-0.64-0.776-1.711-0.776c-1.207,0-2.096,0.704-2.096,1.959c0,1.104,0.76,1.967,2.136,1.967
				c0.671,0,1.231-0.216,1.583-0.496c0.336-0.264,0.399-0.488,0.464-0.647h-1.855V88.49h3.038v3.022h-1.079V90.865z"/>
		</g>
	</g>
	<g>
		<rect x="335.749" y="83.301" width="12" height="11"/>
		<g>
			<path fill="#FFFFFF" d="M338.698,85.87h3.086c0.208,0.008,0.416,0.008,0.624,0.032c1.647,0.152,2.462,1.303,2.462,2.758
				c0,0.648-0.159,1.288-0.551,1.807c-0.792,1.031-1.855,1.04-2.711,1.047h-2.91V85.87z M340.105,86.87v3.646h1.559
				c0.504-0.008,1.08-0.016,1.455-0.552c0.168-0.232,0.344-0.624,0.344-1.335c0-0.536-0.12-0.904-0.28-1.16
				c-0.368-0.583-0.959-0.591-1.447-0.6H340.105z"/>
		</g>
	</g>
	<g>
		<rect x="464.124" y="83.301" width="12" height="11"/>
		<g>
			<path fill="#FFFFFF" d="M467.489,85.868h5.261v1.016h-3.847v1.271h3.719v1h-3.719v1.352h4.006v1.007h-5.42V85.868z"/>
		</g>
	</g>
	<g>
		<path d="M360.835,197.176h2.145l2.08,5.094c0.121,0.319,0.153,0.418,0.23,0.737c0.1-0.352,0.121-0.44,0.253-0.737l2.091-5.094
			h2.09l-3.487,7.767h-1.893L360.835,197.176z"/>
		<path d="M370.715,197.176h1.947v7.767h-1.947V197.176z"/>
		<path d="M374.454,197.165h4.797c0.826,0,1.893,0.033,2.509,0.912c0.274,0.396,0.429,0.936,0.429,1.529
			c0,0.748-0.242,1.255-0.527,1.596c-0.639,0.771-1.574,0.814-2.574,0.814h-2.718v2.926h-1.915V197.165z M376.369,200.652h2.398
			c0.627,0,1.485-0.011,1.485-1.046c0-0.418-0.144-0.682-0.33-0.857c-0.264-0.23-0.551-0.23-1.364-0.23h-2.189V200.652z"/>
	</g>
	<rect x="163.668" y="192.233" fill="#30D469" stroke="#000000" width="17.832" height="17.434"/>
	<g>
		<path d="M192.503,202.534c0.44,0.935,1.551,1.221,2.607,1.221c0.473,0,1.958-0.077,1.958-1.023c0-0.561-0.539-0.693-0.957-0.77
			c-0.319-0.066-1.915-0.309-2.277-0.375c-0.715-0.131-2.52-0.473-2.52-2.232c0-0.385,0.11-0.781,0.308-1.101
			c0.649-1.045,2.08-1.32,3.312-1.32c1.133,0,2.002,0.165,2.806,0.604c0.792,0.43,1.133,1.002,1.287,1.255l-1.849,0.462
			c-0.066-0.121-0.22-0.406-0.682-0.638c-0.517-0.253-1.188-0.298-1.562-0.298c-0.858,0-1.738,0.166-1.738,0.902
			c0,0.506,0.451,0.639,1.034,0.771c0.319,0.065,1.903,0.33,2.267,0.407c0.902,0.165,2.431,0.494,2.431,2.2
			c0,2.497-2.97,2.585-3.95,2.585c-1.276,0-3.245-0.22-4.247-2.189L192.503,202.534z"/>
		<path d="M200.298,197.176h1.936v4.565c0,0.693,0.143,1.276,0.88,1.629c0.627,0.297,1.188,0.274,1.76,0.252
			c0.737-0.065,1.21-0.264,1.518-0.615c0.187-0.221,0.352-0.473,0.33-1.254v-4.577h1.937v4.511
			c-0.011,0.825-0.011,1.605-0.671,2.332c-0.803,0.891-2.299,1.188-3.477,1.188c-0.55,0-1.1-0.056-1.639-0.187
			c-0.374-0.089-0.858-0.242-1.342-0.562c-1.221-0.825-1.232-1.849-1.232-2.772V197.176z"/>
		<path d="M210.479,197.165h4.797c0.825,0,1.892,0.033,2.508,0.912c0.275,0.396,0.429,0.936,0.429,1.529
			c0,0.748-0.242,1.255-0.528,1.596c-0.638,0.771-1.573,0.814-2.574,0.814h-2.717v2.926h-1.915V197.165z M212.394,200.652h2.398
			c0.627,0,1.485-0.011,1.485-1.046c0-0.418-0.143-0.682-0.33-0.857c-0.264-0.23-0.55-0.23-1.364-0.23h-2.189V200.652z"/>
		<path d="M219.278,197.176h7.239v1.397h-5.292v1.749h5.115v1.375h-5.115v1.859h5.512v1.386h-7.459V197.176z"/>
		<path d="M228.199,197.176h5.347c0.88,0,1.683,0.077,2.332,0.825c0.396,0.462,0.506,1.045,0.506,1.496
			c0,0.594-0.197,1.299-0.748,1.717c-0.418,0.318-0.957,0.429-1.265,0.483l2.354,3.245h-2.289l-2.079-3.124h-2.211v3.124h-1.947
			V197.176z M230.146,200.443h3.103c0.418,0,1.166-0.056,1.166-0.925c0-0.153-0.022-0.418-0.154-0.604
			c-0.143-0.187-0.33-0.374-1.1-0.374h-3.015V200.443z"/>
		<path d="M241.695,197.165h4.797c0.825,0,1.893,0.033,2.509,0.912c0.274,0.396,0.429,0.936,0.429,1.529
			c0,0.748-0.242,1.255-0.528,1.596c-0.638,0.771-1.573,0.814-2.574,0.814h-2.718v2.926h-1.914V197.165z M243.609,200.652h2.398
			c0.627,0,1.485-0.011,1.485-1.046c0-0.418-0.143-0.682-0.33-0.857c-0.264-0.23-0.55-0.23-1.364-0.23h-2.189V200.652z"/>
		<path d="M250.5,197.176h5.347c0.88,0,1.683,0.077,2.332,0.825c0.396,0.462,0.506,1.045,0.506,1.496
			c0,0.594-0.197,1.299-0.748,1.717c-0.418,0.318-0.957,0.429-1.265,0.483l2.354,3.245h-2.289l-2.079-3.124h-2.211v3.124H250.5
			V197.176z M252.447,200.443h3.103c0.418,0,1.166-0.056,1.166-0.925c0-0.153-0.022-0.418-0.154-0.604
			c-0.143-0.187-0.33-0.374-1.1-0.374h-3.015V200.443z"/>
		<path d="M260.057,197.176h7.239v1.397h-5.292v1.749h5.116v1.375h-5.116v1.859h5.513v1.386h-7.46V197.176z"/>
		<path d="M268.971,197.176h2.806l2.024,4.753c0.209,0.506,0.286,0.715,0.396,1.154c0.076-0.33,0.143-0.527,0.362-1.066l2.024-4.841
			h2.783v7.767h-1.837v-5.434c0-0.232,0.033-0.43,0.077-0.727c-0.077,0.23-0.11,0.318-0.22,0.594l-2.321,5.566h-1.771l-2.321-5.457
			c-0.121-0.297-0.144-0.385-0.231-0.703c0.033,0.33,0.044,0.396,0.066,0.693v5.467h-1.838V197.176z"/>
		<path d="M281.225,197.176h1.947v7.767h-1.947V197.176z"/>
		<path d="M284.954,197.176h1.937v4.565c0,0.693,0.143,1.276,0.88,1.629c0.627,0.297,1.188,0.274,1.76,0.252
			c0.737-0.065,1.211-0.264,1.519-0.615c0.188-0.221,0.353-0.473,0.33-1.254v-4.577h1.937v4.511
			c-0.011,0.825-0.011,1.605-0.671,2.332c-0.804,0.891-2.3,1.188-3.477,1.188c-0.551,0-1.101-0.056-1.64-0.187
			c-0.374-0.089-0.858-0.242-1.342-0.562c-1.222-0.825-1.232-1.849-1.232-2.772V197.176z"/>
		<path d="M295.141,197.176h2.806l2.024,4.753c0.209,0.506,0.286,0.715,0.396,1.154c0.076-0.33,0.143-0.527,0.362-1.066l2.024-4.841
			h2.783v7.767H303.7v-5.434c0-0.232,0.033-0.43,0.077-0.727c-0.077,0.23-0.11,0.318-0.22,0.594l-2.321,5.566h-1.771l-2.321-5.457
			c-0.121-0.297-0.144-0.385-0.231-0.703c0.033,0.33,0.044,0.396,0.066,0.693v5.467h-1.838V197.176z"/>
	</g>
	<rect x="415.501" y="192.233" fill="#00B8E8" stroke="#000000" width="17.832" height="17.434"/>
	<g>
		<path d="M443.169,197.165h4.797c0.825,0,1.893,0.033,2.508,0.912c0.275,0.396,0.43,0.936,0.43,1.529
			c0,0.748-0.242,1.255-0.528,1.596c-0.638,0.771-1.573,0.814-2.574,0.814h-2.718v2.926h-1.914V197.165z M445.083,200.652h2.398
			c0.627,0,1.485-0.011,1.485-1.046c0-0.418-0.144-0.682-0.33-0.857c-0.264-0.23-0.55-0.23-1.364-0.23h-2.189V200.652z"/>
		<path d="M451.974,197.176h5.347c0.88,0,1.683,0.077,2.332,0.825c0.396,0.462,0.507,1.045,0.507,1.496
			c0,0.594-0.199,1.299-0.748,1.717c-0.419,0.318-0.958,0.429-1.266,0.483l2.354,3.245h-2.287l-2.08-3.124h-2.211v3.124h-1.947
			V197.176z M453.921,200.443h3.102c0.418,0,1.167-0.056,1.167-0.925c0-0.153-0.022-0.418-0.154-0.604
			c-0.144-0.187-0.33-0.374-1.101-0.374h-3.014V200.443z"/>
		<path d="M461.531,197.176h7.239v1.397h-5.292v1.749h5.116v1.375h-5.116v1.859h5.512v1.386h-7.459V197.176z"/>
		<path d="M470.446,197.176h2.805l2.024,4.753c0.209,0.506,0.286,0.715,0.396,1.154c0.078-0.33,0.144-0.527,0.363-1.066l2.024-4.841
			h2.783v7.767h-1.837v-5.434c0-0.232,0.033-0.43,0.077-0.727c-0.077,0.23-0.11,0.318-0.22,0.594l-2.322,5.566h-1.771l-2.321-5.457
			c-0.121-0.297-0.143-0.385-0.231-0.703c0.033,0.33,0.044,0.396,0.066,0.693v5.467h-1.837V197.176z"/>
		<path d="M482.7,197.176h1.947v7.767H482.7V197.176z"/>
		<path d="M486.429,197.176h1.937v4.565c0,0.693,0.143,1.276,0.88,1.629c0.627,0.297,1.188,0.274,1.76,0.252
			c0.737-0.065,1.211-0.264,1.519-0.615c0.188-0.221,0.353-0.473,0.33-1.254v-4.577h1.937v4.511
			c-0.011,0.825-0.011,1.605-0.671,2.332c-0.804,0.891-2.3,1.188-3.477,1.188c-0.551,0-1.101-0.056-1.64-0.187
			c-0.374-0.089-0.858-0.242-1.342-0.562c-1.222-0.825-1.232-1.849-1.232-2.772V197.176z"/>
		<path d="M496.615,197.176h2.806l2.024,4.753c0.209,0.506,0.286,0.715,0.396,1.154c0.076-0.33,0.143-0.527,0.362-1.066l2.024-4.841
			h2.783v7.767h-1.837v-5.434c0-0.232,0.033-0.43,0.077-0.727c-0.077,0.23-0.11,0.318-0.22,0.594l-2.321,5.566h-1.771l-2.321-5.457
			c-0.121-0.297-0.144-0.385-0.231-0.703c0.033,0.33,0.044,0.396,0.066,0.693v5.467h-1.838V197.176z"/>
	</g>
	<rect x="38.667" y="192.233" fill="#FFFF00" stroke="#000000" width="17.832" height="17.434"/>
	<g>
		<path d="M66.358,197.176h5.347c0.88,0,1.683,0.077,2.332,0.825c0.396,0.462,0.506,1.045,0.506,1.496
			c0,0.594-0.198,1.299-0.748,1.717c-0.418,0.318-0.958,0.429-1.266,0.483l2.354,3.245h-2.288l-2.08-3.124h-2.211v3.124h-1.947
			V197.176z M68.305,200.443h3.103c0.418,0,1.167-0.056,1.167-0.925c0-0.153-0.022-0.418-0.154-0.604
			c-0.143-0.187-0.33-0.374-1.1-0.374h-3.015V200.443z"/>
		<path d="M75.916,197.176h7.239v1.397h-5.292v1.749h5.116v1.375h-5.116v1.859h5.512v1.386h-7.459V197.176z"/>
		<path d="M85.884,202.534c0.44,0.935,1.551,1.221,2.607,1.221c0.473,0,1.958-0.077,1.958-1.023c0-0.561-0.539-0.693-0.957-0.77
			c-0.319-0.066-1.915-0.309-2.277-0.375c-0.715-0.131-2.52-0.473-2.52-2.232c0-0.385,0.11-0.781,0.308-1.101
			c0.649-1.045,2.08-1.32,3.312-1.32c1.133,0,2.002,0.165,2.806,0.604c0.792,0.43,1.133,1.002,1.287,1.255l-1.849,0.462
			c-0.066-0.121-0.22-0.406-0.682-0.638c-0.517-0.253-1.188-0.298-1.562-0.298c-0.858,0-1.738,0.166-1.738,0.902
			c0,0.506,0.451,0.639,1.034,0.771c0.319,0.065,1.903,0.33,2.267,0.407c0.902,0.165,2.431,0.494,2.431,2.2
			c0,2.497-2.97,2.585-3.95,2.585c-1.276,0-3.245-0.22-4.247-2.189L85.884,202.534z"/>
		<path d="M93.763,197.176h7.239v1.397H95.71v1.749h5.116v1.375H95.71v1.859h5.512v1.386h-7.459V197.176z"/>
		<path d="M102.683,197.176h5.347c0.88,0,1.683,0.077,2.332,0.825c0.396,0.462,0.506,1.045,0.506,1.496
			c0,0.594-0.197,1.299-0.748,1.717c-0.418,0.318-0.957,0.429-1.265,0.483l2.354,3.245h-2.289l-2.079-3.124h-2.211v3.124h-1.947
			V197.176z M104.63,200.443h3.103c0.418,0,1.166-0.056,1.166-0.925c0-0.153-0.022-0.418-0.154-0.604
			c-0.143-0.187-0.33-0.374-1.1-0.374h-3.015V200.443z"/>
		<path d="M111.237,197.176h2.146l2.079,5.094c0.121,0.319,0.154,0.418,0.231,0.737c0.099-0.352,0.121-0.44,0.253-0.737l2.09-5.094
			h2.091l-3.488,7.767h-1.892L111.237,197.176z"/>
		<path d="M121.111,197.176h7.239v1.397h-5.292v1.749h5.116v1.375h-5.116v1.859h5.513v1.386h-7.46V197.176z"/>
		<path d="M130.026,197.176h4.247c0.286,0.011,0.572,0.011,0.858,0.044c2.266,0.209,3.389,1.793,3.389,3.795
			c0,0.892-0.221,1.771-0.76,2.486c-1.089,1.42-2.552,1.431-3.729,1.441h-4.005V197.176z M131.963,198.551v5.017h2.146
			c0.693-0.011,1.485-0.021,2.002-0.759c0.231-0.319,0.474-0.858,0.474-1.837c0-0.737-0.165-1.244-0.386-1.596
			c-0.506-0.803-1.319-0.814-1.991-0.825H131.963z"/>
	</g>
	<rect x="535.168" y="192.233" fill="#D424ED" stroke="#000000" width="17.832" height="17.434"/>
	<g>
		<path d="M565.764,197.176h2.101l3.752,7.767h-2.178l-0.66-1.463h-3.982l-0.66,1.463h-2.123L565.764,197.176z M566.995,199.563
			c-0.055-0.1-0.099-0.209-0.131-0.309c-0.033-0.099-0.056-0.197-0.066-0.309c-0.033,0.1-0.055,0.188-0.077,0.275
			c-0.044,0.1-0.077,0.198-0.121,0.297l-1.177,2.586h2.729L566.995,199.563z"/>
		<path d="M581.106,202.302c-0.144,0.484-0.32,1.046-1.013,1.684c-0.627,0.572-1.661,1.222-3.642,1.222
			c-2.762,0-4.676-1.441-4.676-4.159c0-2.926,2.332-4.114,4.785-4.114c0.892,0,3.444,0.198,4.457,2.421l-2.135,0.264
			c-0.209-0.33-0.814-1.254-2.322-1.254c-1.76,0-2.761,1.221-2.761,2.706c0,1.694,1.331,2.706,2.806,2.706
			c1.684,0,2.2-0.99,2.453-1.463L581.106,202.302z"/>
		<path d="M591.188,202.302c-0.144,0.484-0.319,1.046-1.013,1.684c-0.627,0.572-1.66,1.222-3.641,1.222
			c-2.762,0-4.676-1.441-4.676-4.159c0-2.926,2.332-4.114,4.785-4.114c0.891,0,3.443,0.198,4.456,2.421l-2.135,0.264
			c-0.209-0.33-0.813-1.254-2.321-1.254c-1.76,0-2.762,1.221-2.762,2.706c0,1.694,1.332,2.706,2.807,2.706
			c1.683,0,2.199-0.99,2.453-1.463L591.188,202.302z"/>
		<path d="M592.302,197.176h7.239v1.397h-5.292v1.749h5.115v1.375h-5.115v1.859h5.512v1.386h-7.459V197.176z"/>
		<path d="M602.27,202.534c0.44,0.935,1.552,1.221,2.607,1.221c0.474,0,1.959-0.077,1.959-1.023c0-0.561-0.539-0.693-0.958-0.77
			c-0.318-0.066-1.914-0.309-2.277-0.375c-0.715-0.131-2.519-0.473-2.519-2.232c0-0.385,0.109-0.781,0.308-1.101
			c0.649-1.045,2.079-1.32,3.312-1.32c1.133,0,2.002,0.165,2.806,0.604c0.792,0.43,1.133,1.002,1.287,1.255l-1.849,0.462
			c-0.065-0.121-0.22-0.406-0.682-0.638c-0.518-0.253-1.188-0.298-1.562-0.298c-0.858,0-1.738,0.166-1.738,0.902
			c0,0.506,0.451,0.639,1.034,0.771c0.319,0.065,1.903,0.33,2.267,0.407c0.902,0.165,2.431,0.494,2.431,2.2
			c0,2.497-2.97,2.585-3.949,2.585c-1.276,0-3.245-0.22-4.246-2.189L602.27,202.534z"/>
		<path d="M611.367,202.534c0.44,0.935,1.552,1.221,2.607,1.221c0.474,0,1.959-0.077,1.959-1.023c0-0.561-0.539-0.693-0.958-0.77
			c-0.318-0.066-1.914-0.309-2.277-0.375c-0.715-0.131-2.519-0.473-2.519-2.232c0-0.385,0.109-0.781,0.308-1.101
			c0.649-1.045,2.079-1.32,3.312-1.32c1.133,0,2.002,0.165,2.806,0.604c0.792,0.43,1.133,1.002,1.287,1.255l-1.849,0.462
			c-0.065-0.121-0.22-0.406-0.682-0.638c-0.518-0.253-1.188-0.298-1.562-0.298c-0.858,0-1.738,0.166-1.738,0.902
			c0,0.506,0.451,0.639,1.034,0.771c0.319,0.065,1.903,0.33,2.267,0.407c0.902,0.165,2.431,0.494,2.431,2.2
			c0,2.497-2.97,2.585-3.949,2.585c-1.276,0-3.245-0.22-4.246-2.189L611.367,202.534z"/>
		<path d="M619.27,197.176h1.947v7.767h-1.947V197.176z"/>
		<path d="M623.015,197.176h5.039c0.803,0.022,1.782,0.044,2.311,0.804c0.275,0.396,0.308,0.824,0.308,1.1
			c0,0.209-0.021,0.648-0.308,1.034c-0.319,0.418-0.737,0.55-0.979,0.616c0.484,0.132,1.684,0.429,1.684,1.98
			c0,0.451-0.099,0.924-0.353,1.309c-0.604,0.913-1.605,0.913-2.365,0.924h-5.336V197.176z M624.94,200.234h2.783
			c0.231,0,0.451-0.011,0.627-0.077c0.462-0.188,0.462-0.704,0.462-0.792c0-0.825-0.627-0.837-0.935-0.837h-2.938V200.234z
			 M624.94,203.579h2.915c0.44,0,1.266,0.011,1.266-1.057c0-0.936-0.737-0.936-1.023-0.936h-3.157V203.579z"/>
		<path d="M632.536,197.176h1.947v6.337h4.312v1.43h-6.26V197.176z"/>
		<path d="M639.861,197.176h7.239v1.397h-5.292v1.749h5.116v1.375h-5.116v1.859h5.513v1.386h-7.46V197.176z"/>
	</g>
	<g>
		<rect x="65.917" y="135.355" width="12" height="11"/>
		<g>
			<path fill="#FFFFFF" d="M71.126,137.923h1.416v5.645h-1.416V137.923z"/>
		</g>
	</g>
	<g>
		<rect x="18.583" y="135.355" width="12" height="11"/>
		<g>
			<path fill="#FFFFFF" d="M21.364,137.923h1.415v2.174h3.414v-2.174h1.416v5.645h-1.416v-2.423h-3.414v2.423h-1.415V137.923z"/>
		</g>
	</g>
	<g>
		<rect x="119.917" y="135.355" width="12" height="11"/>
		<g>
			<path fill="#FFFFFF" d="M127.125,137.923v3.861c-0.008,0.447-0.024,1.063-0.527,1.487c-0.336,0.288-0.832,0.424-1.383,0.424
				c-0.384,0-0.672-0.063-1.032-0.144v-1.168c0.248,0.04,0.568,0.096,0.808,0.096c0.712,0,0.736-0.527,0.736-0.751v-3.806H127.125z"
				/>
		</g>
	</g>
	<g>
		<rect x="207.75" y="135.355" width="12" height="11"/>
		<g>
			<path fill="#FFFFFF" d="M210.959,137.923h1.399v2.471l2.758-2.471h1.815l-2.75,2.383l3.134,3.262h-1.887l-2.215-2.431
				l-0.855,0.735v1.695h-1.399V137.923z"/>
		</g>
	</g>
	<g>
		<rect x="335.417" y="135.355" width="12" height="11"/>
		<g>
			<path fill="#FFFFFF" d="M339.29,137.923h1.416v4.605h3.134v1.039h-4.549V137.923z"/>
		</g>
	</g>
	<g>
		<rect x="465.917" y="135.355" width="12" height="11"/>
		<g>
			<path fill="#FFFFFF" d="M468.034,137.923h2.039l1.471,3.453c0.152,0.368,0.208,0.521,0.288,0.84
				c0.056-0.24,0.104-0.383,0.264-0.775l1.472-3.518h2.022v5.645h-1.335v-3.949c0-0.168,0.023-0.312,0.056-0.528
				c-0.056,0.168-0.08,0.231-0.159,0.432l-1.688,4.046h-1.287l-1.688-3.966c-0.088-0.216-0.104-0.28-0.168-0.512
				c0.023,0.239,0.032,0.288,0.048,0.504v3.974h-1.335V137.923z"/>
		</g>
	</g>
	<g>
		<rect x="554.417" y="135.355" width="12" height="11"/>
		<g>
			<path fill="#FFFFFF" d="M557.198,137.923h1.406l2.768,3.143c0.335,0.391,0.398,0.471,0.751,0.91
				c-0.048-0.535-0.048-0.679-0.056-1.166v-2.887h1.352v5.645h-1.4l-2.798-3.182c-0.296-0.344-0.416-0.488-0.728-0.889
				c0.04,0.432,0.04,0.528,0.048,0.96v3.11h-1.343V137.923z"/>
		</g>
	</g>
	<g>
		<rect x="608.042" y="135.355" width="12" height="11"/>
		<g>
			<path fill="#FFFFFF" d="M616.804,138.842c0.232,0.28,0.607,0.903,0.607,1.847c0,1.799-1.167,3.062-3.445,3.062
				c-2.279,0-3.486-1.239-3.486-2.998c0-1.943,1.391-2.926,3.246-3.006C614.837,137.698,616.101,137.986,616.804,138.842z
				 M611.935,140.785c0,0.688,0.256,1.048,0.359,1.183c0.137,0.192,0.552,0.775,1.647,0.775c1.319,0,2.022-0.895,2.022-1.982
				c0-1.264-0.951-2.039-2.078-1.998C612.942,138.794,611.935,139.417,611.935,140.785z"/>
		</g>
	</g>
	<g>
		<rect x="654.417" y="135.355" width="12" height="11"/>
		<g>
			<path fill="#FFFFFF" d="M657.773,137.915h3.486c0.6,0,1.375,0.023,1.823,0.663c0.199,0.288,0.312,0.68,0.312,1.111
				c0,0.544-0.176,0.911-0.384,1.159c-0.464,0.561-1.144,0.592-1.871,0.592h-1.975v2.127h-1.392V137.915z M659.165,140.449h1.743
				c0.456,0,1.079-0.009,1.079-0.76c0-0.304-0.104-0.495-0.24-0.624c-0.191-0.168-0.399-0.168-0.991-0.168h-1.591V140.449z"/>
		</g>
	</g>
</g>
</svg>
