<?xml version="1.0" encoding="utf-8"?>
<!-- Generator: Adobe Illustrator 15.1.0, SVG Export Plug-In . SVG Version: 6.00 Build 0)  -->
<!DOCTYPE svg PUBLIC "-//W3C//DTD SVG 1.1//EN" "http://www.w3.org/Graphics/SVG/1.1/DTD/svg11.dtd">
<svg version="1.1" id="Layer_3" xmlns="http://www.w3.org/2000/svg" xmlns:xlink="http://www.w3.org/1999/xlink" x="0px" y="0px"
	 width="655.865px" height="182.667px" viewBox="0 0 655.865 182.667" enable-background="new 0 0 655.865 182.667"
	 xml:space="preserve">
<rect x="2.084" y="22.875" fill="#D1D3D4" stroke="#000000" width="652.667" height="133.999"/>
<rect x="234.834" y="146.124" fill="#FFFF00" stroke="#000000" width="53.417" height="10.754"/>
<rect x="2.084" y="78.791" fill="#FFFF00" stroke="#000000" width="48.917" height="78.083"/>
<rect x="2.084" y="27.541" fill="#00B8E8" stroke="#000000" width="48.917" height="52.083"/>
<rect x="151.084" y="123.291" fill="#FFFF00" stroke="#000000" width="59.917" height="33.583"/>
<rect x="143.584" y="96.791" fill="#00B8E8" stroke="#000000" width="74.667" height="29.316"/>
<rect x="143.584" y="27.541" fill="#30D469" stroke="#000000" width="74.667" height="69.816"/>
<rect x="234.834" y="123.541" fill="#00B8E8" stroke="#000000" width="53.417" height="24.316"/>
<polygon fill="#FFFF00" stroke="#000000" points="127.667,126.082 135.001,126.082 135.001,95.791 59.334,95.791 59.334,156.874 
	127.667,156.874 "/>
<rect x="59.334" y="27.541" fill="#00B8E8" stroke="#000000" width="75.667" height="69.566"/>
<rect x="227.584" y="27.541" fill="#30D469" stroke="#000000" width="60.667" height="98.566"/>
<rect x="227.584" y="27.541" fill="#FF9E00" stroke="#000000" width="60.667" height="24.684"/>
<rect x="368.562" y="146.124" fill="#FFFF00" stroke="#000000" width="53.417" height="10.754"/>
<rect x="605.812" y="78.791" fill="#FFFF00" stroke="#000000" width="48.917" height="78.083"/>
<rect x="605.812" y="27.541" fill="#00B8E8" stroke="#000000" width="48.917" height="52.083"/>
<rect x="445.812" y="123.291" fill="#FFFF00" stroke="#000000" width="59.917" height="33.583"/>
<rect x="438.562" y="96.791" fill="#00B8E8" stroke="#000000" width="74.667" height="29.316"/>
<rect x="438.562" y="27.541" fill="#30D469" stroke="#000000" width="74.667" height="69.816"/>
<rect x="368.562" y="123.541" fill="#00B8E8" stroke="#000000" width="53.417" height="24.316"/>
<polygon fill="#FFFF00" stroke="#000000" points="529.146,126.082 521.812,126.082 521.812,95.791 597.479,95.791 597.479,156.874 
	529.146,156.874 "/>
<rect x="521.812" y="27.541" fill="#00B8E8" stroke="#000000" width="75.667" height="69.566"/>
<rect x="368.562" y="27.541" fill="#30D469" stroke="#000000" width="60.667" height="98.566"/>
<rect x="297.584" y="144.041" fill="#00B8E8" stroke="#000000" width="61.667" height="12.816"/>
<rect x="297.584" y="27.624" fill="#FF9E00" stroke="#000000" width="61.667" height="49.2"/>
<rect x="297.584" y="76.824" fill="#30D469" stroke="#000000" width="61.667" height="70.949"/>
<rect x="214.333" y="1.832" fill="#8C8C8C" stroke="#000000" width="228.667" height="21"/>
<g>
	<path fill="#FFFFFF" d="M300.356,9.708h3.486c0.6,0,1.375,0.024,1.823,0.664c0.2,0.288,0.312,0.68,0.312,1.111
		c0,0.544-0.176,0.912-0.384,1.159c-0.464,0.56-1.143,0.592-1.871,0.592h-1.975v2.127h-1.391V9.708z M301.748,12.243h1.743
		c0.456,0,1.08-0.008,1.08-0.76c0-0.304-0.104-0.496-0.24-0.624c-0.192-0.168-0.4-0.168-0.992-0.168h-1.591V12.243z"/>
	<path fill="#FFFFFF" d="M306.865,9.716h3.886c0.64,0,1.223,0.056,1.695,0.6c0.288,0.336,0.368,0.76,0.368,1.087
		c0,0.432-0.144,0.944-0.543,1.248c-0.304,0.232-0.696,0.312-0.919,0.352l1.711,2.359h-1.663l-1.511-2.271h-1.607v2.271h-1.416
		V9.716z M308.28,12.091h2.254c0.304,0,0.848-0.04,0.848-0.672c0-0.112-0.016-0.304-0.112-0.44c-0.104-0.136-0.24-0.271-0.8-0.271
		h-2.19V12.091z"/>
	<path fill="#FFFFFF" d="M313.918,9.716h5.261v1.016h-3.846v1.271h3.718v1h-3.718v1.352h4.006v1.007h-5.421V9.716z"/>
	<path fill="#FFFFFF" d="M321.27,13.61c0.32,0.68,1.127,0.888,1.895,0.888c0.344,0,1.423-0.056,1.423-0.744
		c0-0.408-0.392-0.504-0.696-0.56c-0.232-0.048-1.391-0.224-1.655-0.271c-0.52-0.096-1.831-0.344-1.831-1.623
		c0-0.28,0.08-0.568,0.224-0.8c0.472-0.76,1.511-0.959,2.407-0.959c0.824,0,1.455,0.12,2.039,0.44
		c0.576,0.312,0.823,0.728,0.936,0.911l-1.343,0.336c-0.048-0.088-0.16-0.296-0.496-0.464c-0.375-0.184-0.863-0.216-1.135-0.216
		c-0.624,0-1.263,0.12-1.263,0.656c0,0.368,0.328,0.464,0.751,0.56c0.232,0.048,1.383,0.24,1.647,0.296
		c0.656,0.12,1.767,0.36,1.767,1.599c0,1.815-2.159,1.879-2.87,1.879c-0.928,0-2.359-0.16-3.086-1.591L321.27,13.61z"/>
	<path fill="#FFFFFF" d="M327.988,13.61c0.32,0.68,1.127,0.888,1.895,0.888c0.344,0,1.423-0.056,1.423-0.744
		c0-0.408-0.392-0.504-0.695-0.56c-0.232-0.048-1.391-0.224-1.655-0.271c-0.52-0.096-1.831-0.344-1.831-1.623
		c0-0.28,0.08-0.568,0.224-0.8c0.472-0.76,1.511-0.959,2.407-0.959c0.824,0,1.455,0.12,2.039,0.44
		c0.575,0.312,0.823,0.728,0.936,0.911l-1.344,0.336c-0.048-0.088-0.159-0.296-0.496-0.464c-0.375-0.184-0.863-0.216-1.135-0.216
		c-0.624,0-1.263,0.12-1.263,0.656c0,0.368,0.328,0.464,0.751,0.56c0.232,0.048,1.383,0.24,1.647,0.296
		c0.656,0.12,1.767,0.36,1.767,1.599c0,1.815-2.159,1.879-2.87,1.879c-0.928,0-2.359-0.16-3.086-1.591L327.988,13.61z"/>
	<path fill="#FFFFFF" d="M336.644,9.716h3.662c0.584,0.016,1.296,0.032,1.68,0.584c0.199,0.288,0.224,0.6,0.224,0.799
		c0,0.152-0.016,0.472-0.224,0.751c-0.232,0.304-0.536,0.4-0.712,0.448c0.352,0.096,1.224,0.312,1.224,1.439
		c0,0.328-0.072,0.671-0.256,0.951c-0.44,0.664-1.168,0.664-1.72,0.672h-3.878V9.716z M338.043,11.939h2.023
		c0.168,0,0.327-0.008,0.455-0.056c0.336-0.136,0.336-0.512,0.336-0.576c0-0.6-0.455-0.608-0.68-0.608h-2.135V11.939z
		 M338.043,14.37h2.119c0.319,0,0.919,0.008,0.919-0.768c0-0.68-0.535-0.68-0.743-0.68h-2.295V14.37z"/>
	<path fill="#FFFFFF" d="M349.659,10.635c0.231,0.28,0.607,0.904,0.607,1.847c0,1.799-1.168,3.062-3.446,3.062
		s-3.486-1.24-3.486-2.999c0-1.943,1.392-2.926,3.246-3.006C347.691,9.492,348.955,9.78,349.659,10.635z M344.789,12.579
		c0,0.688,0.256,1.047,0.36,1.183c0.136,0.192,0.552,0.775,1.646,0.775c1.319,0,2.023-0.896,2.023-1.983
		c0-1.263-0.951-2.039-2.079-1.999C345.797,10.587,344.789,11.211,344.789,12.579z"/>
	<path fill="#FFFFFF" d="M350.747,9.716h1.767l1.239,1.655c0.088,0.096,0.104,0.12,0.16,0.24c0.04-0.128,0.056-0.144,0.136-0.248
		l1.287-1.647h1.735l-2.247,2.687l2.575,2.958h-1.791l-1.567-1.943c-0.072-0.104-0.088-0.128-0.128-0.232
		c-0.056,0.128-0.064,0.144-0.144,0.256l-1.552,1.919h-1.799l2.583-2.958L350.747,9.716z"/>
</g>
<g>
	<path d="M317.585,48.589h2.146l2.079,5.094c0.121,0.319,0.154,0.418,0.231,0.737c0.099-0.353,0.121-0.44,0.253-0.737l2.09-5.094
		h2.09l-3.487,7.767h-1.893L317.585,48.589z"/>
	<path d="M327.466,48.589h1.947v7.767h-1.947V48.589z"/>
	<path d="M331.206,48.578h4.797c0.824,0,1.892,0.033,2.508,0.914c0.275,0.396,0.429,0.935,0.429,1.529
		c0,0.748-0.241,1.254-0.527,1.595c-0.639,0.771-1.573,0.814-2.574,0.814h-2.718v2.926h-1.915V48.578z M333.12,52.065h2.398
		c0.627,0,1.485-0.011,1.485-1.045c0-0.418-0.144-0.682-0.33-0.858c-0.265-0.231-0.551-0.231-1.364-0.231h-2.189V52.065z"/>
</g>
<g>
	<path d="M242.35,81.942c0.32,0.68,1.127,0.887,1.895,0.887c0.344,0,1.423-0.056,1.423-0.743c0-0.407-0.392-0.504-0.696-0.56
		c-0.232-0.049-1.391-0.225-1.655-0.271c-0.52-0.097-1.831-0.344-1.831-1.623c0-0.281,0.08-0.568,0.224-0.801
		c0.472-0.76,1.511-0.959,2.407-0.959c0.824,0,1.455,0.12,2.039,0.439c0.576,0.312,0.823,0.729,0.936,0.912l-1.343,0.336
		c-0.048-0.088-0.16-0.297-0.496-0.465c-0.375-0.184-0.863-0.215-1.135-0.215c-0.624,0-1.263,0.119-1.263,0.655
		c0,0.368,0.328,0.464,0.751,0.56c0.232,0.049,1.383,0.24,1.647,0.296c0.656,0.12,1.767,0.36,1.767,1.599
		c0,1.815-2.159,1.879-2.87,1.879c-0.928,0-2.359-0.159-3.086-1.59L242.35,81.942z"/>
	<path d="M248.126,78.048h1.407v3.318c0,0.504,0.104,0.928,0.64,1.184c0.456,0.215,0.864,0.199,1.279,0.184
		c0.536-0.048,0.879-0.191,1.104-0.447c0.136-0.16,0.256-0.344,0.24-0.912v-3.326h1.407v3.278c-0.008,0.6-0.008,1.167-0.488,1.694
		c-0.583,0.648-1.671,0.864-2.526,0.864c-0.4,0-0.8-0.04-1.191-0.136c-0.272-0.064-0.624-0.176-0.976-0.408
		c-0.888-0.6-0.896-1.344-0.896-2.015V78.048z"/>
	<path d="M255.636,78.04h3.486c0.6,0,1.375,0.023,1.823,0.664c0.2,0.287,0.312,0.68,0.312,1.111c0,0.543-0.177,0.911-0.384,1.158
		c-0.464,0.561-1.144,0.592-1.872,0.592h-1.975v2.127h-1.391V78.04z M257.027,80.575h1.743c0.456,0,1.08-0.009,1.08-0.76
		c0-0.305-0.104-0.496-0.24-0.624c-0.192-0.168-0.4-0.168-0.992-0.168h-1.591V80.575z"/>
	<path d="M262.146,78.048h5.262v1.016h-3.846v1.271h3.718v0.999h-3.718v1.352h4.006v1.007h-5.422V78.048z"/>
	<path d="M268.733,78.048h3.886c0.64,0,1.223,0.057,1.694,0.6c0.288,0.336,0.368,0.76,0.368,1.088c0,0.432-0.144,0.943-0.544,1.247
		c-0.304,0.231-0.695,0.312-0.919,0.352l1.711,2.358h-1.663l-1.512-2.27h-1.606v2.27h-1.415V78.048z M270.148,80.423h2.255
		c0.304,0,0.848-0.04,0.848-0.672c0-0.111-0.017-0.304-0.112-0.439c-0.104-0.137-0.24-0.271-0.8-0.271h-2.19V80.423z"/>
	<path d="M234.367,87.64h3.486c0.6,0,1.375,0.024,1.823,0.664c0.2,0.287,0.312,0.68,0.312,1.111c0,0.544-0.176,0.912-0.384,1.16
		c-0.464,0.559-1.144,0.591-1.871,0.591h-1.975v2.127h-1.392V87.64z M235.759,90.175h1.743c0.456,0,1.079-0.008,1.079-0.76
		c0-0.304-0.104-0.496-0.24-0.623c-0.192-0.168-0.4-0.168-0.992-0.168h-1.591V90.175z"/>
	<path d="M240.876,87.647h3.886c0.64,0,1.224,0.057,1.695,0.6c0.288,0.336,0.368,0.76,0.368,1.088c0,0.432-0.144,0.943-0.543,1.248
		c-0.304,0.231-0.696,0.311-0.919,0.352l1.711,2.358h-1.663l-1.511-2.271h-1.607v2.271h-1.416V87.647z M242.292,90.022h2.254
		c0.304,0,0.848-0.039,0.848-0.672c0-0.111-0.016-0.303-0.112-0.439c-0.104-0.136-0.24-0.271-0.8-0.271h-2.19V90.022z"/>
	<path d="M247.929,87.647h5.261v1.016h-3.846v1.271h3.718v1h-3.718v1.352h4.006v1.007h-5.421V87.647z"/>
	<path d="M254.512,87.647h2.039l1.472,3.455c0.152,0.367,0.208,0.52,0.288,0.84c0.056-0.24,0.104-0.385,0.264-0.776l1.471-3.519
		h2.023v5.646h-1.336v-3.95c0-0.168,0.024-0.312,0.057-0.527c-0.057,0.168-0.08,0.232-0.16,0.432l-1.687,4.046h-1.288l-1.687-3.966
		c-0.088-0.216-0.104-0.279-0.168-0.512c0.024,0.24,0.032,0.287,0.048,0.504v3.974h-1.335V87.647z"/>
	<path d="M263.529,87.647h1.415v5.646h-1.415V87.647z"/>
	<path d="M266.346,87.647h1.407v3.318c0,0.504,0.104,0.928,0.64,1.184c0.456,0.217,0.863,0.2,1.279,0.184
		c0.536-0.047,0.88-0.191,1.104-0.447c0.136-0.16,0.256-0.344,0.24-0.912v-3.326h1.407v3.279c-0.009,0.6-0.009,1.167-0.488,1.695
		c-0.584,0.646-1.671,0.863-2.526,0.863c-0.399,0-0.8-0.041-1.191-0.137c-0.271-0.063-0.624-0.176-0.976-0.408
		c-0.888-0.6-0.896-1.342-0.896-2.014V87.647z"/>
	<path d="M273.859,87.647h2.039l1.472,3.455c0.151,0.367,0.208,0.52,0.287,0.84c0.057-0.24,0.104-0.385,0.265-0.776l1.471-3.519
		h2.023v5.646h-1.336v-3.95c0-0.168,0.024-0.312,0.057-0.527c-0.057,0.168-0.08,0.232-0.16,0.432l-1.688,4.046h-1.287l-1.687-3.966
		c-0.088-0.216-0.104-0.279-0.168-0.512c0.023,0.24,0.031,0.287,0.048,0.504v3.974h-1.336V87.647z"/>
</g>
<g>
	<path d="M383.35,81.942c0.319,0.68,1.128,0.887,1.896,0.887c0.344,0,1.423-0.056,1.423-0.743c0-0.407-0.392-0.504-0.696-0.56
		c-0.231-0.049-1.391-0.225-1.654-0.271c-0.52-0.097-1.831-0.344-1.831-1.623c0-0.281,0.079-0.568,0.224-0.801
		c0.472-0.76,1.512-0.959,2.406-0.959c0.824,0,1.455,0.12,2.039,0.439c0.576,0.312,0.824,0.729,0.936,0.912l-1.343,0.336
		c-0.048-0.088-0.16-0.297-0.496-0.465c-0.376-0.184-0.863-0.215-1.136-0.215c-0.623,0-1.263,0.119-1.263,0.655
		c0,0.368,0.327,0.464,0.751,0.56c0.232,0.049,1.384,0.24,1.647,0.296c0.655,0.12,1.767,0.36,1.767,1.599
		c0,1.815-2.158,1.879-2.869,1.879c-0.928,0-2.359-0.159-3.087-1.59L383.35,81.942z"/>
	<path d="M389.126,78.048h1.406v3.318c0,0.504,0.104,0.928,0.641,1.184c0.455,0.215,0.863,0.199,1.279,0.184
		c0.535-0.048,0.879-0.191,1.104-0.447c0.135-0.16,0.256-0.344,0.239-0.912v-3.326h1.407v3.278c-0.008,0.6-0.008,1.167-0.488,1.694
		c-0.583,0.648-1.67,0.864-2.525,0.864c-0.4,0-0.801-0.04-1.191-0.136c-0.272-0.064-0.624-0.176-0.977-0.408
		c-0.887-0.6-0.895-1.344-0.895-2.015V78.048z"/>
	<path d="M396.636,78.04h3.485c0.6,0,1.376,0.023,1.823,0.664c0.199,0.287,0.312,0.68,0.312,1.111c0,0.543-0.178,0.911-0.385,1.158
		c-0.463,0.561-1.143,0.592-1.871,0.592h-1.975v2.127h-1.391V78.04z M398.026,80.575h1.742c0.457,0,1.08-0.009,1.08-0.76
		c0-0.305-0.104-0.496-0.24-0.624c-0.191-0.168-0.399-0.168-0.991-0.168h-1.591V80.575z"/>
	<path d="M403.146,78.048h5.262v1.016h-3.846v1.271h3.717v0.999h-3.717v1.352h4.006v1.007h-5.422V78.048z"/>
	<path d="M409.733,78.048h3.885c0.641,0,1.223,0.057,1.695,0.6c0.287,0.336,0.367,0.76,0.367,1.088c0,0.432-0.143,0.943-0.543,1.247
		c-0.305,0.231-0.695,0.312-0.92,0.352l1.711,2.358h-1.662l-1.512-2.27h-1.607v2.27h-1.414V78.048z M411.147,80.423h2.256
		c0.303,0,0.848-0.04,0.848-0.672c0-0.111-0.018-0.304-0.113-0.439c-0.104-0.137-0.24-0.271-0.799-0.271h-2.191V80.423z"/>
	<path d="M375.366,87.64h3.486c0.6,0,1.375,0.024,1.824,0.664c0.199,0.287,0.311,0.68,0.311,1.111c0,0.544-0.176,0.912-0.383,1.16
		c-0.465,0.559-1.145,0.591-1.871,0.591h-1.975v2.127h-1.393V87.64z M376.759,90.175h1.742c0.456,0,1.08-0.008,1.08-0.76
		c0-0.304-0.104-0.496-0.24-0.623c-0.191-0.168-0.4-0.168-0.992-0.168h-1.59V90.175z"/>
	<path d="M381.876,87.647h3.885c0.641,0,1.225,0.057,1.695,0.6c0.289,0.336,0.368,0.76,0.368,1.088c0,0.432-0.144,0.943-0.544,1.248
		c-0.303,0.231-0.695,0.311-0.919,0.352l1.711,2.358h-1.663l-1.512-2.271h-1.606v2.271h-1.415V87.647z M383.291,90.022h2.255
		c0.304,0,0.848-0.039,0.848-0.672c0-0.111-0.017-0.303-0.112-0.439c-0.104-0.136-0.239-0.271-0.8-0.271h-2.19V90.022z"/>
	<path d="M388.929,87.647h5.262v1.016h-3.847v1.271h3.718v1h-3.718v1.352h4.006v1.007h-5.421V87.647z"/>
	<path d="M395.512,87.647h2.038l1.473,3.455c0.151,0.367,0.207,0.52,0.287,0.84c0.057-0.24,0.104-0.385,0.264-0.776l1.471-3.519
		h2.023v5.646h-1.336v-3.95c0-0.168,0.025-0.312,0.057-0.527c-0.057,0.168-0.08,0.232-0.16,0.432l-1.687,4.046h-1.288l-1.687-3.966
		c-0.088-0.216-0.104-0.279-0.168-0.512c0.024,0.24,0.032,0.287,0.048,0.504v3.974h-1.335V87.647z"/>
	<path d="M404.528,87.647h1.416v5.646h-1.416V87.647z"/>
	<path d="M407.345,87.647h1.408v3.318c0,0.504,0.104,0.928,0.639,1.184c0.457,0.217,0.863,0.2,1.279,0.184
		c0.537-0.047,0.881-0.191,1.104-0.447c0.137-0.16,0.256-0.344,0.24-0.912v-3.326h1.408v3.279c-0.01,0.6-0.01,1.167-0.488,1.695
		c-0.584,0.646-1.672,0.863-2.527,0.863c-0.398,0-0.799-0.041-1.191-0.137c-0.271-0.063-0.623-0.176-0.975-0.408
		c-0.889-0.6-0.896-1.342-0.896-2.014V87.647z"/>
	<path d="M414.858,87.647h2.039l1.473,3.455c0.15,0.367,0.207,0.52,0.287,0.84c0.057-0.24,0.104-0.385,0.264-0.776l1.471-3.519
		h2.023v5.646h-1.336v-3.95c0-0.168,0.025-0.312,0.057-0.527c-0.057,0.168-0.08,0.232-0.16,0.432l-1.688,4.046h-1.287l-1.686-3.966
		c-0.088-0.216-0.105-0.279-0.168-0.512c0.023,0.24,0.031,0.287,0.047,0.504v3.974h-1.336V87.647z"/>
</g>
<g>
	<path d="M157.033,108.707h3.486c0.6,0,1.375,0.024,1.823,0.663c0.2,0.289,0.312,0.68,0.312,1.111c0,0.545-0.176,0.912-0.384,1.16
		c-0.464,0.56-1.144,0.592-1.871,0.592h-1.975v2.127h-1.392V108.707z M158.425,111.241h1.743c0.456,0,1.079-0.008,1.079-0.76
		c0-0.303-0.104-0.495-0.24-0.623c-0.192-0.168-0.4-0.168-0.992-0.168h-1.591V111.241z"/>
	<path d="M163.542,108.715h3.886c0.64,0,1.224,0.056,1.695,0.6c0.288,0.336,0.368,0.76,0.368,1.087c0,0.433-0.144,0.944-0.543,1.248
		c-0.304,0.232-0.696,0.312-0.919,0.352l1.711,2.359h-1.663l-1.511-2.271h-1.607v2.271h-1.416V108.715z M164.958,111.09h2.254
		c0.304,0,0.848-0.04,0.848-0.672c0-0.112-0.016-0.304-0.112-0.44c-0.104-0.135-0.24-0.271-0.8-0.271h-2.19V111.09z"/>
	<path d="M170.595,108.715h5.261v1.016h-3.846v1.271h3.718v1h-3.718v1.352h4.006v1.008h-5.421V108.715z"/>
	<path d="M177.178,108.715h2.039l1.472,3.454c0.152,0.367,0.208,0.52,0.288,0.84c0.056-0.24,0.104-0.384,0.264-0.775l1.471-3.519
		h2.023v5.646h-1.336v-3.95c0-0.168,0.024-0.312,0.057-0.528c-0.057,0.168-0.08,0.232-0.16,0.432l-1.687,4.047h-1.288l-1.687-3.967
		c-0.088-0.215-0.104-0.279-0.168-0.512c0.024,0.24,0.032,0.289,0.048,0.504v3.975h-1.335V108.715z"/>
	<path d="M186.195,108.715h1.415v5.646h-1.415V108.715z"/>
	<path d="M189.012,108.715h1.407v3.318c0,0.503,0.104,0.927,0.64,1.183c0.456,0.217,0.863,0.201,1.279,0.185
		c0.536-0.048,0.88-0.192,1.104-0.448c0.136-0.16,0.256-0.344,0.24-0.911v-3.326h1.407v3.278c-0.009,0.6-0.009,1.168-0.488,1.695
		c-0.584,0.647-1.671,0.863-2.526,0.863c-0.399,0-0.8-0.04-1.191-0.136c-0.271-0.063-0.624-0.177-0.976-0.407
		c-0.888-0.601-0.896-1.344-0.896-2.016V108.715z"/>
	<path d="M196.525,108.715h2.039l1.472,3.454c0.151,0.367,0.208,0.52,0.287,0.84c0.057-0.24,0.104-0.384,0.265-0.775l1.471-3.519
		h2.023v5.646h-1.336v-3.95c0-0.168,0.024-0.312,0.057-0.528c-0.057,0.168-0.08,0.232-0.16,0.432l-1.688,4.047h-1.287l-1.687-3.967
		c-0.088-0.215-0.104-0.279-0.168-0.512c0.023,0.24,0.031,0.289,0.048,0.504v3.975h-1.336V108.715z"/>
</g>
<g>
	<path d="M451.7,108.707h3.486c0.6,0,1.375,0.024,1.824,0.663c0.199,0.289,0.311,0.68,0.311,1.111c0,0.545-0.176,0.912-0.383,1.16
		c-0.465,0.56-1.145,0.592-1.871,0.592h-1.975v2.127H451.7V108.707z M453.093,111.241h1.742c0.456,0,1.08-0.008,1.08-0.76
		c0-0.303-0.104-0.495-0.24-0.623c-0.191-0.168-0.4-0.168-0.992-0.168h-1.59V111.241z"/>
	<path d="M458.21,108.715h3.885c0.641,0,1.225,0.056,1.695,0.6c0.289,0.336,0.368,0.76,0.368,1.087c0,0.433-0.144,0.944-0.544,1.248
		c-0.303,0.232-0.695,0.312-0.919,0.352l1.711,2.359h-1.663l-1.512-2.271h-1.606v2.271h-1.415V108.715z M459.625,111.09h2.255
		c0.304,0,0.848-0.04,0.848-0.672c0-0.112-0.017-0.304-0.112-0.44c-0.104-0.135-0.239-0.271-0.8-0.271h-2.19V111.09z"/>
	<path d="M465.263,108.715h5.262v1.016h-3.847v1.271h3.718v1h-3.718v1.352h4.006v1.008h-5.421V108.715z"/>
	<path d="M471.846,108.715h2.038l1.473,3.454c0.151,0.367,0.207,0.52,0.287,0.84c0.057-0.24,0.104-0.384,0.264-0.775l1.471-3.519
		h2.023v5.646h-1.336v-3.95c0-0.168,0.025-0.312,0.057-0.528c-0.057,0.168-0.08,0.232-0.16,0.432l-1.687,4.047h-1.288l-1.687-3.967
		c-0.088-0.215-0.104-0.279-0.168-0.512c0.024,0.24,0.032,0.289,0.048,0.504v3.975h-1.335V108.715z"/>
	<path d="M480.862,108.715h1.416v5.646h-1.416V108.715z"/>
	<path d="M483.679,108.715h1.408v3.318c0,0.503,0.104,0.927,0.639,1.183c0.457,0.217,0.863,0.201,1.279,0.185
		c0.537-0.048,0.881-0.192,1.104-0.448c0.137-0.16,0.256-0.344,0.24-0.911v-3.326h1.408v3.278c-0.01,0.6-0.01,1.168-0.488,1.695
		c-0.584,0.647-1.672,0.863-2.527,0.863c-0.398,0-0.799-0.04-1.191-0.136c-0.271-0.063-0.623-0.177-0.975-0.407
		c-0.889-0.601-0.896-1.344-0.896-2.016V108.715z"/>
	<path d="M491.192,108.715h2.039l1.473,3.454c0.15,0.367,0.207,0.52,0.287,0.84c0.057-0.24,0.104-0.384,0.264-0.775l1.471-3.519
		h2.023v5.646h-1.336v-3.95c0-0.168,0.025-0.312,0.057-0.528c-0.057,0.168-0.08,0.232-0.16,0.432l-1.688,4.047h-1.287l-1.686-3.967
		c-0.088-0.215-0.105-0.279-0.168-0.512c0.023,0.24,0.031,0.289,0.047,0.504v3.975h-1.336V108.715z"/>
</g>
<g>
	<path d="M67.107,129.048h3.886c0.64,0,1.224,0.057,1.695,0.6c0.288,0.336,0.368,0.76,0.368,1.088c0,0.432-0.144,0.943-0.543,1.247
		c-0.304,0.231-0.696,0.312-0.919,0.352l1.711,2.358h-1.663l-1.511-2.27h-1.607v2.27h-1.416V129.048z M68.523,131.423h2.254
		c0.304,0,0.848-0.04,0.848-0.672c0-0.111-0.016-0.304-0.112-0.439c-0.104-0.137-0.24-0.271-0.8-0.271h-2.19V131.423z"/>
	<path d="M74.161,129.048h5.261v1.016h-3.846v1.271h3.718v0.999h-3.718v1.352h4.006v1.007h-5.421V129.048z"/>
	<path d="M81.513,132.942c0.32,0.68,1.127,0.887,1.895,0.887c0.344,0,1.423-0.056,1.423-0.743c0-0.407-0.392-0.504-0.696-0.56
		c-0.232-0.049-1.391-0.225-1.655-0.271c-0.52-0.097-1.831-0.344-1.831-1.623c0-0.281,0.08-0.568,0.224-0.801
		c0.472-0.76,1.511-0.959,2.407-0.959c0.824,0,1.455,0.12,2.039,0.439c0.576,0.312,0.823,0.729,0.936,0.912l-1.343,0.336
		c-0.048-0.088-0.16-0.297-0.496-0.465c-0.375-0.184-0.863-0.215-1.135-0.215c-0.624,0-1.263,0.119-1.263,0.655
		c0,0.368,0.328,0.464,0.751,0.56c0.232,0.049,1.383,0.24,1.647,0.296c0.656,0.12,1.767,0.36,1.767,1.599
		c0,1.815-2.159,1.879-2.87,1.879c-0.928,0-2.359-0.159-3.086-1.59L81.513,132.942z"/>
	<path d="M87.346,129.048h5.261v1.016h-3.846v1.271h3.718v0.999h-3.718v1.352h4.006v1.007h-5.421V129.048z"/>
	<path d="M93.933,129.048h3.886c0.64,0,1.223,0.057,1.695,0.6c0.287,0.336,0.367,0.76,0.367,1.088c0,0.432-0.144,0.943-0.544,1.247
		c-0.304,0.231-0.695,0.312-0.919,0.352l1.711,2.358h-1.663l-1.511-2.27h-1.607v2.27h-1.416V129.048z M95.349,131.423h2.255
		c0.304,0,0.848-0.04,0.848-0.672c0-0.111-0.017-0.304-0.112-0.439c-0.104-0.137-0.24-0.271-0.8-0.271h-2.19V131.423z"/>
	<path d="M100.263,129.048h1.56l1.511,3.702c0.088,0.231,0.112,0.304,0.168,0.536c0.072-0.256,0.088-0.32,0.184-0.536l1.52-3.702
		h1.52l-2.535,5.645h-1.375L100.263,129.048z"/>
	<path d="M107.548,129.048h5.262v1.016h-3.846v1.271h3.718v0.999h-3.718v1.352h4.006v1.007h-5.422V129.048z"/>
	<path d="M114.131,129.048h3.087c0.208,0.008,0.416,0.008,0.623,0.032c1.647,0.151,2.463,1.304,2.463,2.759
		c0,0.646-0.16,1.287-0.552,1.807c-0.791,1.031-1.854,1.039-2.71,1.047h-2.911V129.048z M115.538,130.048v3.646h1.56
		c0.504-0.008,1.079-0.017,1.455-0.552c0.168-0.232,0.344-0.623,0.344-1.335c0-0.536-0.12-0.903-0.279-1.159
		c-0.368-0.584-0.96-0.592-1.447-0.6H115.538z"/>
</g>
<g>
	<path d="M24.818,163.548h1.527l2.727,5.646h-1.583l-0.479-1.063h-2.895l-0.479,1.063h-1.543L24.818,163.548z M25.713,165.284
		c-0.04-0.072-0.072-0.152-0.096-0.225s-0.04-0.145-0.048-0.224c-0.024,0.071-0.04,0.136-0.056,0.2
		c-0.032,0.071-0.056,0.144-0.088,0.215l-0.855,1.879h1.983L25.713,165.284z"/>
</g>
<g>
	<path d="M630.875,163.548h1.415v5.646h-1.415V163.548z"/>
</g>
<g>
	<path d="M91.033,163.548h3.662c0.583,0.017,1.295,0.033,1.679,0.584c0.2,0.288,0.224,0.6,0.224,0.8
		c0,0.151-0.016,0.472-0.224,0.751c-0.231,0.305-0.535,0.4-0.711,0.448c0.352,0.097,1.223,0.312,1.223,1.439
		c0,0.327-0.072,0.671-0.256,0.952c-0.439,0.663-1.167,0.663-1.719,0.671h-3.878V163.548z M92.433,165.771h2.022
		c0.168,0,0.328-0.008,0.456-0.055c0.336-0.137,0.336-0.512,0.336-0.576c0-0.6-0.456-0.607-0.68-0.607h-2.135V165.771z
		 M92.433,168.202h2.118c0.32,0,0.92,0.008,0.92-0.768c0-0.68-0.536-0.68-0.743-0.68h-2.295V168.202z"/>
</g>
<g>
	<path d="M561.197,163.548h1.415v2.176h3.414v-2.176h1.415v5.646h-1.415v-2.423h-3.414v2.423h-1.415V163.548z"/>
</g>
<g>
	<path d="M185.615,167.274c-0.104,0.352-0.231,0.76-0.735,1.223c-0.456,0.416-1.207,0.889-2.646,0.889
		c-2.007,0-3.398-1.048-3.398-3.023c0-2.127,1.695-2.99,3.478-2.99c0.647,0,2.503,0.145,3.238,1.76L184,165.323
		c-0.152-0.24-0.592-0.911-1.687-0.911c-1.279,0-2.007,0.888-2.007,1.967c0,1.231,0.967,1.967,2.039,1.967
		c1.224,0,1.599-0.72,1.783-1.063L185.615,167.274z"/>
	<path d="M176.953,174.747c0.08-0.311,0.184-0.775,0.68-1.143c0.423-0.312,0.991-0.416,1.511-0.416c1.423,0,2.183,0.68,2.183,1.551
		c0,0.225-0.064,0.456-0.184,0.641c-0.192,0.295-0.456,0.391-0.656,0.463c0.168,0.064,0.44,0.152,0.696,0.432
		c0.336,0.36,0.36,0.768,0.36,0.96c0,0.991-0.855,1.671-2.319,1.671c-0.288,0-0.919-0.04-1.343-0.207
		c-0.855-0.336-1.031-1.008-1.135-1.393l0.751-0.176c0.072,0.36,0.232,1.128,1.735,1.128c0.815,0,1.487-0.296,1.487-1.063
		c0-0.328-0.136-0.552-0.256-0.672c-0.264-0.256-0.719-0.304-1.383-0.304c-0.176,0-0.352,0-0.536,0.009v-0.6
		c0.384,0.008,0.832,0.008,1.175-0.049c0.56-0.096,0.784-0.416,0.784-0.775c0-0.296-0.152-0.56-0.36-0.72
		c-0.216-0.168-0.543-0.272-0.975-0.272c-0.368,0-0.8,0.088-1.12,0.36c-0.296,0.248-0.328,0.528-0.352,0.712L176.953,174.747z"/>
	<path d="M187.548,176.075c0,1.727-0.992,2.846-2.511,2.846c-1.655,0-2.487-1.326-2.487-2.91c0-1.383,0.776-2.814,2.479-2.83
		C186.676,173.165,187.548,174.46,187.548,176.075z M183.91,174.356c-0.472,0.52-0.552,1.23-0.552,1.75
		c0,1.336,0.72,2.168,1.695,2.168c0.4,0,0.784-0.152,1.08-0.424c0.472-0.457,0.615-1.128,0.615-1.783
		c0-0.584-0.128-1.104-0.352-1.472c-0.192-0.319-0.64-0.792-1.367-0.768C184.638,173.837,184.222,174.004,183.91,174.356z"/>
</g>
<g>
	<path d="M478.336,168.546c-0.607,0.592-1.479,0.815-2.335,0.815c-2.67,0-3.406-1.663-3.406-3.015c0-0.735,0.265-1.447,0.768-1.99
		c0.936-1,2.399-1,2.839-1c0.552,0,1.439,0.064,2.215,0.535c0.616,0.385,0.855,0.816,0.999,1.072l-1.559,0.216
		c-0.232-0.28-0.64-0.776-1.711-0.776c-1.207,0-2.096,0.704-2.096,1.959c0,1.104,0.76,1.967,2.136,1.967
		c0.671,0,1.231-0.215,1.583-0.495c0.336-0.264,0.399-0.487,0.464-0.647h-1.855v-1.016h3.038v3.022h-1.079V168.546z"/>
	<path d="M470.952,174.747c0.08-0.311,0.184-0.775,0.68-1.143c0.424-0.312,0.992-0.416,1.512-0.416c1.423,0,2.183,0.68,2.183,1.551
		c0,0.225-0.063,0.456-0.185,0.641c-0.191,0.295-0.455,0.391-0.655,0.463c0.168,0.064,0.44,0.152,0.696,0.432
		c0.336,0.36,0.359,0.768,0.359,0.96c0,0.991-0.855,1.671-2.318,1.671c-0.288,0-0.92-0.04-1.344-0.207
		c-0.855-0.336-1.031-1.008-1.135-1.393l0.751-0.176c0.072,0.36,0.231,1.128,1.735,1.128c0.815,0,1.486-0.296,1.486-1.063
		c0-0.328-0.135-0.552-0.256-0.672c-0.264-0.256-0.719-0.304-1.383-0.304c-0.176,0-0.352,0-0.535,0.009v-0.6
		c0.383,0.008,0.831,0.008,1.175-0.049c0.56-0.096,0.784-0.416,0.784-0.775c0-0.296-0.152-0.56-0.36-0.72
		c-0.216-0.168-0.544-0.272-0.976-0.272c-0.367,0-0.799,0.088-1.119,0.36c-0.296,0.248-0.328,0.528-0.352,0.712L470.952,174.747z"/>
	<path d="M481.548,176.075c0,1.727-0.992,2.846-2.511,2.846c-1.655,0-2.487-1.326-2.487-2.91c0-1.383,0.776-2.814,2.479-2.83
		C480.676,173.165,481.548,174.46,481.548,176.075z M477.909,174.356c-0.471,0.52-0.551,1.23-0.551,1.75
		c0,1.336,0.719,2.168,1.694,2.168c0.4,0,0.784-0.152,1.08-0.424c0.472-0.457,0.615-1.128,0.615-1.783
		c0-0.584-0.128-1.104-0.352-1.472c-0.192-0.319-0.64-0.792-1.367-0.768C478.638,173.837,478.222,174.004,477.909,174.356z"/>
</g>
<g>
	<path d="M598.797,174.22c0.312-0.008,0.647-0.016,1.056-0.231c0.408-0.208,0.543-0.472,0.664-0.688h0.6v5.494h-0.792v-4.286
		c-0.472,0.208-0.768,0.231-1.527,0.256V174.22z"/>
	<path d="M608.223,176.075c0,1.727-0.991,2.846-2.511,2.846c-1.655,0-2.486-1.326-2.486-2.91c0-1.383,0.775-2.814,2.479-2.83
		C607.351,173.165,608.223,174.46,608.223,176.075z M604.585,174.356c-0.473,0.52-0.553,1.23-0.553,1.75
		c0,1.336,0.721,2.168,1.695,2.168c0.4,0,0.784-0.152,1.08-0.424c0.472-0.457,0.615-1.128,0.615-1.783
		c0-0.584-0.128-1.104-0.352-1.472c-0.192-0.319-0.64-0.792-1.367-0.768C605.312,173.837,604.896,174.004,604.585,174.356z"/>
</g>
<g>
	<path d="M50.797,174.22c0.312-0.008,0.647-0.016,1.056-0.231c0.408-0.208,0.543-0.472,0.664-0.688h0.6v5.494h-0.792v-4.286
		c-0.472,0.208-0.768,0.231-1.527,0.256V174.22z"/>
	<path d="M60.223,176.075c0,1.727-0.991,2.846-2.511,2.846c-1.655,0-2.487-1.326-2.487-2.91c0-1.383,0.776-2.814,2.479-2.83
		C59.351,173.165,60.223,174.46,60.223,176.075z M56.584,174.356c-0.472,0.52-0.552,1.23-0.552,1.75c0,1.336,0.72,2.168,1.695,2.168
		c0.4,0,0.784-0.152,1.08-0.424c0.472-0.457,0.615-1.128,0.615-1.783c0-0.584-0.128-1.104-0.352-1.472
		c-0.192-0.319-0.64-0.792-1.367-0.768C57.312,173.837,56.896,174.004,56.584,174.356z"/>
</g>
<g>
	<path d="M258.865,163.548h3.086c0.208,0.009,0.416,0.009,0.624,0.033c1.647,0.151,2.462,1.303,2.462,2.758
		c0,0.648-0.16,1.287-0.551,1.807c-0.792,1.031-1.855,1.04-2.711,1.048h-2.91V163.548z M260.272,164.548v3.646h1.559
		c0.504-0.008,1.08-0.017,1.455-0.553c0.168-0.231,0.344-0.623,0.344-1.334c0-0.537-0.12-0.904-0.28-1.16
		c-0.368-0.584-0.959-0.592-1.447-0.6H260.272z"/>
</g>
<g>
	<path d="M394.041,163.548h5.222v1.016h-3.814v1.447h3.59v1h-3.59v2.183h-1.407V163.548z"/>
</g>
<g>
	<path d="M326.281,163.548h5.261v1.016h-3.846v1.271h3.718v1h-3.718v1.352h4.006v1.007h-5.421V163.548z"/>
	<path d="M323.878,173.284h4.222l-0.04,0.68h-3.582l-0.096,1.471c0.224-0.176,0.735-0.574,1.719-0.574
		c1.303,0,2.263,0.759,2.263,1.926c0,1.256-1.079,2.111-2.471,2.111c-0.551,0-1.111-0.128-1.575-0.424
		c-0.56-0.367-0.728-0.824-0.832-1.111l0.751-0.16c0.064,0.145,0.168,0.368,0.36,0.561c0.216,0.215,0.664,0.503,1.351,0.503
		c1.144,0,1.615-0.751,1.615-1.415c0-1.039-0.919-1.352-1.559-1.352c-0.536,0-1.312,0.217-1.671,0.912l-0.616-0.12L323.878,173.284z
		"/>
	<path d="M334.298,176.075c0,1.727-0.992,2.846-2.511,2.846c-1.655,0-2.487-1.326-2.487-2.91c0-1.383,0.776-2.814,2.479-2.83
		C333.426,173.165,334.298,174.46,334.298,176.075z M330.66,174.356c-0.472,0.52-0.552,1.23-0.552,1.75
		c0,1.336,0.719,2.168,1.695,2.168c0.4,0,0.784-0.152,1.08-0.424c0.472-0.457,0.615-1.128,0.615-1.783
		c0-0.584-0.128-1.104-0.352-1.472c-0.192-0.319-0.64-0.792-1.367-0.768C331.388,173.837,330.972,174.004,330.66,174.356z"/>
</g>
<g>
	<path d="M537.108,129.048h3.885c0.641,0,1.225,0.057,1.695,0.6c0.289,0.336,0.368,0.76,0.368,1.088
		c0,0.432-0.144,0.943-0.544,1.247c-0.303,0.231-0.695,0.312-0.919,0.352l1.711,2.358h-1.663l-1.512-2.27h-1.606v2.27h-1.415
		V129.048z M538.523,131.423h2.255c0.304,0,0.848-0.04,0.848-0.672c0-0.111-0.017-0.304-0.112-0.439
		c-0.104-0.137-0.239-0.271-0.8-0.271h-2.19V131.423z"/>
	<path d="M544.161,129.048h5.262v1.016h-3.847v1.271h3.718v0.999h-3.718v1.352h4.006v1.007h-5.421V129.048z"/>
	<path d="M551.513,132.942c0.32,0.68,1.128,0.887,1.896,0.887c0.344,0,1.423-0.056,1.423-0.743c0-0.407-0.391-0.504-0.695-0.56
		c-0.232-0.049-1.391-0.225-1.654-0.271c-0.521-0.097-1.832-0.344-1.832-1.623c0-0.281,0.08-0.568,0.225-0.801
		c0.471-0.76,1.511-0.959,2.406-0.959c0.824,0,1.455,0.12,2.039,0.439c0.576,0.312,0.823,0.729,0.936,0.912l-1.344,0.336
		c-0.048-0.088-0.16-0.297-0.496-0.465c-0.375-0.184-0.863-0.215-1.135-0.215c-0.623,0-1.264,0.119-1.264,0.655
		c0,0.368,0.328,0.464,0.752,0.56c0.232,0.049,1.383,0.24,1.646,0.296c0.656,0.12,1.768,0.36,1.768,1.599
		c0,1.815-2.158,1.879-2.87,1.879c-0.928,0-2.358-0.159-3.087-1.59L551.513,132.942z"/>
	<path d="M557.347,129.048h5.262v1.016h-3.847v1.271h3.718v0.999h-3.718v1.352h4.006v1.007h-5.421V129.048z"/>
	<path d="M563.934,129.048h3.886c0.641,0,1.223,0.057,1.695,0.6c0.287,0.336,0.367,0.76,0.367,1.088
		c0,0.432-0.143,0.943-0.543,1.247c-0.305,0.231-0.695,0.312-0.92,0.352l1.711,2.358h-1.662l-1.512-2.27h-1.607v2.27h-1.415V129.048
		z M565.349,131.423h2.256c0.303,0,0.848-0.04,0.848-0.672c0-0.111-0.018-0.304-0.113-0.439c-0.104-0.137-0.24-0.271-0.799-0.271
		h-2.191V131.423z"/>
	<path d="M570.263,129.048h1.561l1.51,3.702c0.088,0.231,0.113,0.304,0.168,0.536c0.072-0.256,0.088-0.32,0.184-0.536l1.52-3.702
		h1.52l-2.535,5.645h-1.375L570.263,129.048z"/>
	<path d="M577.548,129.048h5.262v1.016h-3.846v1.271h3.719v0.999h-3.719v1.352h4.006v1.007h-5.422V129.048z"/>
	<path d="M584.132,129.048h3.086c0.209,0.008,0.416,0.008,0.623,0.032c1.648,0.151,2.463,1.304,2.463,2.759
		c0,0.646-0.16,1.287-0.551,1.807c-0.791,1.031-1.855,1.039-2.711,1.047h-2.91V129.048z M585.538,130.048v3.646h1.561
		c0.504-0.008,1.078-0.017,1.455-0.552c0.168-0.232,0.344-0.623,0.344-1.335c0-0.536-0.121-0.903-0.279-1.159
		c-0.369-0.584-0.961-0.592-1.447-0.6H585.538z"/>
</g>
<rect x="368.583" y="27.541" fill="#FF9E00" stroke="#000000" width="60.668" height="24.684"/>
<rect x="85.541" y="151.804" fill="#D424ED" stroke="#000000" width="15.729" height="4.961"/>
<rect x="173.541" y="151.804" fill="#D424ED" stroke="#000000" width="15.729" height="4.961"/>
<rect x="468.208" y="151.804" fill="#D424ED" stroke="#000000" width="15.729" height="4.961"/>
<rect x="556.541" y="151.804" fill="#D424ED" stroke="#000000" width="15.729" height="4.961"/>
<rect x="387.875" y="151.804" fill="#D424ED" stroke="#000000" width="15.729" height="4.961"/>
<rect x="320.542" y="151.804" fill="#D424ED" stroke="#000000" width="15.729" height="4.961"/>
<rect x="253.875" y="151.804" fill="#D424ED" stroke="#000000" width="15.729" height="4.961"/>
</svg>
