<svg id="Layer_3" data-name="Layer 3" xmlns="http://www.w3.org/2000/svg" viewBox="0 0 1118.67 303.76"><defs><style>.cls-1{fill:#d1d3d4;}.cls-1,.cls-2,.cls-3,.cls-4,.cls-5,.cls-6,.cls-7{stroke:#000;}.cls-2{fill:#d424ed;}.cls-3{fill:#ff0;}.cls-4{fill:#30d469;}.cls-5{fill:#00b8e8;}.cls-6{fill:#ff9e00;}.cls-7{fill:#8c8c8c;}.cls-8{fill:#fff;}</style></defs><title>cbac_kc_color20</title><rect class="cls-1" x="0.5" y="36.54" width="1117.67" height="229.47"/><rect class="cls-2" x="1034.36" y="44.53" width="83.77" height="221.19"/><rect class="cls-3" x="399.08" y="247.59" width="91.47" height="18.42"/><rect class="cls-4" x="242.81" y="44.53" width="127.86" height="119.56"/><rect class="cls-5" x="98.54" y="44.53" width="129.58" height="119.13"/><rect class="cls-4" x="386.66" y="44.53" width="103.89" height="168.79"/><rect class="cls-6" x="386.66" y="44.53" width="103.89" height="42.27"/><rect class="cls-3" x="628.08" y="247.59" width="91.47" height="18.42"/><rect class="cls-4" x="747.95" y="44.53" width="127.87" height="119.56"/><polygon class="cls-3" points="903.07 213.27 890.51 213.27 890.51 148.32 1020.09 148.32 1020.09 266 903.07 266 903.07 213.27"/><rect class="cls-5" x="890.51" y="44.53" width="129.58" height="103.8"/><rect class="cls-4" x="628.08" y="44.53" width="103.89" height="168.79"/><rect class="cls-5" x="506.53" y="244.03" width="105.6" height="21.95"/><rect class="cls-6" x="506.53" y="44.67" width="105.6" height="84.25"/><rect class="cls-4" x="506.53" y="128.92" width="105.6" height="121.5"/><rect class="cls-7" x="363.97" y="0.5" width="391.58" height="35.96"/><path class="cls-8" d="M556.52,236.62h6a3.51,3.51,0,0,1,3.12,1.13,3.41,3.41,0,0,1,.53,1.91,3,3,0,0,1-.65,2c-.8,1-2,1-3.21,1H558.9v3.64h-2.38ZM558.9,241h3c.78,0,1.85,0,1.85-1.3a1.4,1.4,0,0,0-.41-1.07c-.33-.29-.68-.29-1.7-.29H558.9Z" transform="translate(-45.24 -222.63)"/><path class="cls-8" d="M567.66,236.63h6.66a3.44,3.44,0,0,1,2.9,1,2.86,2.86,0,0,1,.63,1.86,2.68,2.68,0,0,1-.93,2.14,3.77,3.77,0,0,1-1.58.6l2.93,4h-2.84l-2.59-3.89h-2.75v3.89h-2.43Zm2.43,4.07H574c.52,0,1.45-.07,1.45-1.15a1.45,1.45,0,0,0-.19-.76c-.18-.23-.41-.46-1.37-.46h-3.75Z" transform="translate(-45.24 -222.63)"/><path class="cls-8" d="M579.74,236.63h9v1.74h-6.59v2.18h6.37v1.71h-6.37v2.31H589v1.73h-9.28Z" transform="translate(-45.24 -222.63)"/><path class="cls-8" d="M592.33,243.3c.55,1.16,1.93,1.52,3.25,1.52.58,0,2.43-.1,2.43-1.27,0-.7-.67-.87-1.19-1s-2.38-.39-2.83-.47c-.89-.16-3.14-.59-3.14-2.78a2.63,2.63,0,0,1,.39-1.37c.8-1.3,2.58-1.64,4.12-1.64a7,7,0,0,1,3.49.75,4.05,4.05,0,0,1,1.6,1.56l-2.3.58a1.73,1.73,0,0,0-.85-.79,4.65,4.65,0,0,0-1.94-.37c-1.07,0-2.17.2-2.17,1.12,0,.63.56.79,1.29,1,.4.08,2.37.41,2.82.5,1.12.21,3,.62,3,2.74,0,3.11-3.7,3.22-4.92,3.22-1.59,0-4-.27-5.28-2.72Z" transform="translate(-45.24 -222.63)"/><path class="cls-8" d="M603.84,243.3c.54,1.16,1.93,1.52,3.24,1.52.59,0,2.44-.1,2.44-1.27,0-.7-.67-.87-1.19-1s-2.39-.39-2.84-.47c-.89-.16-3.13-.59-3.13-2.78a2.62,2.62,0,0,1,.38-1.37c.81-1.3,2.59-1.64,4.12-1.64a7,7,0,0,1,3.49.75,4.18,4.18,0,0,1,1.61,1.56l-2.31.58a1.73,1.73,0,0,0-.85-.79,4.62,4.62,0,0,0-1.94-.37c-1.07,0-2.16.2-2.16,1.12,0,.63.56.79,1.28,1,.4.08,2.37.41,2.82.5,1.13.21,3,.62,3,2.74,0,3.11-3.7,3.22-4.91,3.22-1.59,0-4-.27-5.29-2.72Z" transform="translate(-45.24 -222.63)"/><path class="cls-8" d="M618.66,236.63h6.27c1,0,2.22.06,2.88,1a2.36,2.36,0,0,1,.38,1.37,2.19,2.19,0,0,1-.38,1.29,2.15,2.15,0,0,1-1.22.76,2.41,2.41,0,0,1,2.09,2.47,2.94,2.94,0,0,1-.44,1.63,3.16,3.16,0,0,1-2.94,1.15h-6.64Zm2.39,3.81h3.47a2.34,2.34,0,0,0,.78-.1,1,1,0,0,0,.57-1c0-1-.78-1-1.16-1h-3.66Zm0,4.16h3.63c.55,0,1.58,0,1.58-1.31a1.08,1.08,0,0,0-1.28-1.17h-3.93Z" transform="translate(-45.24 -222.63)"/><path class="cls-8" d="M641,238.21a5,5,0,0,1,1,3.16c0,3.08-2,5.24-5.9,5.24s-6-2.12-6-5.13c0-3.33,2.39-5,5.56-5.15C637.58,236.25,639.74,236.74,641,238.21Zm-8.34,3.32a3.23,3.23,0,0,0,3.43,3.36,3.24,3.24,0,0,0,3.47-3.4,3.45,3.45,0,0,0-6.9,0Z" transform="translate(-45.24 -222.63)"/><path class="cls-8" d="M642.81,236.63h3l2.12,2.84a1,1,0,0,1,.27.41,1.12,1.12,0,0,1,.23-.43l2.21-2.82h3l-3.85,4.6,4.41,5.07h-3.07L648.45,243a1.59,1.59,0,0,1-.22-.4,1.7,1.7,0,0,1-.24.44l-2.66,3.29h-3.08l4.42-5.07Z" transform="translate(-45.24 -222.63)"/><path d="M575.84,392.55c.54,1.16,1.93,1.52,3.24,1.52.59,0,2.44-.1,2.44-1.28,0-.69-.67-.86-1.19-1s-2.38-.39-2.84-.47c-.89-.16-3.13-.59-3.13-2.78a2.62,2.62,0,0,1,.38-1.37c.81-1.3,2.59-1.64,4.12-1.64a6.9,6.9,0,0,1,3.49.75,4.18,4.18,0,0,1,1.61,1.56l-2.3.58a1.89,1.89,0,0,0-.85-.8,4.86,4.86,0,0,0-1.95-.37c-1.07,0-2.16.21-2.16,1.13,0,.63.56.79,1.29.95.39.09,2.36.42,2.82.51,1.12.21,3,.62,3,2.74,0,3.11-3.69,3.22-4.91,3.22-1.59,0-4-.28-5.29-2.73Z" transform="translate(-45.24 -222.63)"/><path d="M585.73,385.88h2.41v5.68a1.94,1.94,0,0,0,1.09,2,4.29,4.29,0,0,0,2.19.31,2.64,2.64,0,0,0,1.89-.76,2,2,0,0,0,.41-1.56v-5.7h2.41v5.61a3.87,3.87,0,0,1-.83,2.9,6,6,0,0,1-4.33,1.48,8.29,8.29,0,0,1-2-.23,5.11,5.11,0,0,1-1.67-.7,3.54,3.54,0,0,1-1.53-3.45Z" transform="translate(-45.24 -222.63)"/><path d="M598.59,385.87h6a3.51,3.51,0,0,1,3.12,1.13,3.38,3.38,0,0,1,.53,1.91,3,3,0,0,1-.65,2c-.8,1-2,1-3.21,1H601v3.64h-2.38Zm2.38,4.34h3c.78,0,1.85,0,1.85-1.3a1.38,1.38,0,0,0-.41-1.07c-.33-.29-.68-.29-1.7-.29H601Z" transform="translate(-45.24 -222.63)"/><path d="M609.74,385.88h9v1.74h-6.59v2.18h6.37v1.71h-6.37v2.31H619v1.72h-9.28Z" transform="translate(-45.24 -222.63)"/><path d="M621,385.88h6.65a3.43,3.43,0,0,1,2.9,1,2.81,2.81,0,0,1,.63,1.86,2.63,2.63,0,0,1-.93,2.13,3.68,3.68,0,0,1-1.57.61l2.93,4h-2.85l-2.59-3.88h-2.75v3.88H621Zm2.42,4.07h3.86c.52,0,1.45-.07,1.45-1.15a1.43,1.43,0,0,0-.19-.76c-.18-.23-.41-.46-1.37-.46h-3.75Z" transform="translate(-45.24 -222.63)"/><path d="M562.17,402.3h6a3.52,3.52,0,0,1,3.12,1.14,3.37,3.37,0,0,1,.53,1.9,2.94,2.94,0,0,1-.66,2c-.79,1-2,1-3.2,1h-3.38V412h-2.38Zm2.38,4.35h3c.78,0,1.85,0,1.85-1.31a1.37,1.37,0,0,0-.41-1.06c-.33-.29-.68-.29-1.7-.29h-2.72Z" transform="translate(-45.24 -222.63)"/><path d="M573.31,402.32H580a3.46,3.46,0,0,1,2.9,1,2.91,2.91,0,0,1,.63,1.87,2.66,2.66,0,0,1-.93,2.13A3.67,3.67,0,0,1,581,408l2.93,4h-2.84l-2.59-3.89h-2.75V412h-2.43Zm2.43,4.06h3.86c.52,0,1.45-.06,1.45-1.15a1.41,1.41,0,0,0-.19-.75c-.18-.23-.41-.46-1.37-.46h-3.75Z" transform="translate(-45.24 -222.63)"/><path d="M585.39,402.32h9v1.74h-6.59v2.17h6.37V408h-6.37v2.31h6.86V412h-9.28Z" transform="translate(-45.24 -222.63)"/><path d="M596.66,402.32h3.49l2.52,5.91a8.88,8.88,0,0,1,.5,1.44,6.64,6.64,0,0,1,.45-1.33l2.52-6h3.46V412h-2.28v-6.77a6.5,6.5,0,0,1,.09-.9,6.91,6.91,0,0,1-.27.74L604.25,412H602l-2.88-6.8a4.94,4.94,0,0,1-.29-.87c0,.41,0,.49.08.86V412h-2.29Z" transform="translate(-45.24 -222.63)"/><path d="M612.1,402.32h2.43V412H612.1Z" transform="translate(-45.24 -222.63)"/><path d="M616.93,402.32h2.41V408a1.94,1.94,0,0,0,1.09,2,4.29,4.29,0,0,0,2.19.31,2.68,2.68,0,0,0,1.89-.76,1.94,1.94,0,0,0,.41-1.57v-5.69h2.41v5.61a3.91,3.91,0,0,1-.83,2.91,6.07,6.07,0,0,1-4.33,1.48,8.3,8.3,0,0,1-2-.24,5.11,5.11,0,0,1-1.67-.7,3.54,3.54,0,0,1-1.53-3.45Z" transform="translate(-45.24 -222.63)"/><path d="M629.79,402.32h3.5l2.52,5.91a8.77,8.77,0,0,1,.49,1.44,8.25,8.25,0,0,1,.45-1.33l2.52-6h3.47V412h-2.29v-6.77a6.5,6.5,0,0,1,.09-.9,6.91,6.91,0,0,1-.27.74L637.38,412h-2.2l-2.89-6.8a5.92,5.92,0,0,1-.29-.87c0,.41,0,.49.08.86V412h-2.29Z" transform="translate(-45.24 -222.63)"/><path d="M168.28,318.46h6a3.5,3.5,0,0,1,3.12,1.13,3.41,3.41,0,0,1,.53,1.91,3,3,0,0,1-.65,2c-.8,1-2,1-3.21,1h-3.38v3.64h-2.38Zm2.38,4.34h3c.78,0,1.85,0,1.85-1.3a1.37,1.37,0,0,0-.42-1.07c-.32-.29-.68-.29-1.69-.29h-2.73Z" transform="translate(-45.24 -222.63)"/><path d="M179.43,318.47h6.65a3.44,3.44,0,0,1,2.9,1,2.81,2.81,0,0,1,.63,1.86,2.65,2.65,0,0,1-.93,2.14,3.65,3.65,0,0,1-1.57.6l2.93,4h-2.85l-2.59-3.89h-2.75v3.89h-2.42Zm2.42,4.07h3.86c.52,0,1.45-.07,1.45-1.15a1.45,1.45,0,0,0-.19-.76c-.18-.23-.41-.46-1.37-.46h-3.75Z" transform="translate(-45.24 -222.63)"/><path d="M191.5,318.47h9v1.74h-6.58v2.18h6.36v1.71h-6.36v2.31h6.86v1.73H191.5Z" transform="translate(-45.24 -222.63)"/><path d="M202.78,318.47h3.49l2.52,5.92a8.46,8.46,0,0,1,.49,1.44,7.94,7.94,0,0,1,.45-1.33l2.52-6h3.47v9.67h-2.29v-6.77a5.47,5.47,0,0,1,.1-.9c-.1.29-.14.4-.28.74l-2.89,6.93h-2.2l-2.89-6.79a6,6,0,0,1-.29-.88c0,.41.06.5.08.86v6.81h-2.28Z" transform="translate(-45.24 -222.63)"/><path d="M218.22,318.47h2.42v9.67h-2.42Z" transform="translate(-45.24 -222.63)"/><path d="M223,318.47h2.41v5.68a2,2,0,0,0,1.1,2,4.39,4.39,0,0,0,2.19.32,2.7,2.7,0,0,0,1.89-.77,2,2,0,0,0,.41-1.56v-5.7h2.41v5.61a4,4,0,0,1-.84,2.91,6,6,0,0,1-4.32,1.48,8.74,8.74,0,0,1-2-.23,5.25,5.25,0,0,1-1.67-.7,3.54,3.54,0,0,1-1.54-3.46Z" transform="translate(-45.24 -222.63)"/><path d="M235.91,318.47h3.49l2.52,5.92a7.67,7.67,0,0,1,.49,1.44,7.3,7.3,0,0,1,.46-1.33l2.51-6h3.47v9.67h-2.29v-6.77a5.47,5.47,0,0,1,.1-.9c-.1.29-.14.4-.28.74l-2.89,6.93h-2.2l-2.89-6.79a6,6,0,0,1-.29-.88c0,.41.06.5.09.86v6.81h-2.29Z" transform="translate(-45.24 -222.63)"/><path d="M84.67,500.06h2.61L92,509.73H89.24l-.82-1.82h-5l-.82,1.82H80Zm1.53,3a2.14,2.14,0,0,1-.16-.39,1.61,1.61,0,0,1-.08-.38,2.56,2.56,0,0,0-.1.34c-.06.12-.1.25-.15.37l-1.47,3.22h3.4Z" transform="translate(-45.24 -222.63)"/><path d="M1122.52,500.06h2.42v9.67h-2.42Z" transform="translate(-45.24 -222.63)"/><path d="M198.06,500.06h6.27c1,0,2.22.06,2.88,1a2.38,2.38,0,0,1,.38,1.37,2.19,2.19,0,0,1-.38,1.29,2.24,2.24,0,0,1-1.22.77,2.39,2.39,0,0,1,2.09,2.46,2.94,2.94,0,0,1-.44,1.63,3.16,3.16,0,0,1-2.94,1.15h-6.64Zm2.4,3.81h3.46a2.36,2.36,0,0,0,.78-.09,1,1,0,0,0,.58-1c0-1-.79-1-1.17-1h-3.65Zm0,4.16h3.62c.55,0,1.58,0,1.58-1.31a1.08,1.08,0,0,0-1.27-1.17h-3.93Z" transform="translate(-45.24 -222.63)"/><path d="M1003.2,500.06h2.42v3.73h5.85v-3.73h2.42v9.67h-2.42v-4.15h-5.85v4.15h-2.42Z" transform="translate(-45.24 -222.63)"/><path d="M360,506.44a4.08,4.08,0,0,1-1.26,2.1,6.26,6.26,0,0,1-4.53,1.52c-3.44,0-5.82-1.79-5.82-5.18,0-3.64,2.9-5.12,5.95-5.12,1.11,0,4.29.25,5.55,3l-2.66.32a3.18,3.18,0,0,0-2.89-1.56,3.23,3.23,0,0,0-3.43,3.37,3.33,3.33,0,0,0,3.49,3.37,3.07,3.07,0,0,0,3.05-1.82Z" transform="translate(-45.24 -222.63)"/><path d="M345.19,519.24a3.15,3.15,0,0,1,1.17-2,4.4,4.4,0,0,1,2.58-.71c2.44,0,3.74,1.17,3.74,2.66a2.12,2.12,0,0,1-.31,1.1,2.05,2.05,0,0,1-1.13.79,2.77,2.77,0,0,1,1.2.74,2.33,2.33,0,0,1,.61,1.64c0,1.7-1.46,2.86-4,2.86a7.48,7.48,0,0,1-2.3-.35,3.11,3.11,0,0,1-1.94-2.39l1.28-.3c.13.62.4,1.93,3,1.93,1.39,0,2.54-.5,2.54-1.82a1.6,1.6,0,0,0-.44-1.15,3.39,3.39,0,0,0-2.36-.52c-.31,0-.61,0-.92,0v-1a13.14,13.14,0,0,0,2-.08c1-.17,1.34-.72,1.34-1.33a1.57,1.57,0,0,0-.61-1.23,2.68,2.68,0,0,0-1.67-.47,3,3,0,0,0-1.92.62,1.66,1.66,0,0,0-.6,1.22Z" transform="translate(-45.24 -222.63)"/><path d="M363.34,521.52c0,3-1.7,4.87-4.3,4.87-2.84,0-4.26-2.27-4.26-5,0-2.37,1.33-4.82,4.24-4.85S363.34,518.75,363.34,521.52Zm-6.23-2.95a4.41,4.41,0,0,0-.95,3c0,2.29,1.23,3.71,2.9,3.71a2.73,2.73,0,0,0,1.85-.72A4.17,4.17,0,0,0,362,521.5a5,5,0,0,0-.6-2.52,2.66,2.66,0,0,0-2.35-1.31A2.61,2.61,0,0,0,357.11,518.57Z" transform="translate(-45.24 -222.63)"/><path d="M861.3,508.62a5.63,5.63,0,0,1-4,1.4c-4.57,0-5.83-2.85-5.83-5.16a5,5,0,0,1,1.31-3.41,6.65,6.65,0,0,1,4.86-1.71,7.43,7.43,0,0,1,3.8.91,4.7,4.7,0,0,1,1.71,1.84l-2.67.37a3.35,3.35,0,0,0-2.93-1.33c-2.07,0-3.59,1.2-3.59,3.35a3.31,3.31,0,0,0,3.66,3.37,4.39,4.39,0,0,0,2.71-.85,2.19,2.19,0,0,0,.79-1.11H858v-1.74h5.2v5.18H861.3Z" transform="translate(-45.24 -222.63)"/><path d="M848.66,519.24a3.08,3.08,0,0,1,1.16-2,4.45,4.45,0,0,1,2.59-.71c2.43,0,3.74,1.17,3.74,2.66a2,2,0,0,1-.32,1.1,2.07,2.07,0,0,1-1.12.79,2.75,2.75,0,0,1,1.19.74,2.31,2.31,0,0,1,.62,1.64c0,1.7-1.47,2.86-4,2.86a7.5,7.5,0,0,1-2.31-.35,3.13,3.13,0,0,1-1.94-2.39l1.29-.3c.12.62.39,1.93,3,1.93,1.4,0,2.54-.5,2.54-1.82a1.64,1.64,0,0,0-.43-1.15,3.42,3.42,0,0,0-2.37-.52c-.3,0-.6,0-.92,0v-1a13.14,13.14,0,0,0,2-.08c1-.17,1.35-.72,1.35-1.33a1.55,1.55,0,0,0-.62-1.23,2.68,2.68,0,0,0-1.67-.47,3,3,0,0,0-1.92.62,1.7,1.7,0,0,0-.6,1.22Z" transform="translate(-45.24 -222.63)"/><path d="M866.8,521.52c0,3-1.7,4.87-4.3,4.87-2.83,0-4.26-2.27-4.26-5,0-2.37,1.33-4.82,4.25-4.85S866.8,518.75,866.8,521.52Zm-6.23-2.95a4.39,4.39,0,0,0-.94,3c0,2.29,1.23,3.71,2.9,3.71a2.77,2.77,0,0,0,1.85-.72,4.16,4.16,0,0,0,1-3.06,5,5,0,0,0-.6-2.52,2.63,2.63,0,0,0-4.26-.41Z" transform="translate(-45.24 -222.63)"/><path d="M1067.59,518.34a3.63,3.63,0,0,0,1.8-.4,2.47,2.47,0,0,0,1.14-1.18h1v9.41h-1.36v-7.34a5.87,5.87,0,0,1-2.61.44Z" transform="translate(-45.24 -222.63)"/><path d="M1083.73,521.52c0,3-1.7,4.87-4.3,4.87-2.84,0-4.26-2.27-4.26-5,0-2.37,1.33-4.82,4.24-4.85S1083.73,518.75,1083.73,521.52Zm-6.23-2.95a4.41,4.41,0,0,0-1,3c0,2.29,1.23,3.71,2.9,3.71a2.73,2.73,0,0,0,1.85-.72,4.17,4.17,0,0,0,1.06-3.06,4.87,4.87,0,0,0-.61-2.52,2.64,2.64,0,0,0-2.34-1.31A2.61,2.61,0,0,0,1077.5,518.57Z" transform="translate(-45.24 -222.63)"/><path d="M129.16,518.34a3.61,3.61,0,0,0,1.8-.4,2.47,2.47,0,0,0,1.14-1.18h1v9.41h-1.36v-7.34a5.87,5.87,0,0,1-2.61.44Z" transform="translate(-45.24 -222.63)"/><path d="M145.3,521.52c0,3-1.7,4.87-4.3,4.87-2.84,0-4.26-2.27-4.26-5,0-2.37,1.33-4.82,4.24-4.85S145.3,518.75,145.3,521.52Zm-6.23-2.95a4.41,4.41,0,0,0-.95,3c0,2.29,1.24,3.71,2.9,3.71a2.73,2.73,0,0,0,1.85-.72,4.17,4.17,0,0,0,1.06-3.06,5,5,0,0,0-.6-2.52,2.66,2.66,0,0,0-2.35-1.31A2.61,2.61,0,0,0,139.07,518.57Z" transform="translate(-45.24 -222.63)"/><path d="M485.46,500.06h5.29c.36,0,.71,0,1.07.06a4.39,4.39,0,0,1,4.22,4.72,5.1,5.1,0,0,1-1,3.1c-1.35,1.76-3.18,1.78-4.64,1.79h-5Zm2.42,1.72V508h2.66a2.74,2.74,0,0,0,2.5-.95,4.54,4.54,0,0,0,.11-4.27,2.6,2.6,0,0,0-2.48-1Z" transform="translate(-45.24 -222.63)"/><path d="M717,500.06h8.94v1.74h-6.53v2.48h6.15V506h-6.15v3.74H717Z" transform="translate(-45.24 -222.63)"/><path d="M600.91,500.06h9v1.74h-6.58V504h6.36v1.71h-6.36V508h6.86v1.72h-9.29Z" transform="translate(-45.24 -222.63)"/><path d="M596.8,516.74H604L604,517.9h-6.14l-.16,2.52a4.4,4.4,0,0,1,2.94-1c2.24,0,3.88,1.29,3.88,3.29s-1.85,3.62-4.23,3.62a5,5,0,0,1-2.7-.73,3.41,3.41,0,0,1-1.42-1.9l1.28-.27a3.18,3.18,0,0,0,.62,1,3.29,3.29,0,0,0,2.31.86,2.48,2.48,0,0,0,2.77-2.43,2.39,2.39,0,0,0-2.67-2.31,3.18,3.18,0,0,0-2.86,1.56l-1.06-.21Z" transform="translate(-45.24 -222.63)"/><path d="M614.64,521.52c0,3-1.7,4.87-4.3,4.87-2.83,0-4.26-2.27-4.26-5,0-2.37,1.33-4.82,4.25-4.85S614.64,518.75,614.64,521.52Zm-6.23-2.95a4.39,4.39,0,0,0-.94,3c0,2.29,1.23,3.71,2.9,3.71a2.77,2.77,0,0,0,1.85-.72,4.16,4.16,0,0,0,1-3.06,5,5,0,0,0-.6-2.52,2.63,2.63,0,0,0-4.26-.41Z" transform="translate(-45.24 -222.63)"/><rect class="cls-6" x="628.12" y="44.53" width="103.89" height="42.27"/><path d="M583.88,298h3.68l3.56,8.72a8.8,8.8,0,0,1,.39,1.27,6.74,6.74,0,0,1,.44-1.27l3.58-8.72h3.58l-6,13.3h-3.24Z" transform="translate(-45.24 -222.63)"/><path d="M600.8,298h3.34v13.3H600.8Z" transform="translate(-45.24 -222.63)"/><path d="M607.21,298h8.21c1.41,0,3.24.06,4.3,1.56a4.64,4.64,0,0,1,.73,2.62,4.08,4.08,0,0,1-.9,2.73c-1.1,1.32-2.7,1.4-4.41,1.4h-4.65v5h-3.28Zm3.28,6h4.1c1.08,0,2.55,0,2.55-1.79a1.93,1.93,0,0,0-.57-1.47c-.45-.39-.94-.39-2.34-.39h-3.74Z" transform="translate(-45.24 -222.63)"/><path d="M956.21,410h6.65a3.42,3.42,0,0,1,2.9,1,2.81,2.81,0,0,1,.63,1.86,2.65,2.65,0,0,1-.93,2.14,3.79,3.79,0,0,1-1.57.6l2.93,4H964l-2.59-3.89h-2.75v3.89h-2.42Zm2.42,4.07h3.86c.52,0,1.45-.07,1.45-1.15a1.45,1.45,0,0,0-.19-.76c-.18-.23-.41-.46-1.37-.46h-3.75Z" transform="translate(-45.24 -222.63)"/><path d="M968.28,410h9v1.74h-6.58v2.18h6.37v1.71h-6.37V418h6.86v1.73h-9.29Z" transform="translate(-45.24 -222.63)"/><path d="M980.87,416.69c.55,1.16,1.93,1.52,3.25,1.52.59,0,2.44-.1,2.44-1.27,0-.7-.67-.87-1.19-1s-2.39-.39-2.84-.47c-.89-.16-3.13-.59-3.13-2.78a2.62,2.62,0,0,1,.38-1.37c.81-1.3,2.59-1.64,4.12-1.64a6.9,6.9,0,0,1,3.49.75A4.05,4.05,0,0,1,989,412l-2.3.58a1.78,1.78,0,0,0-.85-.8,4.76,4.76,0,0,0-1.94-.36c-1.07,0-2.16.2-2.16,1.12,0,.63.56.79,1.28,1,.4.08,2.37.41,2.82.5,1.13.21,3,.62,3,2.74,0,3.11-3.7,3.22-4.91,3.22-1.59,0-4-.28-5.29-2.73Z" transform="translate(-45.24 -222.63)"/><path d="M990.86,410h9v1.74h-6.58v2.18h6.36v1.71h-6.36V418h6.86v1.73h-9.29Z" transform="translate(-45.24 -222.63)"/><path d="M1002.14,410h6.66a3.44,3.44,0,0,1,2.9,1,2.86,2.86,0,0,1,.63,1.86,2.65,2.65,0,0,1-.93,2.14,3.79,3.79,0,0,1-1.57.6l2.92,4h-2.84l-2.59-3.89h-2.75v3.89h-2.43Zm2.43,4.07h3.86c.52,0,1.45-.07,1.45-1.15a1.45,1.45,0,0,0-.19-.76c-.18-.23-.41-.46-1.37-.46h-3.75Z" transform="translate(-45.24 -222.63)"/><path d="M1013,410h2.67l2.59,6.34a6.51,6.51,0,0,1,.29.92,5.22,5.22,0,0,1,.31-.92l2.6-6.34h2.61l-4.34,9.67h-2.36Z" transform="translate(-45.24 -222.63)"/><path d="M1025.46,410h9v1.74h-6.59v2.18h6.37v1.71h-6.37V418h6.86v1.73h-9.28Z" transform="translate(-45.24 -222.63)"/><path d="M1036.73,410H1042a9.73,9.73,0,0,1,1.07.06,4.38,4.38,0,0,1,4.21,4.72,5.06,5.06,0,0,1-.94,3.09c-1.36,1.77-3.18,1.78-4.64,1.8h-5Zm2.41,1.71V418h2.67a2.75,2.75,0,0,0,2.49-1,3.74,3.74,0,0,0,.59-2.29,3.61,3.61,0,0,0-.48-2,2.61,2.61,0,0,0-2.47-1Z" transform="translate(-45.24 -222.63)"/><path d="M961.86,318.46h6a3.51,3.51,0,0,1,3.12,1.13,3.41,3.41,0,0,1,.53,1.91,3,3,0,0,1-.65,2c-.8,1-2,1-3.21,1h-3.38v3.64h-2.38Zm2.38,4.34h3c.77,0,1.84,0,1.84-1.3a1.36,1.36,0,0,0-.41-1.07c-.33-.29-.68-.29-1.7-.29h-2.72Z" transform="translate(-45.24 -222.63)"/><path d="M973,318.47h6.66a3.44,3.44,0,0,1,2.9,1,2.86,2.86,0,0,1,.63,1.86,2.68,2.68,0,0,1-.93,2.14,3.64,3.64,0,0,1-1.58.6l2.94,4h-2.85l-2.59-3.89h-2.75v3.89H973Zm2.43,4.07h3.86c.52,0,1.45-.07,1.45-1.15a1.45,1.45,0,0,0-.19-.76c-.18-.23-.41-.46-1.37-.46h-3.75Z" transform="translate(-45.24 -222.63)"/><path d="M985.08,318.47h9v1.74H987.5v2.18h6.37v1.71H987.5v2.31h6.86v1.73h-9.28Z" transform="translate(-45.24 -222.63)"/><path d="M996.35,318.47h3.5l2.52,5.92a8.46,8.46,0,0,1,.49,1.44,7.11,7.11,0,0,1,.45-1.33l2.52-6h3.46v9.67H1007v-6.77a6.65,6.65,0,0,1,.09-.9,6.91,6.91,0,0,1-.27.74l-2.89,6.93h-2.2l-2.89-6.79a6,6,0,0,1-.29-.88c0,.41.05.5.08.86v6.81h-2.29Z" transform="translate(-45.24 -222.63)"/><path d="M1011.8,318.47h2.42v9.67h-2.42Z" transform="translate(-45.24 -222.63)"/><path d="M1016.62,318.47H1019v5.68a2,2,0,0,0,1.09,2,4.45,4.45,0,0,0,2.2.32,2.72,2.72,0,0,0,1.89-.77,2,2,0,0,0,.41-1.56v-5.7H1027v5.61a4,4,0,0,1-.84,2.91,6,6,0,0,1-4.33,1.48,8.8,8.8,0,0,1-2-.23,5.34,5.34,0,0,1-1.67-.7,3.55,3.55,0,0,1-1.53-3.46Z" transform="translate(-45.24 -222.63)"/><path d="M1029.49,318.47H1033l2.52,5.92a8.46,8.46,0,0,1,.49,1.44,7.94,7.94,0,0,1,.45-1.33l2.52-6h3.47v9.67h-2.29v-6.77a5.47,5.47,0,0,1,.1-.9c-.1.29-.14.4-.28.74l-2.89,6.93h-2.2l-2.89-6.79a6,6,0,0,1-.29-.88c0,.41.06.5.08.86v6.81h-2.28Z" transform="translate(-45.24 -222.63)"/><rect class="cls-5" x="747.95" y="148.7" width="127.87" height="64.62"/><polygon class="cls-3" points="875.8 195.93 748.08 195.93 748.08 213.51 760.37 213.51 760.37 266 862.97 266 862.97 213.51 875.8 213.51 875.8 195.93"/><polygon class="cls-5" points="731.97 195.94 628.08 195.94 628.08 208.92 628.08 213.32 628.08 250.56 719.55 250.56 719.55 213.32 731.97 213.32 731.97 195.94"/><rect class="cls-5" x="242.81" y="148.7" width="127.86" height="58.45"/><polygon class="cls-3" points="215.56 213.27 228.12 213.27 228.12 148.7 98.54 148.7 98.54 266 215.56 266 215.56 213.27"/><path d="M161.09,410h6.65a3.42,3.42,0,0,1,2.9,1,2.81,2.81,0,0,1,.63,1.86,2.65,2.65,0,0,1-.93,2.14,3.79,3.79,0,0,1-1.57.6l2.93,4h-2.85l-2.59-3.89h-2.75v3.89h-2.42Zm2.42,4.07h3.86c.52,0,1.45-.07,1.45-1.15a1.36,1.36,0,0,0-.19-.76c-.18-.23-.41-.46-1.37-.46h-3.75Z" transform="translate(-45.24 -222.63)"/><path d="M173.17,410h9v1.74h-6.59v2.18H182v1.71h-6.37V418h6.86v1.73h-9.28Z" transform="translate(-45.24 -222.63)"/><path d="M185.76,416.69c.54,1.16,1.93,1.52,3.24,1.52.59,0,2.44-.1,2.44-1.27,0-.7-.67-.87-1.19-1s-2.39-.39-2.84-.47c-.89-.16-3.13-.59-3.13-2.78a2.62,2.62,0,0,1,.38-1.37c.81-1.3,2.59-1.64,4.12-1.64a6.9,6.9,0,0,1,3.49.75,4.18,4.18,0,0,1,1.61,1.56l-2.3.58a1.89,1.89,0,0,0-.85-.8,4.83,4.83,0,0,0-1.95-.36c-1.07,0-2.16.2-2.16,1.12,0,.63.56.79,1.29,1,.39.08,2.36.41,2.82.5,1.12.21,3,.62,3,2.74,0,3.11-3.69,3.22-4.91,3.22-1.59,0-4-.28-5.29-2.73Z" transform="translate(-45.24 -222.63)"/><path d="M195.75,410h9v1.74h-6.59v2.18h6.37v1.71h-6.37V418H205v1.73h-9.28Z" transform="translate(-45.24 -222.63)"/><path d="M207,410h6.65a3.43,3.43,0,0,1,2.9,1,2.81,2.81,0,0,1,.63,1.86,2.65,2.65,0,0,1-.93,2.14,3.79,3.79,0,0,1-1.57.6l2.93,4h-2.85l-2.59-3.89h-2.75v3.89H207Zm2.42,4.07h3.86c.52,0,1.45-.07,1.45-1.15a1.45,1.45,0,0,0-.19-.76c-.18-.23-.41-.46-1.37-.46h-3.75Z" transform="translate(-45.24 -222.63)"/><path d="M217.86,410h2.68l2.58,6.34a6.51,6.51,0,0,1,.29.92,5.22,5.22,0,0,1,.31-.92l2.61-6.34h2.6l-4.34,9.67h-2.36Z" transform="translate(-45.24 -222.63)"/><path d="M230.34,410h9v1.74h-6.58v2.18h6.36v1.71h-6.36V418h6.85v1.73h-9.28Z" transform="translate(-45.24 -222.63)"/><path d="M241.61,410h5.29a9.59,9.59,0,0,1,1.07.06,4.38,4.38,0,0,1,4.21,4.72,5.06,5.06,0,0,1-.94,3.09c-1.36,1.77-3.18,1.78-4.64,1.8h-5Zm2.41,1.71V418h2.67a2.76,2.76,0,0,0,2.5-1,3.82,3.82,0,0,0,.58-2.29,3.71,3.71,0,0,0-.47-2,2.63,2.63,0,0,0-2.48-1Z" transform="translate(-45.24 -222.63)"/><polygon class="cls-3" points="370.64 195.93 242.91 195.93 242.91 213.51 255.2 213.51 255.2 266 357.81 266 357.81 213.51 370.64 213.51 370.64 195.93"/><polygon class="cls-5" points="386.58 195.94 490.47 195.94 490.47 208.92 490.47 213.32 490.47 250.56 399 250.56 399 213.32 386.58 213.32 386.58 195.94"/><path d="M1099.08,370.6a4.18,4.18,0,0,1-2.92,1c-3.33,0-4.25-2.08-4.25-3.77a3.65,3.65,0,0,1,1-2.49,4.82,4.82,0,0,1,3.54-1.25,5.37,5.37,0,0,1,2.77.67,3.38,3.38,0,0,1,1.25,1.34l-2,.27a2.44,2.44,0,0,0-2.14-1,2.38,2.38,0,0,0-2.62,2.45,2.42,2.42,0,0,0,2.67,2.46,3.22,3.22,0,0,0,2-.62,1.6,1.6,0,0,0,.58-.81h-2.32v-1.27h3.8v3.77h-1.35Z" transform="translate(-45.24 -222.63)"/><path d="M1102.15,364.35h6.57v1.27h-4.81v1.59h4.65v1.25h-4.65v1.69h5v1.25h-6.77Z" transform="translate(-45.24 -222.63)"/><path d="M1110.38,364.35h1.76l3.46,3.93c.42.49.5.59.94,1.14-.06-.67-.06-.85-.07-1.46v-3.61h1.69v7h-1.75l-3.5-4c-.37-.43-.52-.61-.91-1.11,0,.54,0,.66.06,1.2v3.88h-1.68Z" transform="translate(-45.24 -222.63)"/><path d="M1120.09,364.35h6.57v1.27h-4.81v1.59h4.65v1.25h-4.65v1.69h5v1.25h-6.77Z" transform="translate(-45.24 -222.63)"/><path d="M1128.33,364.35h4.86a2.5,2.5,0,0,1,2.12.75,2.09,2.09,0,0,1,.46,1.36,2,2,0,0,1-.68,1.56,2.69,2.69,0,0,1-1.15.44l2.14,2.94H1134l-1.89-2.83h-2v2.83h-1.77Zm1.77,3h2.82c.38,0,1.06-.05,1.06-.84a1,1,0,0,0-.14-.55c-.13-.17-.3-.34-1-.34h-2.74Z" transform="translate(-45.24 -222.63)"/><path d="M1139.62,364.35h1.91l3.41,7h-2l-.6-1.32h-3.62l-.6,1.32h-1.93Zm1.12,2.17a1.69,1.69,0,0,1-.12-.28,1.27,1.27,0,0,1-.06-.28c0,.09,0,.17-.07.25l-.11.27-1.07,2.35h2.48Z" transform="translate(-45.24 -222.63)"/><path d="M1145.63,364.35h1.77v5.76h3.92v1.29h-5.69Z" transform="translate(-45.24 -222.63)"/><path d="M1089.17,376.35h1.91l3.41,7h-2l-.6-1.32h-3.62l-.6,1.32h-1.92Zm1.12,2.17a1.69,1.69,0,0,1-.12-.28,1.27,1.27,0,0,1-.06-.28c0,.09,0,.17-.07.25l-.11.27-1.07,2.35h2.48Z" transform="translate(-45.24 -222.63)"/><path d="M1095.18,376.35H1099c.26,0,.52,0,.78,0a3.21,3.21,0,0,1,3.08,3.45,3.71,3.71,0,0,1-.69,2.26,3.83,3.83,0,0,1-3.39,1.3h-3.63Zm1.75,1.25v4.56h2a2,2,0,0,0,1.82-.69,2.73,2.73,0,0,0,.43-1.67,2.68,2.68,0,0,0-.35-1.45,1.9,1.9,0,0,0-1.81-.75Z" transform="translate(-45.24 -222.63)"/><path d="M1104.25,376.35h2.54l1.84,4.32a6.24,6.24,0,0,1,.36,1.05,5.52,5.52,0,0,1,.33-1l1.84-4.4h2.53v7H1112v-4.93a4.37,4.37,0,0,1,.07-.66c-.07.21-.1.29-.2.54l-2.11,5h-1.61l-2.11-4.95a4.36,4.36,0,0,1-.21-.64c0,.3,0,.36.06.63v5h-1.66Z" transform="translate(-45.24 -222.63)"/><path d="M1115.62,376.35h1.76v7h-1.76Z" transform="translate(-45.24 -222.63)"/><path d="M1120.09,381.22a2.45,2.45,0,0,0,2.37,1.11c.43,0,1.78-.07,1.78-.93,0-.51-.49-.63-.87-.7s-1.74-.28-2.07-.34c-.65-.12-2.29-.43-2.29-2a2,2,0,0,1,.28-1,3.44,3.44,0,0,1,3-1.2,5.06,5.06,0,0,1,2.55.55,3,3,0,0,1,1.17,1.14l-1.68.42a1.31,1.31,0,0,0-.62-.58,3.46,3.46,0,0,0-1.42-.27c-.78,0-1.58.15-1.58.82,0,.46.41.58.94.7.29.06,1.73.3,2.06.37.82.15,2.21.45,2.21,2,0,2.26-2.7,2.34-3.59,2.34a4,4,0,0,1-3.85-2Z" transform="translate(-45.24 -222.63)"/><path d="M1128.33,381.22a2.43,2.43,0,0,0,2.36,1.11c.43,0,1.78-.07,1.78-.93,0-.51-.49-.63-.87-.7s-1.74-.28-2.07-.34c-.65-.12-2.28-.43-2.28-2a1.93,1.93,0,0,1,.28-1,3.42,3.42,0,0,1,3-1.2,5.06,5.06,0,0,1,2.55.55,3,3,0,0,1,1.17,1.14l-1.68.42a1.31,1.31,0,0,0-.62-.58,3.46,3.46,0,0,0-1.42-.27c-.78,0-1.58.15-1.58.82,0,.46.41.58.94.7.29.06,1.73.3,2.06.37.82.15,2.21.45,2.21,2,0,2.26-2.7,2.34-3.59,2.34a4,4,0,0,1-3.85-2Z" transform="translate(-45.24 -222.63)"/><path d="M1135.52,376.35h1.77v7h-1.77Z" transform="translate(-45.24 -222.63)"/><path d="M1146.52,377.5a3.62,3.62,0,0,1,.76,2.31c0,2.25-1.46,3.82-4.31,3.82s-4.35-1.54-4.35-3.74c0-2.43,1.73-3.66,4.05-3.76A4.74,4.74,0,0,1,1146.52,377.5Zm-6.09,2.43a2.36,2.36,0,0,0,2.51,2.45,2.36,2.36,0,0,0,2.53-2.48,2.52,2.52,0,0,0-5,0Z" transform="translate(-45.24 -222.63)"/><path d="M1148.64,376.35h1.75l3.46,3.93c.42.49.5.59.94,1.14-.06-.67-.06-.85-.07-1.46v-3.61h1.69v7h-1.75l-3.5-4c-.37-.43-.52-.61-.91-1.11,0,.54,0,.66.06,1.2v3.88h-1.67Z" transform="translate(-45.24 -222.63)"/><rect class="cls-2" x="0.53" y="44.69" width="83.77" height="221.19"/><path d="M65.25,370.76a4.13,4.13,0,0,1-2.92,1c-3.34,0-4.26-2.08-4.26-3.77a3.65,3.65,0,0,1,1-2.49,4.88,4.88,0,0,1,3.55-1.24,5.45,5.45,0,0,1,2.77.66,3.38,3.38,0,0,1,1.25,1.34l-1.95.27a2.44,2.44,0,0,0-2.14-1A2.38,2.38,0,0,0,59.89,368a2.42,2.42,0,0,0,2.67,2.46,3.22,3.22,0,0,0,2-.62,1.6,1.6,0,0,0,.58-.81H62.8v-1.27h3.8v3.78H65.25Z" transform="translate(-45.24 -222.63)"/><path d="M68.31,364.51h6.58v1.27H70.08v1.59h4.65v1.25H70.08v1.69h5v1.26H68.31Z" transform="translate(-45.24 -222.63)"/><path d="M76.55,364.51h1.76l3.46,3.93c.42.49.5.59.94,1.14-.06-.67-.06-.85-.07-1.46v-3.61h1.69v7.06H82.58l-3.5-4c-.37-.43-.52-.61-.91-1.11,0,.54,0,.66.06,1.2v3.89H76.55Z" transform="translate(-45.24 -222.63)"/><path d="M86.25,364.51h6.58v1.27H88v1.59h4.65v1.25H88v1.69h5v1.26H86.25Z" transform="translate(-45.24 -222.63)"/><path d="M94.5,364.51h4.86a2.5,2.5,0,0,1,2.12.75,2.09,2.09,0,0,1,.46,1.36,2,2,0,0,1-.68,1.56,2.69,2.69,0,0,1-1.15.44l2.14,2.95h-2.08l-1.89-2.84h-2v2.84H94.5Zm1.77,3h2.82c.38,0,1.06-.05,1.06-.84a1,1,0,0,0-.14-.55c-.13-.17-.3-.34-1-.34H96.27Z" transform="translate(-45.24 -222.63)"/><path d="M105.79,364.51h1.91l3.41,7.06h-2l-.6-1.33h-3.62l-.6,1.33h-1.93Zm1.12,2.17a1.69,1.69,0,0,1-.12-.28,1.27,1.27,0,0,1-.06-.28c0,.09,0,.17-.07.25l-.11.27L105.48,369H108Z" transform="translate(-45.24 -222.63)"/><path d="M111.8,364.51h1.77v5.76h3.92v1.3H111.8Z" transform="translate(-45.24 -222.63)"/><path d="M55.34,376.51h1.91l3.41,7.06h-2l-.6-1.33H54.46l-.6,1.33H51.93Zm1.12,2.17a1.69,1.69,0,0,1-.12-.28,1.27,1.27,0,0,1-.06-.28c0,.09-.05.17-.07.25l-.11.27L55,381h2.48Z" transform="translate(-45.24 -222.63)"/><path d="M61.34,376.51H65.2l.78,0A3.21,3.21,0,0,1,69.06,380a3.71,3.71,0,0,1-.69,2.26A3.81,3.81,0,0,1,65,383.57H61.34Zm1.76,1.25v4.56h1.95a2,2,0,0,0,1.82-.69A2.73,2.73,0,0,0,67.3,380a2.68,2.68,0,0,0-.35-1.45,1.9,1.9,0,0,0-1.81-.75Z" transform="translate(-45.24 -222.63)"/><path d="M70.41,376.51H73l1.84,4.32a6.24,6.24,0,0,1,.36,1.05,5.52,5.52,0,0,1,.33-1l1.84-4.4h2.53v7.06H78.19v-4.94a4.37,4.37,0,0,1,.07-.66c-.07.21-.1.29-.2.54L76,383.57H74.34l-2.11-5A4.36,4.36,0,0,1,72,378c0,.3,0,.36.06.63v5H70.41Z" transform="translate(-45.24 -222.63)"/><path d="M81.78,376.51h1.77v7.06H81.78Z" transform="translate(-45.24 -222.63)"/><path d="M86.26,381.38a2.45,2.45,0,0,0,2.37,1.11c.43,0,1.78-.07,1.78-.93,0-.51-.49-.63-.87-.7s-1.74-.28-2.07-.34c-.65-.12-2.29-.43-2.29-2a1.93,1.93,0,0,1,.28-1,3.44,3.44,0,0,1,3-1.2,5.17,5.17,0,0,1,2.55.55A3,3,0,0,1,92.19,378l-1.68.42a1.31,1.31,0,0,0-.62-.58,3.46,3.46,0,0,0-1.42-.27c-.78,0-1.58.15-1.58.82,0,.46.41.58.94.7.29.06,1.73.3,2.06.37.82.15,2.21.45,2.21,2,0,2.27-2.7,2.35-3.59,2.35a4,4,0,0,1-3.86-2Z" transform="translate(-45.24 -222.63)"/><path d="M94.49,381.38a2.45,2.45,0,0,0,2.37,1.11c.43,0,1.78-.07,1.78-.93,0-.51-.49-.63-.87-.7s-1.74-.28-2.07-.34c-.65-.12-2.29-.43-2.29-2a1.93,1.93,0,0,1,.28-1,3.44,3.44,0,0,1,3-1.2,5.17,5.17,0,0,1,2.55.55,3,3,0,0,1,1.17,1.14l-1.68.42a1.31,1.31,0,0,0-.62-.58,3.46,3.46,0,0,0-1.42-.27c-.78,0-1.58.15-1.58.82,0,.46.41.58.94.7.29.06,1.73.3,2.06.37.82.15,2.21.45,2.21,2,0,2.27-2.7,2.35-3.59,2.35a4,4,0,0,1-3.86-2Z" transform="translate(-45.24 -222.63)"/><path d="M101.68,376.51h1.77v7.06h-1.77Z" transform="translate(-45.24 -222.63)"/><path d="M112.69,377.66a3.62,3.62,0,0,1,.76,2.31c0,2.25-1.46,3.83-4.31,3.83s-4.36-1.55-4.36-3.75c0-2.43,1.74-3.66,4.06-3.76A4.74,4.74,0,0,1,112.69,377.66Zm-6.09,2.43a2.36,2.36,0,0,0,2.51,2.45,2.36,2.36,0,0,0,2.53-2.48,2.52,2.52,0,0,0-5,0Z" transform="translate(-45.24 -222.63)"/><path d="M114.8,376.51h1.76l3.46,3.93c.42.49.5.59.94,1.14-.06-.67-.06-.85-.07-1.46v-3.61h1.69v7.06h-1.75l-3.5-4c-.37-.43-.52-.61-.91-1.11,0,.54,0,.66.06,1.2v3.89H114.8Z" transform="translate(-45.24 -222.63)"/></svg>