<?xml version="1.0" encoding="utf-8"?>
<!-- Generator: Adobe Illustrator 16.0.0, SVG Export Plug-In . SVG Version: 6.00 Build 0)  -->
<!DOCTYPE svg PUBLIC "-//W3C//DTD SVG 1.1//EN" "http://www.w3.org/Graphics/SVG/1.1/DTD/svg11.dtd">
<svg version="1.1" id="Layer_1" xmlns="http://www.w3.org/2000/svg" xmlns:xlink="http://www.w3.org/1999/xlink" x="0px" y="0px"
	 width="401.53px" height="138px" viewBox="0 0 401.53 138" enable-background="new 0 0 401.53 138" xml:space="preserve">
<g>
	<polygon fill="#A4A9AD" points="203.796,7.756 200.069,1.304 200.827,0 205.249,7.756 	"/>
	<polygon fill="#A4A9AD" points="210.319,19.046 207.524,14.207 208.977,14.207 211.772,19.046 	"/>
	<polygon fill="#A4A9AD" points="235.07,59.369 233.619,59.369 216.843,30.336 214.047,25.498 215.5,25.498 	"/>
	<polygon fill="#D13239" points="166.519,59.369 200.069,1.304 200.069,7.756 229.908,7.756 226.177,14.207 200.069,14.207 
		200.069,19.046 223.381,19.046 219.65,25.498 200.069,25.498 200.069,30.336 216.843,30.336 213.123,36.788 200.069,36.788 
		200.069,41.626 210.326,41.626 206.596,48.08 200.069,48.08 200.069,52.917 203.798,52.917 200.069,59.369 	"/>
</g>
<g>
	<path fill="#D13239" d="M42.419,83.303v23.039h31.96v-4.885l11.837-1.174v4.297c0,6.834-3.059,8.596-12.626,8.596H43.209
		c-9.568,0-12.626-1.762-12.626-8.596V85.416c0-6.834,3.058-8.596,12.626-8.596H73.59c9.568,0,12.626,1.762,12.626,8.596v2.278
		l-11.837,1.339v-5.73H42.419z"/>
	<path fill="#D13239" d="M119.379,76.82h37.483c9.568,0,12.626,1.762,12.626,8.596v19.164c0,6.834-3.058,8.596-12.626,8.596h-37.483
		c-9.568,0-12.626-1.762-12.626-8.596V85.416C106.753,78.582,109.811,76.82,119.379,76.82z M157.652,106.342V83.303H118.59v23.039
		H157.652z"/>
	<path fill="#D13239" d="M190.903,76.82h11.837v29.521h38.174v6.834h-50.011V76.82z"/>
	<path fill="#D13239" d="M275.854,113.176h-11.838V83.303h-23.378V76.82h58.691v6.482h-23.475V113.176z"/>
	<path fill="#D13239" d="M326.347,83.161v7.821h31.763c9.567,0,12.724,1.762,12.724,8.596v5.002c0,6.834-3.156,8.596-12.724,8.596
		h-31.468c-9.567,0-12.724-1.762-12.724-8.596v-0.398l10.456-1.551v3.711h36.004v-8.313h-31.763c-9.569,0-12.626-1.762-12.626-8.596
		v-4.017c0-6.834,3.058-8.596,12.626-8.596h28.901c9.075,0,12.626,1.691,12.626,7.962v0.188l-10.456,1.761v-3.57H326.347z"/>
</g>
<path fill="#A4A9AD" d="M0,126.569h10.296c5.986,0,9.149,2.104,9.149,5.649c0,2.148-1.303,3.921-3.536,4.896
	c-1.55,0.687-3.721,0.886-6.574,0.886H0V126.569z M8.528,135.851c4.714,0,7.071-0.841,7.071-3.677c0-2.326-1.768-3.566-5.272-3.566
	H3.722v7.243H8.528z"/>
<path fill="#A4A9AD" d="M25.874,126.569h13.708c2.45,0,3.597,0.62,3.597,2.215v2.682c0,1.594-1.147,2.215-3.597,2.215h-2.109
	L44.854,138h-5.334l-6.451-4.319h-3.536V138h-3.659V126.569z M29.533,128.541v3.19h8.374c1.147,0,1.675-0.156,1.675-0.909v-1.373
	c0-0.754-0.527-0.908-1.675-0.908H29.533z"/>
<path fill="#A4A9AD" d="M54.042,135.851h10.606v-9.281h3.721v8.728c0,2.149-0.961,2.703-3.969,2.703H54.29
	c-3.008,0-3.969-0.554-3.969-2.703v-8.728h3.721V135.851z"/>
<path fill="#A4A9AD" d="M75.468,126.569h3.008l7.536,6.912l7.381-6.912h2.977V138h-3.442v-7.067c0-0.221,0.031-0.62,0.124-1.218
	c-0.341,0.51-0.651,0.93-0.93,1.196l-6.017,5.715h-0.745l-6.016-5.736c-0.372-0.355-0.713-0.732-0.962-1.175
	c0.063,0.465,0.093,0.842,0.093,1.218V138h-3.008V126.569z"/>
<path fill="#A4A9AD" d="M114.911,135.297v-0.752c0-1.176,0.59-1.529,1.985-2.127l3.256-1.396c-0.93-0.553-1.364-1.063-1.364-1.728
	v-0.643c0-1.64,1.24-2.082,3.969-2.082h3.226c2.884,0,3.97,0.442,3.97,2.304v0.687l-2.885,0.354v-1.529h-5.241v0.82l7.536,4.476
	l3.722-2.215l2.109,1.307l-3.69,2.192l5.055,3.035h-4.869l-2.636-1.595l-1.426,0.908c-1.023,0.642-1.675,0.687-3.008,0.687h-5.707
	C115.903,138,114.911,137.446,114.911,135.297z M125.456,136.007l1.489-0.909l-4.808-2.857l-4.093,1.816v1.95H125.456z"/>
<path fill="#A4A9AD" d="M153.766,126.569h13.708c2.45,0,3.598,0.62,3.598,2.215v1.396c0,1.108-0.993,1.773-2.76,1.927
	c1.861,0.178,2.884,0.977,2.884,2.194v1.461c0,1.529-1.582,2.238-4.714,2.238h-12.715V126.569z M157.425,128.43v2.725h8.498
	c1.147,0,1.706-0.154,1.706-0.819v-1.085c0-0.664-0.559-0.82-1.706-0.82H157.425z M157.425,133.038v2.902h8.498
	c1.271,0,1.798-0.179,1.798-1.02v-0.864c0-0.842-0.527-1.019-1.798-1.019H157.425z"/>
<path fill="#A4A9AD" d="M181.5,135.851h10.606v-9.281h3.721v8.728c0,2.149-0.961,2.703-3.969,2.703h-10.11
	c-3.008,0-3.97-0.554-3.97-2.703v-8.728h3.722V135.851z"/>
<path fill="#A4A9AD" d="M206.47,128.607v7.243h11.631v-2.547h-6.079v-1.95h9.707v3.943c0,2.149-0.96,2.703-3.969,2.703h-11.041
	c-3.008,0-3.969-0.554-3.969-2.703v-6.025c0-2.148,0.961-2.702,3.969-2.702h11.041c2.915,0,3.969,0.532,3.969,2.592
	c0,0.089,0,0.177,0,0.266l-3.628,0.466v-1.285H206.47z"/>
<path fill="#A4A9AD" d="M228.646,126.569h3.721v9.281h12.002V138h-15.723V126.569z"/>
<path fill="#A4A9AD" d="M250.153,126.569h16.374v1.949h-12.653v2.548h7.382v1.949h-7.382v2.835h12.809V138h-16.529V126.569z"/>
<path fill="#A4A9AD" d="M288.945,128.607v7.243h10.049v-2.458l3.721,0.554v1.351c0,2.149-0.961,2.703-3.969,2.703h-9.553
	c-3.008,0-3.97-0.554-3.97-2.703v-6.025c0-2.148,0.962-2.702,3.97-2.702h9.553c3.008,0,3.969,0.554,3.969,2.702v1.085l-3.721,0.422
	v-2.171H288.945z"/>
<path fill="#A4A9AD" d="M313.34,126.569h11.785c3.008,0,3.97,0.554,3.97,2.702v6.025c0,2.149-0.961,2.703-3.97,2.703H313.34
	c-3.009,0-3.97-0.554-3.97-2.703v-6.025C309.37,127.123,310.331,126.569,313.34,126.569z M325.373,135.851v-7.243h-12.281v7.243
	H325.373z"/>
<path fill="#A4A9AD" d="M336.031,126.569h13.708c2.45,0,3.598,0.62,3.598,2.215v2.682c0,1.594-1.148,2.215-3.598,2.215h-2.109
	l7.381,4.319h-5.334l-6.451-4.319h-3.535V138h-3.66V126.569z M339.691,128.541v3.19h8.373c1.147,0,1.675-0.156,1.675-0.909v-1.373
	c0-0.754-0.528-0.908-1.675-0.908H339.691z"/>
<path fill="#A4A9AD" d="M361.012,126.569h13.708c2.45,0,3.597,0.62,3.597,2.215v2.548c0,1.595-1.147,2.215-3.597,2.215h-10.048V138
	h-3.66V126.569z M364.671,128.541v3.034h8.374c1.147,0,1.675-0.154,1.675-0.907v-1.219c0-0.754-0.528-0.908-1.675-0.908H364.671z"/>
<path fill="#A4A9AD" d="M387.543,128.563v2.459h9.986c3.008,0,4,0.554,4,2.703v1.572c0,2.149-0.993,2.703-4,2.703h-9.894
	c-3.008,0-4-0.554-4-2.703v-0.31l3.287-0.487v1.351h11.319v-2.613h-9.985c-3.009,0-3.97-0.555-3.97-2.703v-1.263
	c0-2.148,0.961-2.702,3.97-2.702h9.087c2.853,0,3.97,0.532,3.97,2.503v0.244l-3.288,0.553v-1.307H387.543z"/>
</svg>
