<?xml version="1.0" encoding="utf-8"?>
<!-- Generator: Adobe Illustrator 24.3.0, SVG Export Plug-In . SVG Version: 6.00 Build 0)  -->
<svg version="1.1" id="Layer_1" xmlns="http://www.w3.org/2000/svg" xmlns:xlink="http://www.w3.org/1999/xlink" x="0px" y="0px"
	 viewBox="0 0 200 32.2" style="enable-background:new 0 0 200 32.2;" xml:space="preserve">
<style type="text/css">
	.st0{fill:#CC3232;}
	.st1{fill:#939598;}
</style>
<g>
	<path class="st0" d="M8.9,3.9v13.8H28v-2.9l7.1-0.7v2.6c0,4.1-1.8,5.2-7.6,5.2H9.3c-5.7,0-7.6-1.1-7.6-5.2V5.2C1.8,1.1,3.6,0,9.3,0
		h18.2c5.7,0,7.6,1.1,7.6,5.2v1.4L28,7.3V3.9C28,3.9,8.9,3.9,8.9,3.9z"/>
	<path class="st0" d="M53.3,0h22.5c5.7,0,7.6,1.1,7.6,5.2v11.5c0,4.1-1.8,5.2-7.6,5.2H53.3c-5.7,0-7.6-1.1-7.6-5.2V5.2
		C45.7,1,47.6,0,53.3,0z M76.3,17.7V3.9H52.8v13.8H76.3z"/>
	<path class="st0" d="M94.5,0h7.1v17.7h22.9v4.1h-30V0z"/>
	<path class="st0" d="M143.7,21.8h-7.1V3.9h-14V0h35.2v3.9h-14.1V21.8z"/>
	<path class="st0" d="M172.3,3.8v4.7h19.1c5.7,0,7.6,1.1,7.6,5.2v3c0,4.1-1.9,5.2-7.6,5.2h-18.9c-5.7,0-7.6-1.1-7.6-5.2v-0.2
		l6.3-0.9v2.2h21.6v-5h-19.1c-5.7,0-7.6-1.1-7.6-5.2V5.2c0-4.1,1.8-5.2,7.6-5.2H191c5.4,0,7.6,1,7.6,4.8v0.1L192.3,6V3.8L172.3,3.8
		L172.3,3.8z"/>
</g>
<g>
	<path class="st1" d="M15.8,30.1l-2.9-2.6h1.8l1.9,1.8l2-1.8H20l-2.9,2.6v2.1h-1.3V30.1z"/>
	<path class="st1" d="M24.7,27.5h4.2c1.1,0,1.4,0.2,1.4,1.1v2.5c0,0.9-0.3,1.1-1.4,1.1h-4.2c-1.1,0-1.4-0.2-1.4-1.1v-2.5
		C23.3,27.7,23.6,27.5,24.7,27.5z M28.9,31.4v-3h-4.3v3H28.9z"/>
	<path class="st1" d="M36.3,31.4h3.7v-3.8h1.3v3.6c0,0.9-0.3,1.1-1.4,1.1h-3.6c-1.1,0-1.4-0.2-1.4-1.1v-3.6h1.3L36.3,31.4L36.3,31.4
		z"/>
	<path class="st1" d="M48.9,32.2h-1.3v-3.9H45v-0.8h6.5v0.8h-2.6C48.9,28.4,48.9,32.2,48.9,32.2z"/>
	<path class="st1" d="M55.2,27.5h1.3v1.8h4.1v-1.8h1.3v4.7h-1.3v-2h-4.1v2h-1.3L55.2,27.5L55.2,27.5z"/>
	<path class="st1" d="M74.4,27.5h4.2c1.1,0,1.4,0.2,1.4,1.1v2.5c0,0.9-0.3,1.1-1.4,1.1h-4.2c-1.1,0-1.4-0.2-1.4-1.1v-2.5
		C73,27.7,73.3,27.5,74.4,27.5z M78.6,31.4v-3h-4.3v3H78.6z"/>
	<path class="st1" d="M84.7,27.5h4.8c0.9,0,1.3,0.3,1.3,0.9v1.1c0,0.7-0.4,0.9-1.3,0.9h-0.7l2.6,1.8h-1.9l-2.3-1.8H86v1.8h-1.3V27.5
		z M86,28.3v1.3h3c0.4,0,0.6-0.1,0.6-0.4v-0.6c0-0.3-0.2-0.4-0.6-0.4C89,28.3,86,28.3,86,28.3z"/>
	<path class="st1" d="M96.7,28.4v3h4.1v-1.1h-2.2v-0.8h3.4v1.6c0,0.9-0.3,1.1-1.4,1.1h-3.9c-1.1,0-1.4-0.2-1.4-1.1v-2.5
		c0-0.9,0.3-1.1,1.4-1.1h3.9c1,0,1.4,0.2,1.4,1.1c0,0,0,0.1,0,0.1l-1.3,0.2v-0.5H96.7z"/>
	<path class="st1" d="M108.8,27.5h1.3l3.2,4.7h-1.5l-0.7-1h-3.6l-0.6,1h-1.3L108.8,27.5z M110.6,30.4l-1.2-1.9l-1.3,1.9H110.6z"/>
	<path class="st1" d="M117.2,27.5h0.9l4,2.8c0.2,0.2,0.4,0.3,0.7,0.5c0-0.4-0.1-0.7-0.1-0.8v-2.5h1.2v4.7h-0.9l-4.2-2.9
		c-0.2-0.1-0.3-0.2-0.5-0.4c0,0.4,0.1,0.6,0.1,0.8v2.5h-1.2L117.2,27.5L117.2,27.5z"/>
	<path class="st1" d="M128.7,27.5h1.3v4.7h-1.3V27.5z"/>
	<path class="st1" d="M134.1,31.7l3.9-3.4h-3.6v-0.8h5.7V28l-4,3.4h4v0.9h-6.1V31.7z"/>
	<path class="st1" d="M146.5,27.5h1.3l3.2,4.7h-1.5l-0.7-1h-3.6l-0.7,1h-1.3L146.5,27.5z M148.3,30.4l-1.2-1.9l-1.3,1.9H148.3z"/>
	<path class="st1" d="M156.7,32.2h-1.3v-3.9h-2.6v-0.8h6.5v0.8h-2.6V32.2z"/>
	<path class="st1" d="M163,27.5h1.3v4.7H163V27.5z"/>
	<path class="st1" d="M170.5,27.5h4.2c1.1,0,1.4,0.2,1.4,1.1v2.5c0,0.9-0.3,1.1-1.4,1.1h-4.2c-1.1,0-1.4-0.2-1.4-1.1v-2.5
		C169.1,27.7,169.4,27.5,170.5,27.5z M174.7,31.4v-3h-4.3v3H174.7z"/>
	<path class="st1" d="M180.8,27.5h0.9l4,2.8c0.2,0.2,0.4,0.3,0.6,0.5c0-0.4-0.1-0.7-0.1-0.8v-2.5h1.2v4.7h-0.9l-4.1-2.9
		c-0.2-0.1-0.3-0.2-0.5-0.4c0,0.4,0.1,0.6,0.1,0.8v2.5h-1.2V27.5z"/>
</g>
</svg>
