<?xml version="1.0" encoding="utf-8"?>
<!-- Generator: Adobe Illustrator 16.0.0, SVG Export Plug-In . SVG Version: 6.00 Build 0)  -->
<!DOCTYPE svg PUBLIC "-//W3C//DTD SVG 1.1//EN" "http://www.w3.org/Graphics/SVG/1.1/DTD/svg11.dtd">
<svg version="1.1" id="Layer_1" xmlns="http://www.w3.org/2000/svg" xmlns:xlink="http://www.w3.org/1999/xlink" x="0px" y="0px"
	 width="80.99px" height="70.063px" viewBox="482.113 417.063 80.99 70.063" enable-background="new 482.113 417.063 80.99 70.063"
	 xml:space="preserve">
<g>
	<polygon fill="#CE3133" points="482.113,487.125 521.902,418.259 521.902,425.911 557.291,425.911 552.867,433.563 
		521.902,433.563 521.902,439.302 549.55,439.302 545.126,446.953 521.902,446.953 521.902,452.692 541.796,452.692 
		537.385,460.344 521.902,460.344 521.902,466.083 534.067,466.083 529.645,473.735 521.902,473.735 521.902,479.474 
		526.325,479.474 521.902,487.125 	"/>
	<polygon fill="#939597" points="527.708,425.914 522.593,417.063 522.13,417.857 522.134,417.863 521.902,418.259 526.323,425.911 
		526.784,425.911 526.785,425.914 	"/>
	<polygon fill="#939597" points="532.14,433.563 531.666,433.563 531.217,433.563 530.745,433.563 534.061,439.302 534.533,439.302 
		534.982,439.302 535.455,439.302 	"/>
	<polygon fill="#939597" points="539.895,446.953 539.402,446.953 538.972,446.953 538.481,446.953 541.796,452.692 561.69,487.125 
		562.181,487.125 562.612,487.125 563.104,487.125 	"/>
</g>
</svg>
