<?xml version="1.0" encoding="utf-8"?>
<!-- Generator: Adobe Illustrator 16.0.0, SVG Export Plug-In . SVG Version: 6.00 Build 0)  -->
<!DOCTYPE svg PUBLIC "-//W3C//DTD SVG 1.1//EN" "http://www.w3.org/Graphics/SVG/1.1/DTD/svg11.dtd">
<svg version="1.1" id="Layer_1" xmlns="http://www.w3.org/2000/svg" xmlns:xlink="http://www.w3.org/1999/xlink" x="0px" y="0px"
	 width="711.507px" height="116.934px" viewBox="0 0 711.507 116.934" enable-background="new 0 0 711.507 116.934"
	 xml:space="preserve">
<g>
	<g>
		<path fill="#CC3232" d="M25.636,14.036v49.893h69.209V53.351l25.634-2.542v9.306c0,14.801-6.623,18.614-27.342,18.614H27.344
			C6.622,78.729,0,74.915,0,60.114V18.612C0,3.815,6.622,0,27.344,0h65.794c20.719,0,27.342,3.815,27.342,18.612v4.935l-25.634,2.9
			V14.036H25.636z"/>
		<path fill="#CC3232" d="M185.965,0h81.174c20.72,0,27.342,3.815,27.342,18.612v41.502c0,14.801-6.622,18.614-27.342,18.614
			h-81.174c-20.721,0-27.341-3.813-27.341-18.614V18.612C158.624,3.815,165.244,0,185.965,0z M268.849,63.929V14.036h-84.592v49.893
			H268.849z"/>
		<path fill="#CC3232" d="M334.524,0h25.634v63.929h82.67v14.8H334.524V0z"/>
		<path fill="#CC3232" d="M512.152,78.729h-25.635V14.036h-50.625V0h127.104v14.036h-50.844V78.729z"/>
		<path fill="#CC3232" d="M615.165,13.729v16.937h68.788c20.719,0,27.555,3.815,27.555,18.616v10.832
			c0,14.801-6.836,18.614-27.555,18.614h-68.147c-20.719,0-27.556-3.813-27.556-18.614v-0.865l22.644-3.356v8.036h77.965V45.926
			h-68.781c-20.719,0-27.342-3.814-27.342-18.615v-8.699C592.735,3.815,599.358,0,620.077,0h62.592
			c19.65,0,27.341,3.663,27.341,17.241v0.407l-22.643,3.814v-7.733H615.165z"/>
	</g>
	<g>
		<path fill="#939598" d="M13.008,116.934v-8.54L1.113,97.849H8.22l7.865,7.331l7.887-7.331h6.262l-11.852,10.437v8.648H13.008z"/>
		<path fill="#939598" d="M43.383,102.362c0-1.733,0.39-2.919,1.17-3.557s2.282-0.957,4.507-0.957h16.857
			c2.224,0,3.727,0.319,4.507,0.957c0.78,0.638,1.17,1.823,1.17,3.557v10.058c0,1.745-0.39,2.934-1.17,3.565
			c-0.78,0.632-2.283,0.948-4.507,0.948H49.06c-2.225,0-3.727-0.316-4.507-0.948s-1.17-1.82-1.17-3.565V102.362z M48.713,113.341
			h17.572v-12.08H48.713V113.341z"/>
		<path fill="#939598" d="M96.357,97.849v15.492h15.188V97.849h5.309v14.571c0,1.745-0.39,2.934-1.17,3.565
			c-0.78,0.632-2.283,0.948-4.507,0.948H96.704c-2.21,0-3.709-0.316-4.496-0.948s-1.181-1.82-1.181-3.565V97.849H96.357z"/>
		<path fill="#939598" d="M147.445,101.261v15.673h-5.33v-15.673h-10.508v-3.412h26.39v3.412H147.445z"/>
		<path fill="#939598" d="M172.728,116.934V97.849h5.33v7.402h16.64v-7.402h5.374v19.085h-5.374v-8.216h-16.64v8.216H172.728z"/>
		<path fill="#939598" d="M244.896,102.362c0-1.733,0.39-2.919,1.17-3.557s2.282-0.957,4.507-0.957h16.856
			c2.225,0,3.727,0.319,4.508,0.957c0.779,0.638,1.17,1.823,1.17,3.557v10.058c0,1.745-0.391,2.934-1.17,3.565
			c-0.781,0.632-2.283,0.948-4.508,0.948h-16.856c-2.225,0-3.727-0.316-4.507-0.948s-1.17-1.82-1.17-3.565V102.362z
			 M250.226,113.341h17.572v-12.08h-17.572V113.341z"/>
		<path fill="#939598" d="M292.539,116.934V97.849h19.588c1.819,0,3.138,0.292,3.954,0.876c0.815,0.584,1.224,1.525,1.224,2.825
			v4.479c0,1.288-0.408,2.227-1.224,2.816c-0.816,0.59-2.135,0.885-3.954,0.885h-2.99l10.573,7.204h-7.648l-9.23-7.204h-5.048v7.204
			H292.539z M309.764,101.152h-11.981v5.309h11.981c0.925,0,1.557-0.111,1.896-0.334c0.339-0.223,0.509-0.616,0.509-1.183v-2.293
			c0-0.554-0.17-0.941-0.509-1.165C311.321,101.265,310.689,101.152,309.764,101.152z"/>
		<path fill="#939598" d="M357.819,101.261h-16.641v12.08h16.641v-4.243h-8.71v-3.25h13.889v6.572c0,1.745-0.391,2.934-1.17,3.565
			c-0.78,0.632-2.283,0.948-4.507,0.948h-15.796c-2.225,0-3.727-0.316-4.507-0.948c-0.779-0.632-1.17-1.82-1.17-3.565v-10.058
			c0-1.733,0.391-2.919,1.17-3.557c0.78-0.638,2.282-0.957,4.507-0.957h15.796c2.195,0,3.69,0.313,4.484,0.938
			c0.795,0.626,1.192,1.758,1.192,3.395v0.434l-5.179,0.776V101.261z"/>
		<path fill="#939598" d="M377.317,116.934l12.957-19.085h5.135l13.13,19.085h-5.979l-2.752-4.171h-14.517l-2.665,4.171H377.317z
			 M387.565,109.314h10.032l-4.94-7.765L387.565,109.314z"/>
		<path fill="#939598" d="M424.071,116.934V97.849h3.641l16.12,11.249c0.549,0.373,1.032,0.725,1.451,1.056s0.802,0.672,1.148,1.021
			c-0.087-1.071-0.145-1.83-0.173-2.275c-0.029-0.445-0.044-0.788-0.044-1.029V97.849h4.789v19.085h-3.641l-16.813-11.79
			c-0.404-0.301-0.758-0.572-1.062-0.813c-0.304-0.241-0.585-0.488-0.845-0.741c0.071,0.591,0.126,1.147,0.162,1.671
			s0.054,0.978,0.054,1.363v10.31H424.071z"/>
		<path fill="#939598" d="M470.89,116.934V97.849h5.331v19.085H470.89z"/>
		<path fill="#939598" d="M492.989,116.934v-2.076l16.013-13.597h-14.409v-3.412h22.989v1.896l-16.251,13.597h16.251v3.593H492.989z
			"/>
		<path fill="#939598" d="M530.232,116.934l12.957-19.085h5.135l13.13,19.085h-5.979l-2.752-4.171h-14.517l-2.665,4.171H530.232z
			 M540.48,109.314h10.032l-4.94-7.765L540.48,109.314z"/>
		<path fill="#939598" d="M584.678,101.261v15.673h-5.33v-15.673h-10.509v-3.412h26.391v3.412H584.678z"/>
		<path fill="#939598" d="M609.959,116.934V97.849h5.331v19.085H609.959z"/>
		<path fill="#939598" d="M634.723,102.362c0-1.733,0.391-2.919,1.17-3.557c0.78-0.638,2.282-0.957,4.507-0.957h16.857
			c2.225,0,3.727,0.319,4.507,0.957s1.17,1.823,1.17,3.557v10.058c0,1.745-0.39,2.934-1.17,3.565s-2.282,0.948-4.507,0.948H640.4
			c-2.225,0-3.727-0.316-4.507-0.948c-0.779-0.632-1.17-1.82-1.17-3.565V102.362z M640.053,113.341h17.572v-12.08h-17.572V113.341z"
			/>
		<path fill="#939598" d="M682.323,116.934V97.849h3.641l16.12,11.249c0.549,0.373,1.032,0.725,1.451,1.056s0.802,0.672,1.148,1.021
			c-0.087-1.071-0.145-1.83-0.173-2.275c-0.029-0.445-0.044-0.788-0.044-1.029V97.849h4.789v19.085h-3.641l-16.813-11.79
			c-0.404-0.301-0.758-0.572-1.062-0.813c-0.304-0.241-0.585-0.488-0.845-0.741c0.071,0.591,0.126,1.147,0.162,1.671
			s0.054,0.978,0.054,1.363v10.31H682.323z"/>
	</g>
</g>
</svg>
