<?xml version="1.0" encoding="utf-8"?>
<!-- Generator: Adobe Illustrator 16.0.0, SVG Export Plug-In . SVG Version: 6.00 Build 0)  -->
<!DOCTYPE svg PUBLIC "-//W3C//DTD SVG 1.1//EN" "http://www.w3.org/Graphics/SVG/1.1/DTD/svg11.dtd">
<svg version="1.1" id="Layer_1" xmlns="http://www.w3.org/2000/svg" xmlns:xlink="http://www.w3.org/1999/xlink" x="0px" y="0px"
	 width="563.104px" height="487.125px" viewBox="0 0 563.104 487.125" enable-background="new 0 0 563.104 487.125"
	 xml:space="preserve">
<g>
	<polygon fill="#FFFFFF" points="0,487.125 276.64,8.321 276.64,61.521 522.69,61.523 491.934,114.721 276.64,114.721 
		276.64,154.622 468.87,154.622 438.114,207.823 276.64,207.823 276.64,247.721 414.959,247.721 384.286,300.923 276.64,300.923 
		276.64,340.826 361.224,340.826 330.466,394.025 276.64,394.025 276.64,433.925 307.396,433.925 276.64,487.125 	"/>
	<polygon fill="#FFFFFF" points="317.008,61.54 281.444,0 278.227,5.519 278.251,5.561 276.64,8.321 307.38,61.523 310.583,61.523 
		310.595,61.54 	"/>
	<polygon fill="#FFFFFF" points="347.817,114.721 344.526,114.721 341.403,114.721 338.121,114.721 361.17,154.622 364.46,154.622 
		367.583,154.622 370.873,154.622 	"/>
	<polygon fill="#FFFFFF" points="401.729,207.821 398.316,207.821 395.321,207.821 391.91,207.821 414.959,247.721 553.279,487.125 
		556.69,487.125 559.691,487.125 563.104,487.125 	"/>
</g>
</svg>
