<?xml version="1.0" encoding="utf-8"?>
<!-- Generator: Adobe Illustrator 24.3.0, SVG Export Plug-In . SVG Version: 6.00 Build 0)  -->
<svg version="1.1" id="Layer_1" xmlns="http://www.w3.org/2000/svg" xmlns:xlink="http://www.w3.org/1999/xlink" x="0px" y="0px"
	 viewBox="0 0 248.5 38.1" style="enable-background:new 0 0 248.5 38.1;" xml:space="preserve">
<style type="text/css">
	.st0{fill:#CC3232;}
	.st1{fill:#939598;}
	.st2{fill:#929497;}
</style>
<g>
	<path class="st0" d="M57.4,9.8v13.8h19.2v-2.9l7.1-0.7v2.6c0,4.1-1.8,5.2-7.6,5.2H57.8c-5.7,0-7.6-1.1-7.6-5.2V11.1
		c0-4.1,1.8-5.2,7.6-5.2h18.2c5.7,0,7.6,1.1,7.6,5.2v1.4l-7.1,0.8V9.8C76.6,9.8,57.4,9.8,57.4,9.8z"/>
	<path class="st0" d="M101.8,5.9h22.5c5.7,0,7.6,1.1,7.6,5.2v11.5c0,4.1-1.8,5.2-7.6,5.2h-22.5c-5.7,0-7.6-1.1-7.6-5.2V11.1
		C94.2,6.9,96.1,5.9,101.8,5.9z M124.8,23.6V9.8h-23.4v13.8H124.8z"/>
	<path class="st0" d="M143,5.9h7.1v17.7H173v4.1h-30V5.9z"/>
	<path class="st0" d="M192.2,27.7h-7.1V9.8h-14V5.9h35.2v3.9h-14.1V27.7z"/>
	<path class="st0" d="M220.8,9.7v4.7h19.1c5.7,0,7.6,1.1,7.6,5.2v3c0,4.1-1.9,5.2-7.6,5.2H221c-5.7,0-7.6-1.1-7.6-5.2v-0.2l6.3-0.9
		v2.2h21.6v-5h-19.1c-5.7,0-7.6-1.1-7.6-5.2v-2.4c0-4.1,1.8-5.2,7.6-5.2h17.4c5.4,0,7.6,1,7.6,4.8v0.1l-6.3,1.1V9.7L220.8,9.7
		L220.8,9.7z"/>
</g>
<g>
	<path class="st1" d="M64.3,36l-2.9-2.6h1.8l1.9,1.8l2-1.8h1.5L65.6,36v2.1h-1.3V36z"/>
	<path class="st1" d="M73.2,33.4h4.2c1.1,0,1.4,0.2,1.4,1.1V37c0,0.9-0.3,1.1-1.4,1.1h-4.2c-1.1,0-1.4-0.2-1.4-1.1v-2.5
		C71.8,33.6,72.1,33.4,73.2,33.4z M77.4,37.2v-3h-4.3v3H77.4z"/>
	<path class="st1" d="M84.9,37.2h3.7v-3.8h1.3V37c0,0.9-0.3,1.1-1.4,1.1h-3.6c-1.1,0-1.4-0.2-1.4-1.1v-3.6h1.3L84.9,37.2L84.9,37.2z
		"/>
	<path class="st1" d="M97.5,38.1h-1.3v-3.9h-2.6v-0.8h6.5v0.8h-2.6C97.5,34.3,97.5,38.1,97.5,38.1z"/>
	<path class="st1" d="M103.7,33.4h1.3v1.8h4.1v-1.8h1.3v4.7h-1.3v-2H105v2h-1.3L103.7,33.4L103.7,33.4z"/>
	<path class="st1" d="M122.9,33.4h4.2c1.1,0,1.4,0.2,1.4,1.1V37c0,0.9-0.3,1.1-1.4,1.1h-4.2c-1.1,0-1.4-0.2-1.4-1.1v-2.5
		C121.5,33.6,121.8,33.4,122.9,33.4z M127.1,37.2v-3h-4.3v3H127.1z"/>
	<path class="st1" d="M133.2,33.4h4.8c0.9,0,1.3,0.3,1.3,0.9v1.1c0,0.7-0.4,0.9-1.3,0.9h-0.7l2.6,1.8h-1.9l-2.3-1.8h-1.2v1.8h-1.3
		V33.4z M134.5,34.2v1.3h3c0.4,0,0.6-0.1,0.6-0.4v-0.6c0-0.3-0.2-0.4-0.6-0.4C137.5,34.2,134.5,34.2,134.5,34.2z"/>
	<path class="st1" d="M145.2,34.3v3h4.1v-1.1h-2.1v-0.8h3.4V37c0,0.9-0.3,1.1-1.4,1.1h-3.9c-1.1,0-1.4-0.2-1.4-1.1v-2.5
		c0-0.9,0.3-1.1,1.4-1.1h3.9c1,0,1.4,0.2,1.4,1.1c0,0,0,0.1,0,0.1l-1.3,0.2v-0.5H145.2z"/>
	<path class="st1" d="M157.3,33.4h1.3l3.2,4.7h-1.5l-0.7-1h-3.6l-0.6,1h-1.3L157.3,33.4z M159.1,36.2l-1.2-1.9l-1.3,1.9H159.1z"/>
	<path class="st1" d="M165.7,33.4h0.9l4,2.8c0.2,0.2,0.4,0.3,0.7,0.5c0-0.4-0.1-0.7-0.1-0.8v-2.5h1.2v4.7h-0.9l-4.2-2.9
		c-0.2-0.1-0.3-0.2-0.5-0.4c0,0.4,0.1,0.6,0.1,0.8v2.5h-1.2L165.7,33.4L165.7,33.4z"/>
	<path class="st1" d="M177.2,33.4h1.3v4.7h-1.3V33.4z"/>
	<path class="st1" d="M182.7,37.6l3.9-3.4h-3.6v-0.8h5.7v0.5l-4,3.4h4v0.9h-6.1V37.6z"/>
	<path class="st1" d="M195,33.4h1.3l3.2,4.7h-1.5l-0.7-1h-3.6l-0.7,1h-1.3L195,33.4z M196.8,36.2l-1.2-1.9l-1.3,1.9H196.8z"/>
	<path class="st1" d="M205.3,38.1h-1.3v-3.9h-2.6v-0.8h6.5v0.8h-2.6V38.1z"/>
	<path class="st1" d="M211.5,33.4h1.3v4.7h-1.3V33.4z"/>
	<path class="st1" d="M219,33.4h4.2c1.1,0,1.4,0.2,1.4,1.1V37c0,0.9-0.3,1.1-1.4,1.1H219c-1.1,0-1.4-0.2-1.4-1.1v-2.5
		C217.6,33.6,217.9,33.4,219,33.4z M223.2,37.2v-3h-4.3v3H223.2z"/>
	<path class="st1" d="M229.3,33.4h0.9l4,2.8c0.2,0.2,0.4,0.3,0.6,0.5c0-0.4-0.1-0.7-0.1-0.8v-2.5h1.2v4.7h-0.9l-4.1-2.9
		c-0.2-0.1-0.3-0.2-0.5-0.4c0,0.4,0.1,0.6,0.1,0.8v2.5h-1.2V33.4z"/>
</g>
<g>
	<polygon class="st0" points="0,37.7 21,1.4 21,5.5 39.6,5.5 37.3,9.5 21,9.5 21,12.5 35.5,12.5 33.2,16.6 21,16.6 21,19.6 
		31.4,19.6 29.1,23.6 21,23.6 21,26.6 27.4,26.6 25,30.7 21,30.7 21,33.7 23.3,33.7 21,37.7 	"/>
	<g>
		<polyline class="st2" points="21,1.4 23.3,5.5 23.5,5.5 23.5,5.5 23.9,5.5 24,5.5 24.4,5.5 21.5,0.5 21,1.4 		"/>
		<polygon class="st2" points="26.7,9.5 26.3,9.5 26.2,9.5 26.1,9.5 25.9,9.5 25.6,9.5 27.4,12.5 27.6,12.5 27.8,12.5 28,12.5 
			28.1,12.5 28.5,12.5 		"/>
		<polygon class="st2" points="30.8,16.6 30.4,16.6 30.3,16.6 30.2,16.6 30,16.6 29.7,16.6 31.4,19.6 41.9,37.7 42.2,37.7 
			42.4,37.7 42.6,37.7 42.7,37.7 43,37.7 		"/>
	</g>
</g>
</svg>
