<?xml version="1.0" encoding="utf-8"?>
<!-- Generator: Adobe Illustrator 16.0.0, SVG Export Plug-In . SVG Version: 6.00 Build 0)  -->
<!DOCTYPE svg PUBLIC "-//W3C//DTD SVG 1.1//EN" "http://www.w3.org/Graphics/SVG/1.1/DTD/svg11.dtd">
<svg version="1.1" id="Layer_1" xmlns="http://www.w3.org/2000/svg" xmlns:xlink="http://www.w3.org/1999/xlink" x="0px" y="0px"
	 width="648.532px" height="211.102px" viewBox="0 0 648.532 211.102" enable-background="new 0 0 648.532 211.102"
	 xml:space="preserve">
<path d="M247.173,14.926h-48.055c-6.161,0-8.978,1.832-10.21,5.633l-15.314,49.006c-1.232,3.802,0.528,5.633,6.689,5.633h71.996
	l-15.843,14.926h-84.317c-19.188,0-24.996-9.294-20.067-24.925l12.498-40.275C149.478,9.294,161.096,0,180.283,0h82.909
	L247.173,14.926z"/>
<path d="M354.056,67.692c-4.437,14.068-14.734,22.433-32.003,22.433h-59.25c-17.269,0-22.497-8.364-18.06-22.433l11.248-36.248
	c4.437-14.068,14.892-22.433,32.161-22.433h59.25c17.269,0,22.337,8.364,17.902,22.433L354.056,67.692z M321.895,22.446h-16.792
	c-5.545,0-8.08,1.647-9.189,5.07L282.13,71.621c-1.107,3.422,0.477,5.07,6.021,5.07h16.793c5.544,0,8.079-1.647,9.188-5.07
	l13.783-44.105C329.024,24.093,327.44,22.446,321.895,22.446z"/>
<path d="M444.327,90.125H356.56l25.348-81.113h38.655L399.335,76.69h49.111L444.327,90.125z"/>
<path d="M544.408,22.446h-32.002l-21.069,67.679H452.68l21.071-67.679h-32.003l4.278-13.434h102.658L544.408,22.446z"/>
<path d="M116.788,109.278H68.732c-6.161,0-8.977,1.831-10.21,5.632l-15.314,49.007c-1.232,3.801,0.528,5.632,6.689,5.632h64.955
	l-11.618,14.927H21.733c-19.187,0-24.996-9.295-20.067-24.925l12.498-40.274c4.929-15.631,16.546-24.926,35.733-24.926h82.91
	L116.788,109.278z"/>
<path d="M178.871,184.476l-13.649-59.145l-35.62,37.346l-20.12,21.799H90.788l73.825-81.113h38.656l16.634,81.113H178.871z"/>
<path d="M334.775,162.043c-4.437,14.068-14.734,22.433-32.002,22.433h-79.686l25.348-81.113h79.687
	c17.268,0,22.338,8.365,17.901,22.433L334.775,162.043z M302.616,116.796h-19.802l-16.953,54.246h19.804
	c5.544,0,8.079-1.647,9.188-5.07l13.784-44.105C309.744,118.444,308.161,116.796,302.616,116.796z"/>
<polygon points="362.627,103.362 337.28,184.476 425.045,184.476 429.166,171.042 380.054,171.042 386.866,149.243 431.859,149.243 
	436.136,135.808 391.145,135.808 397.005,116.796 469.966,116.796 448.895,184.476 487.551,184.476 508.621,116.796 
	539.215,116.796 543.493,103.362 "/>
<path d="M632.988,116.796h-44.939c-5.229,0-6.971,0.761-7.764,3.295l-1.742,5.197c-0.792,2.407,0.634,3.168,5.861,3.168h28.834
	c14.733,0,23.288,4.563,19.804,15.589l-6.655,21.292c-3.961,12.548-13.148,19.138-28.833,19.138H512.92l4.118-13.434h64.039
	c4.91,0,6.337-0.888,7.129-3.549l1.742-5.577c0.951-2.789-0.475-3.549-5.386-3.549h-33.11c-14.575,0-19.169-4.436-15.209-16.982
	l6.019-19.392c3.169-10.013,12.042-18.631,26.458-18.631h79.812L632.988,116.796z"/>
<polygon points="158.18,152.087 106.075,210.528 169.445,210.528 "/>
<g>
	<path d="M200.921,208.42c-0.648,2.073-1.915,2.682-4.62,2.682h-12.335l4.507-14.421h12.336c2.76,0,3.547,0.677,2.928,2.66
		L200.921,208.42z M200.16,197.853h-9.182l-3.774,12.077h9.182c1.015,0,1.296-0.338,1.493-1.014l3.127-10.026
		C201.258,198.057,201.005,197.853,200.16,197.853z"/>
	<path d="M224.44,201.841c-0.647,2.074-1.803,2.704-4.168,2.704l1.633,6.557h-2.9l-1.774-6.579h-6.928l-2.056,6.579h-2.873
		l4.507-14.421h12.42c2.76,0,3.55,0.677,2.93,2.66L224.44,201.841z M221.652,197.853h-9.266l-1.718,5.499h9.266
		c1.014,0,1.295-0.339,1.492-1.015l1.07-3.447C222.75,198.057,222.497,197.853,221.652,197.853z"/>
	<path d="M243.253,208.487c-0.563,1.781-1.547,2.614-3.774,2.614h-9.293c-2.676,0-3.324-0.766-2.733-2.637l3.691-11.784h2.872
		l-3.83,12.258c-0.253,0.766,0.028,0.991,0.761,0.991h9.209c0.93,0,1.239-0.201,1.522-1.126l3.801-12.123h1.465L243.253,208.487z"/>
	<path d="M247.847,211.102l4.506-14.421h3.718l3.155,12.799l11.04-12.799h3.604l-4.506,14.421h-2.873l4-12.843h-0.056
		l-11.097,12.843h-2.76l-3.21-12.843h-0.056l-3.999,12.843H247.847z"/>
	<path d="M305.329,197.853h-8.308c-1.042,0-1.465,0.046-1.577,0.384c-0.057,0.226,0.253,0.834,0.62,1.419l4.056,6.445l2.504-2.028
		c0.423-0.339,0.592-0.743,0.678-1.036l0.336-1.059h1.354l-0.508,1.599c-0.141,0.474-0.422,0.833-0.817,1.148l-2.928,2.3
		l1.633,2.545c0.197,0.315,0.422,0.496,0.9,0.496h0.958l-0.31,1.036h-3.014c-0.787,0-1.07-0.18-1.352-0.608l-1.042-1.644
		l-1.971,1.712c-0.423,0.382-1.071,0.54-2.226,0.54h-4.619c-1.916,0-2.534-1.036-2.028-2.682l1.493-4.844
		c0.339-1.126,1.183-1.645,2.534-1.645h2.508l-1.126-1.645c-0.338-0.496-0.987-1.623-0.761-2.321
		c0.309-1.014,1.268-1.285,3.548-1.285h9.83L305.329,197.853z M294.88,203.104h-1.491c-0.901,0-1.268,0.248-1.494,0.969
		l-1.521,4.889c-0.196,0.676-0.056,0.969,0.79,0.969h3.351c0.845,0,1.268-0.271,1.832-0.721l1.577-1.283L294.88,203.104z"/>
	<path d="M340.393,201.819c-0.449,1.464-1.295,1.847-3.042,1.914l-0.027,0.046c1.72,0.09,2.338,0.429,1.888,1.847l-0.901,2.839
		c-0.676,2.142-2.142,2.637-4.592,2.637h-12.336l4.508-14.421h12.336c3.069,0,3.491,0.857,2.929,2.682L340.393,201.819z
		 M335.607,204.116h-9.183l-1.802,5.813h9.181c0.986,0,1.269-0.271,1.521-1.104l1.128-3.604
		C336.733,204.319,336.507,204.116,335.607,204.116z M337.577,197.853h-9.181l-1.635,5.228h9.182c0.987,0,1.268-0.27,1.521-1.103
		l0.93-3.021C338.676,198.057,338.478,197.853,337.577,197.853z"/>
	<path d="M359.376,208.487c-0.563,1.781-1.548,2.614-3.773,2.614h-9.295c-2.675,0-3.324-0.766-2.732-2.637l3.69-11.784h2.872
		l-3.83,12.258c-0.255,0.766,0.028,0.991,0.761,0.991h9.209c0.929,0,1.239-0.201,1.521-1.126l3.803-12.123h1.463L359.376,208.487z"
		/>
	<path d="M383.63,197.718h-11.66c-0.844,0-1.24,0.202-1.493,1.037l-3.183,10.161c-0.196,0.676-0.14,1.014,0.874,1.014h8.027
		c1.013,0,1.322-0.226,1.576-1.08l1.606-5.184h-6.872l0.365-1.172h9.747l-2.677,8.607h-2.648l0.283-0.946h-0.059
		c-0.338,0.721-0.646,0.946-2.054,0.946h-8.254c-2.394,0-3.295-0.495-2.731-2.321l2.985-9.62c0.592-1.87,1.663-2.479,4.169-2.479
		h12.335L383.63,197.718z"/>
	<path d="M399.442,211.102h-14.42l4.506-14.421h2.873l-4.141,13.249h11.548L399.442,211.102z"/>
	<path d="M420.498,197.853h-10.872l-1.717,5.453h10.363l-0.366,1.171h-10.363l-1.692,5.453h10.874l-0.366,1.172h-13.745
		l4.506-14.421h13.744L420.498,197.853z"/>
	<path d="M451.477,197.853h-10.025c-0.847,0-1.269,0.204-1.521,1.037l-3.126,10.026c-0.198,0.676-0.142,1.014,0.873,1.014h10.025
		l-0.366,1.172H437.03c-2.705,0-3.577-0.608-2.93-2.682l2.817-9.079c0.618-1.983,1.857-2.66,4.617-2.66h10.309L451.477,197.853z"/>
	<path d="M467.55,208.42c-0.535,1.69-1.914,2.682-4.618,2.682h-8.872c-2.705,0-3.465-0.991-2.929-2.682l2.816-9.079
		c0.507-1.623,1.857-2.66,4.617-2.66h8.873c2.761,0,3.437,1.037,2.929,2.66L467.55,208.42z M466.79,197.853h-8.308
		c-0.846,0-1.268,0.204-1.521,1.037l-3.126,10.026c-0.197,0.676-0.142,1.014,0.874,1.014h8.308c1.014,0,1.295-0.338,1.493-1.014
		l3.126-10.026C467.888,198.057,467.635,197.853,466.79,197.853z"/>
	<path d="M491.125,201.841c-0.647,2.074-1.803,2.704-4.168,2.704l1.634,6.557h-2.902l-1.773-6.579h-6.929l-2.057,6.579h-2.872
		l4.506-14.421h12.42c2.762,0,3.55,0.677,2.929,2.66L491.125,201.841z M488.335,197.853h-9.264l-1.719,5.499h9.266
		c1.014,0,1.296-0.339,1.493-1.015l1.07-3.447C489.436,198.057,489.182,197.853,488.335,197.853z"/>
	<path d="M512.193,203.013c-0.648,2.074-1.916,2.682-4.62,2.682h-9.688l-1.69,5.407h-2.872l4.506-14.421h12.562
		c2.76,0,3.548,0.677,2.93,2.66L512.193,203.013z M509.742,197.853h-9.406l-2.086,6.67h9.407c1.015,0,1.296-0.339,1.493-1.014
		l1.437-4.619C510.84,198.057,510.586,197.853,509.742,197.853z"/>
	<path d="M533.465,197.853h-11.435c-0.846,0-1.268,0.204-1.521,1.037l-0.844,2.704c-0.199,0.677-0.142,1.013,0.871,1.013h7.662
		c2.703,0,3.577,0.609,2.929,2.682l-0.985,3.155c-0.619,1.981-1.83,2.658-4.591,2.658h-11.717l0.365-1.172h11.436
		c0.845,0,1.239-0.201,1.493-1.037l0.986-3.109c0.225-0.675,0.14-1.014-0.873-1.014h-7.662c-2.703,0-3.577-0.607-2.929-2.682
		l0.846-2.747c0.619-1.983,1.858-2.66,4.618-2.66h11.717L533.465,197.853z"/>
</g>
</svg>
