<?xml version="1.0" encoding="utf-8"?>
<!-- Generator: Adobe Illustrator 16.0.0, SVG Export Plug-In . SVG Version: 6.00 Build 0)  -->
<!DOCTYPE svg PUBLIC "-//W3C//DTD SVG 1.1//EN" "http://www.w3.org/Graphics/SVG/1.1/DTD/svg11.dtd">
<svg version="1.1" id="Layer_1" xmlns="http://www.w3.org/2000/svg" xmlns:xlink="http://www.w3.org/1999/xlink" x="0px" y="0px"
	 width="27.863px" height="31.961px" viewBox="1.696 0 27.863 31.961" enable-background="new 1.696 0 27.863 31.961"
	 xml:space="preserve">
<g id="icomoon-ignore">
</g>
<path d="M17.125,0.214v4.714H14.32c-1.023,0-1.714,0.215-2.07,0.643C11.894,6,11.715,6.643,11.714,7.5v3.375h5.231l-0.695,5.286
	h-4.536v13.554H6.25V16.161H1.696v-5.286H6.25V6.982c0-2.214,0.619-3.931,1.857-5.152C9.345,0.609,10.994,0,13.053,0
	C14.803,0,16.16,0.071,17.125,0.214L17.125,0.214z"/>
<g>
	<path d="M23.464,0.156l4.067,2.088v0.827l-4.067,2.116V4.224l0.889-0.443V1.441l-0.889-0.43V0.156z M25.088,1.808v1.617
		l1.654-0.796L25.088,1.808z"/>
	<path d="M23.464,6.375h4.067v0.859h-3.302v2.769h-0.766V6.375z"/>
	<path d="M27.531,11.994h-3.302v2.448h3.302v0.855h-3.105c-0.372,0-0.625-0.063-0.76-0.188c-0.135-0.126-0.202-0.368-0.202-0.727
		v-2.333c0-0.356,0.067-0.598,0.202-0.724c0.135-0.127,0.388-0.19,0.76-0.19h3.105V11.994z"/>
	<path d="M23.464,17.18h4.067v0.694l-2.459,1.738l2.459,1.701v0.688h-4.067v-0.796h2.513c0.049,0,0.11,0.003,0.185,0.009
		c0.075,0.006,0.158,0.014,0.25,0.022c-0.104-0.047-0.191-0.087-0.259-0.122c-0.068-0.035-0.124-0.066-0.168-0.095l-2.032-1.386
		v-0.171l2.04-1.39c0.077-0.052,0.149-0.096,0.218-0.131c0.067-0.036,0.134-0.066,0.198-0.09c-0.085,0.007-0.162,0.013-0.231,0.016
		c-0.069,0.004-0.136,0.006-0.2,0.006h-2.513V17.18z"/>
	<path d="M23.464,23.799h4.067v0.587l-2.397,2.598c-0.079,0.089-0.154,0.167-0.225,0.234c-0.071,0.067-0.144,0.129-0.218,0.185
		c0.229-0.014,0.39-0.023,0.485-0.027c0.095-0.005,0.168-0.008,0.219-0.008h2.136v0.772h-4.067v-0.587l2.513-2.71
		c0.064-0.064,0.122-0.122,0.174-0.171c0.051-0.049,0.104-0.094,0.157-0.136c-0.126,0.012-0.244,0.021-0.355,0.026
		c-0.112,0.005-0.209,0.008-0.291,0.008h-2.197V23.799z"/>
	<path d="M23.464,30.021h4.067v0.859h-4.067V30.021z"/>
</g>
</svg>
