<?xml version="1.0" encoding="utf-8"?>
<!-- Generator: Adobe Illustrator 16.0.0, SVG Export Plug-In . SVG Version: 6.00 Build 0)  -->
<!DOCTYPE svg PUBLIC "-//W3C//DTD SVG 1.1//EN" "https://www.w3.org/Graphics/SVG/1.1/DTD/svg11.dtd">
<svg version="1.1" id="Layer_1" xmlns="https://www.w3.org/2000/svg" xmlns:xlink="https://www.w3.org/1999/xlink" x="0px" y="0px"
	 width="27.863px" height="31.961px" viewBox="1.696 0 27.863 31.961" enable-background="new 1.696 0 27.863 31.961"
	 xml:space="preserve">
<g id="icomoon-ignore">
</g>
<path d="M17.125,0.214v4.714H14.32c-1.023,0-1.714,0.215-2.07,0.643C11.894,6,11.715,6.643,11.714,7.5v3.375h5.231l-0.695,5.286
	h-4.536v13.554H6.25V16.161H1.696v-5.286H6.25V6.982c0-2.214,0.619-3.931,1.857-5.152C9.345,0.609,10.994,0,13.053,0
	C14.803,0,16.16,0.071,17.125,0.214L17.125,0.214z"/>
<g>
	<path d="M26.813,4.178v-2.24h-2.749v2.24h0.933l-0.209,0.831h-0.514c-0.397,0-0.668-0.062-0.812-0.184
		c-0.144-0.123-0.216-0.356-0.216-0.701V1.993c0-0.347,0.072-0.581,0.216-0.703c0.144-0.122,0.414-0.182,0.812-0.182h2.289
		c0.394,0,0.664,0.061,0.809,0.182c0.146,0.122,0.218,0.356,0.218,0.703v2.131c0,0.345-0.072,0.578-0.218,0.701
		c-0.145,0.123-0.415,0.184-0.809,0.184h-0.411l-0.16-0.831H26.813z"/>
	<path d="M23.247,5.918l4.343,2.021v0.801l-4.343,2.047V9.854l0.949-0.429V7.162l-0.949-0.416V5.918z M24.981,7.516V9.08l1.767-0.77
		L24.981,7.516z"/>
	<path d="M23.247,11.935h4.343v2.297c0,0.655-0.186,1.159-0.559,1.512c-0.372,0.353-0.901,0.529-1.586,0.529
		c-0.405,0-0.771-0.069-1.095-0.206c-0.325-0.138-0.58-0.331-0.767-0.581c-0.118-0.156-0.203-0.349-0.257-0.58
		s-0.08-0.526-0.08-0.887V11.935z M24.064,12.766v1.074c0,0.572,0.108,0.978,0.325,1.216c0.216,0.239,0.573,0.358,1.072,0.358
		c0.443,0,0.78-0.099,1.009-0.297s0.343-0.491,0.343-0.878v-1.473H24.064z"/>
	<path d="M23.247,17.796h4.343v3.655h-0.739v-2.824h-0.97v1.648h-0.739v-1.648h-1.077v2.858h-0.817V17.796z"/>
	<path d="M26.813,24.681h-3.566V23.85h3.566v-1.639h0.776v4.115h-0.776V24.681z"/>
	<path d="M26.83,30.438V28.1h-0.933v2.227c0,0.349-0.072,0.585-0.218,0.707c-0.146,0.123-0.415,0.185-0.81,0.185h-0.596
		c-0.395,0-0.664-0.062-0.81-0.185c-0.146-0.122-0.218-0.358-0.218-0.707V28.12c0-0.35,0.072-0.585,0.218-0.708
		s0.415-0.185,0.81-0.185h0.119l0.185,0.733h-0.514v2.523h0.99v-2.227c0-0.347,0.073-0.581,0.218-0.702
		c0.146-0.122,0.415-0.183,0.81-0.183h0.481c0.394,0,0.664,0.061,0.809,0.183c0.146,0.121,0.218,0.355,0.218,0.702v2.027
		c0,0.336-0.069,0.567-0.209,0.694s-0.388,0.19-0.744,0.19h-0.09l-0.21-0.732H26.83z"/>
</g>
</svg>
