<?xml version="1.0" encoding="utf-8"?>
<!-- Generator: Adobe Illustrator 16.0.0, SVG Export Plug-In . SVG Version: 6.00 Build 0)  -->
<!DOCTYPE svg PUBLIC "-//W3C//DTD SVG 1.1//EN" "https://www.w3.org/Graphics/SVG/1.1/DTD/svg11.dtd">
<svg version="1.1" id="Layer_1" xmlns="https://www.w3.org/2000/svg" xmlns:xlink="https://www.w3.org/1999/xlink" x="0px" y="0px"
	 width="27.863px" height="31.961px" viewBox="1.696 0 27.863 31.961" enable-background="new 1.696 0 27.863 31.961"
	 xml:space="preserve">
<g id="icomoon-ignore">
</g>
<path d="M17.125,0.214v4.714H14.32c-1.023,0-1.714,0.215-2.07,0.643C11.894,6,11.715,6.643,11.714,7.5v3.375h5.231l-0.695,5.286
	h-4.536v13.554H6.25V16.161H1.696v-5.286H6.25V6.982c0-2.214,0.619-3.931,1.857-5.152C9.345,0.609,10.994,0,13.053,0
	C14.803,0,16.16,0.071,17.125,0.214L17.125,0.214z"/>
<g>
	<path d="M26.573,4.829V2.016h-2.839v2.813h0.963l-0.216,1.044H23.95c-0.41,0-0.689-0.077-0.838-0.231
		c-0.148-0.154-0.223-0.448-0.223-0.881V2.083c0-0.436,0.074-0.73,0.223-0.883s0.428-0.229,0.838-0.229h2.364
		c0.407,0,0.687,0.076,0.836,0.229c0.15,0.153,0.225,0.447,0.225,0.883v2.678c0,0.433-0.074,0.727-0.225,0.881
		c-0.149,0.154-0.429,0.231-0.836,0.231H25.89l-0.165-1.044H26.573z"/>
	<path d="M26.314,7.932c0.407,0,0.687,0.076,0.836,0.229c0.15,0.153,0.225,0.447,0.225,0.883v3.302c0,0.436-0.074,0.73-0.225,0.883
		c-0.149,0.152-0.429,0.229-0.836,0.229H23.95c-0.41,0-0.689-0.077-0.838-0.229c-0.148-0.153-0.223-0.447-0.223-0.883V9.043
		c0-0.436,0.074-0.73,0.223-0.883s0.428-0.229,0.838-0.229H26.314z M23.734,8.976v3.441h2.839V8.976H23.734z"/>
	<path d="M22.89,15.656h4.485v1.043h-3.641v3.366H22.89V15.656z"/>
	<path d="M26.573,22.648H22.89v-1.044h3.684v-2.058h0.802v5.169h-0.802V22.648z"/>
	<path d="M26.591,29.881v-2.937h-0.964v2.797c0,0.438-0.075,0.734-0.225,0.889c-0.15,0.154-0.429,0.231-0.836,0.231H23.95
		c-0.407,0-0.686-0.077-0.836-0.231c-0.149-0.154-0.225-0.45-0.225-0.889V26.97c0-0.438,0.075-0.735,0.225-0.89
		c0.15-0.153,0.429-0.23,0.836-0.23h0.123l0.191,0.921h-0.53v3.17h1.022v-2.797c0-0.436,0.075-0.729,0.225-0.883
		c0.15-0.152,0.429-0.229,0.837-0.229h0.496c0.407,0,0.687,0.077,0.836,0.229c0.15,0.153,0.225,0.447,0.225,0.883v2.547
		c0,0.421-0.071,0.712-0.216,0.872c-0.145,0.159-0.4,0.239-0.769,0.239h-0.093l-0.217-0.921H26.591z"/>
</g>
</svg>
