<svg id="Layer_1" data-name="Layer 1" xmlns="http://www.w3.org/2000/svg" viewBox="0 0 340.41 52.18"><defs><style>.cls-1{fill:#cc3232;}.cls-2{fill:#939598;}</style></defs><path class="cls-1" d="M81.17,12V30.69h26v-4l9.62-.95v3.49c0,5.56-2.48,7-10.26,7H81.81c-7.78,0-10.26-1.43-10.26-7V13.68c0-5.55,2.48-7,10.26-7h24.7c7.78,0,10.26,1.44,10.26,7v1.85l-9.62,1.09V12Z"/><path class="cls-1" d="M141.36,6.69h30.47c7.78,0,10.26,1.44,10.26,7V29.26c0,5.56-2.48,7-10.26,7H141.36c-7.78,0-10.27-1.43-10.27-7V13.68C131.09,8.13,133.58,6.69,141.36,6.69Zm31.11,24V12H140.71V30.69Z"/><path class="cls-1" d="M197.12,6.69h9.63v24h31v5.56H197.12Z"/><path class="cls-1" d="M263.8,36.25h-9.62V12h-19V6.69h47.72V12H263.8Z"/><path class="cls-1" d="M302.47,11.85v6.36h25.82c7.78,0,10.35,1.43,10.35,7v4.07c0,5.56-2.57,7-10.35,7H302.71c-7.78,0-10.34-1.43-10.34-7v-.32l8.5-1.26v3h29.27V23.93H304.32c-7.78,0-10.27-1.43-10.27-7V13.68c0-5.55,2.49-7,10.27-7h23.49c7.38,0,10.27,1.38,10.27,6.48v.15l-8.5,1.43v-2.9Z"/><path class="cls-2" d="M76.43,47.38l-4.46-4h2.66l3,2.75,3-2.75H82.9l-4.45,3.92v3.25h-2Z"/><path class="cls-2" d="M90,43.42h6.33c1.62,0,2.13.35,2.13,1.7v3.77c0,1.35-.51,1.7-2.13,1.7H90c-1.62,0-2.13-.35-2.13-1.7V45.12C87.82,43.77,88.33,43.42,90,43.42Zm6.46,5.82V44.7H89.82v4.54Z"/><path class="cls-2" d="M107.71,49.24h5.69V43.42h2v5.47c0,1.35-.51,1.7-2.13,1.7h-5.43c-1.62,0-2.13-.35-2.13-1.7V43.42h2Z"/><path class="cls-2" d="M126.88,50.59h-2V44.7h-3.95V43.42h9.92V44.7h-4Z"/><path class="cls-2" d="M136.37,43.42h2V46.2h6.25V43.42h2v7.17h-2V47.51h-6.25v3.08h-2Z"/><path class="cls-2" d="M165.59,43.42h6.33c1.62,0,2.14.35,2.14,1.7v3.77c0,1.35-.52,1.7-2.14,1.7h-6.33c-1.62,0-2.13-.35-2.13-1.7V45.12C163.46,43.77,164,43.42,165.59,43.42Zm6.47,5.82V44.7h-6.6v4.54Z"/><path class="cls-2" d="M181.35,43.42h7.36c1.32,0,1.94.39,1.94,1.39v1.68c0,1-.62,1.39-1.94,1.39h-1.13l4,2.71h-2.87l-3.47-2.71h-1.9v2.71h-2Zm2,1.24v2h4.5c.62,0,.9-.1.9-.57v-.86c0-.47-.28-.57-.9-.57Z"/><path class="cls-2" d="M199.6,44.7v4.54h6.25v-1.6h-3.26V46.42h5.21v2.47c0,1.35-.51,1.7-2.13,1.7h-5.93c-1.62,0-2.13-.35-2.13-1.7V45.12c0-1.35.51-1.7,2.13-1.7h5.93c1.57,0,2.13.34,2.13,1.63v.16l-2,.3V44.7Z"/><path class="cls-2" d="M218,43.42H220l4.93,7.17h-2.25l-1-1.57h-5.45l-1,1.57h-2Zm2.75,4.31-1.85-2.92L217,47.73Z"/><path class="cls-2" d="M230.71,43.42h1.37l6,4.22a7.46,7.46,0,0,1,1,.78c-.05-.59-.08-1-.08-1.23V43.42h1.79v7.17h-1.36l-6.32-4.43a6.43,6.43,0,0,1-.71-.58c.06.55.08.93.08,1.13v3.88h-1.8Z"/><path class="cls-2" d="M248.28,43.42h2v7.17h-2Z"/><path class="cls-2" d="M256.58,49.81l6-5.11h-5.41V43.42h8.63v.71l-6.1,5.11h6.1v1.35h-9.23Z"/><path class="cls-2" d="M275.42,43.42h1.93l4.94,7.17H280L279,49h-5.45l-1,1.57h-2Zm2.75,4.31-1.85-2.92-1.92,2.92Z"/><path class="cls-2" d="M291,50.59h-2V44.7h-4V43.42h9.91V44.7h-4Z"/><path class="cls-2" d="M300.46,43.42h2v7.17h-2Z"/><path class="cls-2" d="M311.89,43.42h6.33c1.62,0,2.13.35,2.13,1.7v3.77c0,1.35-.51,1.7-2.13,1.7h-6.33c-1.62,0-2.13-.35-2.13-1.7V45.12C309.76,43.77,310.27,43.42,311.89,43.42Zm6.47,5.82V44.7h-6.6v4.54Z"/><path class="cls-2" d="M327.63,43.42H329l6.05,4.22a7.46,7.46,0,0,1,1,.78c0-.59-.09-1-.09-1.23V43.42h1.8v7.17h-1.36l-6.32-4.43a6.43,6.43,0,0,1-.71-.58c.06.55.08.93.08,1.13v3.88h-1.8Z"/><polygon class="cls-1" points="1.77 50.69 30.3 1.31 30.3 6.79 55.68 6.79 52.51 12.28 30.3 12.28 30.3 16.39 50.13 16.39 46.96 21.88 30.3 21.88 30.3 26 44.57 26 41.4 31.48 30.3 31.48 30.3 35.6 39.02 35.6 35.85 41.09 30.3 41.09 30.3 45.2 33.47 45.2 30.3 50.69 1.77 50.69 1.77 50.69"/><polyline class="cls-2" points="30.3 1.31 33.47 6.79 33.8 6.79 33.8 6.79 34.33 6.79 34.47 6.79 34.99 6.79 31.06 0 30.3 1.31"/><polygon class="cls-2" points="38.16 12.28 37.64 12.28 37.5 12.28 37.3 12.28 36.98 12.28 36.64 12.28 39.02 16.39 39.36 16.39 39.68 16.39 39.88 16.39 40.02 16.39 40.54 16.39 38.16 12.28"/><polygon class="cls-2" points="43.73 21.88 43.2 21.88 43.06 21.88 42.85 21.88 42.54 21.88 42.19 21.88 44.57 26 58.83 50.69 59.19 50.69 59.49 50.69 59.71 50.69 59.85 50.69 60.37 50.69 43.73 21.88"/></svg>