<?xml version="1.0" encoding="utf-8"?>
<!-- Generator: Adobe Illustrator 15.1.0, SVG Export Plug-In . SVG Version: 6.00 Build 0)  -->
<!DOCTYPE svg PUBLIC "-//W3C//DTD SVG 1.1//EN" "http://www.w3.org/Graphics/SVG/1.1/DTD/svg11.dtd">
<svg version="1.1" xmlns="http://www.w3.org/2000/svg" xmlns:xlink="http://www.w3.org/1999/xlink" x="0px" y="0px"
	 width="656.667px" height="213.334px" viewBox="0 0 656.667 213.334" enable-background="new 0 0 656.667 213.334"
	 xml:space="preserve">
<g id="Grid">
</g>
<g id="Layer_3">
	<g>
		<path d="M407.278,203.42h0.609v3.469h0.922v0.617h-0.922v1.297h-0.727v-1.297h-3.125v-0.625L407.278,203.42z M407.161,205.1
			c0-0.117,0-0.234,0.008-0.359c0-0.117,0.008-0.234,0.016-0.359c0,0.016-0.367,0.438-0.406,0.477l-1.898,2.031h2.281V205.1z"/>
		<path d="M414.603,206.146c0,1.688-0.969,2.781-2.453,2.781c-1.617,0-2.43-1.297-2.43-2.844c0-1.352,0.758-2.75,2.422-2.766
			C413.751,203.303,414.603,204.568,414.603,206.146z M411.048,204.467c-0.461,0.508-0.539,1.203-0.539,1.711
			c0,1.305,0.703,2.117,1.656,2.117c0.391,0,0.766-0.148,1.055-0.414c0.461-0.445,0.602-1.102,0.602-1.742
			c0-0.57-0.125-1.078-0.344-1.438c-0.188-0.312-0.625-0.773-1.336-0.75C411.759,203.959,411.353,204.123,411.048,204.467z"/>
	</g>
	<g>
		<path d="M167.061,204.85c0.078-0.305,0.18-0.758,0.664-1.117c0.414-0.305,0.969-0.406,1.477-0.406
			c1.391,0,2.133,0.664,2.133,1.516c0,0.219-0.062,0.445-0.18,0.625c-0.188,0.289-0.445,0.383-0.641,0.453
			c0.164,0.062,0.43,0.148,0.68,0.422c0.328,0.352,0.352,0.75,0.352,0.938c0,0.969-0.836,1.633-2.266,1.633
			c-0.281,0-0.898-0.039-1.312-0.203c-0.836-0.328-1.008-0.984-1.109-1.359l0.734-0.172c0.07,0.352,0.227,1.102,1.695,1.102
			c0.797,0,1.453-0.289,1.453-1.039c0-0.32-0.133-0.539-0.25-0.656c-0.258-0.25-0.703-0.297-1.352-0.297
			c-0.172,0-0.344,0-0.523,0.008v-0.586c0.375,0.008,0.812,0.008,1.148-0.047c0.547-0.094,0.766-0.406,0.766-0.758
			c0-0.289-0.148-0.547-0.352-0.703c-0.211-0.164-0.531-0.266-0.953-0.266c-0.359,0-0.781,0.086-1.094,0.352
			c-0.289,0.242-0.32,0.516-0.344,0.695L167.061,204.85z"/>
		<path d="M177.413,206.146c0,1.688-0.969,2.781-2.453,2.781c-1.617,0-2.43-1.297-2.43-2.844c0-1.352,0.758-2.75,2.422-2.766
			C176.562,203.303,177.413,204.568,177.413,206.146z M173.858,204.467c-0.461,0.508-0.539,1.203-0.539,1.711
			c0,1.305,0.703,2.117,1.656,2.117c0.391,0,0.766-0.148,1.055-0.414c0.461-0.445,0.602-1.102,0.602-1.742
			c0-0.57-0.125-1.078-0.344-1.438c-0.188-0.312-0.625-0.773-1.336-0.75C174.569,203.959,174.163,204.123,173.858,204.467z"/>
	</g>
	<g>
		<path d="M89.845,208.162h2.711v0.641h-4.414v-0.734c0.688-0.328,1.812-0.875,2.672-1.516c0.398-0.289,0.828-0.664,0.828-1.289
			c0-0.789-0.617-1.266-1.406-1.266c-0.438,0-0.797,0.148-1.023,0.367c-0.359,0.352-0.375,0.797-0.391,1.172l-0.758-0.109
			c0.016-0.312,0.039-0.703,0.305-1.117c0.32-0.508,0.977-0.961,1.898-0.961c1.445,0,2.156,1.008,2.156,1.891
			c0,0.531-0.234,1.023-0.609,1.398c-0.75,0.75-2.75,1.609-2.75,1.586C89.423,208.178,89.509,208.17,89.845,208.162z"/>
		<path d="M98.354,206.146c0,1.688-0.969,2.781-2.453,2.781c-1.617,0-2.43-1.297-2.43-2.844c0-1.352,0.758-2.75,2.422-2.766
			C97.502,203.303,98.354,204.568,98.354,206.146z M94.799,204.467c-0.461,0.508-0.539,1.203-0.539,1.711
			c0,1.305,0.703,2.117,1.656,2.117c0.391,0,0.766-0.148,1.055-0.414c0.461-0.445,0.602-1.102,0.602-1.742
			c0-0.57-0.125-1.078-0.344-1.438c-0.188-0.312-0.625-0.773-1.336-0.75C95.51,203.959,95.104,204.123,94.799,204.467z"/>
	</g>
	<g>
		<path d="M10.395,204.334c0.305-0.008,0.633-0.016,1.031-0.227c0.398-0.203,0.531-0.461,0.648-0.672h0.586v5.367h-0.773v-4.188
			c-0.461,0.203-0.75,0.227-1.492,0.25V204.334z"/>
		<path d="M19.607,206.146c0,1.688-0.969,2.781-2.453,2.781c-1.617,0-2.43-1.297-2.43-2.844c0-1.352,0.758-2.75,2.422-2.766
			C18.755,203.303,19.607,204.568,19.607,206.146z M16.052,204.467c-0.461,0.508-0.539,1.203-0.539,1.711
			c0,1.305,0.703,2.117,1.656,2.117c0.391,0,0.766-0.148,1.055-0.414c0.461-0.445,0.602-1.102,0.602-1.742
			c0-0.57-0.125-1.078-0.344-1.438c-0.188-0.312-0.625-0.773-1.336-0.75C16.763,203.959,16.357,204.123,16.052,204.467z"/>
	</g>
	<g>
		<path d="M42.882,193.919h1.492l2.664,5.516h-1.547l-0.469-1.039h-2.828l-0.469,1.039h-1.508L42.882,193.919z M43.757,195.614
			c-0.039-0.07-0.07-0.148-0.094-0.219s-0.039-0.141-0.047-0.219c-0.023,0.07-0.039,0.133-0.055,0.195
			c-0.031,0.07-0.055,0.141-0.086,0.211l-0.836,1.836h1.938L43.757,195.614z"/>
	</g>
	<rect x="1.919" y="22.635" fill="#B2B2B2" stroke="#000000" width="653.375" height="163.321"/>
	<rect x="283.214" y="106.086" fill="#30D469" stroke="#000000" width="90.193" height="72.013"/>
	<polygon fill="#00B8E8" stroke="#000000" points="174.667,132.834 196.075,132.834 196.075,29.217 88.514,29.217 88.514,178.167 
		174.667,178.167 	"/>
	<rect x="205.213" y="1.695" fill="#8C8C8C" stroke="#000000" width="246.188" height="28.326"/>
	<g>
		<path fill="#FFFFFF" d="M301.454,13.193h3.406c0.586,0,1.344,0.023,1.781,0.648c0.195,0.281,0.305,0.664,0.305,1.086
			c0,0.531-0.172,0.891-0.375,1.133c-0.453,0.547-1.117,0.578-1.828,0.578h-1.93v2.078h-1.359V13.193z M302.813,15.67h1.703
			c0.445,0,1.055-0.008,1.055-0.742c0-0.297-0.102-0.484-0.234-0.609c-0.188-0.164-0.391-0.164-0.969-0.164h-1.555V15.67z"/>
		<path fill="#FFFFFF" d="M307.812,13.201h3.797c0.625,0,1.195,0.055,1.656,0.586c0.281,0.328,0.359,0.742,0.359,1.062
			c0,0.422-0.141,0.922-0.531,1.219c-0.297,0.227-0.68,0.305-0.898,0.344l1.672,2.305h-1.625l-1.477-2.219h-1.57v2.219h-1.383
			V13.201z M309.195,15.521h2.203c0.297,0,0.828-0.039,0.828-0.656c0-0.109-0.016-0.297-0.109-0.43
			c-0.102-0.133-0.234-0.266-0.781-0.266h-2.141V15.521z"/>
		<path fill="#FFFFFF" d="M314.702,13.201h5.141v0.992h-3.758v1.242h3.633v0.977h-3.633v1.32h3.914v0.984h-5.297V13.201z"/>
		<path fill="#FFFFFF" d="M321.885,17.006c0.312,0.664,1.102,0.867,1.852,0.867c0.336,0,1.391-0.055,1.391-0.727
			c0-0.398-0.383-0.492-0.68-0.547c-0.227-0.047-1.359-0.219-1.617-0.266c-0.508-0.094-1.789-0.336-1.789-1.586
			c0-0.273,0.078-0.555,0.219-0.781c0.461-0.742,1.477-0.938,2.352-0.938c0.805,0,1.422,0.117,1.992,0.43
			c0.562,0.305,0.805,0.711,0.914,0.891l-1.312,0.328c-0.047-0.086-0.156-0.289-0.484-0.453c-0.367-0.18-0.844-0.211-1.109-0.211
			c-0.609,0-1.234,0.117-1.234,0.641c0,0.359,0.32,0.453,0.734,0.547c0.227,0.047,1.352,0.234,1.609,0.289
			c0.641,0.117,1.727,0.352,1.727,1.562c0,1.773-2.109,1.836-2.805,1.836c-0.906,0-2.305-0.156-3.016-1.555L321.885,17.006z"/>
		<path fill="#FFFFFF" d="M328.447,17.006c0.312,0.664,1.102,0.867,1.852,0.867c0.336,0,1.391-0.055,1.391-0.727
			c0-0.398-0.383-0.492-0.68-0.547c-0.227-0.047-1.359-0.219-1.617-0.266c-0.508-0.094-1.789-0.336-1.789-1.586
			c0-0.273,0.078-0.555,0.219-0.781c0.461-0.742,1.477-0.938,2.352-0.938c0.805,0,1.422,0.117,1.992,0.43
			c0.562,0.305,0.805,0.711,0.914,0.891l-1.312,0.328c-0.047-0.086-0.156-0.289-0.484-0.453c-0.367-0.18-0.844-0.211-1.109-0.211
			c-0.609,0-1.234,0.117-1.234,0.641c0,0.359,0.32,0.453,0.734,0.547c0.227,0.047,1.352,0.234,1.609,0.289
			c0.641,0.117,1.727,0.352,1.727,1.562c0,1.773-2.109,1.836-2.805,1.836c-0.906,0-2.305-0.156-3.016-1.555L328.447,17.006z"/>
		<path fill="#FFFFFF" d="M336.894,13.201h3.578c0.57,0.016,1.266,0.031,1.641,0.57c0.195,0.281,0.219,0.586,0.219,0.781
			c0,0.148-0.016,0.461-0.219,0.734c-0.227,0.297-0.523,0.391-0.695,0.438c0.344,0.094,1.195,0.305,1.195,1.406
			c0,0.32-0.07,0.656-0.25,0.93c-0.43,0.648-1.141,0.648-1.68,0.656h-3.789V13.201z M338.261,15.373h1.977
			c0.164,0,0.32-0.008,0.445-0.055c0.328-0.133,0.328-0.5,0.328-0.562c0-0.586-0.445-0.594-0.664-0.594h-2.086V15.373z
			 M338.261,17.748h2.07c0.312,0,0.898,0.008,0.898-0.75c0-0.664-0.523-0.664-0.727-0.664h-2.242V17.748z"/>
		<path fill="#FFFFFF" d="M349.608,14.1c0.227,0.273,0.594,0.883,0.594,1.805c0,1.758-1.141,2.992-3.367,2.992
			s-3.406-1.211-3.406-2.93c0-1.898,1.359-2.859,3.172-2.938C347.687,12.982,348.921,13.264,349.608,14.1z M344.851,15.998
			c0,0.672,0.25,1.023,0.352,1.156c0.133,0.188,0.539,0.758,1.609,0.758c1.289,0,1.977-0.875,1.977-1.938
			c0-1.234-0.93-1.992-2.031-1.953C345.835,14.053,344.851,14.662,344.851,15.998z"/>
		<path fill="#FFFFFF" d="M350.669,13.201h1.727l1.211,1.617c0.086,0.094,0.102,0.117,0.156,0.234
			c0.039-0.125,0.055-0.141,0.133-0.242l1.258-1.609h1.695l-2.195,2.625l2.516,2.891h-1.75l-1.531-1.898
			c-0.07-0.102-0.086-0.125-0.125-0.227c-0.055,0.125-0.062,0.141-0.141,0.25l-1.516,1.875h-1.758l2.523-2.891L350.669,13.201z"/>
	</g>
	<g>
		<path d="M416.555,193.919h5.141v0.992h-3.758v1.242h3.633v0.977h-3.633v1.32h3.914v0.984h-5.297V193.919z"/>
	</g>
	<g>
		<path d="M512.821,193.919h5.102v0.992h-3.727v1.414h3.508v0.977h-3.508v2.133h-1.375V193.919z"/>
	</g>
	<g>
		<path d="M139.313,193.922h3.578c0.57,0.016,1.266,0.031,1.641,0.57c0.195,0.281,0.219,0.586,0.219,0.781
			c0,0.148-0.016,0.461-0.219,0.734c-0.227,0.297-0.523,0.391-0.695,0.438c0.344,0.094,1.195,0.305,1.195,1.406
			c0,0.32-0.07,0.656-0.25,0.93c-0.43,0.648-1.141,0.648-1.68,0.656h-3.789V193.922z M140.681,196.094h1.977
			c0.164,0,0.32-0.008,0.445-0.055c0.328-0.133,0.328-0.5,0.328-0.562c0-0.586-0.445-0.594-0.664-0.594h-2.086V196.094z
			 M140.681,198.469h2.07c0.312,0,0.898,0.008,0.898-0.75c0-0.664-0.523-0.664-0.727-0.664h-2.242V198.469z"/>
	</g>
	<g>
		<path d="M615.571,198.802c-0.594,0.578-1.445,0.797-2.281,0.797c-2.609,0-3.328-1.625-3.328-2.945c0-0.719,0.258-1.414,0.75-1.945
			c0.914-0.977,2.344-0.977,2.773-0.977c0.539,0,1.406,0.062,2.164,0.523c0.602,0.375,0.836,0.797,0.977,1.047l-1.523,0.211
			c-0.227-0.273-0.625-0.758-1.672-0.758c-1.18,0-2.047,0.688-2.047,1.914c0,1.078,0.742,1.922,2.086,1.922
			c0.656,0,1.203-0.211,1.547-0.484c0.328-0.258,0.391-0.477,0.453-0.633h-1.812v-0.992h2.969v2.953h-1.055V198.802z"/>
	</g>
	<g>
		<path d="M479.388,204.85c0.078-0.305,0.18-0.758,0.664-1.117c0.414-0.305,0.969-0.406,1.477-0.406
			c1.391,0,2.133,0.664,2.133,1.516c0,0.219-0.062,0.445-0.18,0.625c-0.188,0.289-0.445,0.383-0.641,0.453
			c0.164,0.062,0.43,0.148,0.68,0.422c0.328,0.352,0.352,0.75,0.352,0.938c0,0.969-0.836,1.633-2.266,1.633
			c-0.281,0-0.898-0.039-1.312-0.203c-0.836-0.328-1.008-0.984-1.109-1.359l0.734-0.172c0.07,0.352,0.227,1.102,1.695,1.102
			c0.797,0,1.453-0.289,1.453-1.039c0-0.32-0.133-0.539-0.25-0.656c-0.258-0.25-0.703-0.297-1.352-0.297
			c-0.172,0-0.344,0-0.523,0.008v-0.586c0.375,0.008,0.812,0.008,1.148-0.047c0.547-0.094,0.766-0.406,0.766-0.758
			c0-0.289-0.148-0.547-0.352-0.703c-0.211-0.164-0.531-0.266-0.953-0.266c-0.359,0-0.781,0.086-1.094,0.352
			c-0.289,0.242-0.32,0.516-0.344,0.695L479.388,204.85z"/>
		<path d="M489.741,206.146c0,1.688-0.969,2.781-2.453,2.781c-1.617,0-2.43-1.297-2.43-2.844c0-1.352,0.758-2.75,2.422-2.766
			C488.89,203.303,489.741,204.568,489.741,206.146z M486.187,204.467c-0.461,0.508-0.539,1.203-0.539,1.711
			c0,1.305,0.703,2.117,1.656,2.117c0.391,0,0.766-0.148,1.055-0.414c0.461-0.445,0.602-1.102,0.602-1.742
			c0-0.57-0.125-1.078-0.344-1.438c-0.188-0.312-0.625-0.773-1.336-0.75C486.897,203.959,486.491,204.123,486.187,204.467z"/>
	</g>
	<g>
		<path d="M560.165,208.162h2.711v0.641h-4.414v-0.734c0.688-0.328,1.812-0.875,2.672-1.516c0.398-0.289,0.828-0.664,0.828-1.289
			c0-0.789-0.617-1.266-1.406-1.266c-0.438,0-0.797,0.148-1.023,0.367c-0.359,0.352-0.375,0.797-0.391,1.172l-0.758-0.109
			c0.016-0.312,0.039-0.703,0.305-1.117c0.32-0.508,0.977-0.961,1.898-0.961c1.445,0,2.156,1.008,2.156,1.891
			c0,0.531-0.234,1.023-0.609,1.398c-0.75,0.75-2.75,1.609-2.75,1.586C559.743,208.178,559.829,208.17,560.165,208.162z"/>
		<path d="M568.675,206.146c0,1.688-0.969,2.781-2.453,2.781c-1.617,0-2.43-1.297-2.43-2.844c0-1.352,0.758-2.75,2.422-2.766
			C567.823,203.303,568.675,204.568,568.675,206.146z M565.12,204.467c-0.461,0.508-0.539,1.203-0.539,1.711
			c0,1.305,0.703,2.117,1.656,2.117c0.391,0,0.766-0.148,1.055-0.414c0.461-0.445,0.602-1.102,0.602-1.742
			c0-0.57-0.125-1.078-0.344-1.438c-0.188-0.312-0.625-0.773-1.336-0.75C565.831,203.959,565.425,204.123,565.12,204.467z"/>
	</g>
	<g>
		<path d="M637.712,204.334c0.305-0.008,0.633-0.016,1.031-0.227c0.398-0.203,0.531-0.461,0.648-0.672h0.586v5.367h-0.773v-4.188
			c-0.461,0.203-0.75,0.227-1.492,0.25V204.334z"/>
		<path d="M646.925,206.146c0,1.688-0.969,2.781-2.453,2.781c-1.617,0-2.43-1.297-2.43-2.844c0-1.352,0.758-2.75,2.422-2.766
			C646.073,203.303,646.925,204.568,646.925,206.146z M643.37,204.467c-0.461,0.508-0.539,1.203-0.539,1.711
			c0,1.305,0.703,2.117,1.656,2.117c0.391,0,0.766-0.148,1.055-0.414c0.461-0.445,0.602-1.102,0.602-1.742
			c0-0.57-0.125-1.078-0.344-1.438c-0.188-0.312-0.625-0.773-1.336-0.75C644.081,203.959,643.675,204.123,643.37,204.467z"/>
	</g>
	<g>
		<path d="M247.87,203.42h0.609v3.469h0.922v0.617h-0.922v1.297h-0.727v-1.297h-3.125v-0.625L247.87,203.42z M247.753,205.1
			c0-0.117,0-0.234,0.008-0.359c0-0.117,0.008-0.234,0.016-0.359c0,0.016-0.367,0.438-0.406,0.477l-1.898,2.031h2.281V205.1z"/>
		<path d="M255.194,206.146c0,1.688-0.969,2.781-2.453,2.781c-1.617,0-2.43-1.297-2.43-2.844c0-1.352,0.758-2.75,2.422-2.766
			C254.343,203.303,255.194,204.568,255.194,206.146z M251.64,204.467c-0.461,0.508-0.539,1.203-0.539,1.711
			c0,1.305,0.703,2.117,1.656,2.117c0.391,0,0.766-0.148,1.055-0.414c0.461-0.445,0.602-1.102,0.602-1.742
			c0-0.57-0.125-1.078-0.344-1.438c-0.188-0.312-0.625-0.773-1.336-0.75C252.351,203.959,251.944,204.123,251.64,204.467z"/>
	</g>
	<g>
		<path d="M326.368,193.919h3.016c0.203,0.008,0.406,0.008,0.609,0.031c1.609,0.148,2.406,1.273,2.406,2.695
			c0,0.633-0.156,1.258-0.539,1.766c-0.773,1.008-1.812,1.016-2.648,1.023h-2.844V193.919z M327.743,194.896v3.562h1.524
			c0.492-0.008,1.055-0.016,1.422-0.539c0.164-0.227,0.336-0.609,0.336-1.305c0-0.523-0.117-0.883-0.273-1.133
			c-0.359-0.57-0.938-0.578-1.414-0.586H327.743z"/>
		<path d="M324.425,203.42h4.125l-0.039,0.664h-3.5l-0.094,1.438c0.219-0.172,0.719-0.562,1.68-0.562
			c1.273,0,2.211,0.742,2.211,1.883c0,1.227-1.055,2.062-2.414,2.062c-0.539,0-1.086-0.125-1.539-0.414
			c-0.547-0.359-0.711-0.805-0.812-1.086l0.734-0.156c0.062,0.141,0.164,0.359,0.352,0.547c0.211,0.211,0.648,0.492,1.32,0.492
			c1.117,0,1.578-0.734,1.578-1.383c0-1.016-0.898-1.32-1.523-1.32c-0.523,0-1.281,0.211-1.633,0.891l-0.602-0.117L324.425,203.42z"
			/>
		<path d="M334.606,206.146c0,1.688-0.969,2.781-2.453,2.781c-1.617,0-2.43-1.297-2.43-2.844c0-1.352,0.758-2.75,2.422-2.766
			C333.755,203.303,334.606,204.568,334.606,206.146z M331.052,204.467c-0.461,0.508-0.539,1.203-0.539,1.711
			c0,1.305,0.703,2.117,1.656,2.117c0.391,0,0.766-0.148,1.055-0.414c0.461-0.445,0.602-1.102,0.602-1.742
			c0-0.57-0.125-1.078-0.344-1.438c-0.188-0.312-0.625-0.773-1.336-0.75C331.763,203.959,331.356,204.123,331.052,204.467z"/>
	</g>
	<g>
		<path d="M242.72,197.56c-0.102,0.344-0.227,0.742-0.719,1.195c-0.445,0.406-1.18,0.867-2.586,0.867
			c-1.961,0-3.32-1.023-3.32-2.953c0-2.078,1.656-2.922,3.398-2.922c0.633,0,2.445,0.141,3.164,1.719l-1.516,0.188
			c-0.148-0.234-0.578-0.891-1.648-0.891c-1.25,0-1.961,0.867-1.961,1.922c0,1.203,0.945,1.922,1.992,1.922
			c1.195,0,1.562-0.703,1.742-1.039L242.72,197.56z"/>
	</g>
	<rect x="283.215" y="35.884" fill="#FF9E00" stroke="#000000" width="90.192" height="74.256"/>
	<g>
		<path d="M317.28,69.573h2.092l2.027,4.967c0.118,0.311,0.15,0.407,0.225,0.719c0.097-0.344,0.118-0.43,0.247-0.719l2.038-4.967
			h2.038l-3.4,7.573h-1.845L317.28,69.573z"/>
		<path d="M326.934,69.573h1.899v7.573h-1.899V69.573z"/>
		<path d="M330.597,69.562h4.678c0.805,0,1.845,0.032,2.445,0.891c0.268,0.386,0.418,0.911,0.418,1.491
			c0,0.729-0.236,1.223-0.515,1.555c-0.622,0.751-1.534,0.794-2.511,0.794h-2.648v2.854h-1.867V69.562z M332.464,72.963h2.338
			c0.611,0,1.448-0.011,1.448-1.019c0-0.408-0.14-0.665-0.321-0.837c-0.258-0.226-0.537-0.226-1.33-0.226h-2.135V72.963z"/>
	</g>
	<g>
		<path d="M312.822,140.71c0.312,0.664,1.102,0.867,1.852,0.867c0.336,0,1.391-0.055,1.391-0.727c0-0.398-0.383-0.492-0.68-0.547
			c-0.227-0.047-1.359-0.219-1.617-0.266c-0.508-0.094-1.789-0.336-1.789-1.586c0-0.273,0.078-0.555,0.219-0.781
			c0.461-0.742,1.477-0.938,2.352-0.938c0.805,0,1.422,0.117,1.992,0.43c0.562,0.305,0.805,0.711,0.914,0.891l-1.312,0.328
			c-0.047-0.086-0.156-0.289-0.484-0.453c-0.367-0.18-0.844-0.211-1.109-0.211c-0.609,0-1.234,0.117-1.234,0.641
			c0,0.359,0.32,0.453,0.734,0.547c0.227,0.047,1.352,0.234,1.609,0.289c0.641,0.117,1.727,0.352,1.727,1.562
			c0,1.773-2.109,1.836-2.805,1.836c-0.906,0-2.305-0.156-3.016-1.555L312.822,140.71z"/>
		<path d="M318.464,136.905h1.375v3.242c0,0.492,0.102,0.906,0.625,1.156c0.445,0.211,0.844,0.195,1.25,0.18
			c0.523-0.047,0.859-0.188,1.078-0.438c0.133-0.156,0.25-0.336,0.234-0.891v-3.25h1.375v3.203
			c-0.008,0.586-0.008,1.141-0.477,1.656c-0.57,0.633-1.633,0.844-2.469,0.844c-0.391,0-0.781-0.039-1.164-0.133
			c-0.266-0.062-0.609-0.172-0.953-0.398c-0.867-0.586-0.875-1.312-0.875-1.969V136.905z"/>
		<path d="M325.799,136.897h3.407c0.586,0,1.344,0.023,1.781,0.648c0.195,0.281,0.305,0.664,0.305,1.086
			c0,0.531-0.172,0.891-0.375,1.133c-0.453,0.547-1.117,0.578-1.828,0.578h-1.93v2.078h-1.359V136.897z M327.159,139.374h1.704
			c0.445,0,1.055-0.008,1.055-0.742c0-0.297-0.102-0.484-0.234-0.609c-0.188-0.164-0.391-0.164-0.969-0.164h-1.555V139.374z"/>
		<path d="M332.158,136.905h5.141v0.992h-3.758v1.242h3.633v0.977h-3.633v1.32h3.914v0.984h-5.297V136.905z"/>
		<path d="M338.594,136.905h3.797c0.625,0,1.195,0.055,1.656,0.586c0.281,0.328,0.359,0.742,0.359,1.062
			c0,0.422-0.141,0.922-0.531,1.219c-0.297,0.227-0.68,0.305-0.898,0.344l1.672,2.305h-1.625l-1.477-2.219h-1.57v2.219h-1.383
			V136.905z M339.977,139.226h2.203c0.297,0,0.828-0.039,0.828-0.656c0-0.109-0.016-0.297-0.109-0.43
			c-0.102-0.133-0.234-0.266-0.781-0.266h-2.141V139.226z"/>
		<path d="M305.024,146.266h3.406c0.586,0,1.344,0.023,1.781,0.648c0.195,0.281,0.305,0.664,0.305,1.086
			c0,0.531-0.172,0.891-0.375,1.133c-0.453,0.547-1.117,0.578-1.828,0.578h-1.93v2.078h-1.359V146.266z M306.383,148.742h1.703
			c0.445,0,1.055-0.008,1.055-0.742c0-0.297-0.102-0.484-0.234-0.609c-0.188-0.164-0.391-0.164-0.969-0.164h-1.555V148.742z"/>
		<path d="M311.383,146.273h3.797c0.625,0,1.195,0.055,1.656,0.586c0.281,0.328,0.359,0.742,0.359,1.062
			c0,0.422-0.141,0.922-0.531,1.219c-0.297,0.227-0.68,0.305-0.898,0.344l1.672,2.305h-1.625l-1.477-2.219h-1.57v2.219h-1.383
			V146.273z M312.766,148.594h2.203c0.297,0,0.828-0.039,0.828-0.656c0-0.109-0.016-0.297-0.109-0.43
			c-0.102-0.133-0.234-0.266-0.781-0.266h-2.141V148.594z"/>
		<path d="M318.272,146.273h5.141v0.992h-3.758v1.242h3.633v0.977h-3.633v1.32h3.914v0.984h-5.297V146.273z"/>
		<path d="M324.704,146.273h1.992l1.438,3.375c0.148,0.359,0.203,0.508,0.281,0.82c0.055-0.234,0.102-0.375,0.258-0.758l1.438-3.438
			h1.977v5.516h-1.305v-3.859c0-0.164,0.023-0.305,0.055-0.516c-0.055,0.164-0.078,0.227-0.156,0.422l-1.648,3.953h-1.258
			l-1.648-3.875c-0.086-0.211-0.102-0.273-0.164-0.5c0.023,0.234,0.031,0.281,0.047,0.492v3.883h-1.305V146.273z"/>
		<path d="M333.509,146.273h1.383v5.516h-1.383V146.273z"/>
		<path d="M336.265,146.273h1.375v3.242c0,0.492,0.102,0.906,0.625,1.156c0.445,0.211,0.844,0.195,1.25,0.18
			c0.523-0.047,0.859-0.188,1.078-0.438c0.133-0.156,0.25-0.336,0.234-0.891v-3.25h1.375v3.203
			c-0.008,0.586-0.008,1.141-0.477,1.656c-0.57,0.633-1.633,0.844-2.469,0.844c-0.391,0-0.781-0.039-1.164-0.133
			c-0.266-0.062-0.609-0.172-0.953-0.398c-0.867-0.586-0.875-1.312-0.875-1.969V146.273z"/>
		<path d="M343.604,146.273h1.992l1.438,3.375c0.148,0.359,0.203,0.508,0.281,0.82c0.055-0.234,0.102-0.375,0.258-0.758l1.438-3.438
			h1.977v5.516h-1.305v-3.859c0-0.164,0.023-0.305,0.055-0.516c-0.055,0.164-0.078,0.227-0.156,0.422l-1.648,3.953h-1.258
			l-1.648-3.875c-0.086-0.211-0.102-0.273-0.164-0.5c0.023,0.234,0.031,0.281,0.047,0.492v3.883h-1.305V146.273z"/>
	</g>
	<rect x="205.218" y="35.919" fill="#30D469" stroke="#000000" width="68.858" height="142.18"/>
	<rect x="382.552" y="35.919" fill="#30D469" stroke="#000000" width="68.858" height="142.18"/>
	<g>
		<path d="M224.816,98.71c0.312,0.664,1.102,0.867,1.852,0.867c0.336,0,1.391-0.055,1.391-0.727c0-0.398-0.383-0.492-0.68-0.547
			c-0.227-0.047-1.359-0.219-1.617-0.266c-0.508-0.094-1.789-0.336-1.789-1.586c0-0.273,0.078-0.555,0.219-0.781
			c0.461-0.742,1.477-0.938,2.352-0.938c0.805,0,1.422,0.117,1.992,0.43c0.562,0.305,0.805,0.711,0.914,0.891l-1.312,0.328
			c-0.047-0.086-0.156-0.289-0.484-0.453c-0.367-0.18-0.844-0.211-1.109-0.211c-0.609,0-1.234,0.117-1.234,0.641
			c0,0.359,0.32,0.453,0.734,0.547c0.227,0.047,1.352,0.234,1.609,0.289c0.641,0.117,1.727,0.352,1.727,1.562
			c0,1.773-2.109,1.836-2.805,1.836c-0.906,0-2.305-0.156-3.016-1.555L224.816,98.71z"/>
		<path d="M230.458,94.905h1.375v3.242c0,0.492,0.102,0.906,0.625,1.156c0.445,0.211,0.844,0.195,1.25,0.18
			c0.523-0.047,0.859-0.188,1.078-0.438c0.133-0.156,0.25-0.336,0.234-0.891v-3.25h1.375v3.203
			c-0.008,0.586-0.008,1.141-0.477,1.656c-0.57,0.633-1.633,0.844-2.469,0.844c-0.391,0-0.781-0.039-1.164-0.133
			c-0.266-0.062-0.609-0.172-0.953-0.398c-0.867-0.586-0.875-1.312-0.875-1.969V94.905z"/>
		<path d="M237.793,94.897h3.406c0.586,0,1.344,0.023,1.781,0.648c0.195,0.281,0.305,0.664,0.305,1.086
			c0,0.531-0.172,0.891-0.375,1.133c-0.453,0.547-1.117,0.578-1.828,0.578h-1.93v2.078h-1.359V94.897z M239.153,97.374h1.703
			c0.445,0,1.055-0.008,1.055-0.742c0-0.297-0.102-0.484-0.234-0.609c-0.188-0.164-0.391-0.164-0.969-0.164h-1.555V97.374z"/>
		<path d="M244.152,94.905h5.141v0.992h-3.758v1.242h3.633v0.977h-3.633v1.32h3.914v0.984h-5.297V94.905z"/>
		<path d="M250.588,94.905h3.797c0.625,0,1.195,0.055,1.656,0.586c0.281,0.328,0.359,0.742,0.359,1.062
			c0,0.422-0.141,0.922-0.531,1.219c-0.297,0.227-0.68,0.305-0.898,0.344l1.672,2.305h-1.625l-1.477-2.219h-1.57v2.219h-1.383
			V94.905z M251.971,97.226h2.203c0.297,0,0.828-0.039,0.828-0.656c0-0.109-0.016-0.297-0.109-0.43
			c-0.102-0.133-0.234-0.266-0.781-0.266h-2.141V97.226z"/>
		<path d="M217.018,104.266h3.406c0.586,0,1.344,0.023,1.781,0.648c0.195,0.281,0.305,0.664,0.305,1.086
			c0,0.531-0.172,0.891-0.375,1.133c-0.453,0.547-1.117,0.578-1.828,0.578h-1.93v2.078h-1.359V104.266z M218.377,106.742h1.703
			c0.445,0,1.055-0.008,1.055-0.742c0-0.297-0.102-0.484-0.234-0.609c-0.188-0.164-0.391-0.164-0.969-0.164h-1.555V106.742z"/>
		<path d="M223.377,104.273h3.797c0.625,0,1.195,0.055,1.656,0.586c0.281,0.328,0.359,0.742,0.359,1.062
			c0,0.422-0.141,0.922-0.531,1.219c-0.297,0.227-0.68,0.305-0.898,0.344l1.672,2.305h-1.625l-1.477-2.219h-1.57v2.219h-1.383
			V104.273z M224.76,106.594h2.203c0.297,0,0.828-0.039,0.828-0.656c0-0.109-0.016-0.297-0.109-0.43
			c-0.102-0.133-0.234-0.266-0.781-0.266h-2.141V106.594z"/>
		<path d="M230.266,104.273h5.141v0.992h-3.758v1.242h3.633v0.977h-3.633v1.32h3.914v0.984h-5.297V104.273z"/>
		<path d="M236.698,104.273h1.992l1.438,3.375c0.148,0.359,0.203,0.508,0.281,0.82c0.055-0.234,0.102-0.375,0.258-0.758l1.438-3.438
			h1.977v5.516h-1.305v-3.859c0-0.164,0.023-0.305,0.055-0.516c-0.055,0.164-0.078,0.227-0.156,0.422l-1.648,3.953h-1.258
			l-1.648-3.875c-0.086-0.211-0.102-0.273-0.164-0.5c0.023,0.234,0.031,0.281,0.047,0.492v3.883h-1.305V104.273z"/>
		<path d="M245.503,104.273h1.383v5.516h-1.383V104.273z"/>
		<path d="M248.259,104.273h1.375v3.242c0,0.492,0.102,0.906,0.625,1.156c0.445,0.211,0.844,0.195,1.25,0.18
			c0.523-0.047,0.859-0.188,1.078-0.438c0.133-0.156,0.25-0.336,0.234-0.891v-3.25h1.375v3.203
			c-0.008,0.586-0.008,1.141-0.477,1.656c-0.57,0.633-1.633,0.844-2.469,0.844c-0.391,0-0.781-0.039-1.164-0.133
			c-0.266-0.062-0.609-0.172-0.953-0.398c-0.867-0.586-0.875-1.312-0.875-1.969V104.273z"/>
		<path d="M255.598,104.273h1.992l1.438,3.375c0.148,0.359,0.203,0.508,0.281,0.82c0.055-0.234,0.102-0.375,0.258-0.758l1.438-3.438
			h1.977v5.516h-1.305v-3.859c0-0.164,0.023-0.305,0.055-0.516c-0.055,0.164-0.078,0.227-0.156,0.422l-1.648,3.953h-1.258
			l-1.648-3.875c-0.086-0.211-0.102-0.273-0.164-0.5c0.023,0.234,0.031,0.281,0.047,0.492v3.883h-1.305V104.273z"/>
	</g>
	<g>
		<path d="M401.815,98.71c0.312,0.664,1.102,0.867,1.852,0.867c0.336,0,1.391-0.055,1.391-0.727c0-0.398-0.383-0.492-0.68-0.547
			c-0.227-0.047-1.359-0.219-1.617-0.266c-0.508-0.094-1.789-0.336-1.789-1.586c0-0.273,0.078-0.555,0.219-0.781
			c0.461-0.742,1.477-0.938,2.352-0.938c0.805,0,1.422,0.117,1.992,0.43c0.562,0.305,0.805,0.711,0.914,0.891l-1.312,0.328
			c-0.047-0.086-0.156-0.289-0.484-0.453c-0.367-0.18-0.844-0.211-1.109-0.211c-0.609,0-1.234,0.117-1.234,0.641
			c0,0.359,0.32,0.453,0.734,0.547c0.227,0.047,1.352,0.234,1.609,0.289c0.641,0.117,1.727,0.352,1.727,1.562
			c0,1.773-2.109,1.836-2.805,1.836c-0.906,0-2.305-0.156-3.016-1.555L401.815,98.71z"/>
		<path d="M407.458,94.905h1.375v3.242c0,0.492,0.102,0.906,0.625,1.156c0.445,0.211,0.844,0.195,1.25,0.18
			c0.523-0.047,0.859-0.188,1.078-0.438c0.133-0.156,0.25-0.336,0.234-0.891v-3.25h1.375v3.203
			c-0.008,0.586-0.008,1.141-0.477,1.656c-0.57,0.633-1.633,0.844-2.469,0.844c-0.391,0-0.781-0.039-1.164-0.133
			c-0.266-0.062-0.609-0.172-0.953-0.398c-0.867-0.586-0.875-1.312-0.875-1.969V94.905z"/>
		<path d="M414.793,94.897h3.406c0.586,0,1.344,0.023,1.781,0.648c0.195,0.281,0.305,0.664,0.305,1.086
			c0,0.531-0.172,0.891-0.375,1.133c-0.453,0.547-1.117,0.578-1.828,0.578h-1.93v2.078h-1.359V94.897z M416.152,97.374h1.703
			c0.445,0,1.055-0.008,1.055-0.742c0-0.297-0.102-0.484-0.234-0.609c-0.188-0.164-0.391-0.164-0.969-0.164h-1.555V97.374z"/>
		<path d="M421.151,94.905h5.141v0.992h-3.758v1.242h3.633v0.977h-3.633v1.32h3.914v0.984h-5.297V94.905z"/>
		<path d="M427.587,94.905h3.797c0.625,0,1.195,0.055,1.656,0.586c0.281,0.328,0.359,0.742,0.359,1.062
			c0,0.422-0.141,0.922-0.531,1.219c-0.297,0.227-0.68,0.305-0.898,0.344l1.672,2.305h-1.625l-1.477-2.219h-1.57v2.219h-1.383
			V94.905z M428.97,97.226h2.203c0.297,0,0.828-0.039,0.828-0.656c0-0.109-0.016-0.297-0.109-0.43
			c-0.102-0.133-0.234-0.266-0.781-0.266h-2.141V97.226z"/>
		<path d="M394.018,104.266h3.406c0.586,0,1.344,0.023,1.781,0.648c0.195,0.281,0.305,0.664,0.305,1.086
			c0,0.531-0.172,0.891-0.375,1.133c-0.453,0.547-1.117,0.578-1.828,0.578h-1.93v2.078h-1.359V104.266z M395.377,106.742h1.703
			c0.445,0,1.055-0.008,1.055-0.742c0-0.297-0.102-0.484-0.234-0.609c-0.188-0.164-0.391-0.164-0.969-0.164h-1.555V106.742z"/>
		<path d="M400.376,104.273h3.797c0.625,0,1.195,0.055,1.656,0.586c0.281,0.328,0.359,0.742,0.359,1.062
			c0,0.422-0.141,0.922-0.531,1.219c-0.297,0.227-0.68,0.305-0.898,0.344l1.672,2.305h-1.625l-1.477-2.219h-1.57v2.219h-1.383
			V104.273z M401.759,106.594h2.203c0.297,0,0.828-0.039,0.828-0.656c0-0.109-0.016-0.297-0.109-0.43
			c-0.102-0.133-0.234-0.266-0.781-0.266h-2.141V106.594z"/>
		<path d="M407.266,104.273h5.141v0.992h-3.758v1.242h3.633v0.977h-3.633v1.32h3.914v0.984h-5.297V104.273z"/>
		<path d="M413.697,104.273h1.992l1.438,3.375c0.148,0.359,0.203,0.508,0.281,0.82c0.055-0.234,0.102-0.375,0.258-0.758l1.438-3.438
			h1.977v5.516h-1.305v-3.859c0-0.164,0.023-0.305,0.055-0.516c-0.055,0.164-0.078,0.227-0.156,0.422l-1.648,3.953h-1.258
			l-1.648-3.875c-0.086-0.211-0.102-0.273-0.164-0.5c0.023,0.234,0.031,0.281,0.047,0.492v3.883h-1.305V104.273z"/>
		<path d="M422.503,104.273h1.383v5.516h-1.383V104.273z"/>
		<path d="M425.259,104.273h1.375v3.242c0,0.492,0.102,0.906,0.625,1.156c0.445,0.211,0.844,0.195,1.25,0.18
			c0.523-0.047,0.859-0.188,1.078-0.438c0.133-0.156,0.25-0.336,0.234-0.891v-3.25h1.375v3.203
			c-0.008,0.586-0.008,1.141-0.477,1.656c-0.57,0.633-1.633,0.844-2.469,0.844c-0.391,0-0.781-0.039-1.164-0.133
			c-0.266-0.062-0.609-0.172-0.953-0.398c-0.867-0.586-0.875-1.312-0.875-1.969V104.273z"/>
		<path d="M432.598,104.273h1.992l1.438,3.375c0.148,0.359,0.203,0.508,0.281,0.82c0.055-0.234,0.102-0.375,0.258-0.758l1.438-3.438
			h1.977v5.516h-1.305v-3.859c0-0.164,0.023-0.305,0.055-0.516c-0.055,0.164-0.078,0.227-0.156,0.422l-1.648,3.953h-1.258
			l-1.648-3.875c-0.086-0.211-0.102-0.273-0.164-0.5c0.023,0.234,0.031,0.281,0.047,0.492v3.883h-1.305V104.273z"/>
	</g>
	<g>
		<path d="M117.97,90.588h3.406c0.586,0,1.344,0.023,1.781,0.648c0.195,0.281,0.305,0.664,0.305,1.086
			c0,0.531-0.172,0.891-0.375,1.133c-0.453,0.547-1.117,0.578-1.828,0.578h-1.93v2.078h-1.359V90.588z M119.33,93.064h1.703
			c0.445,0,1.055-0.008,1.055-0.742c0-0.297-0.102-0.484-0.234-0.609c-0.188-0.164-0.391-0.164-0.969-0.164h-1.555V93.064z"/>
		<path d="M124.329,90.596h3.797c0.625,0,1.195,0.055,1.656,0.586c0.281,0.328,0.359,0.742,0.359,1.062
			c0,0.422-0.141,0.922-0.531,1.219c-0.297,0.227-0.68,0.305-0.898,0.344l1.672,2.305h-1.625l-1.477-2.219h-1.57v2.219h-1.383
			V90.596z M125.712,92.916h2.203c0.297,0,0.828-0.039,0.828-0.656c0-0.109-0.016-0.297-0.109-0.43
			c-0.102-0.133-0.234-0.266-0.781-0.266h-2.141V92.916z"/>
		<path d="M131.218,90.596h5.141v0.992h-3.758v1.242h3.633v0.977h-3.633v1.32h3.914v0.984h-5.297V90.596z"/>
		<path d="M137.65,90.596h1.992l1.438,3.375c0.148,0.359,0.203,0.508,0.281,0.82c0.055-0.234,0.102-0.375,0.258-0.758l1.438-3.438
			h1.977v5.516h-1.305v-3.859c0-0.164,0.023-0.305,0.055-0.516c-0.055,0.164-0.078,0.227-0.156,0.422l-1.648,3.953h-1.258
			l-1.648-3.875c-0.086-0.211-0.102-0.273-0.164-0.5c0.023,0.234,0.031,0.281,0.047,0.492v3.883h-1.305V90.596z"/>
		<path d="M146.456,90.596h1.383v5.516h-1.383V90.596z"/>
		<path d="M149.211,90.596h1.375v3.242c0,0.492,0.102,0.906,0.625,1.156c0.445,0.211,0.844,0.195,1.25,0.18
			c0.523-0.047,0.859-0.188,1.078-0.438c0.133-0.156,0.25-0.336,0.234-0.891v-3.25h1.375v3.203
			c-0.008,0.586-0.008,1.141-0.477,1.656c-0.57,0.633-1.633,0.844-2.469,0.844c-0.391,0-0.781-0.039-1.164-0.133
			c-0.266-0.062-0.609-0.172-0.953-0.398c-0.867-0.586-0.875-1.312-0.875-1.969V90.596z"/>
		<path d="M156.55,90.596h1.992l1.438,3.375c0.148,0.359,0.203,0.508,0.281,0.82c0.055-0.234,0.102-0.375,0.258-0.758l1.438-3.438
			h1.977v5.516h-1.305v-3.859c0-0.164,0.023-0.305,0.055-0.516c-0.055,0.164-0.078,0.227-0.156,0.422l-1.648,3.953h-1.258
			l-1.648-3.875c-0.086-0.211-0.102-0.273-0.164-0.5c0.023,0.234,0.031,0.281,0.047,0.492v3.883h-1.305V90.596z"/>
	</g>
	<rect x="10.5" y="29.168" fill="#FFFF00" stroke="#000000" width="69" height="148.834"/>
	<g>
		<path d="M19.625,90.82h3.797c0.625,0,1.195,0.055,1.656,0.586c0.281,0.328,0.359,0.742,0.359,1.062
			c0,0.422-0.141,0.922-0.531,1.219c-0.297,0.227-0.68,0.305-0.898,0.344l1.672,2.305h-1.625l-1.477-2.219h-1.57v2.219h-1.383V90.82
			z M21.008,93.141h2.203c0.297,0,0.828-0.039,0.828-0.656c0-0.109-0.016-0.297-0.109-0.43c-0.102-0.133-0.234-0.266-0.781-0.266
			h-2.141V93.141z"/>
		<path d="M26.514,90.82h5.141v0.992h-3.758v1.242h3.633v0.977h-3.633v1.32h3.914v0.984h-5.297V90.82z"/>
		<path d="M33.697,94.625c0.312,0.664,1.102,0.867,1.852,0.867c0.336,0,1.391-0.055,1.391-0.727c0-0.398-0.383-0.492-0.68-0.547
			C36.033,94.172,34.9,94,34.643,93.953c-0.508-0.094-1.789-0.336-1.789-1.586c0-0.273,0.078-0.555,0.219-0.781
			c0.461-0.742,1.477-0.938,2.352-0.938c0.805,0,1.422,0.117,1.992,0.43c0.562,0.305,0.805,0.711,0.914,0.891l-1.312,0.328
			c-0.047-0.086-0.156-0.289-0.484-0.453c-0.367-0.18-0.844-0.211-1.109-0.211c-0.609,0-1.234,0.117-1.234,0.641
			c0,0.359,0.32,0.453,0.734,0.547c0.227,0.047,1.352,0.234,1.609,0.289c0.641,0.117,1.727,0.352,1.727,1.562
			c0,1.773-2.109,1.836-2.805,1.836c-0.906,0-2.305-0.156-3.016-1.555L33.697,94.625z"/>
		<path d="M39.396,90.82h5.141v0.992h-3.758v1.242h3.633v0.977h-3.633v1.32h3.914v0.984h-5.297V90.82z"/>
		<path d="M45.832,90.82h3.797c0.625,0,1.195,0.055,1.656,0.586c0.281,0.328,0.359,0.742,0.359,1.062
			c0,0.422-0.141,0.922-0.531,1.219c-0.297,0.227-0.68,0.305-0.898,0.344l1.672,2.305h-1.625l-1.477-2.219h-1.57v2.219h-1.383V90.82
			z M47.214,93.141h2.203c0.297,0,0.828-0.039,0.828-0.656c0-0.109-0.016-0.297-0.109-0.43c-0.102-0.133-0.234-0.266-0.781-0.266
			h-2.141V93.141z"/>
		<path d="M52.015,90.82h1.523l1.477,3.617c0.086,0.227,0.109,0.297,0.164,0.523c0.07-0.25,0.086-0.312,0.18-0.523l1.484-3.617
			h1.484l-2.477,5.516h-1.344L52.015,90.82z"/>
		<path d="M59.131,90.82h5.141v0.992h-3.758v1.242h3.633v0.977h-3.633v1.32h3.914v0.984h-5.297V90.82z"/>
		<path d="M65.563,90.82h3.016c0.203,0.008,0.406,0.008,0.609,0.031c1.609,0.148,2.406,1.273,2.406,2.695
			c0,0.633-0.156,1.258-0.539,1.766c-0.773,1.008-1.812,1.016-2.648,1.023h-2.844V90.82z M66.938,91.797v3.562h1.523
			c0.492-0.008,1.055-0.016,1.422-0.539c0.164-0.227,0.336-0.609,0.336-1.305c0-0.523-0.117-0.883-0.273-1.133
			c-0.359-0.57-0.938-0.578-1.414-0.586H66.938z"/>
	</g>
	<rect x="10.503" y="165.137" fill="#D424ED" stroke="#000000" width="69.005" height="12.962"/>
	<rect x="88.514" y="165.137" fill="#D424ED" stroke="#000000" width="86.153" height="12.962"/>
	<rect x="10.5" y="22.627" fill="#00B8E8" stroke="#000000" width="69" height="6.541"/>
	<rect x="88.542" y="22.627" fill="#30D469" stroke="#000000" width="107.5" height="6.541"/>
	<polygon fill="#00B8E8" stroke="#000000" points="481.911,132.834 460.503,132.834 460.503,29.217 568.064,29.217 568.064,178.167 
		481.911,178.167 	"/>
	<rect x="577.078" y="29.168" fill="#FFFF00" stroke="#000000" width="68.999" height="148.834"/>
	<rect x="577.078" y="22.627" fill="#00B8E8" stroke="#000000" width="68.999" height="6.541"/>
	<rect x="460.536" y="22.627" fill="#30D469" stroke="#000000" width="107.5" height="6.541"/>
	<g>
		<path d="M489.47,90.588h3.406c0.586,0,1.344,0.023,1.781,0.648c0.195,0.281,0.305,0.664,0.305,1.086
			c0,0.531-0.172,0.891-0.375,1.133c-0.453,0.547-1.117,0.578-1.828,0.578h-1.93v2.078h-1.359V90.588z M490.829,93.064h1.703
			c0.445,0,1.055-0.008,1.055-0.742c0-0.297-0.102-0.484-0.234-0.609c-0.188-0.164-0.391-0.164-0.969-0.164h-1.555V93.064z"/>
		<path d="M495.829,90.596h3.797c0.625,0,1.195,0.055,1.656,0.586c0.281,0.328,0.359,0.742,0.359,1.062
			c0,0.422-0.141,0.922-0.531,1.219c-0.297,0.227-0.68,0.305-0.898,0.344l1.672,2.305h-1.625l-1.477-2.219h-1.57v2.219h-1.383
			V90.596z M497.212,92.916h2.203c0.297,0,0.828-0.039,0.828-0.656c0-0.109-0.016-0.297-0.109-0.43
			c-0.102-0.133-0.234-0.266-0.781-0.266h-2.141V92.916z"/>
		<path d="M502.718,90.596h5.141v0.992h-3.758v1.242h3.633v0.977h-3.633v1.32h3.914v0.984h-5.297V90.596z"/>
		<path d="M509.149,90.596h1.992l1.438,3.375c0.148,0.359,0.203,0.508,0.281,0.82c0.055-0.234,0.102-0.375,0.258-0.758l1.438-3.438
			h1.977v5.516h-1.305v-3.859c0-0.164,0.023-0.305,0.055-0.516c-0.055,0.164-0.078,0.227-0.156,0.422l-1.648,3.953h-1.258
			l-1.648-3.875c-0.086-0.211-0.102-0.273-0.164-0.5c0.023,0.234,0.031,0.281,0.047,0.492v3.883h-1.305V90.596z"/>
		<path d="M517.956,90.596h1.383v5.516h-1.383V90.596z"/>
		<path d="M520.711,90.596h1.375v3.242c0,0.492,0.102,0.906,0.625,1.156c0.445,0.211,0.844,0.195,1.25,0.18
			c0.523-0.047,0.859-0.188,1.078-0.438c0.133-0.156,0.25-0.336,0.234-0.891v-3.25h1.375v3.203
			c-0.008,0.586-0.008,1.141-0.477,1.656c-0.57,0.633-1.633,0.844-2.469,0.844c-0.391,0-0.781-0.039-1.164-0.133
			c-0.266-0.062-0.609-0.172-0.953-0.398c-0.867-0.586-0.875-1.312-0.875-1.969V90.596z"/>
		<path d="M528.05,90.596h1.992l1.438,3.375c0.148,0.359,0.203,0.508,0.281,0.82c0.055-0.234,0.102-0.375,0.258-0.758l1.438-3.438
			h1.977v5.516h-1.305v-3.859c0-0.164,0.023-0.305,0.055-0.516c-0.055,0.164-0.078,0.227-0.156,0.422l-1.648,3.953h-1.258
			l-1.648-3.875c-0.086-0.211-0.102-0.273-0.164-0.5c0.023,0.234,0.031,0.281,0.047,0.492v3.883h-1.305V90.596z"/>
	</g>
	<g>
		<path d="M586.125,90.82h3.797c0.625,0,1.195,0.055,1.656,0.586c0.281,0.328,0.359,0.742,0.359,1.062
			c0,0.422-0.141,0.922-0.531,1.219c-0.297,0.227-0.68,0.305-0.898,0.344l1.672,2.305h-1.625l-1.477-2.219h-1.57v2.219h-1.383V90.82
			z M587.508,93.141h2.203c0.297,0,0.828-0.039,0.828-0.656c0-0.109-0.016-0.297-0.109-0.43c-0.102-0.133-0.234-0.266-0.781-0.266
			h-2.141V93.141z"/>
		<path d="M593.015,90.82h5.141v0.992h-3.758v1.242h3.633v0.977h-3.633v1.32h3.914v0.984h-5.297V90.82z"/>
		<path d="M600.197,94.625c0.312,0.664,1.102,0.867,1.852,0.867c0.336,0,1.391-0.055,1.391-0.727c0-0.398-0.383-0.492-0.68-0.547
			c-0.227-0.047-1.359-0.219-1.617-0.266c-0.508-0.094-1.789-0.336-1.789-1.586c0-0.273,0.078-0.555,0.219-0.781
			c0.461-0.742,1.477-0.938,2.352-0.938c0.805,0,1.422,0.117,1.992,0.43c0.562,0.305,0.805,0.711,0.914,0.891l-1.312,0.328
			c-0.047-0.086-0.156-0.289-0.484-0.453c-0.367-0.18-0.844-0.211-1.109-0.211c-0.609,0-1.234,0.117-1.234,0.641
			c0,0.359,0.32,0.453,0.734,0.547c0.227,0.047,1.352,0.234,1.609,0.289c0.641,0.117,1.727,0.352,1.727,1.562
			c0,1.773-2.109,1.836-2.805,1.836c-0.906,0-2.305-0.156-3.016-1.555L600.197,94.625z"/>
		<path d="M605.896,90.82h5.141v0.992h-3.758v1.242h3.633v0.977h-3.633v1.32h3.914v0.984h-5.297V90.82z"/>
		<path d="M612.331,90.82h3.797c0.625,0,1.195,0.055,1.656,0.586c0.281,0.328,0.359,0.742,0.359,1.062
			c0,0.422-0.141,0.922-0.531,1.219c-0.297,0.227-0.68,0.305-0.898,0.344l1.672,2.305h-1.625l-1.477-2.219h-1.57v2.219h-1.383V90.82
			z M613.714,93.141h2.203c0.297,0,0.828-0.039,0.828-0.656c0-0.109-0.016-0.297-0.109-0.43c-0.102-0.133-0.234-0.266-0.781-0.266
			h-2.141V93.141z"/>
		<path d="M618.515,90.82h1.523l1.477,3.617c0.086,0.227,0.109,0.297,0.164,0.523c0.07-0.25,0.086-0.312,0.18-0.523l1.484-3.617
			h1.484l-2.477,5.516h-1.344L618.515,90.82z"/>
		<path d="M625.632,90.82h5.141v0.992h-3.758v1.242h3.633v0.977h-3.633v1.32h3.914v0.984h-5.297V90.82z"/>
		<path d="M632.063,90.82h3.016c0.203,0.008,0.406,0.008,0.609,0.031c1.609,0.148,2.406,1.273,2.406,2.695
			c0,0.633-0.156,1.258-0.539,1.766c-0.773,1.008-1.812,1.016-2.648,1.023h-2.844V90.82z M633.438,91.797v3.562h1.523
			c0.492-0.008,1.055-0.016,1.422-0.539c0.164-0.227,0.336-0.609,0.336-1.305c0-0.523-0.117-0.883-0.273-1.133
			c-0.359-0.57-0.938-0.578-1.414-0.586H633.438z"/>
	</g>
</g>
</svg>
