<?xml version="1.0" encoding="utf-8"?>
<!-- Generator: Adobe Illustrator 15.1.0, SVG Export Plug-In . SVG Version: 6.00 Build 0)  -->
<!DOCTYPE svg PUBLIC "-//W3C//DTD SVG 1.1//EN" "http://www.w3.org/Graphics/SVG/1.1/DTD/svg11.dtd">
<svg version="1.1" id="Layer_1" xmlns="http://www.w3.org/2000/svg" xmlns:xlink="http://www.w3.org/1999/xlink" x="0px" y="0px"
	 width="710px" height="221.732px" viewBox="35.833 236.5 710 221.732" enable-background="new 35.833 236.5 710 221.732"
	 xml:space="preserve">
<g id="Layer_4">
</g>
<g id="Layer_2">
</g>
<polygon fill="#B2B2B2" stroke="#000000" points="514,258.75 514,239.333 268.5,239.333 268.5,258.75 39,258.75 39,387.732 
	56.333,387.732 56.333,438.149 726.5,438.149 726.5,387.732 742.874,387.732 742.874,258.75 "/>
<rect x="64.25" y="387.732" fill="#FFFF00" stroke="#000000" width="122.749" height="50.417"/>
<rect x="194.71" y="387.732" fill="#FFFF00" stroke="#000000" width="122.749" height="50.417"/>
<rect x="105" y="387.732" fill="#D424ED" stroke="#000000" width="81.999" height="9.768"/>
<rect x="596.165" y="387.732" fill="#FFFF00" stroke="#000000" width="122.748" height="50.417"/>
<rect x="596.165" y="387.732" fill="#D424ED" stroke="#000000" width="81.998" height="9.768"/>
<rect x="195" y="270.227" fill="#D424ED" stroke="#000000" width="82.249" height="9.728"/>
<rect x="72.666" y="270.227" fill="#D424ED" stroke="#000000" width="114.333" height="9.728"/>
<rect x="596.248" y="270.227" fill="#D424ED" stroke="#000000" width="114.334" height="9.728"/>
<rect x="505.834" y="270.227" fill="#D424ED" stroke="#000000" width="81.166" height="9.728"/>
<rect x="326" y="387.732" fill="#D424ED" stroke="#000000" width="130" height="9.768"/>
<rect x="326" y="330.999" fill="#30D469" stroke="#000000" width="130" height="46.483"/>
<rect x="465" y="279.954" fill="#30D469" stroke="#000000" width="122" height="97.528"/>
<rect x="72.666" y="279.954" fill="#00B8E8" stroke="#000000" width="114.333" height="97.528"/>
<rect x="195" y="279.954" fill="#30D469" stroke="#000000" width="122.333" height="97.528"/>
<rect x="326" y="279.954" fill="#FF9E00" stroke="#000000" width="130" height="51.045"/>
<rect x="326" y="397.5" fill="#00B8E8" stroke="#000000" width="130" height="40.649"/>
<rect x="39" y="279.954" fill="#FFFF00" stroke="#000000" width="25.25" height="97.212"/>
<rect x="284.333" y="248.667" fill="#8C8C8C" stroke="#000000" width="212.667" height="31.287"/>
<rect x="361" y="261.5" fill="none" width="62.833" height="15.667"/>
<g enable-background="new    ">
	<path fill="#FFFFFF" d="M364.528,261.497h3.486c0.6,0,1.375,0.024,1.823,0.664c0.2,0.288,0.312,0.68,0.312,1.111
		c0,0.544-0.176,0.911-0.384,1.159c-0.464,0.56-1.144,0.592-1.871,0.592h-1.975v2.127h-1.392V261.497z M365.92,264.032h1.743
		c0.456,0,1.079-0.008,1.079-0.76c0-0.304-0.104-0.496-0.24-0.624c-0.192-0.168-0.4-0.168-0.992-0.168h-1.591V264.032z"/>
	<path fill="#FFFFFF" d="M371.048,261.506h3.886c0.64,0,1.223,0.056,1.695,0.6c0.288,0.336,0.368,0.76,0.368,1.087
		c0,0.432-0.144,0.943-0.543,1.247c-0.304,0.232-0.696,0.312-0.919,0.353l1.711,2.358h-1.663l-1.511-2.271h-1.607v2.271h-1.416
		V261.506z M372.464,263.88h2.254c0.304,0,0.848-0.04,0.848-0.671c0-0.112-0.016-0.305-0.112-0.44
		c-0.104-0.136-0.24-0.271-0.8-0.271h-2.19V263.88z"/>
	<path fill="#FFFFFF" d="M378.208,261.506h5.261v1.015h-3.846v1.271h3.718v1h-3.718v1.351h4.006v1.008h-5.421V261.506z"/>
	<path fill="#FFFFFF" d="M385.552,265.399c0.32,0.68,1.127,0.888,1.895,0.888c0.344,0,1.423-0.057,1.423-0.744
		c0-0.407-0.392-0.504-0.696-0.56c-0.232-0.048-1.391-0.224-1.655-0.271c-0.52-0.096-1.831-0.344-1.831-1.623
		c0-0.28,0.08-0.568,0.224-0.8c0.472-0.76,1.511-0.959,2.407-0.959c0.824,0,1.455,0.119,2.039,0.439
		c0.576,0.312,0.823,0.728,0.936,0.911l-1.343,0.336c-0.048-0.088-0.16-0.296-0.496-0.464c-0.375-0.184-0.863-0.216-1.135-0.216
		c-0.624,0-1.263,0.12-1.263,0.655c0,0.368,0.328,0.464,0.751,0.561c0.232,0.048,1.383,0.239,1.647,0.296
		c0.656,0.119,1.767,0.359,1.767,1.599c0,1.815-2.159,1.879-2.87,1.879c-0.928,0-2.359-0.16-3.086-1.591L385.552,265.399z"/>
	<path fill="#FFFFFF" d="M392.216,265.399c0.32,0.68,1.127,0.888,1.895,0.888c0.344,0,1.423-0.057,1.423-0.744
		c0-0.407-0.392-0.504-0.696-0.56c-0.232-0.048-1.391-0.224-1.655-0.271c-0.52-0.096-1.831-0.344-1.831-1.623
		c0-0.28,0.08-0.568,0.224-0.8c0.472-0.76,1.511-0.959,2.407-0.959c0.824,0,1.455,0.119,2.039,0.439
		c0.576,0.312,0.824,0.728,0.935,0.911l-1.343,0.336c-0.048-0.088-0.16-0.296-0.496-0.464c-0.375-0.184-0.863-0.216-1.135-0.216
		c-0.624,0-1.263,0.12-1.263,0.655c0,0.368,0.328,0.464,0.751,0.561c0.232,0.048,1.383,0.239,1.647,0.296
		c0.656,0.119,1.767,0.359,1.767,1.599c0,1.815-2.158,1.879-2.87,1.879c-0.928,0-2.359-0.16-3.086-1.591L392.216,265.399z"/>
	<path fill="#FFFFFF" d="M400.872,261.506h3.662c0.583,0.016,1.295,0.031,1.679,0.583c0.2,0.288,0.225,0.6,0.225,0.8
		c0,0.152-0.017,0.472-0.225,0.752c-0.231,0.304-0.535,0.399-0.711,0.447c0.352,0.096,1.223,0.312,1.223,1.439
		c0,0.328-0.072,0.672-0.256,0.951c-0.439,0.664-1.167,0.664-1.719,0.672h-3.878V261.506z M402.271,263.729h2.022
		c0.168,0,0.328-0.008,0.456-0.057c0.336-0.136,0.336-0.512,0.336-0.575c0-0.6-0.456-0.607-0.68-0.607h-2.135V263.729z
		 M402.271,266.159h2.119c0.319,0,0.919,0.008,0.919-0.768c0-0.68-0.536-0.68-0.743-0.68h-2.295V266.159z"/>
	<path fill="#FFFFFF" d="M413.933,262.425c0.231,0.28,0.608,0.903,0.608,1.847c0,1.8-1.168,3.062-3.447,3.062
		c-2.278,0-3.485-1.239-3.485-2.998c0-1.943,1.392-2.927,3.246-3.006C411.966,261.281,413.229,261.569,413.933,262.425z
		 M409.063,264.368c0,0.688,0.256,1.047,0.36,1.183c0.135,0.192,0.551,0.776,1.646,0.776c1.319,0,2.023-0.896,2.023-1.983
		c0-1.263-0.952-2.039-2.08-1.999C410.07,262.377,409.063,263.001,409.063,264.368z"/>
	<path fill="#FFFFFF" d="M414.922,261.506h1.768l1.238,1.654c0.089,0.097,0.104,0.12,0.16,0.24c0.041-0.128,0.057-0.144,0.137-0.248
		l1.287-1.646h1.734L419,264.192l2.574,2.958h-1.791l-1.566-1.943c-0.072-0.104-0.088-0.128-0.129-0.231
		c-0.056,0.128-0.063,0.144-0.144,0.256l-1.552,1.919h-1.799l2.583-2.958L414.922,261.506z"/>
</g>
<rect x="361.667" y="447.315" fill="none" width="61.667" height="21.834"/>
<g enable-background="new    ">
	<path d="M387.604,447.45h4.222l-0.04,0.68h-3.582l-0.096,1.471c0.224-0.176,0.735-0.575,1.719-0.575
		c1.303,0,2.263,0.76,2.263,1.927c0,1.255-1.079,2.11-2.471,2.11c-0.551,0-1.111-0.128-1.575-0.424
		c-0.56-0.367-0.728-0.823-0.832-1.111l0.751-0.159c0.064,0.144,0.168,0.367,0.36,0.56c0.216,0.216,0.664,0.504,1.351,0.504
		c1.144,0,1.615-0.752,1.615-1.416c0-1.039-0.919-1.351-1.559-1.351c-0.536,0-1.312,0.216-1.671,0.911l-0.616-0.12L387.604,447.45z"
		/>
	<path d="M398.074,450.24c0,1.728-0.992,2.847-2.511,2.847c-1.655,0-2.487-1.327-2.487-2.91c0-1.384,0.776-2.814,2.479-2.831
		C397.202,447.33,398.074,448.625,398.074,450.24z M394.436,448.521c-0.472,0.52-0.552,1.231-0.552,1.751
		c0,1.335,0.72,2.167,1.695,2.167c0.4,0,0.784-0.152,1.08-0.424c0.472-0.456,0.615-1.128,0.615-1.783
		c0-0.584-0.127-1.104-0.352-1.471c-0.191-0.32-0.639-0.792-1.367-0.768C395.163,448.002,394.748,448.17,394.436,448.521z"/>
</g>
<rect x="277.667" y="447.315" fill="none" width="61.667" height="21.834"/>
<g enable-background="new    ">
	<path d="M306.499,447.45h0.624V451h0.943v0.632h-0.943v1.327h-0.744v-1.327h-3.198v-0.64L306.499,447.45z M306.378,449.169
		c0-0.12,0-0.239,0.008-0.368c0-0.119,0.008-0.239,0.016-0.367c0,0.016-0.375,0.447-0.416,0.487L304.044,451h2.334V449.169z"/>
	<path d="M313.906,450.24c0,1.728-0.992,2.847-2.511,2.847c-1.655,0-2.487-1.327-2.487-2.91c0-1.384,0.776-2.814,2.479-2.831
		C313.034,447.33,313.906,448.625,313.906,450.24z M310.268,448.521c-0.472,0.52-0.552,1.231-0.552,1.751
		c0,1.335,0.72,2.167,1.695,2.167c0.4,0,0.784-0.152,1.08-0.424c0.472-0.456,0.616-1.128,0.616-1.783
		c0-0.584-0.128-1.104-0.352-1.471c-0.192-0.32-0.64-0.792-1.368-0.768C310.995,448.002,310.58,448.17,310.268,448.521z"/>
</g>
<rect x="445.666" y="447.315" fill="none" width="61.668" height="21.834"/>
<g enable-background="new    ">
	<path d="M474.498,447.45h0.623V451h0.943v0.632h-0.943v1.327h-0.743v-1.327h-3.198v-0.64L474.498,447.45z M474.378,449.169
		c0-0.12,0-0.239,0.008-0.368c0-0.119,0.009-0.239,0.017-0.367c0,0.016-0.376,0.447-0.416,0.487L472.043,451h2.335V449.169z"/>
	<path d="M481.905,450.24c0,1.728-0.991,2.847-2.511,2.847c-1.655,0-2.486-1.327-2.486-2.91c0-1.384,0.775-2.814,2.479-2.831
		C481.033,447.33,481.905,448.625,481.905,450.24z M478.268,448.521c-0.473,0.52-0.553,1.231-0.553,1.751
		c0,1.335,0.721,2.167,1.695,2.167c0.4,0,0.783-0.152,1.08-0.424c0.471-0.456,0.615-1.128,0.615-1.783
		c0-0.584-0.128-1.104-0.352-1.471c-0.192-0.32-0.64-0.792-1.367-0.768C478.994,448.002,478.579,448.17,478.268,448.521z"/>
</g>
<rect x="194.333" y="447.315" fill="none" width="61.667" height="21.834"/>
<g enable-background="new    ">
	<path d="M220.094,448.913c0.08-0.312,0.184-0.775,0.68-1.144c0.424-0.312,0.991-0.415,1.511-0.415c1.423,0,2.183,0.679,2.183,1.551
		c0,0.224-0.064,0.456-0.184,0.64c-0.192,0.296-0.456,0.392-0.655,0.464c0.167,0.063,0.439,0.151,0.695,0.432
		c0.336,0.359,0.36,0.768,0.36,0.959c0,0.992-0.855,1.672-2.319,1.672c-0.288,0-0.919-0.04-1.343-0.208
		c-0.855-0.336-1.031-1.008-1.135-1.392l0.751-0.176c0.072,0.359,0.232,1.127,1.735,1.127c0.815,0,1.487-0.296,1.487-1.063
		c0-0.327-0.136-0.551-0.256-0.671c-0.264-0.256-0.719-0.304-1.383-0.304c-0.176,0-0.352,0-0.536,0.008v-0.6
		c0.384,0.008,0.832,0.008,1.176-0.048c0.56-0.097,0.783-0.416,0.783-0.776c0-0.295-0.152-0.56-0.36-0.719
		c-0.216-0.168-0.543-0.272-0.975-0.272c-0.368,0-0.8,0.088-1.12,0.36c-0.296,0.247-0.328,0.527-0.352,0.711L220.094,448.913z"/>
	<path d="M230.572,450.24c0,1.728-0.992,2.847-2.511,2.847c-1.655,0-2.487-1.327-2.487-2.91c0-1.384,0.776-2.814,2.479-2.831
		C229.7,447.33,230.572,448.625,230.572,450.24z M226.934,448.521c-0.472,0.52-0.552,1.231-0.552,1.751
		c0,1.335,0.72,2.167,1.695,2.167c0.4,0,0.784-0.152,1.08-0.424c0.472-0.456,0.616-1.128,0.616-1.783
		c0-0.584-0.128-1.104-0.352-1.471c-0.192-0.32-0.64-0.792-1.368-0.768C227.661,448.002,227.246,448.17,226.934,448.521z"/>
</g>
<rect x="529.667" y="447.315" fill="none" width="61.667" height="21.834"/>
<g enable-background="new    ">
	<path d="M555.428,448.913c0.08-0.312,0.184-0.775,0.68-1.144c0.424-0.312,0.991-0.415,1.511-0.415c1.423,0,2.183,0.679,2.183,1.551
		c0,0.224-0.063,0.456-0.184,0.64c-0.191,0.296-0.455,0.392-0.655,0.464c0.167,0.063,0.439,0.151,0.695,0.432
		c0.336,0.359,0.36,0.768,0.36,0.959c0,0.992-0.855,1.672-2.319,1.672c-0.288,0-0.919-0.04-1.343-0.208
		c-0.855-0.336-1.031-1.008-1.136-1.392l0.751-0.176c0.072,0.359,0.232,1.127,1.736,1.127c0.814,0,1.486-0.296,1.486-1.063
		c0-0.327-0.136-0.551-0.256-0.671c-0.264-0.256-0.719-0.304-1.383-0.304c-0.176,0-0.352,0-0.536,0.008v-0.6
		c0.384,0.008,0.831,0.008,1.176-0.048c0.56-0.097,0.783-0.416,0.783-0.776c0-0.295-0.151-0.56-0.36-0.719
		c-0.215-0.168-0.543-0.272-0.975-0.272c-0.368,0-0.8,0.088-1.119,0.36c-0.297,0.247-0.328,0.527-0.352,0.711L555.428,448.913z"/>
	<path d="M565.905,450.24c0,1.728-0.991,2.847-2.511,2.847c-1.655,0-2.486-1.327-2.486-2.91c0-1.384,0.775-2.814,2.479-2.831
		C565.033,447.33,565.905,448.625,565.905,450.24z M562.268,448.521c-0.473,0.52-0.553,1.231-0.553,1.751
		c0,1.335,0.721,2.167,1.695,2.167c0.4,0,0.783-0.152,1.08-0.424c0.471-0.456,0.615-1.128,0.615-1.783
		c0-0.584-0.128-1.104-0.352-1.471c-0.192-0.32-0.64-0.792-1.367-0.768C562.994,448.002,562.579,448.17,562.268,448.521z"/>
</g>
<rect x="110.333" y="447.315" fill="none" width="61.667" height="21.834"/>
<g enable-background="new    ">
	<path d="M137.845,452.304h2.774v0.655h-4.518v-0.752c0.704-0.336,1.855-0.896,2.734-1.551c0.408-0.296,0.848-0.68,0.848-1.319
		c0-0.808-0.632-1.295-1.439-1.295c-0.448,0-0.816,0.151-1.047,0.376c-0.368,0.359-0.384,0.815-0.4,1.199l-0.776-0.112
		c0.016-0.319,0.04-0.72,0.312-1.144c0.328-0.52,1-0.983,1.943-0.983c1.479,0,2.207,1.031,2.207,1.935
		c0,0.544-0.24,1.048-0.624,1.432c-0.768,0.768-2.814,1.647-2.814,1.623C137.414,452.319,137.501,452.312,137.845,452.304z"/>
	<path d="M146.572,450.24c0,1.728-0.992,2.847-2.511,2.847c-1.655,0-2.487-1.327-2.487-2.91c0-1.384,0.776-2.814,2.479-2.831
		C145.7,447.33,146.572,448.625,146.572,450.24z M142.934,448.521c-0.472,0.52-0.552,1.231-0.552,1.751
		c0,1.335,0.72,2.167,1.695,2.167c0.4,0,0.784-0.152,1.08-0.424c0.472-0.456,0.616-1.128,0.616-1.783
		c0-0.584-0.128-1.104-0.352-1.471c-0.192-0.32-0.64-0.792-1.368-0.768C143.661,448.002,143.246,448.17,142.934,448.521z"/>
</g>
<rect x="613.666" y="447.315" fill="none" width="61.668" height="21.834"/>
<g enable-background="new    ">
	<path d="M641.179,452.304h2.774v0.655h-4.518v-0.752c0.703-0.336,1.855-0.896,2.734-1.551c0.408-0.296,0.848-0.68,0.848-1.319
		c0-0.808-0.632-1.295-1.439-1.295c-0.447,0-0.815,0.151-1.047,0.376c-0.368,0.359-0.384,0.815-0.4,1.199l-0.775-0.112
		c0.016-0.319,0.04-0.72,0.312-1.144c0.327-0.52,0.999-0.983,1.942-0.983c1.479,0,2.207,1.031,2.207,1.935
		c0,0.544-0.24,1.048-0.624,1.432c-0.768,0.768-2.814,1.647-2.814,1.623C640.747,452.319,640.835,452.312,641.179,452.304z"/>
	<path d="M649.905,450.24c0,1.728-0.991,2.847-2.511,2.847c-1.655,0-2.486-1.327-2.486-2.91c0-1.384,0.775-2.814,2.479-2.831
		C649.033,447.33,649.905,448.625,649.905,450.24z M646.268,448.521c-0.473,0.52-0.553,1.231-0.553,1.751
		c0,1.335,0.721,2.167,1.695,2.167c0.4,0,0.783-0.152,1.08-0.424c0.471-0.456,0.615-1.128,0.615-1.783
		c0-0.584-0.128-1.104-0.352-1.471c-0.192-0.32-0.64-0.792-1.367-0.768C646.994,448.002,646.579,448.17,646.268,448.521z"/>
</g>
<rect x="26.333" y="447.315" fill="none" width="61.667" height="21.834"/>
<g enable-background="new    ">
	<path d="M52.614,448.386c0.312-0.008,0.647-0.017,1.056-0.232c0.408-0.208,0.543-0.472,0.664-0.688h0.6v5.493h-0.792v-4.285
		c-0.472,0.207-0.768,0.231-1.527,0.256V448.386z"/>
	<path d="M62.572,450.24c0,1.728-0.992,2.847-2.511,2.847c-1.655,0-2.487-1.327-2.487-2.91c0-1.384,0.776-2.814,2.479-2.831
		C61.7,447.33,62.572,448.625,62.572,450.24z M58.934,448.521c-0.472,0.52-0.552,1.231-0.552,1.751c0,1.335,0.72,2.167,1.695,2.167
		c0.4,0,0.784-0.152,1.08-0.424c0.472-0.456,0.616-1.128,0.616-1.783c0-0.584-0.128-1.104-0.352-1.471
		c-0.192-0.32-0.64-0.792-1.368-0.768C59.661,448.002,59.246,448.17,58.934,448.521z"/>
</g>
<rect x="697.667" y="447.315" fill="none" width="61.667" height="21.834"/>
<g enable-background="new    ">
	<path d="M723.947,448.386c0.312-0.008,0.647-0.017,1.056-0.232c0.407-0.208,0.544-0.472,0.663-0.688h0.6v5.493h-0.791v-4.285
		c-0.472,0.207-0.768,0.231-1.527,0.256V448.386z"/>
	<path d="M733.905,450.24c0,1.728-0.991,2.847-2.511,2.847c-1.655,0-2.486-1.327-2.486-2.91c0-1.384,0.775-2.814,2.479-2.831
		C733.033,447.33,733.905,448.625,733.905,450.24z M730.268,448.521c-0.473,0.52-0.553,1.231-0.553,1.751
		c0,1.335,0.721,2.167,1.695,2.167c0.4,0,0.783-0.152,1.08-0.424c0.471-0.456,0.615-1.128,0.615-1.783
		c0-0.584-0.128-1.104-0.352-1.471c-0.192-0.32-0.64-0.792-1.367-0.768C730.994,448.002,730.579,448.17,730.268,448.521z"/>
</g>
<rect x="359.5" y="302.667" fill="none" width="62.333" height="12.666"/>
<g enable-background="new    ">
	<path d="M380.014,302.67h2.146l2.079,5.094c0.121,0.319,0.154,0.419,0.231,0.737c0.099-0.352,0.121-0.439,0.253-0.737l2.09-5.094
		h2.09l-3.487,7.768h-1.893L380.014,302.67z"/>
	<path d="M389.804,302.67h1.947v7.768h-1.947V302.67z"/>
	<path d="M393.906,302.659h4.797c0.825,0,1.893,0.033,2.508,0.913c0.275,0.396,0.43,0.936,0.43,1.529
		c0,0.748-0.242,1.254-0.528,1.596c-0.638,0.77-1.573,0.813-2.574,0.813h-2.717v2.927h-1.915V302.659z M395.821,306.146h2.398
		c0.627,0,1.485-0.011,1.485-1.045c0-0.418-0.144-0.682-0.33-0.858c-0.264-0.23-0.55-0.23-1.364-0.23h-2.189V306.146z"/>
</g>
<rect x="225.501" y="319.385" fill="none" width="61.166" height="18.667"/>
<g enable-background="new    ">
	<path d="M240.872,323.284c0.32,0.68,1.127,0.888,1.895,0.888c0.344,0,1.423-0.057,1.423-0.744c0-0.407-0.392-0.504-0.696-0.56
		c-0.232-0.048-1.391-0.224-1.655-0.271c-0.52-0.096-1.831-0.344-1.831-1.623c0-0.28,0.08-0.568,0.224-0.8
		c0.472-0.76,1.511-0.959,2.407-0.959c0.824,0,1.455,0.119,2.039,0.439c0.576,0.312,0.823,0.728,0.936,0.911l-1.343,0.336
		c-0.048-0.088-0.16-0.296-0.496-0.464c-0.375-0.184-0.863-0.216-1.135-0.216c-0.624,0-1.263,0.12-1.263,0.655
		c0,0.368,0.328,0.464,0.751,0.561c0.232,0.048,1.383,0.239,1.647,0.296c0.656,0.119,1.767,0.359,1.767,1.599
		c0,1.815-2.159,1.879-2.87,1.879c-0.928,0-2.359-0.16-3.086-1.591L240.872,323.284z"/>
	<path d="M246.681,319.391h1.407v3.317c0,0.504,0.104,0.928,0.64,1.184c0.456,0.216,0.864,0.2,1.279,0.185
		c0.536-0.049,0.879-0.192,1.104-0.448c0.136-0.16,0.256-0.344,0.24-0.911v-3.326h1.407v3.277c-0.008,0.601-0.008,1.168-0.488,1.695
		c-0.583,0.647-1.671,0.863-2.526,0.863c-0.4,0-0.8-0.039-1.191-0.136c-0.272-0.063-0.624-0.176-0.976-0.407
		c-0.888-0.6-0.896-1.344-0.896-2.016V319.391z"/>
	<path d="M254.36,319.382h3.486c0.6,0,1.375,0.024,1.823,0.664c0.2,0.288,0.312,0.68,0.312,1.111c0,0.544-0.176,0.911-0.384,1.159
		c-0.464,0.56-1.144,0.592-1.871,0.592h-1.975v2.127h-1.392V319.382z M255.752,321.917h1.743c0.456,0,1.079-0.008,1.079-0.76
		c0-0.304-0.104-0.496-0.24-0.624c-0.192-0.168-0.4-0.168-0.992-0.168h-1.591V321.917z"/>
	<path d="M260.873,319.391h5.261v1.015h-3.846v1.271h3.718v1h-3.718v1.351h4.006v1.008h-5.421V319.391z"/>
	<path d="M267.552,319.391h3.886c0.64,0,1.223,0.056,1.695,0.6c0.288,0.336,0.368,0.76,0.368,1.087c0,0.432-0.144,0.943-0.543,1.247
		c-0.304,0.232-0.696,0.312-0.919,0.353l1.711,2.358h-1.663l-1.511-2.271h-1.607v2.271h-1.416V319.391z M268.968,321.765h2.254
		c0.304,0,0.848-0.04,0.848-0.671c0-0.112-0.016-0.305-0.112-0.44c-0.104-0.136-0.24-0.271-0.8-0.271h-2.19V321.765z"/>
</g>
<g enable-background="new    ">
	<path d="M233.108,328.981h3.486c0.6,0,1.375,0.024,1.823,0.664c0.2,0.288,0.312,0.68,0.312,1.111c0,0.544-0.176,0.911-0.384,1.159
		c-0.464,0.56-1.144,0.592-1.871,0.592H234.5v2.127h-1.392V328.981z M234.5,331.517h1.743c0.456,0,1.079-0.008,1.079-0.76
		c0-0.304-0.104-0.496-0.24-0.624c-0.192-0.168-0.4-0.168-0.992-0.168H234.5V331.517z"/>
	<path d="M239.628,328.99h3.886c0.64,0,1.223,0.056,1.695,0.6c0.288,0.336,0.368,0.76,0.368,1.087c0,0.432-0.144,0.943-0.543,1.247
		c-0.304,0.232-0.696,0.312-0.919,0.353l1.711,2.358h-1.663l-1.511-2.271h-1.607v2.271h-1.416V328.99z M241.044,331.364h2.254
		c0.304,0,0.848-0.04,0.848-0.671c0-0.112-0.016-0.305-0.112-0.44c-0.104-0.136-0.24-0.271-0.8-0.271h-2.19V331.364z"/>
	<path d="M246.789,328.99h5.261v1.015h-3.846v1.271h3.718v1h-3.718v1.351h4.006v1.008h-5.421V328.99z"/>
	<path d="M253.46,328.99h2.039l1.472,3.454c0.152,0.367,0.208,0.52,0.288,0.839c0.056-0.239,0.104-0.384,0.264-0.775l1.471-3.518
		h2.023v5.645h-1.335v-3.95c0-0.168,0.024-0.312,0.056-0.527c-0.056,0.168-0.08,0.231-0.16,0.432l-1.687,4.046h-1.288l-1.687-3.966
		c-0.088-0.216-0.104-0.28-0.168-0.512c0.024,0.24,0.032,0.288,0.048,0.504v3.974h-1.335V328.99z"/>
	<path d="M262.636,328.99h1.416v5.645h-1.416V328.99z"/>
	<path d="M265.612,328.99h1.407v3.317c0,0.504,0.104,0.928,0.64,1.184c0.456,0.216,0.864,0.2,1.279,0.185
		c0.536-0.049,0.879-0.192,1.104-0.448c0.136-0.16,0.256-0.344,0.24-0.911v-3.326h1.407v3.277c-0.008,0.601-0.008,1.168-0.488,1.695
		c-0.583,0.647-1.671,0.863-2.526,0.863c-0.4,0-0.8-0.039-1.191-0.136c-0.272-0.063-0.624-0.176-0.976-0.407
		c-0.887-0.6-0.896-1.344-0.896-2.016V328.99z"/>
	<path d="M273.3,328.99h2.039l1.471,3.454c0.152,0.367,0.208,0.52,0.288,0.839c0.056-0.239,0.104-0.384,0.264-0.775l1.471-3.518
		h2.023v5.645h-1.335v-3.95c0-0.168,0.024-0.312,0.056-0.527c-0.056,0.168-0.08,0.231-0.16,0.432l-1.687,4.046h-1.288l-1.687-3.966
		c-0.088-0.216-0.104-0.28-0.168-0.512c0.024,0.24,0.032,0.288,0.048,0.504v3.974H273.3V328.99z"/>
</g>
<rect x="495.499" y="319.648" fill="none" width="61.166" height="18.666"/>
<g enable-background="new    ">
	<path d="M510.87,323.548c0.319,0.68,1.128,0.888,1.896,0.888c0.344,0,1.423-0.057,1.423-0.744c0-0.407-0.392-0.504-0.696-0.56
		c-0.231-0.048-1.391-0.224-1.654-0.271c-0.52-0.096-1.831-0.344-1.831-1.623c0-0.28,0.08-0.568,0.224-0.8
		c0.472-0.76,1.512-0.959,2.406-0.959c0.824,0,1.455,0.119,2.039,0.439c0.576,0.312,0.824,0.728,0.936,0.911l-1.343,0.336
		c-0.048-0.088-0.16-0.296-0.496-0.464c-0.376-0.184-0.863-0.216-1.136-0.216c-0.623,0-1.263,0.12-1.263,0.655
		c0,0.368,0.327,0.464,0.751,0.561c0.232,0.048,1.384,0.239,1.647,0.296c0.655,0.119,1.767,0.359,1.767,1.599
		c0,1.815-2.158,1.879-2.869,1.879c-0.928,0-2.359-0.16-3.087-1.591L510.87,323.548z"/>
	<path d="M516.679,319.654h1.407v3.317c0,0.504,0.104,0.928,0.64,1.184c0.456,0.216,0.864,0.2,1.279,0.185
		c0.536-0.049,0.88-0.192,1.104-0.448c0.136-0.16,0.256-0.344,0.239-0.911v-3.326h1.408v3.277c-0.008,0.601-0.008,1.168-0.488,1.695
		c-0.584,0.647-1.671,0.863-2.526,0.863c-0.399,0-0.8-0.039-1.191-0.136c-0.272-0.063-0.624-0.176-0.976-0.407
		c-0.888-0.6-0.896-1.344-0.896-2.016V319.654z"/>
	<path d="M524.358,319.646h3.486c0.6,0,1.375,0.024,1.823,0.664c0.199,0.288,0.312,0.68,0.312,1.111
		c0,0.544-0.176,0.911-0.384,1.159c-0.464,0.56-1.144,0.592-1.871,0.592h-1.975v2.127h-1.392V319.646z M525.75,322.181h1.743
		c0.456,0,1.079-0.008,1.079-0.76c0-0.304-0.104-0.496-0.24-0.624c-0.191-0.168-0.399-0.168-0.991-0.168h-1.591V322.181z"/>
	<path d="M530.871,319.654h5.261v1.015h-3.847v1.271h3.719v1h-3.719v1.351h4.006v1.008h-5.42V319.654z"/>
	<path d="M537.551,319.654h3.886c0.64,0,1.224,0.056,1.694,0.6c0.288,0.336,0.368,0.76,0.368,1.087c0,0.432-0.144,0.943-0.544,1.247
		c-0.304,0.232-0.695,0.312-0.919,0.353l1.711,2.358h-1.663l-1.512-2.271h-1.606v2.271h-1.415V319.654z M538.966,322.028h2.255
		c0.304,0,0.848-0.04,0.848-0.671c0-0.112-0.017-0.305-0.112-0.44c-0.104-0.136-0.239-0.271-0.8-0.271h-2.19V322.028z"/>
</g>
<g enable-background="new    ">
	<path d="M503.107,329.245h3.486c0.6,0,1.375,0.024,1.823,0.664c0.2,0.288,0.312,0.68,0.312,1.111c0,0.544-0.176,0.911-0.384,1.159
		c-0.464,0.56-1.144,0.592-1.871,0.592h-1.975v2.127h-1.392V329.245z M504.499,331.78h1.743c0.455,0,1.079-0.008,1.079-0.76
		c0-0.304-0.104-0.496-0.239-0.624c-0.192-0.168-0.4-0.168-0.992-0.168h-1.591V331.78z"/>
	<path d="M509.627,329.254h3.887c0.64,0,1.223,0.056,1.695,0.6c0.287,0.336,0.367,0.76,0.367,1.087c0,0.432-0.144,0.943-0.543,1.247
		c-0.305,0.232-0.696,0.312-0.92,0.353l1.711,2.358h-1.663l-1.511-2.271h-1.607v2.271h-1.416V329.254z M511.043,331.628h2.254
		c0.305,0,0.848-0.04,0.848-0.671c0-0.112-0.016-0.305-0.111-0.44c-0.104-0.136-0.24-0.271-0.8-0.271h-2.19V331.628z"/>
	<path d="M516.787,329.254h5.262v1.015h-3.846v1.271h3.718v1h-3.718v1.351h4.006v1.008h-5.422V329.254z"/>
	<path d="M523.459,329.254h2.039l1.472,3.454c0.151,0.367,0.208,0.52,0.288,0.839c0.056-0.239,0.104-0.384,0.264-0.775l1.471-3.518
		h2.023v5.645h-1.336v-3.95c0-0.168,0.024-0.312,0.057-0.527c-0.057,0.168-0.08,0.231-0.16,0.432l-1.688,4.046h-1.287l-1.688-3.966
		c-0.088-0.216-0.104-0.28-0.168-0.512c0.024,0.24,0.033,0.288,0.049,0.504v3.974h-1.336V329.254z"/>
	<path d="M532.635,329.254h1.416v5.645h-1.416V329.254z"/>
	<path d="M535.611,329.254h1.406v3.317c0,0.504,0.104,0.928,0.641,1.184c0.455,0.216,0.863,0.2,1.279,0.185
		c0.535-0.049,0.879-0.192,1.104-0.448c0.135-0.16,0.256-0.344,0.239-0.911v-3.326h1.407v3.277
		c-0.008,0.601-0.008,1.168-0.488,1.695c-0.583,0.647-1.67,0.863-2.525,0.863c-0.4,0-0.801-0.039-1.191-0.136
		c-0.272-0.063-0.624-0.176-0.977-0.407c-0.887-0.6-0.895-1.344-0.895-2.016V329.254z"/>
	<path d="M543.299,329.254h2.039l1.471,3.454c0.152,0.367,0.208,0.52,0.288,0.839c0.056-0.239,0.104-0.384,0.264-0.775l1.472-3.518
		h2.022v5.645h-1.335v-3.95c0-0.168,0.023-0.312,0.056-0.527c-0.056,0.168-0.08,0.231-0.159,0.432l-1.688,4.046h-1.287l-1.688-3.966
		c-0.088-0.216-0.104-0.28-0.168-0.512c0.023,0.24,0.032,0.288,0.048,0.504v3.974h-1.335V329.254z"/>
</g>
<rect x="360.084" y="411.5" fill="none" width="61.167" height="10.334"/>
<g enable-background="new    ">
	<path d="M367.691,411.497h3.486c0.6,0,1.375,0.024,1.823,0.664c0.2,0.288,0.312,0.68,0.312,1.111c0,0.544-0.176,0.911-0.384,1.159
		c-0.464,0.56-1.144,0.592-1.871,0.592h-1.975v2.127h-1.392V411.497z M369.083,414.032h1.743c0.456,0,1.079-0.008,1.079-0.76
		c0-0.304-0.104-0.496-0.24-0.624c-0.192-0.168-0.4-0.168-0.992-0.168h-1.591V414.032z"/>
	<path d="M374.211,411.506h3.886c0.64,0,1.223,0.056,1.695,0.6c0.288,0.336,0.368,0.76,0.368,1.087c0,0.432-0.144,0.943-0.543,1.247
		c-0.304,0.232-0.696,0.312-0.919,0.353l1.711,2.358h-1.663l-1.511-2.271h-1.607v2.271h-1.416V411.506z M375.627,413.88h2.254
		c0.304,0,0.848-0.04,0.848-0.671c0-0.112-0.016-0.305-0.112-0.44c-0.104-0.136-0.24-0.271-0.8-0.271h-2.19V413.88z"/>
	<path d="M381.372,411.506h5.261v1.015h-3.846v1.271h3.718v1h-3.718v1.351h4.006v1.008h-5.421V411.506z"/>
	<path d="M388.043,411.506h2.039l1.472,3.454c0.152,0.367,0.208,0.52,0.288,0.839c0.056-0.239,0.104-0.384,0.264-0.775l1.471-3.518
		h2.023v5.645h-1.335v-3.95c0-0.168,0.024-0.312,0.056-0.527c-0.056,0.168-0.08,0.231-0.16,0.432l-1.687,4.046h-1.288l-1.687-3.966
		c-0.088-0.216-0.104-0.28-0.168-0.512c0.024,0.24,0.032,0.288,0.048,0.504v3.974h-1.335V411.506z"/>
	<path d="M397.219,411.506h1.416v5.645h-1.416V411.506z"/>
	<path d="M400.195,411.506h1.406v3.317c0,0.504,0.104,0.928,0.641,1.184c0.455,0.216,0.863,0.2,1.279,0.185
		c0.535-0.049,0.879-0.192,1.104-0.448c0.135-0.16,0.256-0.344,0.239-0.911v-3.326h1.407v3.277
		c-0.008,0.601-0.008,1.168-0.488,1.695c-0.583,0.647-1.67,0.863-2.525,0.863c-0.4,0-0.801-0.039-1.191-0.136
		c-0.272-0.063-0.624-0.176-0.977-0.407c-0.887-0.6-0.895-1.344-0.895-2.016V411.506z"/>
	<path d="M407.883,411.506h2.039l1.471,3.454c0.152,0.367,0.208,0.52,0.288,0.839c0.056-0.239,0.104-0.384,0.264-0.775l1.472-3.518
		h2.022v5.645h-1.335v-3.95c0-0.168,0.023-0.312,0.056-0.527c-0.056,0.168-0.08,0.231-0.159,0.432l-1.688,4.046h-1.287l-1.688-3.966
		c-0.088-0.216-0.104-0.28-0.168-0.512c0.023,0.24,0.032,0.288,0.048,0.504v3.974h-1.335V411.506z"/>
</g>
<rect x="225.417" y="411.5" fill="none" width="61.167" height="10.334"/>
<g enable-background="new    ">
	<path d="M230.208,411.506h3.886c0.64,0,1.223,0.056,1.695,0.6c0.288,0.336,0.368,0.76,0.368,1.087c0,0.432-0.144,0.943-0.543,1.247
		c-0.304,0.232-0.696,0.312-0.919,0.353l1.711,2.358h-1.663l-1.511-2.271h-1.607v2.271h-1.416V411.506z M231.624,413.88h2.254
		c0.304,0,0.848-0.04,0.848-0.671c0-0.112-0.016-0.305-0.112-0.44c-0.104-0.136-0.24-0.271-0.8-0.271h-2.19V413.88z"/>
	<path d="M237.369,411.506h5.261v1.015h-3.846v1.271h3.718v1h-3.718v1.351h4.006v1.008h-5.421V411.506z"/>
	<path d="M244.712,415.399c0.32,0.68,1.127,0.888,1.895,0.888c0.344,0,1.423-0.057,1.423-0.744c0-0.407-0.392-0.504-0.696-0.56
		c-0.232-0.048-1.391-0.224-1.655-0.271c-0.52-0.096-1.831-0.344-1.831-1.623c0-0.28,0.08-0.568,0.224-0.8
		c0.472-0.76,1.511-0.959,2.407-0.959c0.824,0,1.455,0.119,2.039,0.439c0.576,0.312,0.823,0.728,0.936,0.911l-1.343,0.336
		c-0.048-0.088-0.16-0.296-0.496-0.464c-0.375-0.184-0.863-0.216-1.135-0.216c-0.624,0-1.263,0.12-1.263,0.655
		c0,0.368,0.328,0.464,0.751,0.561c0.232,0.048,1.383,0.239,1.647,0.296c0.656,0.119,1.767,0.359,1.767,1.599
		c0,1.815-2.159,1.879-2.87,1.879c-0.928,0-2.359-0.16-3.086-1.591L244.712,415.399z"/>
	<path d="M250.537,411.506h5.261v1.015h-3.846v1.271h3.718v1h-3.718v1.351h4.006v1.008h-5.421V411.506z"/>
	<path d="M257.216,411.506h3.886c0.64,0,1.223,0.056,1.695,0.6c0.288,0.336,0.368,0.76,0.368,1.087c0,0.432-0.144,0.943-0.543,1.247
		c-0.304,0.232-0.696,0.312-0.919,0.353l1.711,2.358h-1.663l-1.511-2.271h-1.607v2.271h-1.416V411.506z M258.632,413.88h2.254
		c0.304,0,0.848-0.04,0.848-0.671c0-0.112-0.016-0.305-0.112-0.44c-0.104-0.136-0.24-0.271-0.8-0.271h-2.19V413.88z"/>
	<path d="M263.424,411.506h1.559l1.511,3.701c0.088,0.232,0.112,0.305,0.168,0.536c0.072-0.256,0.088-0.319,0.184-0.536l1.519-3.701
		h1.519l-2.535,5.645h-1.375L263.424,411.506z"/>
	<path d="M270.536,411.506h5.261v1.015h-3.846v1.271h3.718v1h-3.718v1.351h4.006v1.008h-5.421V411.506z"/>
	<path d="M277.208,411.506h3.086c0.208,0.008,0.416,0.008,0.624,0.031c1.647,0.152,2.462,1.304,2.462,2.759
		c0,0.647-0.16,1.287-0.551,1.807c-0.792,1.032-1.855,1.04-2.711,1.048h-2.91V411.506z M278.615,412.505v3.646h1.559
		c0.504-0.009,1.08-0.017,1.455-0.552c0.168-0.232,0.344-0.624,0.344-1.336c0-0.535-0.12-0.903-0.28-1.159
		c-0.368-0.584-0.959-0.592-1.447-0.6H278.615z"/>
</g>
<rect x="464.709" y="387.732" fill="#FFFF00" stroke="#000000" width="122.748" height="50.417"/>
<rect x="495.416" y="411.5" fill="none" width="61.167" height="10.334"/>
<g enable-background="new    ">
	<path d="M500.207,411.506h3.887c0.64,0,1.223,0.056,1.695,0.6c0.287,0.336,0.367,0.76,0.367,1.087c0,0.432-0.144,0.943-0.543,1.247
		c-0.305,0.232-0.696,0.312-0.92,0.353l1.711,2.358h-1.663l-1.511-2.271h-1.607v2.271h-1.416V411.506z M501.623,413.88h2.254
		c0.305,0,0.848-0.04,0.848-0.671c0-0.112-0.016-0.305-0.111-0.44c-0.104-0.136-0.24-0.271-0.8-0.271h-2.19V413.88z"/>
	<path d="M507.367,411.506h5.262v1.015h-3.846v1.271h3.718v1h-3.718v1.351h4.006v1.008h-5.422V411.506z"/>
	<path d="M514.711,415.399c0.32,0.68,1.127,0.888,1.895,0.888c0.344,0,1.424-0.057,1.424-0.744c0-0.407-0.392-0.504-0.695-0.56
		c-0.232-0.048-1.392-0.224-1.655-0.271c-0.521-0.096-1.831-0.344-1.831-1.623c0-0.28,0.08-0.568,0.224-0.8
		c0.472-0.76,1.511-0.959,2.407-0.959c0.823,0,1.455,0.119,2.039,0.439c0.575,0.312,0.822,0.728,0.936,0.911l-1.344,0.336
		c-0.049-0.088-0.16-0.296-0.496-0.464c-0.375-0.184-0.863-0.216-1.135-0.216c-0.624,0-1.264,0.12-1.264,0.655
		c0,0.368,0.328,0.464,0.752,0.561c0.231,0.048,1.383,0.239,1.646,0.296c0.656,0.119,1.768,0.359,1.768,1.599
		c0,1.815-2.159,1.879-2.871,1.879c-0.928,0-2.358-0.16-3.086-1.591L514.711,415.399z"/>
	<path d="M520.535,411.506h5.262v1.015h-3.846v1.271h3.718v1h-3.718v1.351h4.006v1.008h-5.422V411.506z"/>
	<path d="M527.215,411.506h3.887c0.64,0,1.223,0.056,1.695,0.6c0.287,0.336,0.367,0.76,0.367,1.087c0,0.432-0.144,0.943-0.543,1.247
		c-0.305,0.232-0.696,0.312-0.92,0.353l1.711,2.358h-1.663l-1.511-2.271h-1.607v2.271h-1.416V411.506z M528.631,413.88h2.254
		c0.305,0,0.848-0.04,0.848-0.671c0-0.112-0.016-0.305-0.111-0.44c-0.104-0.136-0.24-0.271-0.8-0.271h-2.19V413.88z"/>
	<path d="M533.424,411.506h1.559l1.512,3.701c0.088,0.232,0.111,0.305,0.168,0.536c0.071-0.256,0.088-0.319,0.184-0.536l1.52-3.701
		h1.519l-2.534,5.645h-1.375L533.424,411.506z"/>
	<path d="M540.535,411.506h5.262v1.015h-3.847v1.271h3.718v1h-3.718v1.351h4.006v1.008h-5.421V411.506z"/>
	<path d="M547.207,411.506h3.086c0.208,0.008,0.416,0.008,0.624,0.031c1.647,0.152,2.462,1.304,2.462,2.759
		c0,0.647-0.159,1.287-0.551,1.807c-0.792,1.032-1.855,1.04-2.711,1.048h-2.91V411.506z M548.614,412.505v3.646h1.56
		c0.504-0.009,1.079-0.017,1.455-0.552c0.168-0.232,0.344-0.624,0.344-1.336c0-0.535-0.12-0.903-0.28-1.159
		c-0.368-0.584-0.96-0.592-1.447-0.6H548.614z"/>
</g>
<rect x="99.332" y="323.551" fill="none" width="61.167" height="10.334"/>
<g enable-background="new    ">
	<path d="M106.939,323.548h3.486c0.6,0,1.375,0.024,1.823,0.664c0.2,0.288,0.312,0.68,0.312,1.111c0,0.544-0.176,0.911-0.384,1.159
		c-0.464,0.56-1.144,0.592-1.871,0.592h-1.975v2.127h-1.392V323.548z M108.331,326.083h1.743c0.456,0,1.079-0.008,1.079-0.76
		c0-0.304-0.104-0.496-0.24-0.624c-0.192-0.168-0.4-0.168-0.992-0.168h-1.591V326.083z"/>
	<path d="M113.459,323.557h3.886c0.64,0,1.223,0.056,1.695,0.6c0.288,0.336,0.368,0.76,0.368,1.087c0,0.432-0.144,0.943-0.543,1.247
		c-0.304,0.232-0.696,0.312-0.919,0.353l1.711,2.358h-1.663l-1.511-2.271h-1.607v2.271h-1.416V323.557z M114.875,325.931h2.254
		c0.304,0,0.848-0.04,0.848-0.671c0-0.112-0.016-0.305-0.112-0.44c-0.104-0.136-0.24-0.271-0.8-0.271h-2.19V325.931z"/>
	<path d="M120.619,323.557h5.261v1.015h-3.846v1.271h3.718v1h-3.718v1.351h4.006v1.008h-5.421V323.557z"/>
	<path d="M127.291,323.557h2.039l1.472,3.454c0.152,0.367,0.208,0.52,0.288,0.839c0.056-0.239,0.104-0.384,0.264-0.775l1.471-3.518
		h2.023v5.645h-1.335v-3.95c0-0.168,0.024-0.312,0.056-0.527c-0.056,0.168-0.08,0.231-0.16,0.432l-1.687,4.046h-1.288l-1.687-3.966
		c-0.088-0.216-0.104-0.28-0.168-0.512c0.024,0.24,0.032,0.288,0.048,0.504v3.974h-1.335V323.557z"/>
	<path d="M136.467,323.557h1.416v5.645h-1.416V323.557z"/>
	<path d="M139.442,323.557h1.407v3.317c0,0.504,0.104,0.928,0.64,1.184c0.456,0.216,0.864,0.2,1.279,0.185
		c0.536-0.049,0.879-0.192,1.104-0.448c0.136-0.16,0.256-0.344,0.24-0.911v-3.326h1.407v3.277c-0.008,0.601-0.008,1.168-0.488,1.695
		c-0.583,0.647-1.671,0.863-2.526,0.863c-0.4,0-0.8-0.039-1.191-0.136c-0.272-0.063-0.624-0.176-0.976-0.407
		c-0.887-0.6-0.896-1.344-0.896-2.016V323.557z"/>
	<path d="M147.13,323.557h2.039l1.471,3.454c0.152,0.367,0.208,0.52,0.288,0.839c0.056-0.239,0.104-0.384,0.264-0.775l1.471-3.518
		h2.023v5.645h-1.335v-3.95c0-0.168,0.024-0.312,0.056-0.527c-0.056,0.168-0.08,0.231-0.16,0.432l-1.687,4.046h-1.288l-1.687-3.966
		c-0.088-0.216-0.104-0.28-0.168-0.512c0.024,0.24,0.032,0.288,0.048,0.504v3.974h-1.335V323.557z"/>
</g>
<g>
	<rect x="384.75" y="366.166" width="12" height="11"/>
	<rect x="371.667" y="365.727" fill="none" width="38" height="10.612"/>
	<g enable-background="new    ">
		<path fill="#FFFFFF" d="M387.699,368.734h3.086c0.208,0.008,0.416,0.008,0.624,0.031c1.647,0.152,2.462,1.304,2.462,2.759
			c0,0.647-0.16,1.287-0.552,1.807c-0.792,1.032-1.854,1.04-2.71,1.048h-2.91V368.734z M389.106,369.733v3.646h1.559
			c0.504-0.009,1.08-0.017,1.455-0.552c0.168-0.232,0.344-0.624,0.344-1.336c0-0.535-0.12-0.903-0.28-1.159
			c-0.368-0.584-0.959-0.592-1.447-0.6H389.106z"/>
	</g>
</g>
<g>
	<rect x="250.167" y="366.166" width="12" height="11"/>
	<rect x="237.084" y="365.727" fill="none" width="38" height="10.612"/>
	<g enable-background="new    ">
		<path fill="#FFFFFF" d="M259.616,372.46c-0.104,0.352-0.232,0.76-0.736,1.224c-0.456,0.415-1.207,0.887-2.646,0.887
			c-2.007,0-3.398-1.047-3.398-3.021c0-2.127,1.695-2.99,3.478-2.99c0.647,0,2.502,0.144,3.238,1.759l-1.551,0.191
			c-0.152-0.239-0.592-0.911-1.687-0.911c-1.279,0-2.007,0.888-2.007,1.967c0,1.231,0.967,1.967,2.039,1.967
			c1.224,0,1.599-0.72,1.783-1.063L259.616,372.46z"/>
	</g>
</g>
<g>
	<rect x="123.915" y="366.166" width="12" height="11"/>
	<rect x="110.833" y="365.727" fill="none" width="38" height="10.612"/>
	<g enable-background="new    ">
		<path fill="#FFFFFF" d="M127.032,368.734h3.662c0.583,0.016,1.295,0.031,1.679,0.583c0.2,0.288,0.224,0.6,0.224,0.8
			c0,0.152-0.016,0.472-0.224,0.752c-0.232,0.304-0.536,0.399-0.711,0.447c0.352,0.096,1.223,0.312,1.223,1.439
			c0,0.328-0.072,0.672-0.256,0.951c-0.439,0.664-1.167,0.664-1.719,0.672h-3.878V368.734z M128.431,370.957h2.023
			c0.168,0,0.328-0.008,0.456-0.057c0.335-0.136,0.335-0.512,0.335-0.575c0-0.6-0.456-0.607-0.679-0.607h-2.135V370.957z
			 M128.431,373.388h2.119c0.32,0,0.919,0.008,0.919-0.768c0-0.68-0.536-0.68-0.744-0.68h-2.295V373.388z"/>
	</g>
</g>
<rect x="596.166" y="279.954" fill="#00B8E8" stroke="#000000" width="114.332" height="97.528"/>
<rect x="622.832" y="323.551" fill="none" width="61.166" height="10.334"/>
<g enable-background="new    ">
	<path d="M630.439,323.548h3.486c0.6,0,1.375,0.024,1.823,0.664c0.2,0.288,0.312,0.68,0.312,1.111c0,0.544-0.176,0.911-0.384,1.159
		c-0.464,0.56-1.144,0.592-1.871,0.592h-1.975v2.127h-1.392V323.548z M631.831,326.083h1.743c0.455,0,1.079-0.008,1.079-0.76
		c0-0.304-0.104-0.496-0.239-0.624c-0.192-0.168-0.4-0.168-0.992-0.168h-1.591V326.083z"/>
	<path d="M636.959,323.557h3.887c0.64,0,1.223,0.056,1.695,0.6c0.287,0.336,0.367,0.76,0.367,1.087c0,0.432-0.144,0.943-0.543,1.247
		c-0.305,0.232-0.696,0.312-0.92,0.353l1.711,2.358h-1.663l-1.511-2.271h-1.607v2.271h-1.416V323.557z M638.375,325.931h2.254
		c0.305,0,0.848-0.04,0.848-0.671c0-0.112-0.016-0.305-0.111-0.44c-0.104-0.136-0.24-0.271-0.8-0.271h-2.19V325.931z"/>
	<path d="M644.119,323.557h5.262v1.015h-3.846v1.271h3.718v1h-3.718v1.351h4.006v1.008h-5.422V323.557z"/>
	<path d="M650.791,323.557h2.039l1.472,3.454c0.151,0.367,0.208,0.52,0.288,0.839c0.056-0.239,0.104-0.384,0.264-0.775l1.471-3.518
		h2.023v5.645h-1.336v-3.95c0-0.168,0.024-0.312,0.057-0.527c-0.057,0.168-0.08,0.231-0.16,0.432l-1.688,4.046h-1.287l-1.688-3.966
		c-0.088-0.216-0.104-0.28-0.168-0.512c0.024,0.24,0.033,0.288,0.049,0.504v3.974h-1.336V323.557z"/>
	<path d="M659.967,323.557h1.416v5.645h-1.416V323.557z"/>
	<path d="M662.943,323.557h1.406v3.317c0,0.504,0.104,0.928,0.641,1.184c0.455,0.216,0.863,0.2,1.279,0.185
		c0.535-0.049,0.879-0.192,1.104-0.448c0.135-0.16,0.256-0.344,0.239-0.911v-3.326h1.407v3.277
		c-0.008,0.601-0.008,1.168-0.488,1.695c-0.583,0.647-1.67,0.863-2.525,0.863c-0.4,0-0.801-0.039-1.191-0.136
		c-0.272-0.063-0.624-0.176-0.977-0.407c-0.887-0.6-0.895-1.344-0.895-2.016V323.557z"/>
	<path d="M670.631,323.557h2.039l1.471,3.454c0.152,0.367,0.208,0.52,0.288,0.839c0.056-0.239,0.104-0.384,0.264-0.775l1.472-3.518
		h2.022v5.645h-1.335v-3.95c0-0.168,0.023-0.312,0.056-0.527c-0.056,0.168-0.08,0.231-0.159,0.432l-1.688,4.046h-1.287l-1.688-3.966
		c-0.088-0.216-0.104-0.28-0.168-0.512c0.023,0.24,0.032,0.288,0.048,0.504v3.974h-1.335V323.557z"/>
</g>
<g>
	<rect x="647.415" y="366.166" width="12" height="11"/>
	<rect x="634.332" y="365.727" fill="none" width="38" height="10.612"/>
	<g enable-background="new    ">
		<path fill="#FFFFFF" d="M651.039,368.734h5.222v1.015h-3.813v1.447h3.59v1h-3.59v2.183h-1.408V368.734z"/>
	</g>
</g>
<g>
	<rect x="45.708" y="366.166" width="12" height="11"/>
	<rect x="32.625" y="365.727" fill="none" width="38" height="10.612"/>
	<g enable-background="new    ">
		<path fill="#FFFFFF" d="M50.859,368.734h1.527l2.727,5.645H53.53l-0.48-1.063h-2.895l-0.479,1.063h-1.543L50.859,368.734z
			 M51.755,370.469c-0.04-0.071-0.072-0.151-0.096-0.224s-0.04-0.144-0.048-0.224c-0.024,0.072-0.04,0.136-0.056,0.199
			c-0.032,0.072-0.056,0.145-0.088,0.217l-0.855,1.879h1.983L51.755,370.469z"/>
	</g>
</g>
<rect x="717.624" y="279.954" fill="#FFFF00" stroke="#000000" width="25.25" height="97.212"/>
<g>
	<rect x="724.332" y="366.166" width="12" height="11"/>
	<rect x="711.25" y="365.727" fill="none" width="37.999" height="10.612"/>
	<g enable-background="new    ">
		<path fill="#FFFFFF" d="M732.502,373.731c-0.607,0.592-1.479,0.815-2.334,0.815c-2.67,0-3.406-1.663-3.406-3.015
			c0-0.735,0.264-1.447,0.768-1.99c0.936-1,2.398-1,2.838-1c0.553,0,1.439,0.064,2.215,0.536c0.616,0.384,0.855,0.815,1,1.071
			l-1.559,0.216c-0.232-0.28-0.641-0.775-1.711-0.775c-1.208,0-2.096,0.703-2.096,1.959c0,1.104,0.76,1.967,2.135,1.967
			c0.672,0,1.231-0.216,1.584-0.496c0.335-0.264,0.399-0.487,0.463-0.647h-1.854v-1.016h3.038v3.022h-1.08V373.731z"/>
	</g>
</g>
<g>
	<rect x="520.082" y="366.166" width="12" height="11"/>
	<rect x="507" y="365.727" fill="none" width="37.999" height="10.612"/>
	<g enable-background="new    ">
		<path fill="#FFFFFF" d="M523.447,368.734h5.261v1.015h-3.847v1.271h3.719v1h-3.719v1.351h4.006v1.008h-5.42V368.734z"/>
	</g>
</g>
<g>
	<rect x="384.75" y="427.149" width="12" height="11"/>
	<rect x="371.667" y="426.709" fill="none" width="38" height="10.613"/>
	<g enable-background="new    ">
		<path fill="#FFFFFF" d="M391.958,429.718v3.861c-0.008,0.448-0.024,1.063-0.527,1.487c-0.336,0.288-0.832,0.424-1.383,0.424
			c-0.384,0-0.672-0.063-1.032-0.144v-1.168c0.248,0.04,0.568,0.096,0.808,0.096c0.712,0,0.736-0.527,0.736-0.751v-3.806H391.958z"
			/>
	</g>
</g>
<g>
	<rect x="250.167" y="427.149" width="12" height="11"/>
	<rect x="237.084" y="426.709" fill="none" width="38" height="10.613"/>
	<g enable-background="new    ">
		<path fill="#FFFFFF" d="M254.553,435.139v-0.918h0.824v-3.598h-0.824v-0.918h3.07v0.918h-0.832v3.598h0.832v0.918H254.553z"/>
	</g>
</g>
<g>
	<rect x="123.915" y="427.149" width="12" height="11"/>
	<rect x="110.833" y="426.709" fill="none" width="38" height="10.613"/>
	<g enable-background="new    ">
		<path fill="#FFFFFF" d="M126.696,429.718h1.415v2.175h3.414v-2.175h1.416v5.645h-1.416v-2.423h-3.414v2.423h-1.415V429.718z"/>
	</g>
</g>
<g>
	<rect x="647.415" y="427.149" width="12" height="11"/>
	<rect x="634.332" y="426.709" fill="none" width="38" height="10.613"/>
	<g enable-background="new    ">
		<path fill="#FFFFFF" d="M651.287,429.718h1.416v4.605h3.135v1.039h-4.551V429.718z"/>
	</g>
</g>
<g>
	<rect x="520.082" y="427.149" width="12" height="11"/>
	<rect x="507" y="426.709" fill="none" width="37.999" height="10.613"/>
	<g enable-background="new    ">
		<path fill="#FFFFFF" d="M523.291,429.718h1.4v2.471l2.758-2.471h1.814l-2.75,2.383l3.135,3.262h-1.887l-2.215-2.431l-0.855,0.735
			v1.695h-1.4V429.718z"/>
	</g>
</g>
</svg>
