<?xml version="1.0" encoding="utf-8"?>
<!-- Generator: Adobe Illustrator 16.0.0, SVG Export Plug-In . SVG Version: 6.00 Build 0)  -->
<!DOCTYPE svg PUBLIC "-//W3C//DTD SVG 1.1//EN" "http://www.w3.org/Graphics/SVG/1.1/DTD/svg11.dtd">
<svg version="1.1" id="Layer_1" xmlns="http://www.w3.org/2000/svg" xmlns:xlink="http://www.w3.org/1999/xlink" x="0px" y="0px"
	 width="1003.399px" height="716.111px" viewBox="0 0 1003.399 716.111" enable-background="new 0 0 1003.399 716.111"
	 xml:space="preserve">
<path fill-rule="evenodd" clip-rule="evenodd" fill="#FFFFFF" d="M448.354,123.932c0,87.896,0,173.419,0,261.294
	c49.435-77.958,117.981-119.255,208.975-117.131c91.183,2.129,157.671,46.647,203.802,125.14c0-40.396,0-80.791,0-121.717
	c47.423,0,93.482,0,140.265,0c0,148.023,0,295.713,0,444.559c-18.316,0-36.14,0-53.963,0c-241.463,0-482.925,0.104-724.386-0.048
	c-110.384-0.069-203.832-80.663-220.5-189.574c-18.601-121.532,66.798-237.171,188.031-254.349
	c31.925-4.525,63.556-2.896,94.589,6.541c2.826,0.859,5.759,1.359,10.048,2.351c0-93.868,0-186.865,0-280.363
	c3.289-0.214,5.341-0.465,7.394-0.465c163.707,0.029,327.418-0.582,491.119,0.365c99.328,0.577,190.139,80.955,204.79,179.352
	c2.973,19.956,3.29,40.307,4.883,61.152c-22.531,0-43.003,0-64.043,0c3.115-9.581,7.15-18.109,8.583-27.052
	c7.018-43.801-23.948-81.819-68.258-82.46c-58.909-0.851-117.854-0.968-176.76,0.015c-53.446,0.89-85.407,55.288-61.551,102.863
	c0.792,1.577,1.442,3.226,3.056,6.872C558.494,236.094,494.222,197.875,448.354,123.932z M726.398,486.222
	c-0.917-3.565-1.62-6.202-2.27-8.849c-10.068-40.976-50.953-65.978-91.359-55.858c-41.479,10.39-65.94,52.257-55.056,93.559
	c6.994,26.543,35.881,54.392,69.497,53.491c67.001-1.795,134.085-0.53,201.134-0.53c3.877,0,7.754,0,12.047,0
	c0-27.886,0-54.62,0-81.813C815.385,486.222,771.16,486.222,726.398,486.222z M299.231,495.086
	c0.022-41.702-34.296-75.938-76.012-75.828c-41.535,0.108-75.699,34.701-75.501,76.442c0.194,40.914,34.854,75.016,76.11,74.884
	C265.12,570.455,299.209,536.322,299.231,495.086z"/>
<path fill-rule="evenodd" clip-rule="evenodd" fill="#FFFFFF" d="M791.231,162.352c27.907,0.002,55.813-0.066,83.719,0.023
	c22.699,0.07,39.802,16.307,40.362,38.105c0.574,22.4-14.842,40.05-37.795,40.314c-57.626,0.658-115.267,0.63-172.892,0.028
	c-22.701-0.237-39.367-18.706-38.462-40.027c0.922-21.763,18.227-38.326,40.437-38.417
	C734.809,162.265,763.021,162.352,791.231,162.352z"/>
<path fill-rule="evenodd" clip-rule="evenodd" fill="none" d="M726.398,486.222c44.762,0,88.986,0,133.993,0
	c0,27.193,0,53.927,0,81.813c-4.293,0-8.17,0-12.047,0c-67.049,0-134.132-1.265-201.134,0.53
	c-33.615,0.9-62.503-26.948-69.497-53.491c-10.885-41.302,13.576-83.169,55.056-93.559c40.406-10.119,81.291,14.883,91.359,55.858
	C724.778,480.02,725.481,482.656,726.398,486.222z"/>
<path fill-rule="evenodd" clip-rule="evenodd" fill="none" d="M299.231,495.086c-0.022,41.236-34.111,75.369-75.403,75.499
	c-41.257,0.132-75.917-33.971-76.11-74.884c-0.198-41.741,33.967-76.334,75.501-76.442
	C264.935,419.147,299.254,453.384,299.231,495.086z"/>
</svg>
