<?xml version="1.0" encoding="utf-8"?>
<!-- Generator: Adobe Illustrator 15.1.0, SVG Export Plug-In . SVG Version: 6.00 Build 0)  -->
<!DOCTYPE svg PUBLIC "-//W3C//DTD SVG 1.1//EN" "http://www.w3.org/Graphics/SVG/1.1/DTD/svg11.dtd">
<svg version="1.1" id="Layer_1" xmlns="http://www.w3.org/2000/svg" xmlns:xlink="http://www.w3.org/1999/xlink" x="0px" y="0px"
	 width="334.667px" height="39px" viewBox="-61.167 0 334.667 39" enable-background="new -61.167 0 334.667 39"
	 xml:space="preserve">
<path fill="#B4975A" d="M203.75,19.5c0,6.902-5.786,12.5-12.922,12.5H21.171C14.035,32,8.25,26.402,8.25,19.5l0,0
	C8.25,12.598,14.035,7,21.171,7h169.657C197.964,7,203.75,12.598,203.75,19.5L203.75,19.5z"/>
<g enable-background="new    ">
	<path fill="#CA3032" d="M20.846,16.614c-0.41-0.372-0.703-0.72-0.882-1.044c-0.178-0.324-0.269-0.696-0.269-1.115
		c0-0.389,0.092-0.77,0.275-1.145c0.182-0.375,0.434-0.713,0.756-1.01c0.322-0.296,0.682-0.529,1.078-0.699
		c0.396-0.17,0.797-0.256,1.207-0.256c0.426,0,0.793,0.115,1.096,0.344c0.305,0.229,0.457,0.502,0.457,0.819
		c0,0.189-0.066,0.356-0.201,0.498c-0.135,0.144-0.303,0.214-0.502,0.214c-0.2,0-0.396-0.099-0.588-0.297
		c0.201,0.047,0.317,0.071,0.354,0.071c0.122,0,0.225-0.042,0.307-0.125c0.084-0.083,0.125-0.188,0.125-0.313
		c0-0.215-0.095-0.396-0.281-0.547c-0.188-0.15-0.416-0.226-0.686-0.226c-0.331,0-0.601,0.095-0.809,0.284
		c-0.209,0.189-0.313,0.436-0.313,0.736c0,0.396,0.165,0.729,0.496,1.002s0.938,0.571,1.827,0.896
		c0.8,0.284,1.379,0.604,1.736,0.955c0.356,0.352,0.535,0.77,0.535,1.252c0,0.332-0.101,0.61-0.301,0.836
		c-0.199,0.226-0.5,0.386-0.9,0.479c0.609,0.871,0.914,1.832,0.914,2.883c0,0.658-0.121,1.313-0.364,1.971
		c-0.244,0.656-0.587,1.26-1.031,1.811c-0.444,0.549-0.997,1.049-1.657,1.5c-0.558,0.373-1.197,0.658-1.918,0.86
		c-0.723,0.202-1.453,0.303-2.193,0.303c-0.393,0-0.766-0.04-1.123-0.118l0.052-0.345c0.383,0.048,0.688,0.071,0.914,0.071
		c1,0,1.94-0.221,2.819-0.665c0.879-0.442,1.572-1.04,2.082-1.792c0.509-0.751,0.763-1.559,0.763-2.42
		c0-0.775-0.185-1.471-0.556-2.088c-0.369-0.617-0.875-1.1-1.521-1.448c-0.644-0.349-1.362-0.522-2.153-0.522
		c-0.625,0-1.205,0.117-1.736,0.351c-0.53,0.233-0.948,0.56-1.252,0.979c-0.305,0.418-0.457,0.873-0.457,1.363
		c0,0.609,0.224,1.122,0.672,1.537c0.447,0.416,1.007,0.623,1.677,0.623c0.461,0,0.835-0.1,1.122-0.297s0.432-0.447,0.432-0.748
		c0-0.221-0.084-0.401-0.248-0.54c-0.166-0.138-0.388-0.208-0.666-0.208c-0.123,0-0.283,0.031-0.483,0.095
		c0.069-0.616,0.348-0.925,0.835-0.925c0.305,0,0.568,0.128,0.79,0.385c0.222,0.258,0.333,0.568,0.333,0.932
		c0,0.506-0.207,0.925-0.62,1.252c-0.414,0.328-0.946,0.492-1.599,0.492c-0.574,0-1.107-0.14-1.6-0.42
		c-0.492-0.281-0.883-0.656-1.174-1.127c-0.292-0.472-0.438-0.984-0.438-1.537c0-0.666,0.232-1.289,0.697-1.875
		s1.077-1.057,1.834-1.412C19.266,16.792,20.044,16.614,20.846,16.614z M25.047,17.836c0.583-0.109,0.875-0.436,0.875-0.973
		c0-0.364-0.148-0.672-0.443-0.926s-0.787-0.502-1.475-0.748c-0.688-0.262-1.145-0.455-1.371-0.582
		c-0.226-0.125-0.447-0.301-0.666-0.521c-0.277-0.333-0.431-0.744-0.457-1.234c-0.209,0.349-0.312,0.657-0.312,0.926
		c0,0.531,0.238,1.049,0.718,1.555c0.209,0.229,0.735,0.633,1.58,1.21c0.278,0.174,0.562,0.381,0.848,0.623
		C24.63,17.407,24.865,17.63,25.047,17.836z"/>
</g>
<g enable-background="new    ">
	<path fill="#FFFFFF" d="M42.797,19.458c0,4.083-3.138,6.579-6.941,6.579c-3.762,0-6.754-2.646-6.754-6.296
		c0-3.403,2.619-6.56,7.004-6.56C39.618,13.182,42.797,15.658,42.797,19.458z M31.223,19.212c0,3.554,2.141,6.146,5.07,6.146
		c2.328,0,4.385-1.758,4.385-5.389c0-3.988-2.285-6.105-5.029-6.105C33.342,13.861,31.223,15.658,31.223,19.212z"/>
	<path fill="#FFFFFF" d="M56.562,25.904c-0.25,0-0.5,0-0.729-0.019c-1.58-0.075-2.432-0.491-3.367-1.72
		c-0.729-0.928-1.476-2.1-2.099-3.025c-0.354-0.529-0.707-0.756-1.767-0.756h-0.666v3.006c0,1.607,0.188,1.721,1.83,1.834v0.529
		H44.32v-0.529c1.703-0.113,1.871-0.227,1.871-1.834v-7.6c0-1.607-0.168-1.664-1.787-1.796v-0.529h5.154
		c1.517,0,2.535,0.171,3.305,0.644c0.852,0.492,1.392,1.342,1.392,2.477c0,1.626-1.122,2.628-2.639,3.252
		c0.353,0.605,1.226,1.872,1.85,2.723c0.748,0.983,1.164,1.476,1.683,1.967c0.541,0.566,1.041,0.774,1.498,0.889L56.562,25.904z
		 M48.934,19.779c1.039,0,1.726-0.15,2.246-0.547c0.811-0.567,1.143-1.323,1.143-2.344c0-2.043-1.477-2.799-3.034-2.799
		c-0.603,0-0.956,0.075-1.123,0.189c-0.166,0.094-0.229,0.302-0.229,0.832v4.67h0.998V19.779z"/>
	<path fill="#FFFFFF" d="M63.154,13.465c2.639,0,4.572,0.473,5.859,1.607c1.039,0.906,1.768,2.287,1.768,4.063
		c0,2.269-0.977,3.952-2.557,5.048c-1.559,1.098-3.637,1.569-6.172,1.569h-4.904v-0.51c1.787-0.114,1.953-0.228,1.953-1.834v-7.601
		c0-1.625-0.166-1.701-1.767-1.814v-0.529H63.154L63.154,13.465z M60.868,23.277c0,1.437,0.687,1.796,2.202,1.796
		c3.867,0,5.675-2.646,5.675-5.673c0-1.946-0.79-3.647-2.452-4.536c-0.936-0.529-2.141-0.775-3.533-0.775
		c-0.873,0-1.412,0.095-1.621,0.246c-0.187,0.113-0.27,0.321-0.27,1.078L60.868,23.277L60.868,23.277z"/>
	<path fill="#FFFFFF" d="M82.882,22.768c-0.125,0.623-0.54,2.4-0.728,2.986H72.137v-0.529c1.891-0.132,2.059-0.283,2.059-1.834
		v-7.523c0-1.684-0.168-1.758-1.787-1.872v-0.529h9.27c0,0.474,0.104,1.759,0.165,2.722l-0.603,0.076
		c-0.188-0.794-0.395-1.209-0.665-1.606c-0.291-0.416-0.853-0.548-2.349-0.548h-1.58c-0.645,0-0.687,0.057-0.687,0.604v4.312h1.954
		c1.891,0,1.995-0.151,2.244-1.418h0.604v3.61h-0.604c-0.27-1.343-0.416-1.456-2.225-1.456H75.96v3.573
		c0,0.89,0.125,1.306,0.499,1.531c0.395,0.245,1.123,0.245,2.162,0.245c1.58,0,2.161-0.15,2.619-0.643
		c0.353-0.378,0.748-1.039,1.039-1.777L82.882,22.768z"/>
	<path fill="#FFFFFF" d="M96.374,25.904c-0.25,0-0.499,0-0.728-0.019c-1.58-0.075-2.433-0.491-3.367-1.72
		c-0.729-0.928-1.477-2.1-2.1-3.025c-0.353-0.529-0.707-0.756-1.767-0.756h-0.665v3.006c0,1.607,0.188,1.721,1.829,1.834v0.529
		h-5.445v-0.529c1.705-0.113,1.871-0.227,1.871-1.834v-7.6c0-1.607-0.166-1.664-1.787-1.796v-0.529h5.154
		c1.517,0,2.536,0.171,3.305,0.644c0.853,0.492,1.392,1.342,1.392,2.477c0,1.626-1.121,2.628-2.639,3.252
		c0.354,0.605,1.227,1.872,1.85,2.723c0.748,0.983,1.164,1.476,1.684,1.967c0.541,0.566,1.04,0.774,1.497,0.889L96.374,25.904z
		 M88.746,19.779c1.039,0,1.725-0.15,2.245-0.547c0.811-0.567,1.143-1.323,1.143-2.344c0-2.043-1.476-2.799-3.034-2.799
		c-0.603,0-0.955,0.075-1.123,0.189c-0.166,0.094-0.229,0.302-0.229,0.832v4.67h0.998V19.779z"/>
	<path fill="#FFFFFF" d="M112.652,16.396c-0.208-0.908-0.416-1.381-0.646-1.684c-0.354-0.454-0.686-0.605-2.265-0.605h-1.455v9.322
		c0,1.492,0.166,1.682,2.12,1.795v0.529h-5.944v-0.529c1.892-0.113,2.058-0.303,2.058-1.795v-9.322h-1.289
		c-1.725,0-2.141,0.17-2.41,0.586c-0.25,0.322-0.416,0.871-0.666,1.701h-0.603c0.104-1.134,0.208-2.363,0.249-3.402h0.416
		c0.291,0.435,0.561,0.473,1.143,0.473h8.209c0.562,0,0.728-0.113,1.042-0.473h0.436c0.021,0.869,0.104,2.25,0.229,3.346
		L112.652,16.396z"/>
	<path fill="#FFFFFF" d="M114.59,25.754v-0.529c1.704-0.113,1.87-0.227,1.87-1.834v-7.562c0-1.606-0.166-1.722-1.87-1.834v-0.529
		h5.507v0.529c-1.704,0.112-1.87,0.228-1.87,1.834v7.562c0,1.627,0.166,1.721,1.87,1.834v0.529H114.59z"/>
	<path fill="#FFFFFF" d="M134.003,22.634c-0.291,0.87-0.811,2.269-1.185,2.912c-0.582,0.113-2.328,0.492-3.824,0.492
		c-5.175,0-7.44-3.252-7.44-6.259c0-3.988,3.367-6.598,8.002-6.598c1.685,0,3.099,0.416,3.68,0.51
		c0.167,1.06,0.291,1.834,0.416,2.836l-0.604,0.152c-0.562-2.005-1.809-2.818-4.053-2.818c-3.471,0-5.32,2.666-5.32,5.539
		c0,3.537,2.286,5.957,5.445,5.957c2.119,0,3.242-1.041,4.281-2.912L134.003,22.634z"/>
	<path fill="#FFFFFF" d="M145.147,25.754c-1.621-1.645-3.307-3.498-5.154-5.501c-0.499-0.511-0.771-0.567-1.122-0.511v3.592
		c0,1.645,0.187,1.777,1.912,1.891v0.529h-5.404v-0.529c1.58-0.113,1.746-0.246,1.746-1.891v-7.411c0-1.72-0.166-1.815-1.808-1.928
		v-0.529h5.359v0.529c-1.601,0.112-1.808,0.246-1.808,1.928v3.31c0.457-0.096,0.872-0.359,1.454-0.852
		c1.144-1.002,2.536-2.326,3.471-3.365c0.624-0.681,0.604-0.869-0.332-0.964l-0.479-0.057v-0.529h4.986v0.529
		c-1.559,0.132-2.058,0.321-3.366,1.418c-0.812,0.662-2.285,2.022-3.68,3.31c1.562,1.795,3.847,4.12,4.885,5.141
		c1.103,1.078,1.519,1.248,2.517,1.361v0.529H145.147L145.147,25.754z"/>
	<path fill="#FFFFFF" d="M159.804,22.768c-0.125,0.623-0.541,2.4-0.728,2.986h-10.02v-0.529c1.894-0.132,2.06-0.283,2.06-1.834
		v-7.523c0-1.684-0.166-1.758-1.787-1.872v-0.529h9.269c0,0.474,0.104,1.759,0.166,2.722l-0.603,0.076
		c-0.188-0.794-0.396-1.209-0.665-1.606c-0.291-0.416-0.854-0.548-2.348-0.548h-1.58c-0.646,0-0.688,0.057-0.688,0.604v4.312h1.953
		c1.892,0,1.995-0.151,2.245-1.418h0.603v3.61h-0.603c-0.271-1.343-0.416-1.456-2.224-1.456h-1.977v3.573
		c0,0.89,0.125,1.306,0.499,1.531c0.396,0.245,1.122,0.245,2.161,0.245c1.579,0,2.161-0.15,2.618-0.643
		c0.354-0.378,0.748-1.039,1.039-1.777L159.804,22.768z"/>
	<path fill="#FFFFFF" d="M171.861,16.396c-0.208-0.908-0.416-1.381-0.646-1.684c-0.353-0.454-0.686-0.605-2.265-0.605h-1.455v9.322
		c0,1.492,0.166,1.682,2.12,1.795v0.529h-5.944v-0.529c1.894-0.113,2.06-0.303,2.06-1.795v-9.322h-1.288
		c-1.728,0-2.143,0.17-2.411,0.586c-0.249,0.322-0.416,0.871-0.665,1.701h-0.604c0.104-1.134,0.208-2.363,0.249-3.402h0.416
		c0.291,0.435,0.562,0.473,1.145,0.473h8.209c0.562,0,0.728-0.113,1.04-0.473h0.436c0.021,0.869,0.104,2.25,0.229,3.346
		L171.861,16.396z"/>
	<path fill="#FFFFFF" d="M181.093,16.32c-0.354-1.191-0.915-2.496-2.723-2.496c-1.603,0-2.309,1.04-2.309,2.061
		c0,1.381,0.997,2.042,2.642,2.799c1.642,0.774,3.595,1.645,3.595,3.78c0,1.985-1.85,3.573-4.613,3.573
		c-0.853,0-1.536-0.15-2.035-0.284c-0.521-0.151-0.831-0.303-1.039-0.397c-0.146-0.396-0.415-2.022-0.562-2.93l0.623-0.133
		c0.312,1.153,1.247,3.062,3.408,3.062c1.579,0,2.494-0.889,2.494-2.269c0-1.399-1.146-2.062-2.702-2.817
		c-1.33-0.662-3.429-1.588-3.429-3.725c0-1.814,1.601-3.365,4.279-3.365c0.956,0,1.829,0.209,2.618,0.436
		c0.083,0.662,0.188,1.417,0.354,2.609L181.093,16.32z"/>
</g>
<g enable-background="new    ">
	<path fill="#CA3032" d="M190.361,16.614c0.616,0,1.219,0.103,1.802,0.309c0.582,0.206,1.101,0.483,1.553,0.831
		s0.815,0.755,1.09,1.223c0.275,0.467,0.411,0.953,0.411,1.459c0,0.553-0.146,1.067-0.438,1.541
		c-0.291,0.476-0.683,0.852-1.168,1.127c-0.487,0.276-1.02,0.416-1.594,0.416c-0.645,0-1.171-0.162-1.578-0.486
		c-0.408-0.324-0.613-0.744-0.613-1.258c0-0.373,0.104-0.685,0.312-0.938c0.209-0.253,0.472-0.379,0.783-0.379
		c0.496,0,0.771,0.308,0.822,0.925c-0.185-0.062-0.344-0.095-0.483-0.095c-0.27,0-0.48,0.071-0.639,0.213
		c-0.157,0.144-0.235,0.32-0.235,0.534c0,0.293,0.144,0.54,0.424,0.742c0.283,0.201,0.646,0.303,1.092,0.303
		c0.679,0,1.24-0.208,1.688-0.623s0.672-0.927,0.672-1.537c0-0.49-0.15-0.945-0.456-1.363c-0.305-0.42-0.723-0.746-1.253-0.979
		c-0.529-0.233-1.112-0.351-1.749-0.351c-0.792,0-1.51,0.176-2.152,0.528c-0.646,0.353-1.148,0.834-1.516,1.447
		c-0.363,0.612-0.548,1.308-0.548,2.083c0,0.861,0.256,1.671,0.771,2.426c0.514,0.755,1.21,1.354,2.089,1.792
		s1.812,0.659,2.806,0.659c0.235,0,0.54-0.023,0.914-0.071l0.052,0.345c-0.354,0.078-0.729,0.119-1.122,0.119
		c-1.608,0-2.982-0.389-4.125-1.164c-0.635-0.435-1.179-0.932-1.631-1.488c-0.453-0.559-0.801-1.166-1.044-1.821
		c-0.244-0.657-0.366-1.313-0.366-1.97c0-0.569,0.067-1.074,0.203-1.514c0.135-0.438,0.367-0.896,0.698-1.371
		c-0.392-0.095-0.69-0.254-0.896-0.479c-0.203-0.226-0.307-0.504-0.307-0.836c0-0.481,0.176-0.897,0.528-1.246
		c0.352-0.349,0.934-0.668,1.743-0.961c0.606-0.222,1.077-0.423,1.407-0.604c0.33-0.183,0.567-0.379,0.713-0.588
		c0.144-0.209,0.216-0.445,0.216-0.705c0-0.301-0.104-0.547-0.313-0.736s-0.48-0.284-0.821-0.284c-0.262,0-0.484,0.075-0.673,0.226
		c-0.188,0.15-0.279,0.332-0.279,0.547c0,0.118,0.04,0.221,0.116,0.309c0.078,0.087,0.185,0.13,0.313,0.13
		c0.043,0,0.156-0.024,0.339-0.071c-0.183,0.198-0.379,0.297-0.587,0.297c-0.2,0-0.366-0.07-0.496-0.214
		c-0.131-0.142-0.196-0.309-0.196-0.498c0-0.315,0.15-0.589,0.45-0.819c0.301-0.229,0.668-0.344,1.104-0.344
		c0.417,0,0.827,0.088,1.231,0.262s0.766,0.406,1.076,0.699c0.312,0.293,0.561,0.625,0.737,0.998
		c0.179,0.371,0.268,0.754,0.268,1.15c0,0.419-0.087,0.793-0.261,1.121C191.075,15.904,190.779,16.25,190.361,16.614z
		 M186.159,17.836c0.435-0.458,0.952-0.891,1.553-1.293c0.812-0.554,1.336-0.957,1.579-1.21c0.479-0.522,0.718-1.04,0.718-1.554
		c0-0.277-0.106-0.586-0.326-0.926c-0.018,0.482-0.165,0.894-0.441,1.233c-0.185,0.206-0.396,0.375-0.642,0.511
		c-0.242,0.135-0.709,0.332-1.396,0.592c-0.679,0.246-1.171,0.496-1.476,0.748c-0.306,0.254-0.456,0.562-0.456,0.927
		C185.271,17.4,185.567,17.727,186.159,17.836z"/>
</g>
</svg>
